<mxfile host="Electron" modified="2024-04-14T09:53:17.760Z" agent="Mozilla/5.0 (X11; Linux x86_64) AppleWebKit/537.36 (KHTML, like Gecko) draw.io/24.1.0 Chrome/120.0.6099.109 Electron/28.1.0 Safari/537.36" etag="BqqXbGEqu5yE0wKgmbn8" version="24.1.0" type="device">
  <diagram name="第 1 页" id="JZqddXyfSLxjuB660yXT">
    <mxGraphModel dx="2049" dy="-8336" grid="0" gridSize="10" guides="1" tooltips="1" connect="1" arrows="1" fold="1" page="0" pageScale="1" pageWidth="827" pageHeight="1169" math="0" shadow="0">
      <root>
        <mxCell id="0" />
        <mxCell id="1" parent="0" />
        <UserObject label="" plantUmlData="{&#xa;  &quot;data&quot;: &quot;@startuml\n!includeurl https://raw.githubusercontent.com/plantuml-stdlib/C4-PlantUML/master/C4_Component.puml\n\ntitle 用户服务组件图\n\nContainer(user_service, \&quot;用户服务\&quot;, \&quot;Spring Boot + MyBatis\&quot;, \&quot;用户信息管理、捐赠记录、领养申请\&quot;) {\n  Component(user_controller, \&quot;UserController\&quot;, \&quot;处理用户相关的请求\&quot;)\n  Component(profile_controller, \&quot;ProfileController\&quot;, \&quot;处理个人信息相关的请求\&quot;)\n  Component(donation_controller, \&quot;DonationController\&quot;, \&quot;处理捐赠相关的请求\&quot;)\n  Component(adoption_controller, \&quot;AdoptionController\&quot;, \&quot;处理领养申请相关的请求\&quot;)\n  \n  Component(user_service_impl, \&quot;UserServiceImpl\&quot;, \&quot;用户服务实现类\&quot;)\n  Component(user_repository, \&quot;UserRepository\&quot;, \&quot;用户数据访问层\&quot;)\n\n  Rel(user_controller, user_service_impl, \&quot;调用\&quot;)\n  Rel(profile_controller, user_service_impl, \&quot;调用\&quot;)\n  Rel(donation_controller, user_service_impl, \&quot;调用\&quot;)\n  Rel(adoption_controller, user_service_impl, \&quot;调用\&quot;)\n\n  Rel(user_service_impl, user_repository, \&quot;调用\&quot;)\n}\n\n@enduml&quot;,&#xa;  &quot;format&quot;: &quot;svg&quot;&#xa;}" id="WF8WQ5typgrZwuC74MDy-1">
          <mxCell style="shape=image;noLabel=1;verticalAlign=top;aspect=fixed;imageAspect=0;image=data:image/svg+xml,PD94bWwgdmVyc2lvbj0iMS4wIiBlbmNvZGluZz0idXMtYXNjaWkiIHN0YW5kYWxvbmU9Im5vIj8+PHN2ZyB4bWxucz0iaHR0cDovL3d3dy53My5vcmcvMjAwMC9zdmciIHhtbG5zOnhsaW5rPSJodHRwOi8vd3d3LnczLm9yZy8xOTk5L3hsaW5rIiBjb250ZW50U3R5bGVUeXBlPSJ0ZXh0L2NzcyIgaGVpZ2h0PSI0OTJweCIgcHJlc2VydmVBc3BlY3RSYXRpbz0ibm9uZSIgc3R5bGU9IndpZHRoOjc4MnB4O2hlaWdodDo0OTJweDtiYWNrZ3JvdW5kOiNGRkZGRkY7IiB2ZXJzaW9uPSIxLjEiIHZpZXdCb3g9IjAgMCA3ODIgNDkyIiB3aWR0aD0iNzgycHgiIHpvb21BbmRQYW49Im1hZ25pZnkiPjxkZWZzLz48Zz48dGV4dCBmaWxsPSIjMDAwMDAwIiBmb250LWZhbWlseT0ic2Fucy1zZXJpZiIgZm9udC1zaXplPSIxNCIgZm9udC13ZWlnaHQ9ImJvbGQiIGxlbmd0aEFkanVzdD0ic3BhY2luZyIgdGV4dExlbmd0aD0iOTgiIHg9IjMzNSIgeT0iMjMuMjM0NCI+JiMyOTk5MjsmIzI1MTQzOyYjMjYzODE7JiMyMTE1MzsmIzMyNDUyOyYjMjAyMTQ7JiMyMjI3MDs8L3RleHQ+PCEtLWNsdXN0ZXIgdXNlcl9zZXJ2aWNlLS0+PGcgaWQ9ImNsdXN0ZXJfdXNlcl9zZXJ2aWNlIj48cmVjdCBmaWxsPSIjNDM4REQ1IiBoZWlnaHQ9IjQ0NCIgcng9IjIuNSIgcnk9IjIuNSIgc3R5bGU9InN0cm9rZTojM0M3RkMwO3N0cm9rZS13aWR0aDoxLjA7IiB3aWR0aD0iNzY5IiB4PSI3IiB5PSI0Mi45ODQ0Ii8+PHRleHQgZmlsbD0iI0ZGRkZGRiIgZm9udC1mYW1pbHk9InNhbnMtc2VyaWYiIGZvbnQtc2l6ZT0iMTIiIGZvbnQtc3R5bGU9Iml0YWxpYyIgbGVuZ3RoQWRqdXN0PSJzcGFjaW5nIiB0ZXh0TGVuZ3RoPSI3MiIgeD0iMzU1LjUiIHk9IjU2LjMyODEiPiYjMTcxO2NvbnRhaW5lciYjMTg3OzwvdGV4dD48dGV4dCBmaWxsPSIjRkZGRkZGIiBmb250LWZhbWlseT0ic2Fucy1zZXJpZiIgZm9udC1zaXplPSIxNiIgZm9udC13ZWlnaHQ9ImJvbGQiIGxlbmd0aEFkanVzdD0ic3BhY2luZyIgdGV4dExlbmd0aD0iNjQiIHg9IjM1OS41IiB5PSI3Mi45NTMxIj4mIzI5OTkyOyYjMjUxNDM7JiMyNjM4MTsmIzIxMTUzOzwvdGV4dD48dGV4dCBmaWxsPSIjRkZGRkZGIiBmb250LWZhbWlseT0ic2Fucy1zZXJpZiIgZm9udC1zaXplPSIxMiIgZm9udC1zdHlsZT0iaXRhbGljIiBmb250LXdlaWdodD0iYm9sZCIgbGVuZ3RoQWRqdXN0PSJzcGFjaW5nIiB0ZXh0TGVuZ3RoPSIxNTEiIHg9IjMxNiIgeT0iODYuMjk2OSI+W1NwcmluZyBCb290ICsgTXlCYXRpc108L3RleHQ+PHRleHQgZmlsbD0iI0ZGRkZGRiIgZm9udC1mYW1pbHk9InNhbnMtc2VyaWYiIGZvbnQtc2l6ZT0iMTQiIGZvbnQtd2VpZ2h0PSJib2xkIiBsZW5ndGhBZGp1c3Q9InNwYWNpbmciIHRleHRMZW5ndGg9IjciIHg9IjM4OCIgeT0iMTAxLjAzMTMiPiYjMTYwOzwvdGV4dD48dGV4dCBmaWxsPSIjRkZGRkZGIiBmb250LWZhbWlseT0ic2Fucy1zZXJpZiIgZm9udC1zaXplPSIxNCIgZm9udC13ZWlnaHQ9ImJvbGQiIGxlbmd0aEFkanVzdD0ic3BhY2luZyIgdGV4dExlbmd0aD0iMjI0IiB4PSIyNzkuNSIgeT0iMTE2LjAxNTYiPiYjMjk5OTI7JiMyNTE0MzsmIzIwNDQ5OyYjMjQ2ODc7JiMzMTY0OTsmIzI5NzAyOyYjMTIyODk7JiMyNTQyNDsmIzM2MTkyOyYjMzU3NjA7JiMyNDQwNTsmIzEyMjg5OyYjMzkwNDY7JiMyMDg1OTsmIzMwMDAzOyYjMzU4MzE7PC90ZXh0PjwvZz48IS0tZW50aXR5IHVzZXJfY29udHJvbGxlci0tPjxnIGlkPSJlbGVtX3VzZXJfY29udHJvbGxlciI+PHJlY3QgZmlsbD0iIzg1QkJGMCIgaGVpZ2h0PSI2Mi44MTI1IiByeD0iMi41IiByeT0iMi41IiBzdHlsZT0ic3Ryb2tlOiM3OEE4RDg7c3Ryb2tlLXdpZHRoOjAuNTsiIHdpZHRoPSIxNDAiIHg9IjYyMCIgeT0iMTMzLjk4NDQiLz48dGV4dCBmaWxsPSIjMDAwMDAwIiBmb250LWZhbWlseT0ic2Fucy1zZXJpZiIgZm9udC1zaXplPSIxMiIgZm9udC1zdHlsZT0iaXRhbGljIiBsZW5ndGhBZGp1c3Q9InNwYWNpbmciIHRleHRMZW5ndGg9IjcyIiB4PSI2NTQiIHk9IjE1NS4zMjgxIj4mIzE3MTtjb21wb25lbnQmIzE4Nzs8L3RleHQ+PHRleHQgZmlsbD0iIzAwMDAwMCIgZm9udC1mYW1pbHk9InNhbnMtc2VyaWYiIGZvbnQtc2l6ZT0iMTYiIGZvbnQtd2VpZ2h0PSJib2xkIiBsZW5ndGhBZGp1c3Q9InNwYWNpbmciIHRleHRMZW5ndGg9IjExMiIgeD0iNjM0IiB5PSIxNzEuOTUzMSI+VXNlckNvbnRyb2xsZXI8L3RleHQ+PHRleHQgZmlsbD0iIzAwMDAwMCIgZm9udC1mYW1pbHk9InNhbnMtc2VyaWYiIGZvbnQtc2l6ZT0iMTIiIGZvbnQtc3R5bGU9Iml0YWxpYyIgbGVuZ3RoQWRqdXN0PSJzcGFjaW5nIiB0ZXh0TGVuZ3RoPSIxMjAiIHg9IjYzMCIgeT0iMTg1LjI5NjkiPlsmIzIyNzg4OyYjMjk3MDI7JiMyOTk5MjsmIzI1MTQzOyYjMzA0NTY7JiMyMDg1MTsmIzMwMzQwOyYjMzU4MzE7JiMyNzcxNDtdPC90ZXh0PjwvZz48IS0tZW50aXR5IHByb2ZpbGVfY29udHJvbGxlci0tPjxnIGlkPSJlbGVtX3Byb2ZpbGVfY29udHJvbGxlciI+PHJlY3QgZmlsbD0iIzg1QkJGMCIgaGVpZ2h0PSI2Mi44MTI1IiByeD0iMi41IiByeT0iMi41IiBzdHlsZT0ic3Ryb2tlOiM3OEE4RDg7c3Ryb2tlLXdpZHRoOjAuNTsiIHdpZHRoPSIxNjQiIHg9IjQyMSIgeT0iMTMzLjk4NDQiLz48dGV4dCBmaWxsPSIjMDAwMDAwIiBmb250LWZhbWlseT0ic2Fucy1zZXJpZiIgZm9udC1zaXplPSIxMiIgZm9udC1zdHlsZT0iaXRhbGljIiBsZW5ndGhBZGp1c3Q9InNwYWNpbmciIHRleHRMZW5ndGg9IjcyIiB4PSI0NjciIHk9IjE1NS4zMjgxIj4mIzE3MTtjb21wb25lbnQmIzE4Nzs8L3RleHQ+PHRleHQgZmlsbD0iIzAwMDAwMCIgZm9udC1mYW1pbHk9InNhbnMtc2VyaWYiIGZvbnQtc2l6ZT0iMTYiIGZvbnQtd2VpZ2h0PSJib2xkIiBsZW5ndGhBZGp1c3Q9InNwYWNpbmciIHRleHRMZW5ndGg9IjEzNiIgeD0iNDM1IiB5PSIxNzEuOTUzMSI+UHJvZmlsZUNvbnRyb2xsZXI8L3RleHQ+PHRleHQgZmlsbD0iIzAwMDAwMCIgZm9udC1mYW1pbHk9InNhbnMtc2VyaWYiIGZvbnQtc2l6ZT0iMTIiIGZvbnQtc3R5bGU9Iml0YWxpYyIgbGVuZ3RoQWRqdXN0PSJzcGFjaW5nIiB0ZXh0TGVuZ3RoPSIxNDQiIHg9IjQzMSIgeT0iMTg1LjI5NjkiPlsmIzIyNzg4OyYjMjk3MDI7JiMyMDAxMDsmIzIwMTU0OyYjMjA0NDk7JiMyNDY4NzsmIzMwNDU2OyYjMjA4NTE7JiMzMDM0MDsmIzM1ODMxOyYjMjc3MTQ7XTwvdGV4dD48L2c+PCEtLWVudGl0eSBkb25hdGlvbl9jb250cm9sbGVyLS0+PGcgaWQ9ImVsZW1fZG9uYXRpb25fY29udHJvbGxlciI+PHJlY3QgZmlsbD0iIzg1QkJGMCIgaGVpZ2h0PSI2Mi44MTI1IiByeD0iMi41IiByeT0iMi41IiBzdHlsZT0ic3Ryb2tlOiM3OEE4RDg7c3Ryb2tlLXdpZHRoOjAuNTsiIHdpZHRoPSIxNjQiIHg9IjIyMiIgeT0iMTMzLjk4NDQiLz48dGV4dCBmaWxsPSIjMDAwMDAwIiBmb250LWZhbWlseT0ic2Fucy1zZXJpZiIgZm9udC1zaXplPSIxMiIgZm9udC1zdHlsZT0iaXRhbGljIiBsZW5ndGhBZGp1c3Q9InNwYWNpbmciIHRleHRMZW5ndGg9IjcyIiB4PSIyNjgiIHk9IjE1NS4zMjgxIj4mIzE3MTtjb21wb25lbnQmIzE4Nzs8L3RleHQ+PHRleHQgZmlsbD0iIzAwMDAwMCIgZm9udC1mYW1pbHk9InNhbnMtc2VyaWYiIGZvbnQtc2l6ZT0iMTYiIGZvbnQtd2VpZ2h0PSJib2xkIiBsZW5ndGhBZGp1c3Q9InNwYWNpbmciIHRleHRMZW5ndGg9IjE0NCIgeD0iMjMyIiB5PSIxNzEuOTUzMSI+RG9uYXRpb25Db250cm9sbGVyPC90ZXh0Pjx0ZXh0IGZpbGw9IiMwMDAwMDAiIGZvbnQtZmFtaWx5PSJzYW5zLXNlcmlmIiBmb250LXNpemU9IjEyIiBmb250LXN0eWxlPSJpdGFsaWMiIGxlbmd0aEFkanVzdD0ic3BhY2luZyIgdGV4dExlbmd0aD0iMTIwIiB4PSIyNDQiIHk9IjE4NS4yOTY5Ij5bJiMyMjc4ODsmIzI5NzAyOyYjMjU0MjQ7JiMzNjE5MjsmIzMwNDU2OyYjMjA4NTE7JiMzMDM0MDsmIzM1ODMxOyYjMjc3MTQ7XTwvdGV4dD48L2c+PCEtLWVudGl0eSBhZG9wdGlvbl9jb250cm9sbGVyLS0+PGcgaWQ9ImVsZW1fYWRvcHRpb25fY29udHJvbGxlciI+PHJlY3QgZmlsbD0iIzg1QkJGMCIgaGVpZ2h0PSI2Mi44MTI1IiByeD0iMi41IiByeT0iMi41IiBzdHlsZT0ic3Ryb2tlOiM3OEE4RDg7c3Ryb2tlLXdpZHRoOjAuNTsiIHdpZHRoPSIxNjQiIHg9IjIzIiB5PSIxMzMuOTg0NCIvPjx0ZXh0IGZpbGw9IiMwMDAwMDAiIGZvbnQtZmFtaWx5PSJzYW5zLXNlcmlmIiBmb250LXNpemU9IjEyIiBmb250LXN0eWxlPSJpdGFsaWMiIGxlbmd0aEFkanVzdD0ic3BhY2luZyIgdGV4dExlbmd0aD0iNzIiIHg9IjY5IiB5PSIxNTUuMzI4MSI+JiMxNzE7Y29tcG9uZW50JiMxODc7PC90ZXh0Pjx0ZXh0IGZpbGw9IiMwMDAwMDAiIGZvbnQtZmFtaWx5PSJzYW5zLXNlcmlmIiBmb250LXNpemU9IjE2IiBmb250LXdlaWdodD0iYm9sZCIgbGVuZ3RoQWRqdXN0PSJzcGFjaW5nIiB0ZXh0TGVuZ3RoPSIxNDQiIHg9IjMzIiB5PSIxNzEuOTUzMSI+QWRvcHRpb25Db250cm9sbGVyPC90ZXh0Pjx0ZXh0IGZpbGw9IiMwMDAwMDAiIGZvbnQtZmFtaWx5PSJzYW5zLXNlcmlmIiBmb250LXNpemU9IjEyIiBmb250LXN0eWxlPSJpdGFsaWMiIGxlbmd0aEFkanVzdD0ic3BhY2luZyIgdGV4dExlbmd0aD0iMTQ0IiB4PSIzMyIgeT0iMTg1LjI5NjkiPlsmIzIyNzg4OyYjMjk3MDI7JiMzOTA0NjsmIzIwODU5OyYjMzAwMDM7JiMzNTgzMTsmIzMwNDU2OyYjMjA4NTE7JiMzMDM0MDsmIzM1ODMxOyYjMjc3MTQ7XTwvdGV4dD48L2c+PCEtLWVudGl0eSB1c2VyX3NlcnZpY2VfaW1wbC0tPjxnIGlkPSJlbGVtX3VzZXJfc2VydmljZV9pbXBsIj48cmVjdCBmaWxsPSIjODVCQkYwIiBoZWlnaHQ9IjYyLjgxMjUiIHJ4PSIyLjUiIHJ5PSIyLjUiIHN0eWxlPSJzdHJva2U6Izc4QThEODtzdHJva2Utd2lkdGg6MC41OyIgd2lkdGg9IjE0MCIgeD0iMzMzIiB5PSIyNzAuOTg0NCIvPjx0ZXh0IGZpbGw9IiMwMDAwMDAiIGZvbnQtZmFtaWx5PSJzYW5zLXNlcmlmIiBmb250LXNpemU9IjEyIiBmb250LXN0eWxlPSJpdGFsaWMiIGxlbmd0aEFkanVzdD0ic3BhY2luZyIgdGV4dExlbmd0aD0iNzIiIHg9IjM2NyIgeT0iMjkyLjMyODEiPiYjMTcxO2NvbXBvbmVudCYjMTg3OzwvdGV4dD48dGV4dCBmaWxsPSIjMDAwMDAwIiBmb250LWZhbWlseT0ic2Fucy1zZXJpZiIgZm9udC1zaXplPSIxNiIgZm9udC13ZWlnaHQ9ImJvbGQiIGxlbmd0aEFkanVzdD0ic3BhY2luZyIgdGV4dExlbmd0aD0iMTIwIiB4PSIzNDMiIHk9IjMwOC45NTMxIj5Vc2VyU2VydmljZUltcGw8L3RleHQ+PHRleHQgZmlsbD0iIzAwMDAwMCIgZm9udC1mYW1pbHk9InNhbnMtc2VyaWYiIGZvbnQtc2l6ZT0iMTIiIGZvbnQtc3R5bGU9Iml0YWxpYyIgbGVuZ3RoQWRqdXN0PSJzcGFjaW5nIiB0ZXh0TGVuZ3RoPSI5NiIgeD0iMzU1IiB5PSIzMjIuMjk2OSI+WyYjMjk5OTI7JiMyNTE0MzsmIzI2MzgxOyYjMjExNTM7JiMyMzQ1NDsmIzI5NjE2OyYjMzE4Njc7XTwvdGV4dD48L2c+PCEtLWVudGl0eSB1c2VyX3JlcG9zaXRvcnktLT48ZyBpZD0iZWxlbV91c2VyX3JlcG9zaXRvcnkiPjxyZWN0IGZpbGw9IiM4NUJCRjAiIGhlaWdodD0iNjIuODEyNSIgcng9IjIuNSIgcnk9IjIuNSIgc3R5bGU9InN0cm9rZTojNzhBOEQ4O3N0cm9rZS13aWR0aDowLjU7IiB3aWR0aD0iMTMyIiB4PSIzMzciIHk9IjQwNy45ODQ0Ii8+PHRleHQgZmlsbD0iIzAwMDAwMCIgZm9udC1mYW1pbHk9InNhbnMtc2VyaWYiIGZvbnQtc2l6ZT0iMTIiIGZvbnQtc3R5bGU9Iml0YWxpYyIgbGVuZ3RoQWRqdXN0PSJzcGFjaW5nIiB0ZXh0TGVuZ3RoPSI3MiIgeD0iMzY3IiB5PSI0MjkuMzI4MSI+JiMxNzE7Y29tcG9uZW50JiMxODc7PC90ZXh0Pjx0ZXh0IGZpbGw9IiMwMDAwMDAiIGZvbnQtZmFtaWx5PSJzYW5zLXNlcmlmIiBmb250LXNpemU9IjE2IiBmb250LXdlaWdodD0iYm9sZCIgbGVuZ3RoQWRqdXN0PSJzcGFjaW5nIiB0ZXh0TGVuZ3RoPSIxMTIiIHg9IjM0NyIgeT0iNDQ1Ljk1MzEiPlVzZXJSZXBvc2l0b3J5PC90ZXh0Pjx0ZXh0IGZpbGw9IiMwMDAwMDAiIGZvbnQtZmFtaWx5PSJzYW5zLXNlcmlmIiBmb250LXNpemU9IjEyIiBmb250LXN0eWxlPSJpdGFsaWMiIGxlbmd0aEFkanVzdD0ic3BhY2luZyIgdGV4dExlbmd0aD0iOTYiIHg9IjM1NSIgeT0iNDU5LjI5NjkiPlsmIzI5OTkyOyYjMjUxNDM7JiMyNTk2ODsmIzI1NDU0OyYjMzU3NzU7JiMzODM4MjsmIzIzNjE4O108L3RleHQ+PC9nPjwhLS1saW5rIHVzZXJfY29udHJvbGxlciB0byB1c2VyX3NlcnZpY2VfaW1wbC0tPjxnIGlkPSJsaW5rX3VzZXJfY29udHJvbGxlcl91c2VyX3NlcnZpY2VfaW1wbCI+PHBhdGggZD0iTTYyNC44OCwxOTcuMTE0NCBDNTc3LjkxLDIxOS4yMTQ0IDUyMi4wMTg5LDI0NS40OTg3IDQ3NS4xMDg5LDI2Ny41Njg3ICIgZmlsbD0ibm9uZSIgaWQ9InVzZXJfY29udHJvbGxlci10by11c2VyX3NlcnZpY2VfaW1wbCIgc3R5bGU9InN0cm9rZTojNjY2NjY2O3N0cm9rZS13aWR0aDoxLjA7Ii8+PHBvbHlnb24gZmlsbD0iIzY2NjY2NiIgcG9pbnRzPSI0NjcuODcsMjcwLjk3NDQsNDc2LjM4NiwyNzAuMjgzMiw0NzMuODMxNywyNjQuODU0MSw0NjcuODcsMjcwLjk3NDQiIHN0eWxlPSJzdHJva2U6IzY2NjY2NjtzdHJva2Utd2lkdGg6MS4wOyIvPjx0ZXh0IGZpbGw9IiM2NjY2NjYiIGZvbnQtZmFtaWx5PSJzYW5zLXNlcmlmIiBmb250LXNpemU9IjEyIiBmb250LXdlaWdodD0iYm9sZCIgbGVuZ3RoQWRqdXN0PSJzcGFjaW5nIiB0ZXh0TGVuZ3RoPSIyNCIgeD0iNTU2IiB5PSIyMzkuMzI4MSI+JiMzNTg0MzsmIzI5OTkyOzwvdGV4dD48L2c+PCEtLWxpbmsgcHJvZmlsZV9jb250cm9sbGVyIHRvIHVzZXJfc2VydmljZV9pbXBsLS0+PGcgaWQ9ImxpbmtfcHJvZmlsZV9jb250cm9sbGVyX3VzZXJfc2VydmljZV9pbXBsIj48cGF0aCBkPSJNNDgwLjMxLDE5Ny4xMTQ0IEM0NjMuOTQsMjE5LjIxNDQgNDQ2LjcxMjIsMjQyLjQ3NjIgNDMwLjM2MjIsMjY0LjU0NjIgIiBmaWxsPSJub25lIiBpZD0icHJvZmlsZV9jb250cm9sbGVyLXRvLXVzZXJfc2VydmljZV9pbXBsIiBzdHlsZT0ic3Ryb2tlOiM2NjY2NjY7c3Ryb2tlLXdpZHRoOjEuMDsiLz48cG9seWdvbiBmaWxsPSIjNjY2NjY2IiBwb2ludHM9IjQyNS42LDI3MC45NzQ0LDQzMi43NzI3LDI2Ni4zMzIsNDI3Ljk1MTYsMjYyLjc2MDQsNDI1LjYsMjcwLjk3NDQiIHN0eWxlPSJzdHJva2U6IzY2NjY2NjtzdHJva2Utd2lkdGg6MS4wOyIvPjx0ZXh0IGZpbGw9IiM2NjY2NjYiIGZvbnQtZmFtaWx5PSJzYW5zLXNlcmlmIiBmb250LXNpemU9IjEyIiBmb250LXdlaWdodD0iYm9sZCIgbGVuZ3RoQWRqdXN0PSJzcGFjaW5nIiB0ZXh0TGVuZ3RoPSIyNCIgeD0iNDU2IiB5PSIyMzkuMzI4MSI+JiMzNTg0MzsmIzI5OTkyOzwvdGV4dD48L2c+PCEtLWxpbmsgZG9uYXRpb25fY29udHJvbGxlciB0byB1c2VyX3NlcnZpY2VfaW1wbC0tPjxnIGlkPSJsaW5rX2RvbmF0aW9uX2NvbnRyb2xsZXJfdXNlcl9zZXJ2aWNlX2ltcGwiPjxwYXRoIGQ9Ik0zMjYuNDYsMTk3LjExNDQgQzM0Mi42NywyMTkuMjE0NCAzNTkuNzEsMjQyLjQ1MjUgMzc1Ljg5LDI2NC41MjI1ICIgZmlsbD0ibm9uZSIgaWQ9ImRvbmF0aW9uX2NvbnRyb2xsZXItdG8tdXNlcl9zZXJ2aWNlX2ltcGwiIHN0eWxlPSJzdHJva2U6IzY2NjY2NjtzdHJva2Utd2lkdGg6MS4wOyIvPjxwb2x5Z29uIGZpbGw9IiM2NjY2NjYiIHBvaW50cz0iMzgwLjYyLDI3MC45NzQ0LDM3OC4zMDk0LDI2Mi43NDg3LDM3My40NzA1LDI2Ni4yOTYyLDM4MC42MiwyNzAuOTc0NCIgc3R5bGU9InN0cm9rZTojNjY2NjY2O3N0cm9rZS13aWR0aDoxLjA7Ii8+PHRleHQgZmlsbD0iIzY2NjY2NiIgZm9udC1mYW1pbHk9InNhbnMtc2VyaWYiIGZvbnQtc2l6ZT0iMTIiIGZvbnQtd2VpZ2h0PSJib2xkIiBsZW5ndGhBZGp1c3Q9InNwYWNpbmciIHRleHRMZW5ndGg9IjI0IiB4PSIzNTciIHk9IjIzOS4zMjgxIj4mIzM1ODQzOyYjMjk5OTI7PC90ZXh0PjwvZz48IS0tbGluayBhZG9wdGlvbl9jb250cm9sbGVyIHRvIHVzZXJfc2VydmljZV9pbXBsLS0+PGcgaWQ9ImxpbmtfYWRvcHRpb25fY29udHJvbGxlcl91c2VyX3NlcnZpY2VfaW1wbCI+PHBhdGggZD0iTTE3Mi42MiwxOTcuMTE0NCBDMjIxLjM5LDIxOS4yMTQ0IDI3OS42NTMxLDI0NS42MDI3IDMyOC4zNjMxLDI2Ny42NzI3ICIgZmlsbD0ibm9uZSIgaWQ9ImFkb3B0aW9uX2NvbnRyb2xsZXItdG8tdXNlcl9zZXJ2aWNlX2ltcGwiIHN0eWxlPSJzdHJva2U6IzY2NjY2NjtzdHJva2Utd2lkdGg6MS4wOyIvPjxwb2x5Z29uIGZpbGw9IiM2NjY2NjYiIHBvaW50cz0iMzM1LjY1LDI3MC45NzQ0LDMyOS42MDEyLDI2NC45NDAxLDMyNy4xMjUsMjcwLjQwNTMsMzM1LjY1LDI3MC45NzQ0IiBzdHlsZT0ic3Ryb2tlOiM2NjY2NjY7c3Ryb2tlLXdpZHRoOjEuMDsiLz48dGV4dCBmaWxsPSIjNjY2NjY2IiBmb250LWZhbWlseT0ic2Fucy1zZXJpZiIgZm9udC1zaXplPSIxMiIgZm9udC13ZWlnaHQ9ImJvbGQiIGxlbmd0aEFkanVzdD0ic3BhY2luZyIgdGV4dExlbmd0aD0iMjQiIHg9IjI2MyIgeT0iMjM5LjMyODEiPiYjMzU4NDM7JiMyOTk5Mjs8L3RleHQ+PC9nPjwhLS1saW5rIHVzZXJfc2VydmljZV9pbXBsIHRvIHVzZXJfcmVwb3NpdG9yeS0tPjxnIGlkPSJsaW5rX3VzZXJfc2VydmljZV9pbXBsX3VzZXJfcmVwb3NpdG9yeSI+PHBhdGggZD0iTTQwMywzMzQuMTE0NCBDNDAzLDM1Ni4yMTQ0IDQwMywzNzcuOTA0NCA0MDMsMzk5Ljk3NDQgIiBmaWxsPSJub25lIiBpZD0idXNlcl9zZXJ2aWNlX2ltcGwtdG8tdXNlcl9yZXBvc2l0b3J5IiBzdHlsZT0ic3Ryb2tlOiM2NjY2NjY7c3Ryb2tlLXdpZHRoOjEuMDsiLz48cG9seWdvbiBmaWxsPSIjNjY2NjY2IiBwb2ludHM9IjQwMyw0MDcuOTc0NCw0MDYsMzk5Ljk3NDQsNDAwLDM5OS45NzQ0LDQwMyw0MDcuOTc0NCIgc3R5bGU9InN0cm9rZTojNjY2NjY2O3N0cm9rZS13aWR0aDoxLjA7Ii8+PHRleHQgZmlsbD0iIzY2NjY2NiIgZm9udC1mYW1pbHk9InNhbnMtc2VyaWYiIGZvbnQtc2l6ZT0iMTIiIGZvbnQtd2VpZ2h0PSJib2xkIiBsZW5ndGhBZGp1c3Q9InNwYWNpbmciIHRleHRMZW5ndGg9IjI0IiB4PSI0MDQiIHk9IjM3Ni4zMjgxIj4mIzM1ODQzOyYjMjk5OTI7PC90ZXh0PjwvZz48IS0tU1JDPVtaUDVESXlDbTdDUmxfSEluOXFMZEJ2d3l3Um04M2VSWVVUR2pRWTFER2ZlZzhlOGxzbjFYdWE0SExDSTkxXzVHOXc4UjNqczdTTXRnanAxVEl6YlM2SHZvb0NGXy1WclZkWjU0WWpXZkdPVFppMmE0aXNTRFd2bFJxbmo4UjNmaFpXcnZhSDgxWVBXa0tpaldzMkoyaU4zNjVZTUNyZXBpSjJPVklna3Y5U0NvUkc2dmFXZlBRWjVBR1d6SmpQZWNhQzBHb0ZEN194WmZ0ekl5YXhmaWJ4bGpULV93SXpFbzJjeVkwbGJ1c0FvV3RYT2dtWWNXenpWaHdoXzJFMjhSTzl2STBJUDFSY1ZVNUNaTWF5OWtmLXVWRjRrdEJpLWd0X2k3VmtxaVVCaUJ0OFJ0VVE2LUZfVExoekFNdndfMVNyRVYwQmlRMENjS0tVRG1KS3VuWGJtWEx2TUlKT0ltWVZUR0xrMmViUm5rVVBMTlVMTE1DRl9iSzl5T2UzNUVybjY2V3kxeTlBT25rd3NkeGlUN0ZGdjhTZWFJakpDYlctWTVNNHJaSHJTT0pKTEJiMHJKdnM4clpUZl9wM0pzeTc3WkwwbDhPWlcteHFlYUJJZjVfdkVzdnp4QXF1UHlRVi1QajhWWWE1NFIyU2Z0T2oxbzhsSG5CWGYtcEd0U3BpLWJ3X01jS2cxYlk4VVpKWGlsUTFtZkpBenZ3NGFCejEtc3JCSi11S2xET3dJbFZ4VjFjazZCOVFRek5tMDBdLS0+PC9nPjwvc3ZnPg==;" vertex="1" parent="1">
            <mxGeometry x="60" y="10790" width="782" height="492" as="geometry" />
          </mxCell>
        </UserObject>
        <UserObject label="" plantUmlData="{&#xa;  &quot;data&quot;: &quot;@startuml\n!includeurl https://raw.githubusercontent.com/plantuml-stdlib/C4-PlantUML/master/C4_Component.puml\n\ntitle 社区服务组件图\n\nContainer(community_service, \&quot;社区服务\&quot;, \&quot;Spring Boot + MyBatis\&quot;, \&quot;发布帖子、浏览帖子、评论/点赞\&quot;) {\n  Component(post_controller, \&quot;PostController\&quot;, \&quot;处理帖子相关的请求\&quot;)\n  Component(comment_controller, \&quot;CommentController\&quot;, \&quot;处理评论相关的请求\&quot;)\n\n  Component(post_service_impl, \&quot;PostServiceImpl\&quot;, \&quot;帖子服务实现类\&quot;)\n  Component(comment_service_impl, \&quot;CommentServiceImpl\&quot;, \&quot;评论服务实现类\&quot;)\n\n  Component(post_repository, \&quot;PostRepository\&quot;, \&quot;帖子数据访问层\&quot;)\n  Component(comment_repository, \&quot;CommentRepository\&quot;, \&quot;评论数据访问层\&quot;)\n\n  Rel(post_controller, post_service_impl, \&quot;调用\&quot;)\n  Rel(comment_controller, comment_service_impl, \&quot;调用\&quot;)\n\n  Rel(post_service_impl, post_repository, \&quot;调用\&quot;)\n  Rel(comment_service_impl, comment_repository, \&quot;调用\&quot;)\n}\n\n@enduml&quot;,&#xa;  &quot;format&quot;: &quot;svg&quot;&#xa;}" id="WF8WQ5typgrZwuC74MDy-2">
          <mxCell style="shape=image;noLabel=1;verticalAlign=top;aspect=fixed;imageAspect=0;image=data:image/svg+xml,PD94bWwgdmVyc2lvbj0iMS4wIiBlbmNvZGluZz0idXMtYXNjaWkiIHN0YW5kYWxvbmU9Im5vIj8+PHN2ZyB4bWxucz0iaHR0cDovL3d3dy53My5vcmcvMjAwMC9zdmciIHhtbG5zOnhsaW5rPSJodHRwOi8vd3d3LnczLm9yZy8xOTk5L3hsaW5rIiBjb250ZW50U3R5bGVUeXBlPSJ0ZXh0L2NzcyIgaGVpZ2h0PSI0OTJweCIgcHJlc2VydmVBc3BlY3RSYXRpbz0ibm9uZSIgc3R5bGU9IndpZHRoOjM4NHB4O2hlaWdodDo0OTJweDtiYWNrZ3JvdW5kOiNGRkZGRkY7IiB2ZXJzaW9uPSIxLjEiIHZpZXdCb3g9IjAgMCAzODQgNDkyIiB3aWR0aD0iMzg0cHgiIHpvb21BbmRQYW49Im1hZ25pZnkiPjxkZWZzLz48Zz48dGV4dCBmaWxsPSIjMDAwMDAwIiBmb250LWZhbWlseT0ic2Fucy1zZXJpZiIgZm9udC1zaXplPSIxNCIgZm9udC13ZWlnaHQ9ImJvbGQiIGxlbmd0aEFkanVzdD0ic3BhY2luZyIgdGV4dExlbmd0aD0iOTgiIHg9IjEzNiIgeT0iMjMuMjM0NCI+JiMzMTAzODsmIzIxMzA2OyYjMjYzODE7JiMyMTE1MzsmIzMyNDUyOyYjMjAyMTQ7JiMyMjI3MDs8L3RleHQ+PCEtLWNsdXN0ZXIgY29tbXVuaXR5X3NlcnZpY2UtLT48ZyBpZD0iY2x1c3Rlcl9jb21tdW5pdHlfc2VydmljZSI+PHJlY3QgZmlsbD0iIzQzOERENSIgaGVpZ2h0PSI0NDQiIHJ4PSIyLjUiIHJ5PSIyLjUiIHN0eWxlPSJzdHJva2U6IzNDN0ZDMDtzdHJva2Utd2lkdGg6MS4wOyIgd2lkdGg9IjM3MSIgeD0iNyIgeT0iNDIuOTg0NCIvPjx0ZXh0IGZpbGw9IiNGRkZGRkYiIGZvbnQtZmFtaWx5PSJzYW5zLXNlcmlmIiBmb250LXNpemU9IjEyIiBmb250LXN0eWxlPSJpdGFsaWMiIGxlbmd0aEFkanVzdD0ic3BhY2luZyIgdGV4dExlbmd0aD0iNzIiIHg9IjE1Ni41IiB5PSI1Ni4zMjgxIj4mIzE3MTtjb250YWluZXImIzE4Nzs8L3RleHQ+PHRleHQgZmlsbD0iI0ZGRkZGRiIgZm9udC1mYW1pbHk9InNhbnMtc2VyaWYiIGZvbnQtc2l6ZT0iMTYiIGZvbnQtd2VpZ2h0PSJib2xkIiBsZW5ndGhBZGp1c3Q9InNwYWNpbmciIHRleHRMZW5ndGg9IjY0IiB4PSIxNjAuNSIgeT0iNzIuOTUzMSI+JiMzMTAzODsmIzIxMzA2OyYjMjYzODE7JiMyMTE1Mzs8L3RleHQ+PHRleHQgZmlsbD0iI0ZGRkZGRiIgZm9udC1mYW1pbHk9InNhbnMtc2VyaWYiIGZvbnQtc2l6ZT0iMTIiIGZvbnQtc3R5bGU9Iml0YWxpYyIgZm9udC13ZWlnaHQ9ImJvbGQiIGxlbmd0aEFkanVzdD0ic3BhY2luZyIgdGV4dExlbmd0aD0iMTUxIiB4PSIxMTciIHk9Ijg2LjI5NjkiPltTcHJpbmcgQm9vdCArIE15QmF0aXNdPC90ZXh0Pjx0ZXh0IGZpbGw9IiNGRkZGRkYiIGZvbnQtZmFtaWx5PSJzYW5zLXNlcmlmIiBmb250LXNpemU9IjE0IiBmb250LXdlaWdodD0iYm9sZCIgbGVuZ3RoQWRqdXN0PSJzcGFjaW5nIiB0ZXh0TGVuZ3RoPSI3IiB4PSIxODkiIHk9IjEwMS4wMzEzIj4mIzE2MDs8L3RleHQ+PHRleHQgZmlsbD0iI0ZGRkZGRiIgZm9udC1mYW1pbHk9InNhbnMtc2VyaWYiIGZvbnQtc2l6ZT0iMTQiIGZvbnQtd2VpZ2h0PSJib2xkIiBsZW5ndGhBZGp1c3Q9InNwYWNpbmciIHRleHRMZW5ndGg9IjIwMyIgeD0iOTEiIHk9IjExNi4wMTU2Ij4mIzIxNDU3OyYjMjQwNjc7JiMyNDA4NjsmIzIzMzc2OyYjMTIyODk7JiMyNzk4MzsmIzM1MjcyOyYjMjQwODY7JiMyMzM3NjsmIzEyMjg5OyYjMzU3ODA7JiMzNTc3MDsvJiMyODg1NzsmIzM2MTkwOzwvdGV4dD48L2c+PCEtLWVudGl0eSBwb3N0X2NvbnRyb2xsZXItLT48ZyBpZD0iZWxlbV9wb3N0X2NvbnRyb2xsZXIiPjxyZWN0IGZpbGw9IiM4NUJCRjAiIGhlaWdodD0iNjIuODEyNSIgcng9IjIuNSIgcnk9IjIuNSIgc3R5bGU9InN0cm9rZTojNzhBOEQ4O3N0cm9rZS13aWR0aDowLjU7IiB3aWR0aD0iMTQwIiB4PSIyMjIiIHk9IjEzMy45ODQ0Ii8+PHRleHQgZmlsbD0iIzAwMDAwMCIgZm9udC1mYW1pbHk9InNhbnMtc2VyaWYiIGZvbnQtc2l6ZT0iMTIiIGZvbnQtc3R5bGU9Iml0YWxpYyIgbGVuZ3RoQWRqdXN0PSJzcGFjaW5nIiB0ZXh0TGVuZ3RoPSI3MiIgeD0iMjU2IiB5PSIxNTUuMzI4MSI+JiMxNzE7Y29tcG9uZW50JiMxODc7PC90ZXh0Pjx0ZXh0IGZpbGw9IiMwMDAwMDAiIGZvbnQtZmFtaWx5PSJzYW5zLXNlcmlmIiBmb250LXNpemU9IjE2IiBmb250LXdlaWdodD0iYm9sZCIgbGVuZ3RoQWRqdXN0PSJzcGFjaW5nIiB0ZXh0TGVuZ3RoPSIxMTIiIHg9IjIzNiIgeT0iMTcxLjk1MzEiPlBvc3RDb250cm9sbGVyPC90ZXh0Pjx0ZXh0IGZpbGw9IiMwMDAwMDAiIGZvbnQtZmFtaWx5PSJzYW5zLXNlcmlmIiBmb250LXNpemU9IjEyIiBmb250LXN0eWxlPSJpdGFsaWMiIGxlbmd0aEFkanVzdD0ic3BhY2luZyIgdGV4dExlbmd0aD0iMTIwIiB4PSIyMzIiIHk9IjE4NS4yOTY5Ij5bJiMyMjc4ODsmIzI5NzAyOyYjMjQwODY7JiMyMzM3NjsmIzMwNDU2OyYjMjA4NTE7JiMzMDM0MDsmIzM1ODMxOyYjMjc3MTQ7XTwvdGV4dD48L2c+PCEtLWVudGl0eSBjb21tZW50X2NvbnRyb2xsZXItLT48ZyBpZD0iZWxlbV9jb21tZW50X2NvbnRyb2xsZXIiPjxyZWN0IGZpbGw9IiM4NUJCRjAiIGhlaWdodD0iNjIuODEyNSIgcng9IjIuNSIgcnk9IjIuNSIgc3R5bGU9InN0cm9rZTojNzhBOEQ4O3N0cm9rZS13aWR0aDowLjU7IiB3aWR0aD0iMTU2IiB4PSIyNyIgeT0iMTMzLjk4NDQiLz48dGV4dCBmaWxsPSIjMDAwMDAwIiBmb250LWZhbWlseT0ic2Fucy1zZXJpZiIgZm9udC1zaXplPSIxMiIgZm9udC1zdHlsZT0iaXRhbGljIiBsZW5ndGhBZGp1c3Q9InNwYWNpbmciIHRleHRMZW5ndGg9IjcyIiB4PSI2OSIgeT0iMTU1LjMyODEiPiYjMTcxO2NvbXBvbmVudCYjMTg3OzwvdGV4dD48dGV4dCBmaWxsPSIjMDAwMDAwIiBmb250LWZhbWlseT0ic2Fucy1zZXJpZiIgZm9udC1zaXplPSIxNiIgZm9udC13ZWlnaHQ9ImJvbGQiIGxlbmd0aEFkanVzdD0ic3BhY2luZyIgdGV4dExlbmd0aD0iMTM2IiB4PSIzNyIgeT0iMTcxLjk1MzEiPkNvbW1lbnRDb250cm9sbGVyPC90ZXh0Pjx0ZXh0IGZpbGw9IiMwMDAwMDAiIGZvbnQtZmFtaWx5PSJzYW5zLXNlcmlmIiBmb250LXNpemU9IjEyIiBmb250LXN0eWxlPSJpdGFsaWMiIGxlbmd0aEFkanVzdD0ic3BhY2luZyIgdGV4dExlbmd0aD0iMTIwIiB4PSI0NSIgeT0iMTg1LjI5NjkiPlsmIzIyNzg4OyYjMjk3MDI7JiMzNTc4MDsmIzM1NzcwOyYjMzA0NTY7JiMyMDg1MTsmIzMwMzQwOyYjMzU4MzE7JiMyNzcxNDtdPC90ZXh0PjwvZz48IS0tZW50aXR5IHBvc3Rfc2VydmljZV9pbXBsLS0+PGcgaWQ9ImVsZW1fcG9zdF9zZXJ2aWNlX2ltcGwiPjxyZWN0IGZpbGw9IiM4NUJCRjAiIGhlaWdodD0iNjIuODEyNSIgcng9IjIuNSIgcnk9IjIuNSIgc3R5bGU9InN0cm9rZTojNzhBOEQ4O3N0cm9rZS13aWR0aDowLjU7IiB3aWR0aD0iMTQwIiB4PSIyMjIiIHk9IjI3MC45ODQ0Ii8+PHRleHQgZmlsbD0iIzAwMDAwMCIgZm9udC1mYW1pbHk9InNhbnMtc2VyaWYiIGZvbnQtc2l6ZT0iMTIiIGZvbnQtc3R5bGU9Iml0YWxpYyIgbGVuZ3RoQWRqdXN0PSJzcGFjaW5nIiB0ZXh0TGVuZ3RoPSI3MiIgeD0iMjU2IiB5PSIyOTIuMzI4MSI+JiMxNzE7Y29tcG9uZW50JiMxODc7PC90ZXh0Pjx0ZXh0IGZpbGw9IiMwMDAwMDAiIGZvbnQtZmFtaWx5PSJzYW5zLXNlcmlmIiBmb250LXNpemU9IjE2IiBmb250LXdlaWdodD0iYm9sZCIgbGVuZ3RoQWRqdXN0PSJzcGFjaW5nIiB0ZXh0TGVuZ3RoPSIxMjAiIHg9IjIzMiIgeT0iMzA4Ljk1MzEiPlBvc3RTZXJ2aWNlSW1wbDwvdGV4dD48dGV4dCBmaWxsPSIjMDAwMDAwIiBmb250LWZhbWlseT0ic2Fucy1zZXJpZiIgZm9udC1zaXplPSIxMiIgZm9udC1zdHlsZT0iaXRhbGljIiBsZW5ndGhBZGp1c3Q9InNwYWNpbmciIHRleHRMZW5ndGg9Ijk2IiB4PSIyNDQiIHk9IjMyMi4yOTY5Ij5bJiMyNDA4NjsmIzIzMzc2OyYjMjYzODE7JiMyMTE1MzsmIzIzNDU0OyYjMjk2MTY7JiMzMTg2NztdPC90ZXh0PjwvZz48IS0tZW50aXR5IGNvbW1lbnRfc2VydmljZV9pbXBsLS0+PGcgaWQ9ImVsZW1fY29tbWVudF9zZXJ2aWNlX2ltcGwiPjxyZWN0IGZpbGw9IiM4NUJCRjAiIGhlaWdodD0iNjIuODEyNSIgcng9IjIuNSIgcnk9IjIuNSIgc3R5bGU9InN0cm9rZTojNzhBOEQ4O3N0cm9rZS13aWR0aDowLjU7IiB3aWR0aD0iMTY0IiB4PSIyMyIgeT0iMjcwLjk4NDQiLz48dGV4dCBmaWxsPSIjMDAwMDAwIiBmb250LWZhbWlseT0ic2Fucy1zZXJpZiIgZm9udC1zaXplPSIxMiIgZm9udC1zdHlsZT0iaXRhbGljIiBsZW5ndGhBZGp1c3Q9InNwYWNpbmciIHRleHRMZW5ndGg9IjcyIiB4PSI2OSIgeT0iMjkyLjMyODEiPiYjMTcxO2NvbXBvbmVudCYjMTg3OzwvdGV4dD48dGV4dCBmaWxsPSIjMDAwMDAwIiBmb250LWZhbWlseT0ic2Fucy1zZXJpZiIgZm9udC1zaXplPSIxNiIgZm9udC13ZWlnaHQ9ImJvbGQiIGxlbmd0aEFkanVzdD0ic3BhY2luZyIgdGV4dExlbmd0aD0iMTQ0IiB4PSIzMyIgeT0iMzA4Ljk1MzEiPkNvbW1lbnRTZXJ2aWNlSW1wbDwvdGV4dD48dGV4dCBmaWxsPSIjMDAwMDAwIiBmb250LWZhbWlseT0ic2Fucy1zZXJpZiIgZm9udC1zaXplPSIxMiIgZm9udC1zdHlsZT0iaXRhbGljIiBsZW5ndGhBZGp1c3Q9InNwYWNpbmciIHRleHRMZW5ndGg9Ijk2IiB4PSI1NyIgeT0iMzIyLjI5NjkiPlsmIzM1NzgwOyYjMzU3NzA7JiMyNjM4MTsmIzIxMTUzOyYjMjM0NTQ7JiMyOTYxNjsmIzMxODY3O108L3RleHQ+PC9nPjwhLS1lbnRpdHkgcG9zdF9yZXBvc2l0b3J5LS0+PGcgaWQ9ImVsZW1fcG9zdF9yZXBvc2l0b3J5Ij48cmVjdCBmaWxsPSIjODVCQkYwIiBoZWlnaHQ9IjYyLjgxMjUiIHJ4PSIyLjUiIHJ5PSIyLjUiIHN0eWxlPSJzdHJva2U6Izc4QThEODtzdHJva2Utd2lkdGg6MC41OyIgd2lkdGg9IjEzMiIgeD0iMjI2IiB5PSI0MDcuOTg0NCIvPjx0ZXh0IGZpbGw9IiMwMDAwMDAiIGZvbnQtZmFtaWx5PSJzYW5zLXNlcmlmIiBmb250LXNpemU9IjEyIiBmb250LXN0eWxlPSJpdGFsaWMiIGxlbmd0aEFkanVzdD0ic3BhY2luZyIgdGV4dExlbmd0aD0iNzIiIHg9IjI1NiIgeT0iNDI5LjMyODEiPiYjMTcxO2NvbXBvbmVudCYjMTg3OzwvdGV4dD48dGV4dCBmaWxsPSIjMDAwMDAwIiBmb250LWZhbWlseT0ic2Fucy1zZXJpZiIgZm9udC1zaXplPSIxNiIgZm9udC13ZWlnaHQ9ImJvbGQiIGxlbmd0aEFkanVzdD0ic3BhY2luZyIgdGV4dExlbmd0aD0iMTEyIiB4PSIyMzYiIHk9IjQ0NS45NTMxIj5Qb3N0UmVwb3NpdG9yeTwvdGV4dD48dGV4dCBmaWxsPSIjMDAwMDAwIiBmb250LWZhbWlseT0ic2Fucy1zZXJpZiIgZm9udC1zaXplPSIxMiIgZm9udC1zdHlsZT0iaXRhbGljIiBsZW5ndGhBZGp1c3Q9InNwYWNpbmciIHRleHRMZW5ndGg9Ijk2IiB4PSIyNDQiIHk9IjQ1OS4yOTY5Ij5bJiMyNDA4NjsmIzIzMzc2OyYjMjU5Njg7JiMyNTQ1NDsmIzM1Nzc1OyYjMzgzODI7JiMyMzYxODtdPC90ZXh0PjwvZz48IS0tZW50aXR5IGNvbW1lbnRfcmVwb3NpdG9yeS0tPjxnIGlkPSJlbGVtX2NvbW1lbnRfcmVwb3NpdG9yeSI+PHJlY3QgZmlsbD0iIzg1QkJGMCIgaGVpZ2h0PSI2Mi44MTI1IiByeD0iMi41IiByeT0iMi41IiBzdHlsZT0ic3Ryb2tlOiM3OEE4RDg7c3Ryb2tlLXdpZHRoOjAuNTsiIHdpZHRoPSIxNTYiIHg9IjI3IiB5PSI0MDcuOTg0NCIvPjx0ZXh0IGZpbGw9IiMwMDAwMDAiIGZvbnQtZmFtaWx5PSJzYW5zLXNlcmlmIiBmb250LXNpemU9IjEyIiBmb250LXN0eWxlPSJpdGFsaWMiIGxlbmd0aEFkanVzdD0ic3BhY2luZyIgdGV4dExlbmd0aD0iNzIiIHg9IjY5IiB5PSI0MjkuMzI4MSI+JiMxNzE7Y29tcG9uZW50JiMxODc7PC90ZXh0Pjx0ZXh0IGZpbGw9IiMwMDAwMDAiIGZvbnQtZmFtaWx5PSJzYW5zLXNlcmlmIiBmb250LXNpemU9IjE2IiBmb250LXdlaWdodD0iYm9sZCIgbGVuZ3RoQWRqdXN0PSJzcGFjaW5nIiB0ZXh0TGVuZ3RoPSIxMzYiIHg9IjM3IiB5PSI0NDUuOTUzMSI+Q29tbWVudFJlcG9zaXRvcnk8L3RleHQ+PHRleHQgZmlsbD0iIzAwMDAwMCIgZm9udC1mYW1pbHk9InNhbnMtc2VyaWYiIGZvbnQtc2l6ZT0iMTIiIGZvbnQtc3R5bGU9Iml0YWxpYyIgbGVuZ3RoQWRqdXN0PSJzcGFjaW5nIiB0ZXh0TGVuZ3RoPSI5NiIgeD0iNTciIHk9IjQ1OS4yOTY5Ij5bJiMzNTc4MDsmIzM1NzcwOyYjMjU5Njg7JiMyNTQ1NDsmIzM1Nzc1OyYjMzgzODI7JiMyMzYxODtdPC90ZXh0PjwvZz48IS0tbGluayBwb3N0X2NvbnRyb2xsZXIgdG8gcG9zdF9zZXJ2aWNlX2ltcGwtLT48ZyBpZD0ibGlua19wb3N0X2NvbnRyb2xsZXJfcG9zdF9zZXJ2aWNlX2ltcGwiPjxwYXRoIGQ9Ik0yOTIsMTk3LjExNDQgQzI5MiwyMTkuMjE0NCAyOTIsMjQwLjkwNDQgMjkyLDI2Mi45NzQ0ICIgZmlsbD0ibm9uZSIgaWQ9InBvc3RfY29udHJvbGxlci10by1wb3N0X3NlcnZpY2VfaW1wbCIgc3R5bGU9InN0cm9rZTojNjY2NjY2O3N0cm9rZS13aWR0aDoxLjA7Ii8+PHBvbHlnb24gZmlsbD0iIzY2NjY2NiIgcG9pbnRzPSIyOTIsMjcwLjk3NDQsMjk1LDI2Mi45NzQ0LDI4OSwyNjIuOTc0NCwyOTIsMjcwLjk3NDQiIHN0eWxlPSJzdHJva2U6IzY2NjY2NjtzdHJva2Utd2lkdGg6MS4wOyIvPjx0ZXh0IGZpbGw9IiM2NjY2NjYiIGZvbnQtZmFtaWx5PSJzYW5zLXNlcmlmIiBmb250LXNpemU9IjEyIiBmb250LXdlaWdodD0iYm9sZCIgbGVuZ3RoQWRqdXN0PSJzcGFjaW5nIiB0ZXh0TGVuZ3RoPSIyNCIgeD0iMjkzIiB5PSIyMzkuMzI4MSI+JiMzNTg0MzsmIzI5OTkyOzwvdGV4dD48L2c+PCEtLWxpbmsgY29tbWVudF9jb250cm9sbGVyIHRvIGNvbW1lbnRfc2VydmljZV9pbXBsLS0+PGcgaWQ9ImxpbmtfY29tbWVudF9jb250cm9sbGVyX2NvbW1lbnRfc2VydmljZV9pbXBsIj48cGF0aCBkPSJNMTA1LDE5Ny4xMTQ0IEMxMDUsMjE5LjIxNDQgMTA1LDI0MC45MDQ0IDEwNSwyNjIuOTc0NCAiIGZpbGw9Im5vbmUiIGlkPSJjb21tZW50X2NvbnRyb2xsZXItdG8tY29tbWVudF9zZXJ2aWNlX2ltcGwiIHN0eWxlPSJzdHJva2U6IzY2NjY2NjtzdHJva2Utd2lkdGg6MS4wOyIvPjxwb2x5Z29uIGZpbGw9IiM2NjY2NjYiIHBvaW50cz0iMTA1LDI3MC45NzQ0LDEwOCwyNjIuOTc0NCwxMDIsMjYyLjk3NDQsMTA1LDI3MC45NzQ0IiBzdHlsZT0ic3Ryb2tlOiM2NjY2NjY7c3Ryb2tlLXdpZHRoOjEuMDsiLz48dGV4dCBmaWxsPSIjNjY2NjY2IiBmb250LWZhbWlseT0ic2Fucy1zZXJpZiIgZm9udC1zaXplPSIxMiIgZm9udC13ZWlnaHQ9ImJvbGQiIGxlbmd0aEFkanVzdD0ic3BhY2luZyIgdGV4dExlbmd0aD0iMjQiIHg9IjEwNiIgeT0iMjM5LjMyODEiPiYjMzU4NDM7JiMyOTk5Mjs8L3RleHQ+PC9nPjwhLS1saW5rIHBvc3Rfc2VydmljZV9pbXBsIHRvIHBvc3RfcmVwb3NpdG9yeS0tPjxnIGlkPSJsaW5rX3Bvc3Rfc2VydmljZV9pbXBsX3Bvc3RfcmVwb3NpdG9yeSI+PHBhdGggZD0iTTI5MiwzMzQuMTE0NCBDMjkyLDM1Ni4yMTQ0IDI5MiwzNzcuOTA0NCAyOTIsMzk5Ljk3NDQgIiBmaWxsPSJub25lIiBpZD0icG9zdF9zZXJ2aWNlX2ltcGwtdG8tcG9zdF9yZXBvc2l0b3J5IiBzdHlsZT0ic3Ryb2tlOiM2NjY2NjY7c3Ryb2tlLXdpZHRoOjEuMDsiLz48cG9seWdvbiBmaWxsPSIjNjY2NjY2IiBwb2ludHM9IjI5Miw0MDcuOTc0NCwyOTUsMzk5Ljk3NDQsMjg5LDM5OS45NzQ0LDI5Miw0MDcuOTc0NCIgc3R5bGU9InN0cm9rZTojNjY2NjY2O3N0cm9rZS13aWR0aDoxLjA7Ii8+PHRleHQgZmlsbD0iIzY2NjY2NiIgZm9udC1mYW1pbHk9InNhbnMtc2VyaWYiIGZvbnQtc2l6ZT0iMTIiIGZvbnQtd2VpZ2h0PSJib2xkIiBsZW5ndGhBZGp1c3Q9InNwYWNpbmciIHRleHRMZW5ndGg9IjI0IiB4PSIyOTMiIHk9IjM3Ni4zMjgxIj4mIzM1ODQzOyYjMjk5OTI7PC90ZXh0PjwvZz48IS0tbGluayBjb21tZW50X3NlcnZpY2VfaW1wbCB0byBjb21tZW50X3JlcG9zaXRvcnktLT48ZyBpZD0ibGlua19jb21tZW50X3NlcnZpY2VfaW1wbF9jb21tZW50X3JlcG9zaXRvcnkiPjxwYXRoIGQ9Ik0xMDUsMzM0LjExNDQgQzEwNSwzNTYuMjE0NCAxMDUsMzc3LjkwNDQgMTA1LDM5OS45NzQ0ICIgZmlsbD0ibm9uZSIgaWQ9ImNvbW1lbnRfc2VydmljZV9pbXBsLXRvLWNvbW1lbnRfcmVwb3NpdG9yeSIgc3R5bGU9InN0cm9rZTojNjY2NjY2O3N0cm9rZS13aWR0aDoxLjA7Ii8+PHBvbHlnb24gZmlsbD0iIzY2NjY2NiIgcG9pbnRzPSIxMDUsNDA3Ljk3NDQsMTA4LDM5OS45NzQ0LDEwMiwzOTkuOTc0NCwxMDUsNDA3Ljk3NDQiIHN0eWxlPSJzdHJva2U6IzY2NjY2NjtzdHJva2Utd2lkdGg6MS4wOyIvPjx0ZXh0IGZpbGw9IiM2NjY2NjYiIGZvbnQtZmFtaWx5PSJzYW5zLXNlcmlmIiBmb250LXNpemU9IjEyIiBmb250LXdlaWdodD0iYm9sZCIgbGVuZ3RoQWRqdXN0PSJzcGFjaW5nIiB0ZXh0TGVuZ3RoPSIyNCIgeD0iMTA2IiB5PSIzNzYuMzI4MSI+JiMzNTg0MzsmIzI5OTkyOzwvdGV4dD48L2c+PCEtLVNSQz1bVFA1REl5Q202Q1ZsX0hIbmZ1YWxsTlpvazl1NDEtQm1GQmVQRDkwczlLc0w4TzlrTEtJU0ItMEJFMTQ0R0l6czRyNmQwX3FtY2dMLTJ6Q05vaGZrZnYxX3lsb1VOdnZDOEJFQWRMTmVLMHBNNlJGaVVMTWIta1JpNmNCaEppTW44UXFJYXE2SnBMUTllTGZPRHZiWnUxY1JoTTlLS1JNdmNRS1dNWWFrZ2VQa0NxWGJMRFE4T0g0cGdCN2FOS0xYWTY0OG5GcU5GX2hpdHBKdnVQdGVrUi16RHp4d0tYSER1ZExhR2ZnTjNHcDdIQW5NYmJxdEsxTEVXem5XS0t4a0luUDV2WGVlNENCMDUyWk0yWmYzVGQzMEp5dnVqeTZ4Yl9wZno2VGRqX3p3dVp5Uzk1a194VmhVZm9oZzdfeGhSTXVJUjJhMDk5UHZZellpNzNvSjRlbVhiUkdiY01YOTRGQmxOTjZ3N201NWd5bHROaUlyd3hWVi15X3J0NklBNVpuM2hjY1c1ZU1aYzk1UmJmYkxaQ1RJSGVRNU95Ykk1MnQ4OTJJNlZqNnVrN1NoWlpsWWtKVjZSdVdNNm11MTh4YWlDMmo3ZUxtRzh4R01nb3FkbU8zUEhRVlZ6N3BsLSAtX0F1c0NkYnFCNU5jYlFoOU1YSVRtb25EYUY3SkstbHpDR3Z1LVhHYjBwd2psNloyZ2Y3Nm9ObGZDVG9QWHN3UkFINHFXZ2pfeTFdLS0+PC9nPjwvc3ZnPg==;" vertex="1" parent="1">
            <mxGeometry x="657" y="11377" width="384" height="492" as="geometry" />
          </mxCell>
        </UserObject>
        <UserObject label="" plantUmlData="{&#xa;  &quot;data&quot;: &quot;@startuml\n!includeurl https://raw.githubusercontent.com/plantuml-stdlib/C4-PlantUML/master/C4_Component.puml\n\ntitle 流浪猫服务组件图\n\nContainer(cat_service, \&quot;流浪猫服务\&quot;, \&quot;Spring Boot + MyBatis\&quot;, \&quot;流浪猫信息管理、求助信息、领养申请\&quot;) {\n  Component(cat_controller, \&quot;CatController\&quot;, \&quot;处理流浪猫信息相关的请求\&quot;)\n  Component(adoption_controller, \&quot;AdoptionController\&quot;, \&quot;处理领养申请相关的请求\&quot;)\n\n  Component(cat_service_impl, \&quot;CatServiceImpl\&quot;, \&quot;流浪猫服务实现类\&quot;)\n  Component(adoption_service_impl, \&quot;AdoptionServiceImpl\&quot;, \&quot;领养服务实现类\&quot;)\n\n  Component(cat_repository, \&quot;CatRepository\&quot;, \&quot;流浪猫数据访问层\&quot;)\n  Component(adoption_repository, \&quot;AdoptionRepository\&quot;, \&quot;领养申请数据访问层\&quot;)\n\n  Rel(cat_controller, cat_service_impl, \&quot;调用\&quot;)\n  Rel(adoption_controller, adoption_service_impl, \&quot;调用\&quot;)\n\n  Rel(cat_service_impl, cat_repository, \&quot;调用\&quot;)\n  Rel(adoption_service_impl, adoption_repository, \&quot;调用\&quot;)\n}\n\n@enduml&quot;,&#xa;  &quot;format&quot;: &quot;svg&quot;&#xa;}" id="WF8WQ5typgrZwuC74MDy-3">
          <mxCell style="shape=image;noLabel=1;verticalAlign=top;aspect=fixed;imageAspect=0;image=data:image/svg+xml,PD94bWwgdmVyc2lvbj0iMS4wIiBlbmNvZGluZz0idXMtYXNjaWkiIHN0YW5kYWxvbmU9Im5vIj8+PHN2ZyB4bWxucz0iaHR0cDovL3d3dy53My5vcmcvMjAwMC9zdmciIHhtbG5zOnhsaW5rPSJodHRwOi8vd3d3LnczLm9yZy8xOTk5L3hsaW5rIiBjb250ZW50U3R5bGVUeXBlPSJ0ZXh0L2NzcyIgaGVpZ2h0PSI0OTJweCIgcHJlc2VydmVBc3BlY3RSYXRpbz0ibm9uZSIgc3R5bGU9IndpZHRoOjQyMHB4O2hlaWdodDo0OTJweDtiYWNrZ3JvdW5kOiNGRkZGRkY7IiB2ZXJzaW9uPSIxLjEiIHZpZXdCb3g9IjAgMCA0MjAgNDkyIiB3aWR0aD0iNDIwcHgiIHpvb21BbmRQYW49Im1hZ25pZnkiPjxkZWZzLz48Zz48dGV4dCBmaWxsPSIjMDAwMDAwIiBmb250LWZhbWlseT0ic2Fucy1zZXJpZiIgZm9udC1zaXplPSIxNCIgZm9udC13ZWlnaHQ9ImJvbGQiIGxlbmd0aEFkanVzdD0ic3BhY2luZyIgdGV4dExlbmd0aD0iMTEyIiB4PSIxNDciIHk9IjIzLjIzNDQiPiYjMjc5Njk7JiMyODAxMDsmIzI5NDgzOyYjMjYzODE7JiMyMTE1MzsmIzMyNDUyOyYjMjAyMTQ7JiMyMjI3MDs8L3RleHQ+PCEtLWNsdXN0ZXIgY2F0X3NlcnZpY2UtLT48ZyBpZD0iY2x1c3Rlcl9jYXRfc2VydmljZSI+PHJlY3QgZmlsbD0iIzQzOERENSIgaGVpZ2h0PSI0NDQiIHJ4PSIyLjUiIHJ5PSIyLjUiIHN0eWxlPSJzdHJva2U6IzNDN0ZDMDtzdHJva2Utd2lkdGg6MS4wOyIgd2lkdGg9IjQwNyIgeD0iNyIgeT0iNDIuOTg0NCIvPjx0ZXh0IGZpbGw9IiNGRkZGRkYiIGZvbnQtZmFtaWx5PSJzYW5zLXNlcmlmIiBmb250LXNpemU9IjEyIiBmb250LXN0eWxlPSJpdGFsaWMiIGxlbmd0aEFkanVzdD0ic3BhY2luZyIgdGV4dExlbmd0aD0iNzIiIHg9IjE3NC41IiB5PSI1Ni4zMjgxIj4mIzE3MTtjb250YWluZXImIzE4Nzs8L3RleHQ+PHRleHQgZmlsbD0iI0ZGRkZGRiIgZm9udC1mYW1pbHk9InNhbnMtc2VyaWYiIGZvbnQtc2l6ZT0iMTYiIGZvbnQtd2VpZ2h0PSJib2xkIiBsZW5ndGhBZGp1c3Q9InNwYWNpbmciIHRleHRMZW5ndGg9IjgwIiB4PSIxNzAuNSIgeT0iNzIuOTUzMSI+JiMyNzk2OTsmIzI4MDEwOyYjMjk0ODM7JiMyNjM4MTsmIzIxMTUzOzwvdGV4dD48dGV4dCBmaWxsPSIjRkZGRkZGIiBmb250LWZhbWlseT0ic2Fucy1zZXJpZiIgZm9udC1zaXplPSIxMiIgZm9udC1zdHlsZT0iaXRhbGljIiBmb250LXdlaWdodD0iYm9sZCIgbGVuZ3RoQWRqdXN0PSJzcGFjaW5nIiB0ZXh0TGVuZ3RoPSIxNTEiIHg9IjEzNSIgeT0iODYuMjk2OSI+W1NwcmluZyBCb290ICsgTXlCYXRpc108L3RleHQ+PHRleHQgZmlsbD0iI0ZGRkZGRiIgZm9udC1mYW1pbHk9InNhbnMtc2VyaWYiIGZvbnQtc2l6ZT0iMTQiIGZvbnQtd2VpZ2h0PSJib2xkIiBsZW5ndGhBZGp1c3Q9InNwYWNpbmciIHRleHRMZW5ndGg9IjciIHg9IjIwNyIgeT0iMTAxLjAzMTMiPiYjMTYwOzwvdGV4dD48dGV4dCBmaWxsPSIjRkZGRkZGIiBmb250LWZhbWlseT0ic2Fucy1zZXJpZiIgZm9udC1zaXplPSIxNCIgZm9udC13ZWlnaHQ9ImJvbGQiIGxlbmd0aEFkanVzdD0ic3BhY2luZyIgdGV4dExlbmd0aD0iMjM4IiB4PSI5MS41IiB5PSIxMTYuMDE1NiI+JiMyNzk2OTsmIzI4MDEwOyYjMjk0ODM7JiMyMDQ0OTsmIzI0Njg3OyYjMzE2NDk7JiMyOTcwMjsmIzEyMjg5OyYjMjc3MTQ7JiMyMTE2MTsmIzIwNDQ5OyYjMjQ2ODc7JiMxMjI4OTsmIzM5MDQ2OyYjMjA4NTk7JiMzMDAwMzsmIzM1ODMxOzwvdGV4dD48L2c+PCEtLWVudGl0eSBjYXRfY29udHJvbGxlci0tPjxnIGlkPSJlbGVtX2NhdF9jb250cm9sbGVyIj48cmVjdCBmaWxsPSIjODVCQkYwIiBoZWlnaHQ9IjYyLjgxMjUiIHJ4PSIyLjUiIHJ5PSIyLjUiIHN0eWxlPSJzdHJva2U6Izc4QThEODtzdHJva2Utd2lkdGg6MC41OyIgd2lkdGg9IjE3NiIgeD0iMjIyIiB5PSIxMzMuOTg0NCIvPjx0ZXh0IGZpbGw9IiMwMDAwMDAiIGZvbnQtZmFtaWx5PSJzYW5zLXNlcmlmIiBmb250LXNpemU9IjEyIiBmb250LXN0eWxlPSJpdGFsaWMiIGxlbmd0aEFkanVzdD0ic3BhY2luZyIgdGV4dExlbmd0aD0iNzIiIHg9IjI3NCIgeT0iMTU1LjMyODEiPiYjMTcxO2NvbXBvbmVudCYjMTg3OzwvdGV4dD48dGV4dCBmaWxsPSIjMDAwMDAwIiBmb250LWZhbWlseT0ic2Fucy1zZXJpZiIgZm9udC1zaXplPSIxNiIgZm9udC13ZWlnaHQ9ImJvbGQiIGxlbmd0aEFkanVzdD0ic3BhY2luZyIgdGV4dExlbmd0aD0iMTA0IiB4PSIyNTgiIHk9IjE3MS45NTMxIj5DYXRDb250cm9sbGVyPC90ZXh0Pjx0ZXh0IGZpbGw9IiMwMDAwMDAiIGZvbnQtZmFtaWx5PSJzYW5zLXNlcmlmIiBmb250LXNpemU9IjEyIiBmb250LXN0eWxlPSJpdGFsaWMiIGxlbmd0aEFkanVzdD0ic3BhY2luZyIgdGV4dExlbmd0aD0iMTU2IiB4PSIyMzIiIHk9IjE4NS4yOTY5Ij5bJiMyMjc4ODsmIzI5NzAyOyYjMjc5Njk7JiMyODAxMDsmIzI5NDgzOyYjMjA0NDk7JiMyNDY4NzsmIzMwNDU2OyYjMjA4NTE7JiMzMDM0MDsmIzM1ODMxOyYjMjc3MTQ7XTwvdGV4dD48L2c+PCEtLWVudGl0eSBhZG9wdGlvbl9jb250cm9sbGVyLS0+PGcgaWQ9ImVsZW1fYWRvcHRpb25fY29udHJvbGxlciI+PHJlY3QgZmlsbD0iIzg1QkJGMCIgaGVpZ2h0PSI2Mi44MTI1IiByeD0iMi41IiByeT0iMi41IiBzdHlsZT0ic3Ryb2tlOiM3OEE4RDg7c3Ryb2tlLXdpZHRoOjAuNTsiIHdpZHRoPSIxNjQiIHg9IjIzIiB5PSIxMzMuOTg0NCIvPjx0ZXh0IGZpbGw9IiMwMDAwMDAiIGZvbnQtZmFtaWx5PSJzYW5zLXNlcmlmIiBmb250LXNpemU9IjEyIiBmb250LXN0eWxlPSJpdGFsaWMiIGxlbmd0aEFkanVzdD0ic3BhY2luZyIgdGV4dExlbmd0aD0iNzIiIHg9IjY5IiB5PSIxNTUuMzI4MSI+JiMxNzE7Y29tcG9uZW50JiMxODc7PC90ZXh0Pjx0ZXh0IGZpbGw9IiMwMDAwMDAiIGZvbnQtZmFtaWx5PSJzYW5zLXNlcmlmIiBmb250LXNpemU9IjE2IiBmb250LXdlaWdodD0iYm9sZCIgbGVuZ3RoQWRqdXN0PSJzcGFjaW5nIiB0ZXh0TGVuZ3RoPSIxNDQiIHg9IjMzIiB5PSIxNzEuOTUzMSI+QWRvcHRpb25Db250cm9sbGVyPC90ZXh0Pjx0ZXh0IGZpbGw9IiMwMDAwMDAiIGZvbnQtZmFtaWx5PSJzYW5zLXNlcmlmIiBmb250LXNpemU9IjEyIiBmb250LXN0eWxlPSJpdGFsaWMiIGxlbmd0aEFkanVzdD0ic3BhY2luZyIgdGV4dExlbmd0aD0iMTQ0IiB4PSIzMyIgeT0iMTg1LjI5NjkiPlsmIzIyNzg4OyYjMjk3MDI7JiMzOTA0NjsmIzIwODU5OyYjMzAwMDM7JiMzNTgzMTsmIzMwNDU2OyYjMjA4NTE7JiMzMDM0MDsmIzM1ODMxOyYjMjc3MTQ7XTwvdGV4dD48L2c+PCEtLWVudGl0eSBjYXRfc2VydmljZV9pbXBsLS0+PGcgaWQ9ImVsZW1fY2F0X3NlcnZpY2VfaW1wbCI+PHJlY3QgZmlsbD0iIzg1QkJGMCIgaGVpZ2h0PSI2Mi44MTI1IiByeD0iMi41IiByeT0iMi41IiBzdHlsZT0ic3Ryb2tlOiM3OEE4RDg7c3Ryb2tlLXdpZHRoOjAuNTsiIHdpZHRoPSIxMzIiIHg9IjI0NCIgeT0iMjcwLjk4NDQiLz48dGV4dCBmaWxsPSIjMDAwMDAwIiBmb250LWZhbWlseT0ic2Fucy1zZXJpZiIgZm9udC1zaXplPSIxMiIgZm9udC1zdHlsZT0iaXRhbGljIiBsZW5ndGhBZGp1c3Q9InNwYWNpbmciIHRleHRMZW5ndGg9IjcyIiB4PSIyNzQiIHk9IjI5Mi4zMjgxIj4mIzE3MTtjb21wb25lbnQmIzE4Nzs8L3RleHQ+PHRleHQgZmlsbD0iIzAwMDAwMCIgZm9udC1mYW1pbHk9InNhbnMtc2VyaWYiIGZvbnQtc2l6ZT0iMTYiIGZvbnQtd2VpZ2h0PSJib2xkIiBsZW5ndGhBZGp1c3Q9InNwYWNpbmciIHRleHRMZW5ndGg9IjExMiIgeD0iMjU0IiB5PSIzMDguOTUzMSI+Q2F0U2VydmljZUltcGw8L3RleHQ+PHRleHQgZmlsbD0iIzAwMDAwMCIgZm9udC1mYW1pbHk9InNhbnMtc2VyaWYiIGZvbnQtc2l6ZT0iMTIiIGZvbnQtc3R5bGU9Iml0YWxpYyIgbGVuZ3RoQWRqdXN0PSJzcGFjaW5nIiB0ZXh0TGVuZ3RoPSIxMDgiIHg9IjI1NiIgeT0iMzIyLjI5NjkiPlsmIzI3OTY5OyYjMjgwMTA7JiMyOTQ4MzsmIzI2MzgxOyYjMjExNTM7JiMyMzQ1NDsmIzI5NjE2OyYjMzE4Njc7XTwvdGV4dD48L2c+PCEtLWVudGl0eSBhZG9wdGlvbl9zZXJ2aWNlX2ltcGwtLT48ZyBpZD0iZWxlbV9hZG9wdGlvbl9zZXJ2aWNlX2ltcGwiPjxyZWN0IGZpbGw9IiM4NUJCRjAiIGhlaWdodD0iNjIuODEyNSIgcng9IjIuNSIgcnk9IjIuNSIgc3R5bGU9InN0cm9rZTojNzhBOEQ4O3N0cm9rZS13aWR0aDowLjU7IiB3aWR0aD0iMTcyIiB4PSIyMyIgeT0iMjcwLjk4NDQiLz48dGV4dCBmaWxsPSIjMDAwMDAwIiBmb250LWZhbWlseT0ic2Fucy1zZXJpZiIgZm9udC1zaXplPSIxMiIgZm9udC1zdHlsZT0iaXRhbGljIiBsZW5ndGhBZGp1c3Q9InNwYWNpbmciIHRleHRMZW5ndGg9IjcyIiB4PSI3MyIgeT0iMjkyLjMyODEiPiYjMTcxO2NvbXBvbmVudCYjMTg3OzwvdGV4dD48dGV4dCBmaWxsPSIjMDAwMDAwIiBmb250LWZhbWlseT0ic2Fucy1zZXJpZiIgZm9udC1zaXplPSIxNiIgZm9udC13ZWlnaHQ9ImJvbGQiIGxlbmd0aEFkanVzdD0ic3BhY2luZyIgdGV4dExlbmd0aD0iMTUyIiB4PSIzMyIgeT0iMzA4Ljk1MzEiPkFkb3B0aW9uU2VydmljZUltcGw8L3RleHQ+PHRleHQgZmlsbD0iIzAwMDAwMCIgZm9udC1mYW1pbHk9InNhbnMtc2VyaWYiIGZvbnQtc2l6ZT0iMTIiIGZvbnQtc3R5bGU9Iml0YWxpYyIgbGVuZ3RoQWRqdXN0PSJzcGFjaW5nIiB0ZXh0TGVuZ3RoPSI5NiIgeD0iNjEiIHk9IjMyMi4yOTY5Ij5bJiMzOTA0NjsmIzIwODU5OyYjMjYzODE7JiMyMTE1MzsmIzIzNDU0OyYjMjk2MTY7JiMzMTg2NztdPC90ZXh0PjwvZz48IS0tZW50aXR5IGNhdF9yZXBvc2l0b3J5LS0+PGcgaWQ9ImVsZW1fY2F0X3JlcG9zaXRvcnkiPjxyZWN0IGZpbGw9IiM4NUJCRjAiIGhlaWdodD0iNjIuODEyNSIgcng9IjIuNSIgcnk9IjIuNSIgc3R5bGU9InN0cm9rZTojNzhBOEQ4O3N0cm9rZS13aWR0aDowLjU7IiB3aWR0aD0iMTI4IiB4PSIyNDYiIHk9IjQwNy45ODQ0Ii8+PHRleHQgZmlsbD0iIzAwMDAwMCIgZm9udC1mYW1pbHk9InNhbnMtc2VyaWYiIGZvbnQtc2l6ZT0iMTIiIGZvbnQtc3R5bGU9Iml0YWxpYyIgbGVuZ3RoQWRqdXN0PSJzcGFjaW5nIiB0ZXh0TGVuZ3RoPSI3MiIgeD0iMjc0IiB5PSI0MjkuMzI4MSI+JiMxNzE7Y29tcG9uZW50JiMxODc7PC90ZXh0Pjx0ZXh0IGZpbGw9IiMwMDAwMDAiIGZvbnQtZmFtaWx5PSJzYW5zLXNlcmlmIiBmb250LXNpemU9IjE2IiBmb250LXdlaWdodD0iYm9sZCIgbGVuZ3RoQWRqdXN0PSJzcGFjaW5nIiB0ZXh0TGVuZ3RoPSIxMDQiIHg9IjI1OCIgeT0iNDQ1Ljk1MzEiPkNhdFJlcG9zaXRvcnk8L3RleHQ+PHRleHQgZmlsbD0iIzAwMDAwMCIgZm9udC1mYW1pbHk9InNhbnMtc2VyaWYiIGZvbnQtc2l6ZT0iMTIiIGZvbnQtc3R5bGU9Iml0YWxpYyIgbGVuZ3RoQWRqdXN0PSJzcGFjaW5nIiB0ZXh0TGVuZ3RoPSIxMDgiIHg9IjI1NiIgeT0iNDU5LjI5NjkiPlsmIzI3OTY5OyYjMjgwMTA7JiMyOTQ4MzsmIzI1OTY4OyYjMjU0NTQ7JiMzNTc3NTsmIzM4MzgyOyYjMjM2MTg7XTwvdGV4dD48L2c+PCEtLWVudGl0eSBhZG9wdGlvbl9yZXBvc2l0b3J5LS0+PGcgaWQ9ImVsZW1fYWRvcHRpb25fcmVwb3NpdG9yeSI+PHJlY3QgZmlsbD0iIzg1QkJGMCIgaGVpZ2h0PSI2Mi44MTI1IiByeD0iMi41IiByeT0iMi41IiBzdHlsZT0ic3Ryb2tlOiM3OEE4RDg7c3Ryb2tlLXdpZHRoOjAuNTsiIHdpZHRoPSIxNjQiIHg9IjI3IiB5PSI0MDcuOTg0NCIvPjx0ZXh0IGZpbGw9IiMwMDAwMDAiIGZvbnQtZmFtaWx5PSJzYW5zLXNlcmlmIiBmb250LXNpemU9IjEyIiBmb250LXN0eWxlPSJpdGFsaWMiIGxlbmd0aEFkanVzdD0ic3BhY2luZyIgdGV4dExlbmd0aD0iNzIiIHg9IjczIiB5PSI0MjkuMzI4MSI+JiMxNzE7Y29tcG9uZW50JiMxODc7PC90ZXh0Pjx0ZXh0IGZpbGw9IiMwMDAwMDAiIGZvbnQtZmFtaWx5PSJzYW5zLXNlcmlmIiBmb250LXNpemU9IjE2IiBmb250LXdlaWdodD0iYm9sZCIgbGVuZ3RoQWRqdXN0PSJzcGFjaW5nIiB0ZXh0TGVuZ3RoPSIxNDQiIHg9IjM3IiB5PSI0NDUuOTUzMSI+QWRvcHRpb25SZXBvc2l0b3J5PC90ZXh0Pjx0ZXh0IGZpbGw9IiMwMDAwMDAiIGZvbnQtZmFtaWx5PSJzYW5zLXNlcmlmIiBmb250LXNpemU9IjEyIiBmb250LXN0eWxlPSJpdGFsaWMiIGxlbmd0aEFkanVzdD0ic3BhY2luZyIgdGV4dExlbmd0aD0iMTIwIiB4PSI0OSIgeT0iNDU5LjI5NjkiPlsmIzM5MDQ2OyYjMjA4NTk7JiMzMDAwMzsmIzM1ODMxOyYjMjU5Njg7JiMyNTQ1NDsmIzM1Nzc1OyYjMzgzODI7JiMyMzYxODtdPC90ZXh0PjwvZz48IS0tbGluayBjYXRfY29udHJvbGxlciB0byBjYXRfc2VydmljZV9pbXBsLS0+PGcgaWQ9ImxpbmtfY2F0X2NvbnRyb2xsZXJfY2F0X3NlcnZpY2VfaW1wbCI+PHBhdGggZD0iTTMxMCwxOTcuMTE0NCBDMzEwLDIxOS4yMTQ0IDMxMCwyNDAuOTA0NCAzMTAsMjYyLjk3NDQgIiBmaWxsPSJub25lIiBpZD0iY2F0X2NvbnRyb2xsZXItdG8tY2F0X3NlcnZpY2VfaW1wbCIgc3R5bGU9InN0cm9rZTojNjY2NjY2O3N0cm9rZS13aWR0aDoxLjA7Ii8+PHBvbHlnb24gZmlsbD0iIzY2NjY2NiIgcG9pbnRzPSIzMTAsMjcwLjk3NDQsMzEzLDI2Mi45NzQ0LDMwNywyNjIuOTc0NCwzMTAsMjcwLjk3NDQiIHN0eWxlPSJzdHJva2U6IzY2NjY2NjtzdHJva2Utd2lkdGg6MS4wOyIvPjx0ZXh0IGZpbGw9IiM2NjY2NjYiIGZvbnQtZmFtaWx5PSJzYW5zLXNlcmlmIiBmb250LXNpemU9IjEyIiBmb250LXdlaWdodD0iYm9sZCIgbGVuZ3RoQWRqdXN0PSJzcGFjaW5nIiB0ZXh0TGVuZ3RoPSIyNCIgeD0iMzExIiB5PSIyMzkuMzI4MSI+JiMzNTg0MzsmIzI5OTkyOzwvdGV4dD48L2c+PCEtLWxpbmsgYWRvcHRpb25fY29udHJvbGxlciB0byBhZG9wdGlvbl9zZXJ2aWNlX2ltcGwtLT48ZyBpZD0ibGlua19hZG9wdGlvbl9jb250cm9sbGVyX2Fkb3B0aW9uX3NlcnZpY2VfaW1wbCI+PHBhdGggZD0iTTEwNS45MSwxOTcuMTE0NCBDMTA2LjU2LDIxOS4yMTQ0IDEwNy4yMDA5LDI0MC45MDc5IDEwNy44NjA5LDI2Mi45Nzc5ICIgZmlsbD0ibm9uZSIgaWQ9ImFkb3B0aW9uX2NvbnRyb2xsZXItdG8tYWRvcHRpb25fc2VydmljZV9pbXBsIiBzdHlsZT0ic3Ryb2tlOiM2NjY2NjY7c3Ryb2tlLXdpZHRoOjEuMDsiLz48cG9seWdvbiBmaWxsPSIjNjY2NjY2IiBwb2ludHM9IjEwOC4xLDI3MC45NzQ0LDExMC44NTk1LDI2Mi44ODgzLDEwNC44NjIyLDI2My4wNjc2LDEwOC4xLDI3MC45NzQ0IiBzdHlsZT0ic3Ryb2tlOiM2NjY2NjY7c3Ryb2tlLXdpZHRoOjEuMDsiLz48dGV4dCBmaWxsPSIjNjY2NjY2IiBmb250LWZhbWlseT0ic2Fucy1zZXJpZiIgZm9udC1zaXplPSIxMiIgZm9udC13ZWlnaHQ9ImJvbGQiIGxlbmd0aEFkanVzdD0ic3BhY2luZyIgdGV4dExlbmd0aD0iMjQiIHg9IjEwOCIgeT0iMjM5LjMyODEiPiYjMzU4NDM7JiMyOTk5Mjs8L3RleHQ+PC9nPjwhLS1saW5rIGNhdF9zZXJ2aWNlX2ltcGwgdG8gY2F0X3JlcG9zaXRvcnktLT48ZyBpZD0ibGlua19jYXRfc2VydmljZV9pbXBsX2NhdF9yZXBvc2l0b3J5Ij48cGF0aCBkPSJNMzEwLDMzNC4xMTQ0IEMzMTAsMzU2LjIxNDQgMzEwLDM3Ny45MDQ0IDMxMCwzOTkuOTc0NCAiIGZpbGw9Im5vbmUiIGlkPSJjYXRfc2VydmljZV9pbXBsLXRvLWNhdF9yZXBvc2l0b3J5IiBzdHlsZT0ic3Ryb2tlOiM2NjY2NjY7c3Ryb2tlLXdpZHRoOjEuMDsiLz48cG9seWdvbiBmaWxsPSIjNjY2NjY2IiBwb2ludHM9IjMxMCw0MDcuOTc0NCwzMTMsMzk5Ljk3NDQsMzA3LDM5OS45NzQ0LDMxMCw0MDcuOTc0NCIgc3R5bGU9InN0cm9rZTojNjY2NjY2O3N0cm9rZS13aWR0aDoxLjA7Ii8+PHRleHQgZmlsbD0iIzY2NjY2NiIgZm9udC1mYW1pbHk9InNhbnMtc2VyaWYiIGZvbnQtc2l6ZT0iMTIiIGZvbnQtd2VpZ2h0PSJib2xkIiBsZW5ndGhBZGp1c3Q9InNwYWNpbmciIHRleHRMZW5ndGg9IjI0IiB4PSIzMTEiIHk9IjM3Ni4zMjgxIj4mIzM1ODQzOyYjMjk5OTI7PC90ZXh0PjwvZz48IS0tbGluayBhZG9wdGlvbl9zZXJ2aWNlX2ltcGwgdG8gYWRvcHRpb25fcmVwb3NpdG9yeS0tPjxnIGlkPSJsaW5rX2Fkb3B0aW9uX3NlcnZpY2VfaW1wbF9hZG9wdGlvbl9yZXBvc2l0b3J5Ij48cGF0aCBkPSJNMTA5LDMzNC4xMTQ0IEMxMDksMzU2LjIxNDQgMTA5LDM3Ny45MDQ0IDEwOSwzOTkuOTc0NCAiIGZpbGw9Im5vbmUiIGlkPSJhZG9wdGlvbl9zZXJ2aWNlX2ltcGwtdG8tYWRvcHRpb25fcmVwb3NpdG9yeSIgc3R5bGU9InN0cm9rZTojNjY2NjY2O3N0cm9rZS13aWR0aDoxLjA7Ii8+PHBvbHlnb24gZmlsbD0iIzY2NjY2NiIgcG9pbnRzPSIxMDksNDA3Ljk3NDQsMTEyLDM5OS45NzQ0LDEwNiwzOTkuOTc0NCwxMDksNDA3Ljk3NDQiIHN0eWxlPSJzdHJva2U6IzY2NjY2NjtzdHJva2Utd2lkdGg6MS4wOyIvPjx0ZXh0IGZpbGw9IiM2NjY2NjYiIGZvbnQtZmFtaWx5PSJzYW5zLXNlcmlmIiBmb250LXNpemU9IjEyIiBmb250LXdlaWdodD0iYm9sZCIgbGVuZ3RoQWRqdXN0PSJzcGFjaW5nIiB0ZXh0TGVuZ3RoPSIyNCIgeD0iMTEwIiB5PSIzNzYuMzI4MSI+JiMzNTg0MzsmIzI5OTkyOzwvdGV4dD48L2c+PCEtLVNSQz1bVFA1Qkl5RDA1OE50LUhMWkxYT1ZzUlhvZnJhOTJiOW5OTTh3d0MwYTRvT0pIS0ltTWJzODVIU0xHS01la0YwMVFLbG4wRzd4T3Ntb3pMeXVDTXQ4Z3lqeGtGU3hQeXZDOExGN0pYS3c1OENUbllueEtMNmVqWlVfWlRZRWktTk9hRWg0UEQxYXlwZW41MGpoOWRDQ0Y2VXBBYVBSWWhlbWpudkFjc2toWWc3UDM1OFhMTEhZTUNHQ1Jvb25BcWFDQ0duMXk1dUJ0Yl92bkxqbXRfM0ZNem9oM3htRl8tdlJhYkpYZTI0SnFjYlRPbkxYa09qcUUwbGFwOEtpZjBzQjhkQ1JCMUYybTBuT3NyX002QkJidkV3V3RtZmdSVXdzLUROUHByNGp3MXh4dm8tSEFDUlZucEZfckVGRHRoM3pBUFYwV0dIMGRGUlZGTm1qOUhYM0FnMmduakh1M2J0eWZ4aDBQaHRrbGxwSjdoLWoyd1FtYXFpZmc1T2I1YUY0SjlFTkhjZUhGZmFucHl1YjdsTExHT1E1ZXltUmFSOFkxM2JWZS15LXlDaUV4dGdKV2NRMHV3V1BRZkdvWnlwYmV6MFlEY0E0eGFWZm9sNlMzZFZUMkhoa3FFdF90aFotdjFQSmo3NnFEM0JQTnZ1Z2k2TThTdHpUcUVJbVN5QVJwX3oxbWVsMlp2bktNZG9SaTRrbHZBZ1BQOVMtQW91WWxadHkwbTAwXS0tPjwvZz48L3N2Zz4=;" vertex="1" parent="1">
            <mxGeometry x="70" y="11377" width="420" height="492" as="geometry" />
          </mxCell>
        </UserObject>
        <UserObject label="" plantUmlData="{&#xa;  &quot;data&quot;: &quot;@startuml\n!includeurl https://raw.githubusercontent.com/plantuml-stdlib/C4-PlantUML/master/C4_Component.puml\n\ntitle 志愿者服务组件图\n\nContainer(volunteer_service, \&quot;志愿者服务\&quot;, \&quot;Spring Boot + MyBatis\&quot;, \&quot;志愿者申请、任务管理、医疗记录\&quot;) {\n  Component(volunteer_controller, \&quot;VolunteerController\&quot;, \&quot;处理志愿者申请相关的请求\&quot;)\n  Component(task_controller, \&quot;TaskController\&quot;, \&quot;处理任务相关的请求\&quot;)\n  Component(record_controller, \&quot;RecordController\&quot;, \&quot;处理医疗记录相关的请求\&quot;)\n  \n  Component(volunteer_service_impl, \&quot;VolunteerServiceImpl\&quot;, \&quot;志愿者服务实现类\&quot;)\n  Component(task_service_impl, \&quot;TaskServiceImpl\&quot;, \&quot;任务服务实现类\&quot;)\n  Component(record_service_impl, \&quot;RecordServiceImpl\&quot;, \&quot;医疗记录服务实现类\&quot;)\n  \n  Component(volunteer_repository, \&quot;VolunteerRepository\&quot;, \&quot;志愿者数据访问层\&quot;)\n  Component(task_repository, \&quot;TaskRepository\&quot;, \&quot;任务数据访问层\&quot;)\n  Component(record_repository, \&quot;RecordRepository\&quot;, \&quot;医疗记录数据访问层\&quot;)\n  \n  Rel(volunteer_controller, volunteer_service_impl, \&quot;调用\&quot;)\n  Rel(task_controller, task_service_impl, \&quot;调用\&quot;)\n  Rel(record_controller, record_service_impl, \&quot;调用\&quot;)\n\n  Rel(volunteer_service_impl, volunteer_repository, \&quot;调用\&quot;)\n  Rel(task_service_impl, task_repository, \&quot;调用\&quot;)\n  Rel(record_service_impl, record_repository, \&quot;调用\&quot;)\n}\n\n@enduml&quot;,&#xa;  &quot;format&quot;: &quot;svg&quot;&#xa;}" id="WF8WQ5typgrZwuC74MDy-4">
          <mxCell style="shape=image;noLabel=1;verticalAlign=top;aspect=fixed;imageAspect=0;image=data:image/svg+xml,PD94bWwgdmVyc2lvbj0iMS4wIiBlbmNvZGluZz0idXMtYXNjaWkiIHN0YW5kYWxvbmU9Im5vIj8+PHN2ZyB4bWxucz0iaHR0cDovL3d3dy53My5vcmcvMjAwMC9zdmciIHhtbG5zOnhsaW5rPSJodHRwOi8vd3d3LnczLm9yZy8xOTk5L3hsaW5rIiBjb250ZW50U3R5bGVUeXBlPSJ0ZXh0L2NzcyIgaGVpZ2h0PSI0OTJweCIgcHJlc2VydmVBc3BlY3RSYXRpbz0ibm9uZSIgc3R5bGU9IndpZHRoOjU5NXB4O2hlaWdodDo0OTJweDtiYWNrZ3JvdW5kOiNGRkZGRkY7IiB2ZXJzaW9uPSIxLjEiIHZpZXdCb3g9IjAgMCA1OTUgNDkyIiB3aWR0aD0iNTk1cHgiIHpvb21BbmRQYW49Im1hZ25pZnkiPjxkZWZzLz48Zz48dGV4dCBmaWxsPSIjMDAwMDAwIiBmb250LWZhbWlseT0ic2Fucy1zZXJpZiIgZm9udC1zaXplPSIxNCIgZm9udC13ZWlnaHQ9ImJvbGQiIGxlbmd0aEFkanVzdD0ic3BhY2luZyIgdGV4dExlbmd0aD0iMTEyIiB4PSIyMzQuNSIgeT0iMjMuMjM0NCI+JiMyNDUzNTsmIzI0ODk1OyYjMzI3NzM7JiMyNjM4MTsmIzIxMTUzOyYjMzI0NTI7JiMyMDIxNDsmIzIyMjcwOzwvdGV4dD48IS0tY2x1c3RlciB2b2x1bnRlZXJfc2VydmljZS0tPjxnIGlkPSJjbHVzdGVyX3ZvbHVudGVlcl9zZXJ2aWNlIj48cmVjdCBmaWxsPSIjNDM4REQ1IiBoZWlnaHQ9IjQ0NCIgcng9IjIuNSIgcnk9IjIuNSIgc3R5bGU9InN0cm9rZTojM0M3RkMwO3N0cm9rZS13aWR0aDoxLjA7IiB3aWR0aD0iNTgyIiB4PSI3IiB5PSI0Mi45ODQ0Ii8+PHRleHQgZmlsbD0iI0ZGRkZGRiIgZm9udC1mYW1pbHk9InNhbnMtc2VyaWYiIGZvbnQtc2l6ZT0iMTIiIGZvbnQtc3R5bGU9Iml0YWxpYyIgbGVuZ3RoQWRqdXN0PSJzcGFjaW5nIiB0ZXh0TGVuZ3RoPSI3MiIgeD0iMjYyIiB5PSI1Ni4zMjgxIj4mIzE3MTtjb250YWluZXImIzE4Nzs8L3RleHQ+PHRleHQgZmlsbD0iI0ZGRkZGRiIgZm9udC1mYW1pbHk9InNhbnMtc2VyaWYiIGZvbnQtc2l6ZT0iMTYiIGZvbnQtd2VpZ2h0PSJib2xkIiBsZW5ndGhBZGp1c3Q9InNwYWNpbmciIHRleHRMZW5ndGg9IjgwIiB4PSIyNTgiIHk9IjcyLjk1MzEiPiYjMjQ1MzU7JiMyNDg5NTsmIzMyNzczOyYjMjYzODE7JiMyMTE1Mzs8L3RleHQ+PHRleHQgZmlsbD0iI0ZGRkZGRiIgZm9udC1mYW1pbHk9InNhbnMtc2VyaWYiIGZvbnQtc2l6ZT0iMTIiIGZvbnQtc3R5bGU9Iml0YWxpYyIgZm9udC13ZWlnaHQ9ImJvbGQiIGxlbmd0aEFkanVzdD0ic3BhY2luZyIgdGV4dExlbmd0aD0iMTUxIiB4PSIyMjIuNSIgeT0iODYuMjk2OSI+W1NwcmluZyBCb290ICsgTXlCYXRpc108L3RleHQ+PHRleHQgZmlsbD0iI0ZGRkZGRiIgZm9udC1mYW1pbHk9InNhbnMtc2VyaWYiIGZvbnQtc2l6ZT0iMTQiIGZvbnQtd2VpZ2h0PSJib2xkIiBsZW5ndGhBZGp1c3Q9InNwYWNpbmciIHRleHRMZW5ndGg9IjciIHg9IjI5NC41IiB5PSIxMDEuMDMxMyI+JiMxNjA7PC90ZXh0Pjx0ZXh0IGZpbGw9IiNGRkZGRkYiIGZvbnQtZmFtaWx5PSJzYW5zLXNlcmlmIiBmb250LXNpemU9IjE0IiBmb250LXdlaWdodD0iYm9sZCIgbGVuZ3RoQWRqdXN0PSJzcGFjaW5nIiB0ZXh0TGVuZ3RoPSIyMTAiIHg9IjE5MyIgeT0iMTE2LjAxNTYiPiYjMjQ1MzU7JiMyNDg5NTsmIzMyNzczOyYjMzAwMDM7JiMzNTgzMTsmIzEyMjg5OyYjMjAyMTk7JiMyMTE1MzsmIzMxNjQ5OyYjMjk3MDI7JiMxMjI4OTsmIzIxMzA3OyYjMzAxMDM7JiMzNTc2MDsmIzI0NDA1OzwvdGV4dD48L2c+PCEtLWVudGl0eSB2b2x1bnRlZXJfY29udHJvbGxlci0tPjxnIGlkPSJlbGVtX3ZvbHVudGVlcl9jb250cm9sbGVyIj48cmVjdCBmaWxsPSIjODVCQkYwIiBoZWlnaHQ9IjYyLjgxMjUiIHJ4PSIyLjUiIHJ5PSIyLjUiIHN0eWxlPSJzdHJva2U6Izc4QThEODtzdHJva2Utd2lkdGg6MC41OyIgd2lkdGg9IjE3NiIgeD0iMzk3IiB5PSIxMzMuOTg0NCIvPjx0ZXh0IGZpbGw9IiMwMDAwMDAiIGZvbnQtZmFtaWx5PSJzYW5zLXNlcmlmIiBmb250LXNpemU9IjEyIiBmb250LXN0eWxlPSJpdGFsaWMiIGxlbmd0aEFkanVzdD0ic3BhY2luZyIgdGV4dExlbmd0aD0iNzIiIHg9IjQ0OSIgeT0iMTU1LjMyODEiPiYjMTcxO2NvbXBvbmVudCYjMTg3OzwvdGV4dD48dGV4dCBmaWxsPSIjMDAwMDAwIiBmb250LWZhbWlseT0ic2Fucy1zZXJpZiIgZm9udC1zaXplPSIxNiIgZm9udC13ZWlnaHQ9ImJvbGQiIGxlbmd0aEFkanVzdD0ic3BhY2luZyIgdGV4dExlbmd0aD0iMTUyIiB4PSI0MDkiIHk9IjE3MS45NTMxIj5Wb2x1bnRlZXJDb250cm9sbGVyPC90ZXh0Pjx0ZXh0IGZpbGw9IiMwMDAwMDAiIGZvbnQtZmFtaWx5PSJzYW5zLXNlcmlmIiBmb250LXNpemU9IjEyIiBmb250LXN0eWxlPSJpdGFsaWMiIGxlbmd0aEFkanVzdD0ic3BhY2luZyIgdGV4dExlbmd0aD0iMTU2IiB4PSI0MDciIHk9IjE4NS4yOTY5Ij5bJiMyMjc4ODsmIzI5NzAyOyYjMjQ1MzU7JiMyNDg5NTsmIzMyNzczOyYjMzAwMDM7JiMzNTgzMTsmIzMwNDU2OyYjMjA4NTE7JiMzMDM0MDsmIzM1ODMxOyYjMjc3MTQ7XTwvdGV4dD48L2c+PCEtLWVudGl0eSB0YXNrX2NvbnRyb2xsZXItLT48ZyBpZD0iZWxlbV90YXNrX2NvbnRyb2xsZXIiPjxyZWN0IGZpbGw9IiM4NUJCRjAiIGhlaWdodD0iNjIuODEyNSIgcng9IjIuNSIgcnk9IjIuNSIgc3R5bGU9InN0cm9rZTojNzhBOEQ4O3N0cm9rZS13aWR0aDowLjU7IiB3aWR0aD0iMTQwIiB4PSIyMjIiIHk9IjEzMy45ODQ0Ii8+PHRleHQgZmlsbD0iIzAwMDAwMCIgZm9udC1mYW1pbHk9InNhbnMtc2VyaWYiIGZvbnQtc2l6ZT0iMTIiIGZvbnQtc3R5bGU9Iml0YWxpYyIgbGVuZ3RoQWRqdXN0PSJzcGFjaW5nIiB0ZXh0TGVuZ3RoPSI3MiIgeD0iMjU2IiB5PSIxNTUuMzI4MSI+JiMxNzE7Y29tcG9uZW50JiMxODc7PC90ZXh0Pjx0ZXh0IGZpbGw9IiMwMDAwMDAiIGZvbnQtZmFtaWx5PSJzYW5zLXNlcmlmIiBmb250LXNpemU9IjE2IiBmb250LXdlaWdodD0iYm9sZCIgbGVuZ3RoQWRqdXN0PSJzcGFjaW5nIiB0ZXh0TGVuZ3RoPSIxMTIiIHg9IjIzNiIgeT0iMTcxLjk1MzEiPlRhc2tDb250cm9sbGVyPC90ZXh0Pjx0ZXh0IGZpbGw9IiMwMDAwMDAiIGZvbnQtZmFtaWx5PSJzYW5zLXNlcmlmIiBmb250LXNpemU9IjEyIiBmb250LXN0eWxlPSJpdGFsaWMiIGxlbmd0aEFkanVzdD0ic3BhY2luZyIgdGV4dExlbmd0aD0iMTIwIiB4PSIyMzIiIHk9IjE4NS4yOTY5Ij5bJiMyMjc4ODsmIzI5NzAyOyYjMjAyMTk7JiMyMTE1MzsmIzMwNDU2OyYjMjA4NTE7JiMzMDM0MDsmIzM1ODMxOyYjMjc3MTQ7XTwvdGV4dD48L2c+PCEtLWVudGl0eSByZWNvcmRfY29udHJvbGxlci0tPjxnIGlkPSJlbGVtX3JlY29yZF9jb250cm9sbGVyIj48cmVjdCBmaWxsPSIjODVCQkYwIiBoZWlnaHQ9IjYyLjgxMjUiIHJ4PSIyLjUiIHJ5PSIyLjUiIHN0eWxlPSJzdHJva2U6Izc4QThEODtzdHJva2Utd2lkdGg6MC41OyIgd2lkdGg9IjE2NCIgeD0iMjMiIHk9IjEzMy45ODQ0Ii8+PHRleHQgZmlsbD0iIzAwMDAwMCIgZm9udC1mYW1pbHk9InNhbnMtc2VyaWYiIGZvbnQtc2l6ZT0iMTIiIGZvbnQtc3R5bGU9Iml0YWxpYyIgbGVuZ3RoQWRqdXN0PSJzcGFjaW5nIiB0ZXh0TGVuZ3RoPSI3MiIgeD0iNjkiIHk9IjE1NS4zMjgxIj4mIzE3MTtjb21wb25lbnQmIzE4Nzs8L3RleHQ+PHRleHQgZmlsbD0iIzAwMDAwMCIgZm9udC1mYW1pbHk9InNhbnMtc2VyaWYiIGZvbnQtc2l6ZT0iMTYiIGZvbnQtd2VpZ2h0PSJib2xkIiBsZW5ndGhBZGp1c3Q9InNwYWNpbmciIHRleHRMZW5ndGg9IjEyOCIgeD0iNDEiIHk9IjE3MS45NTMxIj5SZWNvcmRDb250cm9sbGVyPC90ZXh0Pjx0ZXh0IGZpbGw9IiMwMDAwMDAiIGZvbnQtZmFtaWx5PSJzYW5zLXNlcmlmIiBmb250LXNpemU9IjEyIiBmb250LXN0eWxlPSJpdGFsaWMiIGxlbmd0aEFkanVzdD0ic3BhY2luZyIgdGV4dExlbmd0aD0iMTQ0IiB4PSIzMyIgeT0iMTg1LjI5NjkiPlsmIzIyNzg4OyYjMjk3MDI7JiMyMTMwNzsmIzMwMTAzOyYjMzU3NjA7JiMyNDQwNTsmIzMwNDU2OyYjMjA4NTE7JiMzMDM0MDsmIzM1ODMxOyYjMjc3MTQ7XTwvdGV4dD48L2c+PCEtLWVudGl0eSB2b2x1bnRlZXJfc2VydmljZV9pbXBsLS0+PGcgaWQ9ImVsZW1fdm9sdW50ZWVyX3NlcnZpY2VfaW1wbCI+PHJlY3QgZmlsbD0iIzg1QkJGMCIgaGVpZ2h0PSI2Mi44MTI1IiByeD0iMi41IiByeT0iMi41IiBzdHlsZT0ic3Ryb2tlOiM3OEE4RDg7c3Ryb2tlLXdpZHRoOjAuNTsiIHdpZHRoPSIxODAiIHg9IjM5MyIgeT0iMjcwLjk4NDQiLz48dGV4dCBmaWxsPSIjMDAwMDAwIiBmb250LWZhbWlseT0ic2Fucy1zZXJpZiIgZm9udC1zaXplPSIxMiIgZm9udC1zdHlsZT0iaXRhbGljIiBsZW5ndGhBZGp1c3Q9InNwYWNpbmciIHRleHRMZW5ndGg9IjcyIiB4PSI0NDciIHk9IjI5Mi4zMjgxIj4mIzE3MTtjb21wb25lbnQmIzE4Nzs8L3RleHQ+PHRleHQgZmlsbD0iIzAwMDAwMCIgZm9udC1mYW1pbHk9InNhbnMtc2VyaWYiIGZvbnQtc2l6ZT0iMTYiIGZvbnQtd2VpZ2h0PSJib2xkIiBsZW5ndGhBZGp1c3Q9InNwYWNpbmciIHRleHRMZW5ndGg9IjE2MCIgeD0iNDAzIiB5PSIzMDguOTUzMSI+Vm9sdW50ZWVyU2VydmljZUltcGw8L3RleHQ+PHRleHQgZmlsbD0iIzAwMDAwMCIgZm9udC1mYW1pbHk9InNhbnMtc2VyaWYiIGZvbnQtc2l6ZT0iMTIiIGZvbnQtc3R5bGU9Iml0YWxpYyIgbGVuZ3RoQWRqdXN0PSJzcGFjaW5nIiB0ZXh0TGVuZ3RoPSIxMDgiIHg9IjQyOSIgeT0iMzIyLjI5NjkiPlsmIzI0NTM1OyYjMjQ4OTU7JiMzMjc3MzsmIzI2MzgxOyYjMjExNTM7JiMyMzQ1NDsmIzI5NjE2OyYjMzE4Njc7XTwvdGV4dD48L2c+PCEtLWVudGl0eSB0YXNrX3NlcnZpY2VfaW1wbC0tPjxnIGlkPSJlbGVtX3Rhc2tfc2VydmljZV9pbXBsIj48cmVjdCBmaWxsPSIjODVCQkYwIiBoZWlnaHQ9IjYyLjgxMjUiIHJ4PSIyLjUiIHJ5PSIyLjUiIHN0eWxlPSJzdHJva2U6Izc4QThEODtzdHJva2Utd2lkdGg6MC41OyIgd2lkdGg9IjE0MCIgeD0iMjE4IiB5PSIyNzAuOTg0NCIvPjx0ZXh0IGZpbGw9IiMwMDAwMDAiIGZvbnQtZmFtaWx5PSJzYW5zLXNlcmlmIiBmb250LXNpemU9IjEyIiBmb250LXN0eWxlPSJpdGFsaWMiIGxlbmd0aEFkanVzdD0ic3BhY2luZyIgdGV4dExlbmd0aD0iNzIiIHg9IjI1MiIgeT0iMjkyLjMyODEiPiYjMTcxO2NvbXBvbmVudCYjMTg3OzwvdGV4dD48dGV4dCBmaWxsPSIjMDAwMDAwIiBmb250LWZhbWlseT0ic2Fucy1zZXJpZiIgZm9udC1zaXplPSIxNiIgZm9udC13ZWlnaHQ9ImJvbGQiIGxlbmd0aEFkanVzdD0ic3BhY2luZyIgdGV4dExlbmd0aD0iMTIwIiB4PSIyMjgiIHk9IjMwOC45NTMxIj5UYXNrU2VydmljZUltcGw8L3RleHQ+PHRleHQgZmlsbD0iIzAwMDAwMCIgZm9udC1mYW1pbHk9InNhbnMtc2VyaWYiIGZvbnQtc2l6ZT0iMTIiIGZvbnQtc3R5bGU9Iml0YWxpYyIgbGVuZ3RoQWRqdXN0PSJzcGFjaW5nIiB0ZXh0TGVuZ3RoPSI5NiIgeD0iMjQwIiB5PSIzMjIuMjk2OSI+WyYjMjAyMTk7JiMyMTE1MzsmIzI2MzgxOyYjMjExNTM7JiMyMzQ1NDsmIzI5NjE2OyYjMzE4Njc7XTwvdGV4dD48L2c+PCEtLWVudGl0eSByZWNvcmRfc2VydmljZV9pbXBsLS0+PGcgaWQ9ImVsZW1fcmVjb3JkX3NlcnZpY2VfaW1wbCI+PHJlY3QgZmlsbD0iIzg1QkJGMCIgaGVpZ2h0PSI2Mi44MTI1IiByeD0iMi41IiByeT0iMi41IiBzdHlsZT0ic3Ryb2tlOiM3OEE4RDg7c3Ryb2tlLXdpZHRoOjAuNTsiIHdpZHRoPSIxNTYiIHg9IjI3IiB5PSIyNzAuOTg0NCIvPjx0ZXh0IGZpbGw9IiMwMDAwMDAiIGZvbnQtZmFtaWx5PSJzYW5zLXNlcmlmIiBmb250LXNpemU9IjEyIiBmb250LXN0eWxlPSJpdGFsaWMiIGxlbmd0aEFkanVzdD0ic3BhY2luZyIgdGV4dExlbmd0aD0iNzIiIHg9IjY5IiB5PSIyOTIuMzI4MSI+JiMxNzE7Y29tcG9uZW50JiMxODc7PC90ZXh0Pjx0ZXh0IGZpbGw9IiMwMDAwMDAiIGZvbnQtZmFtaWx5PSJzYW5zLXNlcmlmIiBmb250LXNpemU9IjE2IiBmb250LXdlaWdodD0iYm9sZCIgbGVuZ3RoQWRqdXN0PSJzcGFjaW5nIiB0ZXh0TGVuZ3RoPSIxMzYiIHg9IjM3IiB5PSIzMDguOTUzMSI+UmVjb3JkU2VydmljZUltcGw8L3RleHQ+PHRleHQgZmlsbD0iIzAwMDAwMCIgZm9udC1mYW1pbHk9InNhbnMtc2VyaWYiIGZvbnQtc2l6ZT0iMTIiIGZvbnQtc3R5bGU9Iml0YWxpYyIgbGVuZ3RoQWRqdXN0PSJzcGFjaW5nIiB0ZXh0TGVuZ3RoPSIxMjAiIHg9IjQ1IiB5PSIzMjIuMjk2OSI+WyYjMjEzMDc7JiMzMDEwMzsmIzM1NzYwOyYjMjQ0MDU7JiMyNjM4MTsmIzIxMTUzOyYjMjM0NTQ7JiMyOTYxNjsmIzMxODY3O108L3RleHQ+PC9nPjwhLS1lbnRpdHkgdm9sdW50ZWVyX3JlcG9zaXRvcnktLT48ZyBpZD0iZWxlbV92b2x1bnRlZXJfcmVwb3NpdG9yeSI+PHJlY3QgZmlsbD0iIzg1QkJGMCIgaGVpZ2h0PSI2Mi44MTI1IiByeD0iMi41IiByeT0iMi41IiBzdHlsZT0ic3Ryb2tlOiM3OEE4RDg7c3Ryb2tlLXdpZHRoOjAuNTsiIHdpZHRoPSIxNzIiIHg9IjM5NyIgeT0iNDA3Ljk4NDQiLz48dGV4dCBmaWxsPSIjMDAwMDAwIiBmb250LWZhbWlseT0ic2Fucy1zZXJpZiIgZm9udC1zaXplPSIxMiIgZm9udC1zdHlsZT0iaXRhbGljIiBsZW5ndGhBZGp1c3Q9InNwYWNpbmciIHRleHRMZW5ndGg9IjcyIiB4PSI0NDciIHk9IjQyOS4zMjgxIj4mIzE3MTtjb21wb25lbnQmIzE4Nzs8L3RleHQ+PHRleHQgZmlsbD0iIzAwMDAwMCIgZm9udC1mYW1pbHk9InNhbnMtc2VyaWYiIGZvbnQtc2l6ZT0iMTYiIGZvbnQtd2VpZ2h0PSJib2xkIiBsZW5ndGhBZGp1c3Q9InNwYWNpbmciIHRleHRMZW5ndGg9IjE1MiIgeD0iNDA3IiB5PSI0NDUuOTUzMSI+Vm9sdW50ZWVyUmVwb3NpdG9yeTwvdGV4dD48dGV4dCBmaWxsPSIjMDAwMDAwIiBmb250LWZhbWlseT0ic2Fucy1zZXJpZiIgZm9udC1zaXplPSIxMiIgZm9udC1zdHlsZT0iaXRhbGljIiBsZW5ndGhBZGp1c3Q9InNwYWNpbmciIHRleHRMZW5ndGg9IjEwOCIgeD0iNDI5IiB5PSI0NTkuMjk2OSI+WyYjMjQ1MzU7JiMyNDg5NTsmIzMyNzczOyYjMjU5Njg7JiMyNTQ1NDsmIzM1Nzc1OyYjMzgzODI7JiMyMzYxODtdPC90ZXh0PjwvZz48IS0tZW50aXR5IHRhc2tfcmVwb3NpdG9yeS0tPjxnIGlkPSJlbGVtX3Rhc2tfcmVwb3NpdG9yeSI+PHJlY3QgZmlsbD0iIzg1QkJGMCIgaGVpZ2h0PSI2Mi44MTI1IiByeD0iMi41IiByeT0iMi41IiBzdHlsZT0ic3Ryb2tlOiM3OEE4RDg7c3Ryb2tlLXdpZHRoOjAuNTsiIHdpZHRoPSIxMzIiIHg9IjIyMiIgeT0iNDA3Ljk4NDQiLz48dGV4dCBmaWxsPSIjMDAwMDAwIiBmb250LWZhbWlseT0ic2Fucy1zZXJpZiIgZm9udC1zaXplPSIxMiIgZm9udC1zdHlsZT0iaXRhbGljIiBsZW5ndGhBZGp1c3Q9InNwYWNpbmciIHRleHRMZW5ndGg9IjcyIiB4PSIyNTIiIHk9IjQyOS4zMjgxIj4mIzE3MTtjb21wb25lbnQmIzE4Nzs8L3RleHQ+PHRleHQgZmlsbD0iIzAwMDAwMCIgZm9udC1mYW1pbHk9InNhbnMtc2VyaWYiIGZvbnQtc2l6ZT0iMTYiIGZvbnQtd2VpZ2h0PSJib2xkIiBsZW5ndGhBZGp1c3Q9InNwYWNpbmciIHRleHRMZW5ndGg9IjExMiIgeD0iMjMyIiB5PSI0NDUuOTUzMSI+VGFza1JlcG9zaXRvcnk8L3RleHQ+PHRleHQgZmlsbD0iIzAwMDAwMCIgZm9udC1mYW1pbHk9InNhbnMtc2VyaWYiIGZvbnQtc2l6ZT0iMTIiIGZvbnQtc3R5bGU9Iml0YWxpYyIgbGVuZ3RoQWRqdXN0PSJzcGFjaW5nIiB0ZXh0TGVuZ3RoPSI5NiIgeD0iMjQwIiB5PSI0NTkuMjk2OSI+WyYjMjAyMTk7JiMyMTE1MzsmIzI1OTY4OyYjMjU0NTQ7JiMzNTc3NTsmIzM4MzgyOyYjMjM2MTg7XTwvdGV4dD48L2c+PCEtLWVudGl0eSByZWNvcmRfcmVwb3NpdG9yeS0tPjxnIGlkPSJlbGVtX3JlY29yZF9yZXBvc2l0b3J5Ij48cmVjdCBmaWxsPSIjODVCQkYwIiBoZWlnaHQ9IjYyLjgxMjUiIHJ4PSIyLjUiIHJ5PSIyLjUiIHN0eWxlPSJzdHJva2U6Izc4QThEODtzdHJva2Utd2lkdGg6MC41OyIgd2lkdGg9IjE0OCIgeD0iMzEiIHk9IjQwNy45ODQ0Ii8+PHRleHQgZmlsbD0iIzAwMDAwMCIgZm9udC1mYW1pbHk9InNhbnMtc2VyaWYiIGZvbnQtc2l6ZT0iMTIiIGZvbnQtc3R5bGU9Iml0YWxpYyIgbGVuZ3RoQWRqdXN0PSJzcGFjaW5nIiB0ZXh0TGVuZ3RoPSI3MiIgeD0iNjkiIHk9IjQyOS4zMjgxIj4mIzE3MTtjb21wb25lbnQmIzE4Nzs8L3RleHQ+PHRleHQgZmlsbD0iIzAwMDAwMCIgZm9udC1mYW1pbHk9InNhbnMtc2VyaWYiIGZvbnQtc2l6ZT0iMTYiIGZvbnQtd2VpZ2h0PSJib2xkIiBsZW5ndGhBZGp1c3Q9InNwYWNpbmciIHRleHRMZW5ndGg9IjEyOCIgeD0iNDEiIHk9IjQ0NS45NTMxIj5SZWNvcmRSZXBvc2l0b3J5PC90ZXh0Pjx0ZXh0IGZpbGw9IiMwMDAwMDAiIGZvbnQtZmFtaWx5PSJzYW5zLXNlcmlmIiBmb250LXNpemU9IjEyIiBmb250LXN0eWxlPSJpdGFsaWMiIGxlbmd0aEFkanVzdD0ic3BhY2luZyIgdGV4dExlbmd0aD0iMTIwIiB4PSI0NSIgeT0iNDU5LjI5NjkiPlsmIzIxMzA3OyYjMzAxMDM7JiMzNTc2MDsmIzI0NDA1OyYjMjU5Njg7JiMyNTQ1NDsmIzM1Nzc1OyYjMzgzODI7JiMyMzYxODtdPC90ZXh0PjwvZz48IS0tbGluayB2b2x1bnRlZXJfY29udHJvbGxlciB0byB2b2x1bnRlZXJfc2VydmljZV9pbXBsLS0+PGcgaWQ9Imxpbmtfdm9sdW50ZWVyX2NvbnRyb2xsZXJfdm9sdW50ZWVyX3NlcnZpY2VfaW1wbCI+PHBhdGggZD0iTTQ4NC41NSwxOTcuMTE0NCBDNDg0LjIyLDIxOS4yMTQ0IDQ4My44OTk2LDI0MC45MDUzIDQ4My41Njk2LDI2Mi45NzUzICIgZmlsbD0ibm9uZSIgaWQ9InZvbHVudGVlcl9jb250cm9sbGVyLXRvLXZvbHVudGVlcl9zZXJ2aWNlX2ltcGwiIHN0eWxlPSJzdHJva2U6IzY2NjY2NjtzdHJva2Utd2lkdGg6MS4wOyIvPjxwb2x5Z29uIGZpbGw9IiM2NjY2NjYiIHBvaW50cz0iNDgzLjQ1LDI3MC45NzQ0LDQ4Ni41NjkzLDI2My4wMjAxLDQ4MC41Njk5LDI2Mi45MzA0LDQ4My40NSwyNzAuOTc0NCIgc3R5bGU9InN0cm9rZTojNjY2NjY2O3N0cm9rZS13aWR0aDoxLjA7Ii8+PHRleHQgZmlsbD0iIzY2NjY2NiIgZm9udC1mYW1pbHk9InNhbnMtc2VyaWYiIGZvbnQtc2l6ZT0iMTIiIGZvbnQtd2VpZ2h0PSJib2xkIiBsZW5ndGhBZGp1c3Q9InNwYWNpbmciIHRleHRMZW5ndGg9IjI0IiB4PSI0ODUiIHk9IjIzOS4zMjgxIj4mIzM1ODQzOyYjMjk5OTI7PC90ZXh0PjwvZz48IS0tbGluayB0YXNrX2NvbnRyb2xsZXIgdG8gdGFza19zZXJ2aWNlX2ltcGwtLT48ZyBpZD0ibGlua190YXNrX2NvbnRyb2xsZXJfdGFza19zZXJ2aWNlX2ltcGwiPjxwYXRoIGQ9Ik0yOTEuMDksMTk3LjExNDQgQzI5MC40NCwyMTkuMjE0NCAyODkuNzk5MSwyNDAuOTA3OSAyODkuMTM5MSwyNjIuOTc3OSAiIGZpbGw9Im5vbmUiIGlkPSJ0YXNrX2NvbnRyb2xsZXItdG8tdGFza19zZXJ2aWNlX2ltcGwiIHN0eWxlPSJzdHJva2U6IzY2NjY2NjtzdHJva2Utd2lkdGg6MS4wOyIvPjxwb2x5Z29uIGZpbGw9IiM2NjY2NjYiIHBvaW50cz0iMjg4LjksMjcwLjk3NDQsMjkyLjEzNzgsMjYzLjA2NzYsMjg2LjE0MDUsMjYyLjg4ODMsMjg4LjksMjcwLjk3NDQiIHN0eWxlPSJzdHJva2U6IzY2NjY2NjtzdHJva2Utd2lkdGg6MS4wOyIvPjx0ZXh0IGZpbGw9IiM2NjY2NjYiIGZvbnQtZmFtaWx5PSJzYW5zLXNlcmlmIiBmb250LXNpemU9IjEyIiBmb250LXdlaWdodD0iYm9sZCIgbGVuZ3RoQWRqdXN0PSJzcGFjaW5nIiB0ZXh0TGVuZ3RoPSIyNCIgeD0iMjkxIiB5PSIyMzkuMzI4MSI+JiMzNTg0MzsmIzI5OTkyOzwvdGV4dD48L2c+PCEtLWxpbmsgcmVjb3JkX2NvbnRyb2xsZXIgdG8gcmVjb3JkX3NlcnZpY2VfaW1wbC0tPjxnIGlkPSJsaW5rX3JlY29yZF9jb250cm9sbGVyX3JlY29yZF9zZXJ2aWNlX2ltcGwiPjxwYXRoIGQ9Ik0xMDUsMTk3LjExNDQgQzEwNSwyMTkuMjE0NCAxMDUsMjQwLjkwNDQgMTA1LDI2Mi45NzQ0ICIgZmlsbD0ibm9uZSIgaWQ9InJlY29yZF9jb250cm9sbGVyLXRvLXJlY29yZF9zZXJ2aWNlX2ltcGwiIHN0eWxlPSJzdHJva2U6IzY2NjY2NjtzdHJva2Utd2lkdGg6MS4wOyIvPjxwb2x5Z29uIGZpbGw9IiM2NjY2NjYiIHBvaW50cz0iMTA1LDI3MC45NzQ0LDEwOCwyNjIuOTc0NCwxMDIsMjYyLjk3NDQsMTA1LDI3MC45NzQ0IiBzdHlsZT0ic3Ryb2tlOiM2NjY2NjY7c3Ryb2tlLXdpZHRoOjEuMDsiLz48dGV4dCBmaWxsPSIjNjY2NjY2IiBmb250LWZhbWlseT0ic2Fucy1zZXJpZiIgZm9udC1zaXplPSIxMiIgZm9udC13ZWlnaHQ9ImJvbGQiIGxlbmd0aEFkanVzdD0ic3BhY2luZyIgdGV4dExlbmd0aD0iMjQiIHg9IjEwNiIgeT0iMjM5LjMyODEiPiYjMzU4NDM7JiMyOTk5Mjs8L3RleHQ+PC9nPjwhLS1saW5rIHZvbHVudGVlcl9zZXJ2aWNlX2ltcGwgdG8gdm9sdW50ZWVyX3JlcG9zaXRvcnktLT48ZyBpZD0ibGlua192b2x1bnRlZXJfc2VydmljZV9pbXBsX3ZvbHVudGVlcl9yZXBvc2l0b3J5Ij48cGF0aCBkPSJNNDgzLDMzNC4xMTQ0IEM0ODMsMzU2LjIxNDQgNDgzLDM3Ny45MDQ0IDQ4MywzOTkuOTc0NCAiIGZpbGw9Im5vbmUiIGlkPSJ2b2x1bnRlZXJfc2VydmljZV9pbXBsLXRvLXZvbHVudGVlcl9yZXBvc2l0b3J5IiBzdHlsZT0ic3Ryb2tlOiM2NjY2NjY7c3Ryb2tlLXdpZHRoOjEuMDsiLz48cG9seWdvbiBmaWxsPSIjNjY2NjY2IiBwb2ludHM9IjQ4Myw0MDcuOTc0NCw0ODYsMzk5Ljk3NDQsNDgwLDM5OS45NzQ0LDQ4Myw0MDcuOTc0NCIgc3R5bGU9InN0cm9rZTojNjY2NjY2O3N0cm9rZS13aWR0aDoxLjA7Ii8+PHRleHQgZmlsbD0iIzY2NjY2NiIgZm9udC1mYW1pbHk9InNhbnMtc2VyaWYiIGZvbnQtc2l6ZT0iMTIiIGZvbnQtd2VpZ2h0PSJib2xkIiBsZW5ndGhBZGp1c3Q9InNwYWNpbmciIHRleHRMZW5ndGg9IjI0IiB4PSI0ODQiIHk9IjM3Ni4zMjgxIj4mIzM1ODQzOyYjMjk5OTI7PC90ZXh0PjwvZz48IS0tbGluayB0YXNrX3NlcnZpY2VfaW1wbCB0byB0YXNrX3JlcG9zaXRvcnktLT48ZyBpZD0ibGlua190YXNrX3NlcnZpY2VfaW1wbF90YXNrX3JlcG9zaXRvcnkiPjxwYXRoIGQ9Ik0yODgsMzM0LjExNDQgQzI4OCwzNTYuMjE0NCAyODgsMzc3LjkwNDQgMjg4LDM5OS45NzQ0ICIgZmlsbD0ibm9uZSIgaWQ9InRhc2tfc2VydmljZV9pbXBsLXRvLXRhc2tfcmVwb3NpdG9yeSIgc3R5bGU9InN0cm9rZTojNjY2NjY2O3N0cm9rZS13aWR0aDoxLjA7Ii8+PHBvbHlnb24gZmlsbD0iIzY2NjY2NiIgcG9pbnRzPSIyODgsNDA3Ljk3NDQsMjkxLDM5OS45NzQ0LDI4NSwzOTkuOTc0NCwyODgsNDA3Ljk3NDQiIHN0eWxlPSJzdHJva2U6IzY2NjY2NjtzdHJva2Utd2lkdGg6MS4wOyIvPjx0ZXh0IGZpbGw9IiM2NjY2NjYiIGZvbnQtZmFtaWx5PSJzYW5zLXNlcmlmIiBmb250LXNpemU9IjEyIiBmb250LXdlaWdodD0iYm9sZCIgbGVuZ3RoQWRqdXN0PSJzcGFjaW5nIiB0ZXh0TGVuZ3RoPSIyNCIgeD0iMjg5IiB5PSIzNzYuMzI4MSI+JiMzNTg0MzsmIzI5OTkyOzwvdGV4dD48L2c+PCEtLWxpbmsgcmVjb3JkX3NlcnZpY2VfaW1wbCB0byByZWNvcmRfcmVwb3NpdG9yeS0tPjxnIGlkPSJsaW5rX3JlY29yZF9zZXJ2aWNlX2ltcGxfcmVjb3JkX3JlcG9zaXRvcnkiPjxwYXRoIGQ9Ik0xMDUsMzM0LjExNDQgQzEwNSwzNTYuMjE0NCAxMDUsMzc3LjkwNDQgMTA1LDM5OS45NzQ0ICIgZmlsbD0ibm9uZSIgaWQ9InJlY29yZF9zZXJ2aWNlX2ltcGwtdG8tcmVjb3JkX3JlcG9zaXRvcnkiIHN0eWxlPSJzdHJva2U6IzY2NjY2NjtzdHJva2Utd2lkdGg6MS4wOyIvPjxwb2x5Z29uIGZpbGw9IiM2NjY2NjYiIHBvaW50cz0iMTA1LDQwNy45NzQ0LDEwOCwzOTkuOTc0NCwxMDIsMzk5Ljk3NDQsMTA1LDQwNy45NzQ0IiBzdHlsZT0ic3Ryb2tlOiM2NjY2NjY7c3Ryb2tlLXdpZHRoOjEuMDsiLz48dGV4dCBmaWxsPSIjNjY2NjY2IiBmb250LWZhbWlseT0ic2Fucy1zZXJpZiIgZm9udC1zaXplPSIxMiIgZm9udC13ZWlnaHQ9ImJvbGQiIGxlbmd0aEFkanVzdD0ic3BhY2luZyIgdGV4dExlbmd0aD0iMjQiIHg9IjEwNiIgeT0iMzc2LjMyODEiPiYjMzU4NDM7JiMyOTk5Mjs8L3RleHQ+PC9nPjwhLS1TUkM9W1ZQOURJeUNtN0NSbF9ISW45eU1OTlpudlQyVDFHVVJCVFRHa2s2M1FiM0hMSDBIVmZXVEh5UTBFTDBKMVd3U3c0TEdla1ctWk5VZ3RDRHJnUVJmcWk0RnRhRl9sLUp6dkNlOFMyX2pydzVDQzZlb3Z0ZW5YSzdEaFFYc25YaF9jVXYxUW42N0dPTENNaUdxTmNteHBSSnBmaUpmNlFxUGJVZDhuYUxPTXZXdFJ6MVlhR2dmTFlFcUk5dmJubkxiRE91WFgyQTlFZ3psaW43ajd0Umtwd0VJMVh5c1Z5MnN3X1RBcVlkMG1hR0ZmdzJSMWxkMjNqMlFDRHY0NTl1MVVjREU1akVISXZBbzNNSzhPNjBTQnN4Q2NHdndVRnlpbE4tRmR6LSAtel9QeW1KQ28yMXR2bkJGdjZmbzZfUmlMMUVfZ3lxaVYwWldQMGpjdEVGU2JDMlNRRzJrWmdscnA5cjl4Tk9yQ20ydXh5ellDd1VrS3RKVjdUVkpkR25vRzNQZGVSQ2RqUEEyZmlrbFBHNmVLTWVOTVBMLXJmb2FMcG9MTlNhZmo4VXdXWHN5TnZrclpnd3REMnJXVEJZZTl4Vmp4Y0J3N2cwV2g4djBlQWo3eHd1UVdxVkc3TXByelNCWFRUMUlzOUpnNUJGQ0c4dFN1N2hzUWdkRmtndEpxQnVnM3BzbWVZVFY0SUJxYWplekJHR3BiZlE4ZEtacm5PQXZ6T0dISV9BaUdiM3h3cV9CWHpvMi1WVWUxYVVrMHJnemVqcDJaVWhCaDhSNnZXTFZiV0lMc2dMVU4xbUtoS2d5ZkpnV0Fva1RxX10tLT48L2c+PC9zdmc+;" vertex="1" parent="1">
            <mxGeometry x="1089" y="10790" width="595" height="492" as="geometry" />
          </mxCell>
        </UserObject>
        <UserObject label="" plantUmlData="{&#xa;  &quot;data&quot;: &quot;@startuml\n!includeurl https://raw.githubusercontent.com/plantuml-stdlib/C4-PlantUML/master/C4_Component.puml\n\ntitle 捐赠服务组件图\n\nContainer(donation_service, \&quot;捐赠服务\&quot;, \&quot;Spring Boot + MyBatis\&quot;, \&quot;在线捐款、物资捐赠\&quot;) {\n  Component(donation_controller, \&quot;DonationController\&quot;, \&quot;处理捐款相关的请求\&quot;)\n  Component(material_controller, \&quot;MaterialController\&quot;, \&quot;处理物资捐赠相关的请求\&quot;)\n  \n  Component(donation_service_impl, \&quot;DonationServiceImpl\&quot;, \&quot;捐款服务实现类\&quot;)\n  Component(material_service_impl, \&quot;MaterialServiceImpl\&quot;, \&quot;物资捐赠服务实现类\&quot;)\n  \n  Component(donation_repository, \&quot;DonationRepository\&quot;, \&quot;捐款数据访问层\&quot;)\n  Component(material_repository, \&quot;MaterialRepository\&quot;, \&quot;物资捐赠数据访问层\&quot;)\n  \n  Rel(donation_controller, donation_service_impl, \&quot;调用\&quot;)\n  Rel(material_controller, material_service_impl, \&quot;调用\&quot;)\n\n  Rel(donation_service_impl, donation_repository, \&quot;调用\&quot;)\n  Rel(material_service_impl, material_repository, \&quot;调用\&quot;)\n}\n\n@enduml&quot;,&#xa;  &quot;format&quot;: &quot;svg&quot;&#xa;}" id="WF8WQ5typgrZwuC74MDy-5">
          <mxCell style="shape=image;noLabel=1;verticalAlign=top;aspect=fixed;imageAspect=0;image=data:image/svg+xml,PD94bWwgdmVyc2lvbj0iMS4wIiBlbmNvZGluZz0idXMtYXNjaWkiIHN0YW5kYWxvbmU9Im5vIj8+PHN2ZyB4bWxucz0iaHR0cDovL3d3dy53My5vcmcvMjAwMC9zdmciIHhtbG5zOnhsaW5rPSJodHRwOi8vd3d3LnczLm9yZy8xOTk5L3hsaW5rIiBjb250ZW50U3R5bGVUeXBlPSJ0ZXh0L2NzcyIgaGVpZ2h0PSI0OTJweCIgcHJlc2VydmVBc3BlY3RSYXRpbz0ibm9uZSIgc3R5bGU9IndpZHRoOjQyNHB4O2hlaWdodDo0OTJweDtiYWNrZ3JvdW5kOiNGRkZGRkY7IiB2ZXJzaW9uPSIxLjEiIHZpZXdCb3g9IjAgMCA0MjQgNDkyIiB3aWR0aD0iNDI0cHgiIHpvb21BbmRQYW49Im1hZ25pZnkiPjxkZWZzLz48Zz48dGV4dCBmaWxsPSIjMDAwMDAwIiBmb250LWZhbWlseT0ic2Fucy1zZXJpZiIgZm9udC1zaXplPSIxNCIgZm9udC13ZWlnaHQ9ImJvbGQiIGxlbmd0aEFkanVzdD0ic3BhY2luZyIgdGV4dExlbmd0aD0iOTgiIHg9IjE1NiIgeT0iMjMuMjM0NCI+JiMyNTQyNDsmIzM2MTkyOyYjMjYzODE7JiMyMTE1MzsmIzMyNDUyOyYjMjAyMTQ7JiMyMjI3MDs8L3RleHQ+PCEtLWNsdXN0ZXIgZG9uYXRpb25fc2VydmljZS0tPjxnIGlkPSJjbHVzdGVyX2RvbmF0aW9uX3NlcnZpY2UiPjxyZWN0IGZpbGw9IiM0MzhERDUiIGhlaWdodD0iNDQ0IiByeD0iMi41IiByeT0iMi41IiBzdHlsZT0ic3Ryb2tlOiMzQzdGQzA7c3Ryb2tlLXdpZHRoOjEuMDsiIHdpZHRoPSI0MTEiIHg9IjciIHk9IjQyLjk4NDQiLz48dGV4dCBmaWxsPSIjRkZGRkZGIiBmb250LWZhbWlseT0ic2Fucy1zZXJpZiIgZm9udC1zaXplPSIxMiIgZm9udC1zdHlsZT0iaXRhbGljIiBsZW5ndGhBZGp1c3Q9InNwYWNpbmciIHRleHRMZW5ndGg9IjcyIiB4PSIxNzYuNSIgeT0iNTYuMzI4MSI+JiMxNzE7Y29udGFpbmVyJiMxODc7PC90ZXh0Pjx0ZXh0IGZpbGw9IiNGRkZGRkYiIGZvbnQtZmFtaWx5PSJzYW5zLXNlcmlmIiBmb250LXNpemU9IjE2IiBmb250LXdlaWdodD0iYm9sZCIgbGVuZ3RoQWRqdXN0PSJzcGFjaW5nIiB0ZXh0TGVuZ3RoPSI2NCIgeD0iMTgwLjUiIHk9IjcyLjk1MzEiPiYjMjU0MjQ7JiMzNjE5MjsmIzI2MzgxOyYjMjExNTM7PC90ZXh0Pjx0ZXh0IGZpbGw9IiNGRkZGRkYiIGZvbnQtZmFtaWx5PSJzYW5zLXNlcmlmIiBmb250LXNpemU9IjEyIiBmb250LXN0eWxlPSJpdGFsaWMiIGZvbnQtd2VpZ2h0PSJib2xkIiBsZW5ndGhBZGp1c3Q9InNwYWNpbmciIHRleHRMZW5ndGg9IjE1MSIgeD0iMTM3IiB5PSI4Ni4yOTY5Ij5bU3ByaW5nIEJvb3QgKyBNeUJhdGlzXTwvdGV4dD48dGV4dCBmaWxsPSIjRkZGRkZGIiBmb250LWZhbWlseT0ic2Fucy1zZXJpZiIgZm9udC1zaXplPSIxNCIgZm9udC13ZWlnaHQ9ImJvbGQiIGxlbmd0aEFkanVzdD0ic3BhY2luZyIgdGV4dExlbmd0aD0iNyIgeD0iMjA5IiB5PSIxMDEuMDMxMyI+JiMxNjA7PC90ZXh0Pjx0ZXh0IGZpbGw9IiNGRkZGRkYiIGZvbnQtZmFtaWx5PSJzYW5zLXNlcmlmIiBmb250LXNpemU9IjE0IiBmb250LXdlaWdodD0iYm9sZCIgbGVuZ3RoQWRqdXN0PSJzcGFjaW5nIiB0ZXh0TGVuZ3RoPSIxMjYiIHg9IjE0OS41IiB5PSIxMTYuMDE1NiI+JiMyMjMxMjsmIzMyNDQ3OyYjMjU0MjQ7JiMyNzQ1NDsmIzEyMjg5OyYjMjkyODk7JiMzNjE2NDsmIzI1NDI0OyYjMzYxOTI7PC90ZXh0PjwvZz48IS0tZW50aXR5IGRvbmF0aW9uX2NvbnRyb2xsZXItLT48ZyBpZD0iZWxlbV9kb25hdGlvbl9jb250cm9sbGVyIj48cmVjdCBmaWxsPSIjODVCQkYwIiBoZWlnaHQ9IjYyLjgxMjUiIHJ4PSIyLjUiIHJ5PSIyLjUiIHN0eWxlPSJzdHJva2U6Izc4QThEODtzdHJva2Utd2lkdGg6MC41OyIgd2lkdGg9IjE2NCIgeD0iMjM0IiB5PSIxMzMuOTg0NCIvPjx0ZXh0IGZpbGw9IiMwMDAwMDAiIGZvbnQtZmFtaWx5PSJzYW5zLXNlcmlmIiBmb250LXNpemU9IjEyIiBmb250LXN0eWxlPSJpdGFsaWMiIGxlbmd0aEFkanVzdD0ic3BhY2luZyIgdGV4dExlbmd0aD0iNzIiIHg9IjI4MCIgeT0iMTU1LjMyODEiPiYjMTcxO2NvbXBvbmVudCYjMTg3OzwvdGV4dD48dGV4dCBmaWxsPSIjMDAwMDAwIiBmb250LWZhbWlseT0ic2Fucy1zZXJpZiIgZm9udC1zaXplPSIxNiIgZm9udC13ZWlnaHQ9ImJvbGQiIGxlbmd0aEFkanVzdD0ic3BhY2luZyIgdGV4dExlbmd0aD0iMTQ0IiB4PSIyNDQiIHk9IjE3MS45NTMxIj5Eb25hdGlvbkNvbnRyb2xsZXI8L3RleHQ+PHRleHQgZmlsbD0iIzAwMDAwMCIgZm9udC1mYW1pbHk9InNhbnMtc2VyaWYiIGZvbnQtc2l6ZT0iMTIiIGZvbnQtc3R5bGU9Iml0YWxpYyIgbGVuZ3RoQWRqdXN0PSJzcGFjaW5nIiB0ZXh0TGVuZ3RoPSIxMjAiIHg9IjI1NiIgeT0iMTg1LjI5NjkiPlsmIzIyNzg4OyYjMjk3MDI7JiMyNTQyNDsmIzI3NDU0OyYjMzA0NTY7JiMyMDg1MTsmIzMwMzQwOyYjMzU4MzE7JiMyNzcxNDtdPC90ZXh0PjwvZz48IS0tZW50aXR5IG1hdGVyaWFsX2NvbnRyb2xsZXItLT48ZyBpZD0iZWxlbV9tYXRlcmlhbF9jb250cm9sbGVyIj48cmVjdCBmaWxsPSIjODVCQkYwIiBoZWlnaHQ9IjYyLjgxMjUiIHJ4PSIyLjUiIHJ5PSIyLjUiIHN0eWxlPSJzdHJva2U6Izc4QThEODtzdHJva2Utd2lkdGg6MC41OyIgd2lkdGg9IjE2NCIgeD0iMjciIHk9IjEzMy45ODQ0Ii8+PHRleHQgZmlsbD0iIzAwMDAwMCIgZm9udC1mYW1pbHk9InNhbnMtc2VyaWYiIGZvbnQtc2l6ZT0iMTIiIGZvbnQtc3R5bGU9Iml0YWxpYyIgbGVuZ3RoQWRqdXN0PSJzcGFjaW5nIiB0ZXh0TGVuZ3RoPSI3MiIgeD0iNzMiIHk9IjE1NS4zMjgxIj4mIzE3MTtjb21wb25lbnQmIzE4Nzs8L3RleHQ+PHRleHQgZmlsbD0iIzAwMDAwMCIgZm9udC1mYW1pbHk9InNhbnMtc2VyaWYiIGZvbnQtc2l6ZT0iMTYiIGZvbnQtd2VpZ2h0PSJib2xkIiBsZW5ndGhBZGp1c3Q9InNwYWNpbmciIHRleHRMZW5ndGg9IjE0NCIgeD0iMzciIHk9IjE3MS45NTMxIj5NYXRlcmlhbENvbnRyb2xsZXI8L3RleHQ+PHRleHQgZmlsbD0iIzAwMDAwMCIgZm9udC1mYW1pbHk9InNhbnMtc2VyaWYiIGZvbnQtc2l6ZT0iMTIiIGZvbnQtc3R5bGU9Iml0YWxpYyIgbGVuZ3RoQWRqdXN0PSJzcGFjaW5nIiB0ZXh0TGVuZ3RoPSIxNDQiIHg9IjM3IiB5PSIxODUuMjk2OSI+WyYjMjI3ODg7JiMyOTcwMjsmIzI5Mjg5OyYjMzYxNjQ7JiMyNTQyNDsmIzM2MTkyOyYjMzA0NTY7JiMyMDg1MTsmIzMwMzQwOyYjMzU4MzE7JiMyNzcxNDtdPC90ZXh0PjwvZz48IS0tZW50aXR5IGRvbmF0aW9uX3NlcnZpY2VfaW1wbC0tPjxnIGlkPSJlbGVtX2RvbmF0aW9uX3NlcnZpY2VfaW1wbCI+PHJlY3QgZmlsbD0iIzg1QkJGMCIgaGVpZ2h0PSI2Mi44MTI1IiByeD0iMi41IiByeT0iMi41IiBzdHlsZT0ic3Ryb2tlOiM3OEE4RDg7c3Ryb2tlLXdpZHRoOjAuNTsiIHdpZHRoPSIxNzIiIHg9IjIzMCIgeT0iMjcwLjk4NDQiLz48dGV4dCBmaWxsPSIjMDAwMDAwIiBmb250LWZhbWlseT0ic2Fucy1zZXJpZiIgZm9udC1zaXplPSIxMiIgZm9udC1zdHlsZT0iaXRhbGljIiBsZW5ndGhBZGp1c3Q9InNwYWNpbmciIHRleHRMZW5ndGg9IjcyIiB4PSIyODAiIHk9IjI5Mi4zMjgxIj4mIzE3MTtjb21wb25lbnQmIzE4Nzs8L3RleHQ+PHRleHQgZmlsbD0iIzAwMDAwMCIgZm9udC1mYW1pbHk9InNhbnMtc2VyaWYiIGZvbnQtc2l6ZT0iMTYiIGZvbnQtd2VpZ2h0PSJib2xkIiBsZW5ndGhBZGp1c3Q9InNwYWNpbmciIHRleHRMZW5ndGg9IjE1MiIgeD0iMjQwIiB5PSIzMDguOTUzMSI+RG9uYXRpb25TZXJ2aWNlSW1wbDwvdGV4dD48dGV4dCBmaWxsPSIjMDAwMDAwIiBmb250LWZhbWlseT0ic2Fucy1zZXJpZiIgZm9udC1zaXplPSIxMiIgZm9udC1zdHlsZT0iaXRhbGljIiBsZW5ndGhBZGp1c3Q9InNwYWNpbmciIHRleHRMZW5ndGg9Ijk2IiB4PSIyNjgiIHk9IjMyMi4yOTY5Ij5bJiMyNTQyNDsmIzI3NDU0OyYjMjYzODE7JiMyMTE1MzsmIzIzNDU0OyYjMjk2MTY7JiMzMTg2NztdPC90ZXh0PjwvZz48IS0tZW50aXR5IG1hdGVyaWFsX3NlcnZpY2VfaW1wbC0tPjxnIGlkPSJlbGVtX21hdGVyaWFsX3NlcnZpY2VfaW1wbCI+PHJlY3QgZmlsbD0iIzg1QkJGMCIgaGVpZ2h0PSI2Mi44MTI1IiByeD0iMi41IiByeT0iMi41IiBzdHlsZT0ic3Ryb2tlOiM3OEE4RDg7c3Ryb2tlLXdpZHRoOjAuNTsiIHdpZHRoPSIxNzIiIHg9IjIzIiB5PSIyNzAuOTg0NCIvPjx0ZXh0IGZpbGw9IiMwMDAwMDAiIGZvbnQtZmFtaWx5PSJzYW5zLXNlcmlmIiBmb250LXNpemU9IjEyIiBmb250LXN0eWxlPSJpdGFsaWMiIGxlbmd0aEFkanVzdD0ic3BhY2luZyIgdGV4dExlbmd0aD0iNzIiIHg9IjczIiB5PSIyOTIuMzI4MSI+JiMxNzE7Y29tcG9uZW50JiMxODc7PC90ZXh0Pjx0ZXh0IGZpbGw9IiMwMDAwMDAiIGZvbnQtZmFtaWx5PSJzYW5zLXNlcmlmIiBmb250LXNpemU9IjE2IiBmb250LXdlaWdodD0iYm9sZCIgbGVuZ3RoQWRqdXN0PSJzcGFjaW5nIiB0ZXh0TGVuZ3RoPSIxNTIiIHg9IjMzIiB5PSIzMDguOTUzMSI+TWF0ZXJpYWxTZXJ2aWNlSW1wbDwvdGV4dD48dGV4dCBmaWxsPSIjMDAwMDAwIiBmb250LWZhbWlseT0ic2Fucy1zZXJpZiIgZm9udC1zaXplPSIxMiIgZm9udC1zdHlsZT0iaXRhbGljIiBsZW5ndGhBZGp1c3Q9InNwYWNpbmciIHRleHRMZW5ndGg9IjEyMCIgeD0iNDkiIHk9IjMyMi4yOTY5Ij5bJiMyOTI4OTsmIzM2MTY0OyYjMjU0MjQ7JiMzNjE5MjsmIzI2MzgxOyYjMjExNTM7JiMyMzQ1NDsmIzI5NjE2OyYjMzE4Njc7XTwvdGV4dD48L2c+PCEtLWVudGl0eSBkb25hdGlvbl9yZXBvc2l0b3J5LS0+PGcgaWQ9ImVsZW1fZG9uYXRpb25fcmVwb3NpdG9yeSI+PHJlY3QgZmlsbD0iIzg1QkJGMCIgaGVpZ2h0PSI2Mi44MTI1IiByeD0iMi41IiByeT0iMi41IiBzdHlsZT0ic3Ryb2tlOiM3OEE4RDg7c3Ryb2tlLXdpZHRoOjAuNTsiIHdpZHRoPSIxNjQiIHg9IjIzNCIgeT0iNDA3Ljk4NDQiLz48dGV4dCBmaWxsPSIjMDAwMDAwIiBmb250LWZhbWlseT0ic2Fucy1zZXJpZiIgZm9udC1zaXplPSIxMiIgZm9udC1zdHlsZT0iaXRhbGljIiBsZW5ndGhBZGp1c3Q9InNwYWNpbmciIHRleHRMZW5ndGg9IjcyIiB4PSIyODAiIHk9IjQyOS4zMjgxIj4mIzE3MTtjb21wb25lbnQmIzE4Nzs8L3RleHQ+PHRleHQgZmlsbD0iIzAwMDAwMCIgZm9udC1mYW1pbHk9InNhbnMtc2VyaWYiIGZvbnQtc2l6ZT0iMTYiIGZvbnQtd2VpZ2h0PSJib2xkIiBsZW5ndGhBZGp1c3Q9InNwYWNpbmciIHRleHRMZW5ndGg9IjE0NCIgeD0iMjQ0IiB5PSI0NDUuOTUzMSI+RG9uYXRpb25SZXBvc2l0b3J5PC90ZXh0Pjx0ZXh0IGZpbGw9IiMwMDAwMDAiIGZvbnQtZmFtaWx5PSJzYW5zLXNlcmlmIiBmb250LXNpemU9IjEyIiBmb250LXN0eWxlPSJpdGFsaWMiIGxlbmd0aEFkanVzdD0ic3BhY2luZyIgdGV4dExlbmd0aD0iOTYiIHg9IjI2OCIgeT0iNDU5LjI5NjkiPlsmIzI1NDI0OyYjMjc0NTQ7JiMyNTk2ODsmIzI1NDU0OyYjMzU3NzU7JiMzODM4MjsmIzIzNjE4O108L3RleHQ+PC9nPjwhLS1lbnRpdHkgbWF0ZXJpYWxfcmVwb3NpdG9yeS0tPjxnIGlkPSJlbGVtX21hdGVyaWFsX3JlcG9zaXRvcnkiPjxyZWN0IGZpbGw9IiM4NUJCRjAiIGhlaWdodD0iNjIuODEyNSIgcng9IjIuNSIgcnk9IjIuNSIgc3R5bGU9InN0cm9rZTojNzhBOEQ4O3N0cm9rZS13aWR0aDowLjU7IiB3aWR0aD0iMTY0IiB4PSIyNyIgeT0iNDA3Ljk4NDQiLz48dGV4dCBmaWxsPSIjMDAwMDAwIiBmb250LWZhbWlseT0ic2Fucy1zZXJpZiIgZm9udC1zaXplPSIxMiIgZm9udC1zdHlsZT0iaXRhbGljIiBsZW5ndGhBZGp1c3Q9InNwYWNpbmciIHRleHRMZW5ndGg9IjcyIiB4PSI3MyIgeT0iNDI5LjMyODEiPiYjMTcxO2NvbXBvbmVudCYjMTg3OzwvdGV4dD48dGV4dCBmaWxsPSIjMDAwMDAwIiBmb250LWZhbWlseT0ic2Fucy1zZXJpZiIgZm9udC1zaXplPSIxNiIgZm9udC13ZWlnaHQ9ImJvbGQiIGxlbmd0aEFkanVzdD0ic3BhY2luZyIgdGV4dExlbmd0aD0iMTQ0IiB4PSIzNyIgeT0iNDQ1Ljk1MzEiPk1hdGVyaWFsUmVwb3NpdG9yeTwvdGV4dD48dGV4dCBmaWxsPSIjMDAwMDAwIiBmb250LWZhbWlseT0ic2Fucy1zZXJpZiIgZm9udC1zaXplPSIxMiIgZm9udC1zdHlsZT0iaXRhbGljIiBsZW5ndGhBZGp1c3Q9InNwYWNpbmciIHRleHRMZW5ndGg9IjEyMCIgeD0iNDkiIHk9IjQ1OS4yOTY5Ij5bJiMyOTI4OTsmIzM2MTY0OyYjMjU0MjQ7JiMzNjE5MjsmIzI1OTY4OyYjMjU0NTQ7JiMzNTc3NTsmIzM4MzgyOyYjMjM2MTg7XTwvdGV4dD48L2c+PCEtLWxpbmsgZG9uYXRpb25fY29udHJvbGxlciB0byBkb25hdGlvbl9zZXJ2aWNlX2ltcGwtLT48ZyBpZD0ibGlua19kb25hdGlvbl9jb250cm9sbGVyX2RvbmF0aW9uX3NlcnZpY2VfaW1wbCI+PHBhdGggZD0iTTMxNiwxOTcuMTE0NCBDMzE2LDIxOS4yMTQ0IDMxNiwyNDAuOTA0NCAzMTYsMjYyLjk3NDQgIiBmaWxsPSJub25lIiBpZD0iZG9uYXRpb25fY29udHJvbGxlci10by1kb25hdGlvbl9zZXJ2aWNlX2ltcGwiIHN0eWxlPSJzdHJva2U6IzY2NjY2NjtzdHJva2Utd2lkdGg6MS4wOyIvPjxwb2x5Z29uIGZpbGw9IiM2NjY2NjYiIHBvaW50cz0iMzE2LDI3MC45NzQ0LDMxOSwyNjIuOTc0NCwzMTMsMjYyLjk3NDQsMzE2LDI3MC45NzQ0IiBzdHlsZT0ic3Ryb2tlOiM2NjY2NjY7c3Ryb2tlLXdpZHRoOjEuMDsiLz48dGV4dCBmaWxsPSIjNjY2NjY2IiBmb250LWZhbWlseT0ic2Fucy1zZXJpZiIgZm9udC1zaXplPSIxMiIgZm9udC13ZWlnaHQ9ImJvbGQiIGxlbmd0aEFkanVzdD0ic3BhY2luZyIgdGV4dExlbmd0aD0iMjQiIHg9IjMxNyIgeT0iMjM5LjMyODEiPiYjMzU4NDM7JiMyOTk5Mjs8L3RleHQ+PC9nPjwhLS1saW5rIG1hdGVyaWFsX2NvbnRyb2xsZXIgdG8gbWF0ZXJpYWxfc2VydmljZV9pbXBsLS0+PGcgaWQ9ImxpbmtfbWF0ZXJpYWxfY29udHJvbGxlcl9tYXRlcmlhbF9zZXJ2aWNlX2ltcGwiPjxwYXRoIGQ9Ik0xMDksMTk3LjExNDQgQzEwOSwyMTkuMjE0NCAxMDksMjQwLjkwNDQgMTA5LDI2Mi45NzQ0ICIgZmlsbD0ibm9uZSIgaWQ9Im1hdGVyaWFsX2NvbnRyb2xsZXItdG8tbWF0ZXJpYWxfc2VydmljZV9pbXBsIiBzdHlsZT0ic3Ryb2tlOiM2NjY2NjY7c3Ryb2tlLXdpZHRoOjEuMDsiLz48cG9seWdvbiBmaWxsPSIjNjY2NjY2IiBwb2ludHM9IjEwOSwyNzAuOTc0NCwxMTIsMjYyLjk3NDQsMTA2LDI2Mi45NzQ0LDEwOSwyNzAuOTc0NCIgc3R5bGU9InN0cm9rZTojNjY2NjY2O3N0cm9rZS13aWR0aDoxLjA7Ii8+PHRleHQgZmlsbD0iIzY2NjY2NiIgZm9udC1mYW1pbHk9InNhbnMtc2VyaWYiIGZvbnQtc2l6ZT0iMTIiIGZvbnQtd2VpZ2h0PSJib2xkIiBsZW5ndGhBZGp1c3Q9InNwYWNpbmciIHRleHRMZW5ndGg9IjI0IiB4PSIxMTAiIHk9IjIzOS4zMjgxIj4mIzM1ODQzOyYjMjk5OTI7PC90ZXh0PjwvZz48IS0tbGluayBkb25hdGlvbl9zZXJ2aWNlX2ltcGwgdG8gZG9uYXRpb25fcmVwb3NpdG9yeS0tPjxnIGlkPSJsaW5rX2RvbmF0aW9uX3NlcnZpY2VfaW1wbF9kb25hdGlvbl9yZXBvc2l0b3J5Ij48cGF0aCBkPSJNMzE2LDMzNC4xMTQ0IEMzMTYsMzU2LjIxNDQgMzE2LDM3Ny45MDQ0IDMxNiwzOTkuOTc0NCAiIGZpbGw9Im5vbmUiIGlkPSJkb25hdGlvbl9zZXJ2aWNlX2ltcGwtdG8tZG9uYXRpb25fcmVwb3NpdG9yeSIgc3R5bGU9InN0cm9rZTojNjY2NjY2O3N0cm9rZS13aWR0aDoxLjA7Ii8+PHBvbHlnb24gZmlsbD0iIzY2NjY2NiIgcG9pbnRzPSIzMTYsNDA3Ljk3NDQsMzE5LDM5OS45NzQ0LDMxMywzOTkuOTc0NCwzMTYsNDA3Ljk3NDQiIHN0eWxlPSJzdHJva2U6IzY2NjY2NjtzdHJva2Utd2lkdGg6MS4wOyIvPjx0ZXh0IGZpbGw9IiM2NjY2NjYiIGZvbnQtZmFtaWx5PSJzYW5zLXNlcmlmIiBmb250LXNpemU9IjEyIiBmb250LXdlaWdodD0iYm9sZCIgbGVuZ3RoQWRqdXN0PSJzcGFjaW5nIiB0ZXh0TGVuZ3RoPSIyNCIgeD0iMzE3IiB5PSIzNzYuMzI4MSI+JiMzNTg0MzsmIzI5OTkyOzwvdGV4dD48L2c+PCEtLWxpbmsgbWF0ZXJpYWxfc2VydmljZV9pbXBsIHRvIG1hdGVyaWFsX3JlcG9zaXRvcnktLT48ZyBpZD0ibGlua19tYXRlcmlhbF9zZXJ2aWNlX2ltcGxfbWF0ZXJpYWxfcmVwb3NpdG9yeSI+PHBhdGggZD0iTTEwOSwzMzQuMTE0NCBDMTA5LDM1Ni4yMTQ0IDEwOSwzNzcuOTA0NCAxMDksMzk5Ljk3NDQgIiBmaWxsPSJub25lIiBpZD0ibWF0ZXJpYWxfc2VydmljZV9pbXBsLXRvLW1hdGVyaWFsX3JlcG9zaXRvcnkiIHN0eWxlPSJzdHJva2U6IzY2NjY2NjtzdHJva2Utd2lkdGg6MS4wOyIvPjxwb2x5Z29uIGZpbGw9IiM2NjY2NjYiIHBvaW50cz0iMTA5LDQwNy45NzQ0LDExMiwzOTkuOTc0NCwxMDYsMzk5Ljk3NDQsMTA5LDQwNy45NzQ0IiBzdHlsZT0ic3Ryb2tlOiM2NjY2NjY7c3Ryb2tlLXdpZHRoOjEuMDsiLz48dGV4dCBmaWxsPSIjNjY2NjY2IiBmb250LWZhbWlseT0ic2Fucy1zZXJpZiIgZm9udC1zaXplPSIxMiIgZm9udC13ZWlnaHQ9ImJvbGQiIGxlbmd0aEFkanVzdD0ic3BhY2luZyIgdGV4dExlbmd0aD0iMjQiIHg9IjExMCIgeT0iMzc2LjMyODEiPiYjMzU4NDM7JiMyOTk5Mjs8L3RleHQ+PC9nPjwhLS1TUkM9W1RQOUZJeUNtNkNSbF9ISW45dVZFTlpudlQ1dTQxLUJtRkJlalI4NHFBTWNnMzE3eUNtTTVZR1Q1cTI0QTdYSGFKY0dnM2hPRmVzdGdqcDJyaXhPWlhMeHd2N3IteHZFZGRLQWFZanFRVDFhNjNTdmpQeTRtY0JhdkxxVXl1TFBTMXg4ZzlIbUlGYlViYmM1WmF0M05tZGM3cnAyZzY4TnZfNmVlaEhUTjNDanFFNkhJQVhVZVBMQ0lVY212Z3NhU1NHbzF0cHVELVpULWYtcVR0dWYxd3NsbXdicUREUXFXeUlPWWE0dE5BMzR2ZWdHaWJzd1dBZm01VWpBWm9fVUlwSDJmV3FMQUVQVzFuVVFZRDNaWFdUVXY1bnlaRVV1XzNaenRUaU5IR3oxbEhNdXoxeE9xMEU5R190bDJjcDZBQ01JSWkzSE0yeDd1b3hyaFlURjNZMmtrdGhzMzV0N1AyZnhVX0VTekZQVVlNZ1F5Rko5bmNiZVNnb2ZnQ2dJQWhHdXpCZ1VDQjFpZE9mU1lVTGNnVWJJU0oxbUx2dE1sbktiRkYwLW80YXlXX3A5Rjg5RG5MTTFyTjBQandZMUVNSkNIVFlxTTRyZEZVdHd4NnRIN3RuVFRCeGxUNUV5bFFQZ04yZ2dXb2NTRE9sTGxhNUxwcURpTlBfVV96ajJoX0RYUFZTUlVvU05mRU5MYk1PbEpOZEt6aU5WeDFtMDBdLS0+PC9nPjwvc3ZnPg==;" vertex="1" parent="1">
            <mxGeometry x="1263" y="11377" width="424" height="492" as="geometry" />
          </mxCell>
        </UserObject>
        <UserObject label="" plantUmlData="{&#xa;  &quot;data&quot;: &quot;@startuml\n!includeurl https://raw.githubusercontent.com/plantuml-stdlib/C4-PlantUML/master/C4_Container.puml\n\ntitle 流浪猫救助平台系统架构图\n\nPerson(user, \&quot;用户\&quot;, \&quot;爱心人士、志愿者等\&quot;)\nSystem_Ext(frontend, \&quot;前端\&quot;, \&quot;Vue.js\&quot;, \&quot;负责用户界面和交互\&quot;)\nSystem_Ext(db, \&quot;数据库\&quot;, \&quot;MySQL\&quot;, \&quot;存储平台数据\&quot;)\nSystem_Ext(cache, \&quot;缓存\&quot;, \&quot;Redis\&quot;, \&quot;缓存热点数据\&quot;)\nSystem_Ext(mq, \&quot;消息队列\&quot;, \&quot;RabbitMQ\&quot;, \&quot;异步处理任务\&quot;)\nSystem_Ext(storage, \&quot;文件存储\&quot;, \&quot;AWS S3\&quot;, \&quot;存储图片和视频\&quot;)\n\nContainer(api_gateway, \&quot;API 网关\&quot;, \&quot;Spring Cloud Gateway\&quot;, \&quot;统一管理 API 接口\&quot;)\nContainerDb(auth_service, \&quot;认证服务\&quot;, \&quot;Spring Security + JWT\&quot;, \&quot;用户注册、登录、授权\&quot;)\nContainerDb(user_service, \&quot;用户服务\&quot;, \&quot;Spring Boot + MyBatis\&quot;, \&quot;用户信息管理、捐赠记录、领养申请\&quot;)\nContainerDb(community_service, \&quot;社区服务\&quot;, \&quot;Spring Boot + MyBatis\&quot;, \&quot;发布帖子、浏览帖子、评论/点赞\&quot;)\nContainerDb(cat_service, \&quot;流浪猫服务\&quot;, \&quot;Spring Boot + MyBatis\&quot;, \&quot;流浪猫信息管理、求助信息、领养申请\&quot;)\nContainerDb(volunteer_service, \&quot;志愿者服务\&quot;, \&quot;Spring Boot + MyBatis\&quot;, \&quot;志愿者申请、任务管理、医疗记录\&quot;)\nContainerDb(donation_service, \&quot;捐赠服务\&quot;, \&quot;Spring Boot + MyBatis\&quot;, \&quot;在线捐款、物资捐赠\&quot;)\n\nRel(user, frontend, \&quot;使用\&quot;)\nRel(frontend, api_gateway, \&quot;调用 API\&quot;)\n\nRel(api_gateway, auth_service, \&quot;调用\&quot;)\nRel(api_gateway, user_service, \&quot;调用\&quot;)\nRel(api_gateway, community_service, \&quot;调用\&quot;)\nRel(api_gateway, cat_service, \&quot;调用\&quot;)\nRel(api_gateway, volunteer_service, \&quot;调用\&quot;)\nRel(api_gateway, donation_service, \&quot;调用\&quot;)\n\nRel(auth_service, db, \&quot;读写\&quot;)\nRel(user_service, db, \&quot;读写\&quot;)\nRel(community_service, db, \&quot;读写\&quot;)\nRel(cat_service, db, \&quot;读写\&quot;)\nRel(volunteer_service, db, \&quot;读写\&quot;)\nRel(donation_service, db, \&quot;读写\&quot;)\n\nRel(user_service, cache, \&quot;读写\&quot;)\nRel(community_service, cache, \&quot;读写\&quot;)\nRel(cat_service, cache, \&quot;读写\&quot;)\n\nRel(user_service, mq, \&quot;发布消息\&quot;)\nRel(volunteer_service, mq, \&quot;发布消息\&quot;)\nRel(donation_service, mq, \&quot;发布消息\&quot;)\n\nRel(user_service, storage, \&quot;上传/下载文件\&quot;)\nRel(community_service, storage, \&quot;上传/下载文件\&quot;)\nRel(cat_service, storage, \&quot;上传/下载文件\&quot;)\nRel(volunteer_service, storage, \&quot;上传/下载文件\&quot;)\n\n@enduml&quot;,&#xa;  &quot;format&quot;: &quot;svg&quot;&#xa;}" id="WF8WQ5typgrZwuC74MDy-6">
          <mxCell style="shape=image;noLabel=1;verticalAlign=top;aspect=fixed;imageAspect=0;image=data:image/svg+xml,PD94bWwgdmVyc2lvbj0iMS4wIiBlbmNvZGluZz0idXMtYXNjaWkiIHN0YW5kYWxvbmU9Im5vIj8+PHN2ZyB4bWxucz0iaHR0cDovL3d3dy53My5vcmcvMjAwMC9zdmciIHhtbG5zOnhsaW5rPSJodHRwOi8vd3d3LnczLm9yZy8xOTk5L3hsaW5rIiBjb250ZW50U3R5bGVUeXBlPSJ0ZXh0L2NzcyIgaGVpZ2h0PSI4NTdweCIgcHJlc2VydmVBc3BlY3RSYXRpbz0ibm9uZSIgc3R5bGU9IndpZHRoOjE0OTRweDtoZWlnaHQ6ODU3cHg7YmFja2dyb3VuZDojRkZGRkZGOyIgdmVyc2lvbj0iMS4xIiB2aWV3Qm94PSIwIDAgMTQ5NCA4NTciIHdpZHRoPSIxNDk0cHgiIHpvb21BbmRQYW49Im1hZ25pZnkiPjxkZWZzLz48Zz48dGV4dCBmaWxsPSIjMDAwMDAwIiBmb250LWZhbWlseT0ic2Fucy1zZXJpZiIgZm9udC1zaXplPSIxNCIgZm9udC13ZWlnaHQ9ImJvbGQiIGxlbmd0aEFkanVzdD0ic3BhY2luZyIgdGV4dExlbmd0aD0iMTY4IiB4PSI2NTYuMjUiIHk9IjIzLjIzNDQiPiYjMjc5Njk7JiMyODAxMDsmIzI5NDgzOyYjMjU5Mzc7JiMyMTE2MTsmIzI0MTc5OyYjMjE0ODg7JiMzMTk5NTsmIzMyNDc5OyYjMjY1NTA7JiMyNjUwMDsmIzIyMjcwOzwvdGV4dD48IS0tZW50aXR5IHVzZXItLT48ZyBpZD0iZWxlbV91c2VyIj48cmVjdCBmaWxsPSIjMDg0MjdCIiBoZWlnaHQ9IjEyNy45Mzc1IiByeD0iMi41IiByeT0iMi41IiBzdHlsZT0ic3Ryb2tlOiMwNzNCNkY7c3Ryb2tlLXdpZHRoOjAuNTsiIHdpZHRoPSIxNDYiIHg9IjY5MSIgeT0iNDIuOTg0NCIvPjx0ZXh0IGZpbGw9IiNGRkZGRkYiIGZvbnQtZmFtaWx5PSJzYW5zLXNlcmlmIiBmb250LXNpemU9IjEyIiBmb250LXN0eWxlPSJpdGFsaWMiIGxlbmd0aEFkanVzdD0ic3BhY2luZyIgdGV4dExlbmd0aD0iNTQiIHg9IjczNyIgeT0iNjQuMzI4MSI+JiMxNzE7cGVyc29uJiMxODc7PC90ZXh0PjxpbWFnZSBoZWlnaHQ9IjQ4IiB3aWR0aD0iNDgiIHg9Ijc0MCIgeGxpbms6aHJlZj0iZGF0YTppbWFnZS9wbmc7YmFzZTY0LGlWQk9SdzBLR2dvQUFBQU5TVWhFVWdBQUFEQUFBQUF3Q0FZQUFBQlhBdm1IQUFBQ01FbEVRVlI0WHUyWXZVckZRQkNGYitraitBaStncTNZMlBnQStnQ0N0WjJWMkFocWFTTmlxWTFnWVdNamFDdlh5a29FS3kyMXNMQ05mRUxnTXNja3N6OG1XZkRBQjNLdXllN3NUbVlubWN3dGJVOUtSb3pTRUNPVmxhM1Q2dVRxdnJxWlBsY1BUNjgvWE53K1Z0dkgxOVhDK3NHZS9mOVV4SWhsOC9DeSt2ajhxcnBFWUlzYlIxTjdmU3hpaERLL3Vydk1Lb2VLSGJIM2lrR01FSmk4WjlXYnRIOTJseHlFR0NIRXJMd1ZxV2Z2RzRJWVhraUJYR0luN2YyOWlPR0JBZTBrVWtUVnNtTjRFY01EMjU1YmRnd3ZZbmlnRk9ZVzU0Y2R4NE1ZSGxJcVQ1Tml5Nm9ZSHV6Z09SUmJVc1h3WUFmUG9WNERlSGw3dCtNbksvWThFTU1EelZsdTlmb1E1eTZqRkFVN2hoY3h2T1NzUkxINUQySjRLYnFWcU1seG9LM3RuRWV2UG9nUkFpdVhVcEZpRDY5WnhJZ2haaWRTVjc1R2pGaVlrR2MzS01FcE9XOFJJeFhlZDBrTkpzck9BTzB5cFRmbnhHdkVLQTB4U2tNTUQzemZJZWRKRlE0aENQbFV3clgxZGFRV2JVUnNlb25SQmhOdWUxRDVyYzUzSmtWUXdOOWMyMVd0K0QyMEp4TGpON2hwenRhaFN3VGkzUkV4TERsYmhoQ3htNTVQa1dMTWtydnJEQlc3M3JVVFl0U1F1L2FHUTRoMHNuTnpCZEQxd1BXcHRyWkREQmpMNnRmaWViQnpiQTJBVWpnMk5UM1FZa0JiclI5S1RTLzlZb0M5ZUF4cWV1MFVJL2VIMjF5aXU3VnpMU3FBcG5JcXhuOEFmNlRpQTNBL0E5Qm41K2xWMHhjTU1XRG9KczZxcmFrVG80YTZPd1p4cUxhOTdZa3hDMUh6TWtNek5RUnRFM2NGVUFKaWxNWTNPR1ROTDBORExxSUFBQUFBU1VWT1JLNUNZSUk9IiB5PSI2NS44MjgxIi8+PHRleHQgZmlsbD0iI0ZGRkZGRiIgZm9udC1mYW1pbHk9InNhbnMtc2VyaWYiIGZvbnQtc2l6ZT0iMTYiIGZvbnQtd2VpZ2h0PSJib2xkIiBsZW5ndGhBZGp1c3Q9InNwYWNpbmciIHRleHRMZW5ndGg9IjMyIiB4PSI3NDgiIHk9IjEyOC45NTMxIj4mIzI5OTkyOyYjMjUxNDM7PC90ZXh0Pjx0ZXh0IGZpbGw9IiNGRkZGRkYiIGZvbnQtZmFtaWx5PSJzYW5zLXNlcmlmIiBmb250LXNpemU9IjE0IiBsZW5ndGhBZGp1c3Q9InNwYWNpbmciIHRleHRMZW5ndGg9IjciIHg9Ijc2MC41IiB5PSIxNDQuMTg3NSI+JiMxNjA7PC90ZXh0Pjx0ZXh0IGZpbGw9IiNGRkZGRkYiIGZvbnQtZmFtaWx5PSJzYW5zLXNlcmlmIiBmb250LXNpemU9IjE0IiBsZW5ndGhBZGp1c3Q9InNwYWNpbmciIHRleHRMZW5ndGg9IjEyNiIgeD0iNzAxIiB5PSIxNTkuMTcxOSI+JiMyOTIzMzsmIzI0NTE1OyYjMjAxNTQ7JiMyMjc2MzsmIzEyMjg5OyYjMjQ1MzU7JiMyNDg5NTsmIzMyNzczOyYjMzE1NjE7PC90ZXh0PjwvZz48IS0tZW50aXR5IGZyb250ZW5kLS0+PGcgaWQ9ImVsZW1fZnJvbnRlbmQiPjxyZWN0IGZpbGw9IiM5OTk5OTkiIGhlaWdodD0iOTQuOTIxOSIgcng9IjIuNSIgcnk9IjIuNSIgc3R5bGU9InN0cm9rZTojOEE4QThBO3N0cm9rZS13aWR0aDowLjU7IiB3aWR0aD0iMTMyIiB4PSI2OTgiIHk9IjI0NC45ODQ0Ii8+PHRleHQgZmlsbD0iI0ZGRkZGRiIgZm9udC1mYW1pbHk9InNhbnMtc2VyaWYiIGZvbnQtc2l6ZT0iMTIiIGZvbnQtc3R5bGU9Iml0YWxpYyIgbGVuZ3RoQWRqdXN0PSJzcGFjaW5nIiB0ZXh0TGVuZ3RoPSIxMTIiIHg9IjcwOCIgeT0iMjY2LjMyODEiPiYjMTcxO2V4dGVybmFsX3N5c3RlbSYjMTg3OzwvdGV4dD48dGV4dCBmaWxsPSIjRkZGRkZGIiBmb250LWZhbWlseT0ic2Fucy1zZXJpZiIgZm9udC1zaXplPSIxNCIgbGVuZ3RoQWRqdXN0PSJzcGFjaW5nIiB0ZXh0TGVuZ3RoPSI3IiB4PSI3NjAuNSIgeT0iMjgxLjA2MjUiPiYjMTYwOzwvdGV4dD48dGV4dCBmaWxsPSIjRkZGRkZGIiBmb250LWZhbWlseT0ic2Fucy1zZXJpZiIgZm9udC1zaXplPSIxNiIgZm9udC13ZWlnaHQ9ImJvbGQiIGxlbmd0aEFkanVzdD0ic3BhY2luZyIgdGV4dExlbmd0aD0iMzIiIHg9Ijc0OCIgeT0iMjk3LjkzNzUiPiYjMjEwNjk7JiMzMTQ3MTs8L3RleHQ+PHRleHQgZmlsbD0iI0ZGRkZGRiIgZm9udC1mYW1pbHk9InNhbnMtc2VyaWYiIGZvbnQtc2l6ZT0iMTQiIGxlbmd0aEFkanVzdD0ic3BhY2luZyIgdGV4dExlbmd0aD0iNyIgeD0iNzYwLjUiIHk9IjMxMy4xNzE5Ij4mIzE2MDs8L3RleHQ+PHRleHQgZmlsbD0iI0ZGRkZGRiIgZm9udC1mYW1pbHk9InNhbnMtc2VyaWYiIGZvbnQtc2l6ZT0iMTQiIGxlbmd0aEFkanVzdD0ic3BhY2luZyIgdGV4dExlbmd0aD0iNDIiIHg9Ijc0MyIgeT0iMzI4LjE1NjMiPlZ1ZS5qczwvdGV4dD48L2c+PCEtLWVudGl0eSBkYi0tPjxnIGlkPSJlbGVtX2RiIj48cmVjdCBmaWxsPSIjOTk5OTk5IiBoZWlnaHQ9Ijk0LjkyMTkiIHJ4PSIyLjUiIHJ5PSIyLjUiIHN0eWxlPSJzdHJva2U6IzhBOEE4QTtzdHJva2Utd2lkdGg6MC41OyIgd2lkdGg9IjEzMiIgeD0iODU1IiB5PSI3NTYuOTg0NCIvPjx0ZXh0IGZpbGw9IiNGRkZGRkYiIGZvbnQtZmFtaWx5PSJzYW5zLXNlcmlmIiBmb250LXNpemU9IjEyIiBmb250LXN0eWxlPSJpdGFsaWMiIGxlbmd0aEFkanVzdD0ic3BhY2luZyIgdGV4dExlbmd0aD0iMTEyIiB4PSI4NjUiIHk9Ijc3OC4zMjgxIj4mIzE3MTtleHRlcm5hbF9zeXN0ZW0mIzE4Nzs8L3RleHQ+PHRleHQgZmlsbD0iI0ZGRkZGRiIgZm9udC1mYW1pbHk9InNhbnMtc2VyaWYiIGZvbnQtc2l6ZT0iMTQiIGxlbmd0aEFkanVzdD0ic3BhY2luZyIgdGV4dExlbmd0aD0iNyIgeD0iOTE3LjUiIHk9Ijc5My4wNjI1Ij4mIzE2MDs8L3RleHQ+PHRleHQgZmlsbD0iI0ZGRkZGRiIgZm9udC1mYW1pbHk9InNhbnMtc2VyaWYiIGZvbnQtc2l6ZT0iMTYiIGZvbnQtd2VpZ2h0PSJib2xkIiBsZW5ndGhBZGp1c3Q9InNwYWNpbmciIHRleHRMZW5ndGg9IjQ4IiB4PSI4OTciIHk9IjgwOS45Mzc1Ij4mIzI1OTY4OyYjMjU0NTQ7JiMyNDIxMTs8L3RleHQ+PHRleHQgZmlsbD0iI0ZGRkZGRiIgZm9udC1mYW1pbHk9InNhbnMtc2VyaWYiIGZvbnQtc2l6ZT0iMTQiIGxlbmd0aEFkanVzdD0ic3BhY2luZyIgdGV4dExlbmd0aD0iNyIgeD0iOTE3LjUiIHk9IjgyNS4xNzE5Ij4mIzE2MDs8L3RleHQ+PHRleHQgZmlsbD0iI0ZGRkZGRiIgZm9udC1mYW1pbHk9InNhbnMtc2VyaWYiIGZvbnQtc2l6ZT0iMTQiIGxlbmd0aEFkanVzdD0ic3BhY2luZyIgdGV4dExlbmd0aD0iMzUiIHg9IjkwMy41IiB5PSI4NDAuMTU2MyI+TXlTUUw8L3RleHQ+PC9nPjwhLS1lbnRpdHkgY2FjaGUtLT48ZyBpZD0iZWxlbV9jYWNoZSI+PHJlY3QgZmlsbD0iIzk5OTk5OSIgaGVpZ2h0PSI5NC45MjE5IiByeD0iMi41IiByeT0iMi41IiBzdHlsZT0ic3Ryb2tlOiM4QThBOEE7c3Ryb2tlLXdpZHRoOjAuNTsiIHdpZHRoPSIxMzIiIHg9IjEzNSIgeT0iNzU2Ljk4NDQiLz48dGV4dCBmaWxsPSIjRkZGRkZGIiBmb250LWZhbWlseT0ic2Fucy1zZXJpZiIgZm9udC1zaXplPSIxMiIgZm9udC1zdHlsZT0iaXRhbGljIiBsZW5ndGhBZGp1c3Q9InNwYWNpbmciIHRleHRMZW5ndGg9IjExMiIgeD0iMTQ1IiB5PSI3NzguMzI4MSI+JiMxNzE7ZXh0ZXJuYWxfc3lzdGVtJiMxODc7PC90ZXh0Pjx0ZXh0IGZpbGw9IiNGRkZGRkYiIGZvbnQtZmFtaWx5PSJzYW5zLXNlcmlmIiBmb250LXNpemU9IjE0IiBsZW5ndGhBZGp1c3Q9InNwYWNpbmciIHRleHRMZW5ndGg9IjciIHg9IjE5Ny41IiB5PSI3OTMuMDYyNSI+JiMxNjA7PC90ZXh0Pjx0ZXh0IGZpbGw9IiNGRkZGRkYiIGZvbnQtZmFtaWx5PSJzYW5zLXNlcmlmIiBmb250LXNpemU9IjE2IiBmb250LXdlaWdodD0iYm9sZCIgbGVuZ3RoQWRqdXN0PSJzcGFjaW5nIiB0ZXh0TGVuZ3RoPSIzMiIgeD0iMTg1IiB5PSI4MDkuOTM3NSI+JiMzMjUzMTsmIzIzMzg0OzwvdGV4dD48dGV4dCBmaWxsPSIjRkZGRkZGIiBmb250LWZhbWlseT0ic2Fucy1zZXJpZiIgZm9udC1zaXplPSIxNCIgbGVuZ3RoQWRqdXN0PSJzcGFjaW5nIiB0ZXh0TGVuZ3RoPSI3IiB4PSIxOTcuNSIgeT0iODI1LjE3MTkiPiYjMTYwOzwvdGV4dD48dGV4dCBmaWxsPSIjRkZGRkZGIiBmb250LWZhbWlseT0ic2Fucy1zZXJpZiIgZm9udC1zaXplPSIxNCIgbGVuZ3RoQWRqdXN0PSJzcGFjaW5nIiB0ZXh0TGVuZ3RoPSIzNSIgeD0iMTgzLjUiIHk9Ijg0MC4xNTYzIj5SZWRpczwvdGV4dD48L2c+PCEtLWVudGl0eSBtcS0tPjxnIGlkPSJlbGVtX21xIj48cmVjdCBmaWxsPSIjOTk5OTk5IiBoZWlnaHQ9Ijk0LjkyMTkiIHJ4PSIyLjUiIHJ5PSIyLjUiIHN0eWxlPSJzdHJva2U6IzhBOEE4QTtzdHJva2Utd2lkdGg6MC41OyIgd2lkdGg9IjEzMiIgeD0iMTE3MSIgeT0iNzU2Ljk4NDQiLz48dGV4dCBmaWxsPSIjRkZGRkZGIiBmb250LWZhbWlseT0ic2Fucy1zZXJpZiIgZm9udC1zaXplPSIxMiIgZm9udC1zdHlsZT0iaXRhbGljIiBsZW5ndGhBZGp1c3Q9InNwYWNpbmciIHRleHRMZW5ndGg9IjExMiIgeD0iMTE4MSIgeT0iNzc4LjMyODEiPiYjMTcxO2V4dGVybmFsX3N5c3RlbSYjMTg3OzwvdGV4dD48dGV4dCBmaWxsPSIjRkZGRkZGIiBmb250LWZhbWlseT0ic2Fucy1zZXJpZiIgZm9udC1zaXplPSIxNCIgbGVuZ3RoQWRqdXN0PSJzcGFjaW5nIiB0ZXh0TGVuZ3RoPSI3IiB4PSIxMjMzLjUiIHk9Ijc5My4wNjI1Ij4mIzE2MDs8L3RleHQ+PHRleHQgZmlsbD0iI0ZGRkZGRiIgZm9udC1mYW1pbHk9InNhbnMtc2VyaWYiIGZvbnQtc2l6ZT0iMTYiIGZvbnQtd2VpZ2h0PSJib2xkIiBsZW5ndGhBZGp1c3Q9InNwYWNpbmciIHRleHRMZW5ndGg9IjY0IiB4PSIxMjA1IiB5PSI4MDkuOTM3NSI+JiMyODA0MDsmIzI0Njg3OyYjMzg0MzE7JiMyMTAxNTs8L3RleHQ+PHRleHQgZmlsbD0iI0ZGRkZGRiIgZm9udC1mYW1pbHk9InNhbnMtc2VyaWYiIGZvbnQtc2l6ZT0iMTQiIGxlbmd0aEFkanVzdD0ic3BhY2luZyIgdGV4dExlbmd0aD0iNyIgeD0iMTIzMy41IiB5PSI4MjUuMTcxOSI+JiMxNjA7PC90ZXh0Pjx0ZXh0IGZpbGw9IiNGRkZGRkYiIGZvbnQtZmFtaWx5PSJzYW5zLXNlcmlmIiBmb250LXNpemU9IjE0IiBsZW5ndGhBZGp1c3Q9InNwYWNpbmciIHRleHRMZW5ndGg9IjU2IiB4PSIxMjA5IiB5PSI4NDAuMTU2MyI+UmFiYml0TVE8L3RleHQ+PC9nPjwhLS1lbnRpdHkgc3RvcmFnZS0tPjxnIGlkPSJlbGVtX3N0b3JhZ2UiPjxyZWN0IGZpbGw9IiM5OTk5OTkiIGhlaWdodD0iOTQuOTIxOSIgcng9IjIuNSIgcnk9IjIuNSIgc3R5bGU9InN0cm9rZTojOEE4QThBO3N0cm9rZS13aWR0aDowLjU7IiB3aWR0aD0iMTMyIiB4PSI0MTUiIHk9Ijc1Ni45ODQ0Ii8+PHRleHQgZmlsbD0iI0ZGRkZGRiIgZm9udC1mYW1pbHk9InNhbnMtc2VyaWYiIGZvbnQtc2l6ZT0iMTIiIGZvbnQtc3R5bGU9Iml0YWxpYyIgbGVuZ3RoQWRqdXN0PSJzcGFjaW5nIiB0ZXh0TGVuZ3RoPSIxMTIiIHg9IjQyNSIgeT0iNzc4LjMyODEiPiYjMTcxO2V4dGVybmFsX3N5c3RlbSYjMTg3OzwvdGV4dD48dGV4dCBmaWxsPSIjRkZGRkZGIiBmb250LWZhbWlseT0ic2Fucy1zZXJpZiIgZm9udC1zaXplPSIxNCIgbGVuZ3RoQWRqdXN0PSJzcGFjaW5nIiB0ZXh0TGVuZ3RoPSI3IiB4PSI0NzcuNSIgeT0iNzkzLjA2MjUiPiYjMTYwOzwvdGV4dD48dGV4dCBmaWxsPSIjRkZGRkZGIiBmb250LWZhbWlseT0ic2Fucy1zZXJpZiIgZm9udC1zaXplPSIxNiIgZm9udC13ZWlnaHQ9ImJvbGQiIGxlbmd0aEFkanVzdD0ic3BhY2luZyIgdGV4dExlbmd0aD0iNjQiIHg9IjQ0OSIgeT0iODA5LjkzNzUiPiYjMjU5OTE7JiMyMDIxNDsmIzIzMzg0OyYjMjA2NDg7PC90ZXh0Pjx0ZXh0IGZpbGw9IiNGRkZGRkYiIGZvbnQtZmFtaWx5PSJzYW5zLXNlcmlmIiBmb250LXNpemU9IjE0IiBsZW5ndGhBZGp1c3Q9InNwYWNpbmciIHRleHRMZW5ndGg9IjciIHg9IjQ3Ny41IiB5PSI4MjUuMTcxOSI+JiMxNjA7PC90ZXh0Pjx0ZXh0IGZpbGw9IiNGRkZGRkYiIGZvbnQtZmFtaWx5PSJzYW5zLXNlcmlmIiBmb250LXNpemU9IjE0IiBsZW5ndGhBZGp1c3Q9InNwYWNpbmciIHRleHRMZW5ndGg9IjIxIiB4PSI0NjAiIHk9Ijg0MC4xNTYzIj5BV1M8L3RleHQ+PHRleHQgZmlsbD0iI0ZGRkZGRiIgZm9udC1mYW1pbHk9InNhbnMtc2VyaWYiIGZvbnQtc2l6ZT0iMTQiIGxlbmd0aEFkanVzdD0ic3BhY2luZyIgdGV4dExlbmd0aD0iNyIgeD0iNDgxIiB5PSI4NDAuMTU2MyI+JiMxNjA7PC90ZXh0Pjx0ZXh0IGZpbGw9IiNGRkZGRkYiIGZvbnQtZmFtaWx5PSJzYW5zLXNlcmlmIiBmb250LXNpemU9IjE0IiBsZW5ndGhBZGp1c3Q9InNwYWNpbmciIHRleHRMZW5ndGg9IjE0IiB4PSI0ODgiIHk9Ijg0MC4xNTYzIj5TMzwvdGV4dD48L2c+PCEtLWVudGl0eSBhcGlfZ2F0ZXdheS0tPjxnIGlkPSJlbGVtX2FwaV9nYXRld2F5Ij48cmVjdCBmaWxsPSIjNDM4REQ1IiBoZWlnaHQ9IjkyLjc4MTMiIHJ4PSIyLjUiIHJ5PSIyLjUiIHN0eWxlPSJzdHJva2U6IzNDN0ZDMDtzdHJva2Utd2lkdGg6MC41OyIgd2lkdGg9IjE2NiIgeD0iNjgxIiB5PSI0MTMuOTg0NCIvPjx0ZXh0IGZpbGw9IiNGRkZGRkYiIGZvbnQtZmFtaWx5PSJzYW5zLXNlcmlmIiBmb250LXNpemU9IjEyIiBmb250LXN0eWxlPSJpdGFsaWMiIGxlbmd0aEFkanVzdD0ic3BhY2luZyIgdGV4dExlbmd0aD0iNzIiIHg9IjcyOCIgeT0iNDM1LjMyODEiPiYjMTcxO2NvbnRhaW5lciYjMTg3OzwvdGV4dD48dGV4dCBmaWxsPSIjRkZGRkZGIiBmb250LWZhbWlseT0ic2Fucy1zZXJpZiIgZm9udC1zaXplPSIxNiIgZm9udC13ZWlnaHQ9ImJvbGQiIGxlbmd0aEFkanVzdD0ic3BhY2luZyIgdGV4dExlbmd0aD0iMjQiIHg9IjczMiIgeT0iNDUxLjk1MzEiPkFQSTwvdGV4dD48dGV4dCBmaWxsPSIjRkZGRkZGIiBmb250LWZhbWlseT0ic2Fucy1zZXJpZiIgZm9udC1zaXplPSIxNiIgZm9udC13ZWlnaHQ9ImJvbGQiIGxlbmd0aEFkanVzdD0ic3BhY2luZyIgdGV4dExlbmd0aD0iOCIgeD0iNzU2IiB5PSI0NTEuOTUzMSI+JiMxNjA7PC90ZXh0Pjx0ZXh0IGZpbGw9IiNGRkZGRkYiIGZvbnQtZmFtaWx5PSJzYW5zLXNlcmlmIiBmb250LXNpemU9IjE2IiBmb250LXdlaWdodD0iYm9sZCIgbGVuZ3RoQWRqdXN0PSJzcGFjaW5nIiB0ZXh0TGVuZ3RoPSIzMiIgeD0iNzY0IiB5PSI0NTEuOTUzMSI+JiMzMjU5MzsmIzIwODUxOzwvdGV4dD48dGV4dCBmaWxsPSIjRkZGRkZGIiBmb250LWZhbWlseT0ic2Fucy1zZXJpZiIgZm9udC1zaXplPSIxMiIgZm9udC1zdHlsZT0iaXRhbGljIiBsZW5ndGhBZGp1c3Q9InNwYWNpbmciIHRleHRMZW5ndGg9IjQ3IiB4PSI2OTEiIHk9IjQ2NS4yOTY5Ij5bU3ByaW5nPC90ZXh0Pjx0ZXh0IGZpbGw9IiNGRkZGRkYiIGZvbnQtZmFtaWx5PSJzYW5zLXNlcmlmIiBmb250LXNpemU9IjEyIiBmb250LXN0eWxlPSJpdGFsaWMiIGxlbmd0aEFkanVzdD0ic3BhY2luZyIgdGV4dExlbmd0aD0iNiIgeD0iNzM4IiB5PSI0NjUuMjk2OSI+JiMxNjA7PC90ZXh0Pjx0ZXh0IGZpbGw9IiNGRkZGRkYiIGZvbnQtZmFtaWx5PSJzYW5zLXNlcmlmIiBmb250LXNpemU9IjEyIiBmb250LXN0eWxlPSJpdGFsaWMiIGxlbmd0aEFkanVzdD0ic3BhY2luZyIgdGV4dExlbmd0aD0iMzQiIHg9Ijc0NCIgeT0iNDY1LjI5NjkiPkNsb3VkPC90ZXh0Pjx0ZXh0IGZpbGw9IiNGRkZGRkYiIGZvbnQtZmFtaWx5PSJzYW5zLXNlcmlmIiBmb250LXNpemU9IjEyIiBmb250LXN0eWxlPSJpdGFsaWMiIGxlbmd0aEFkanVzdD0ic3BhY2luZyIgdGV4dExlbmd0aD0iNiIgeD0iNzc4IiB5PSI0NjUuMjk2OSI+JiMxNjA7PC90ZXh0Pjx0ZXh0IGZpbGw9IiNGRkZGRkYiIGZvbnQtZmFtaWx5PSJzYW5zLXNlcmlmIiBmb250LXNpemU9IjEyIiBmb250LXN0eWxlPSJpdGFsaWMiIGxlbmd0aEFkanVzdD0ic3BhY2luZyIgdGV4dExlbmd0aD0iNTMiIHg9Ijc4NCIgeT0iNDY1LjI5NjkiPkdhdGV3YXldPC90ZXh0Pjx0ZXh0IGZpbGw9IiNGRkZGRkYiIGZvbnQtZmFtaWx5PSJzYW5zLXNlcmlmIiBmb250LXNpemU9IjE0IiBsZW5ndGhBZGp1c3Q9InNwYWNpbmciIHRleHRMZW5ndGg9IjciIHg9Ijc2MC41IiB5PSI0ODAuMDMxMyI+JiMxNjA7PC90ZXh0Pjx0ZXh0IGZpbGw9IiNGRkZGRkYiIGZvbnQtZmFtaWx5PSJzYW5zLXNlcmlmIiBmb250LXNpemU9IjE0IiBsZW5ndGhBZGp1c3Q9InNwYWNpbmciIHRleHRMZW5ndGg9IjU2IiB4PSI3MDQuNSIgeT0iNDk1LjAxNTYiPiYjMzI0Nzk7JiMxOTk2ODsmIzMxNjQ5OyYjMjk3MDI7PC90ZXh0Pjx0ZXh0IGZpbGw9IiNGRkZGRkYiIGZvbnQtZmFtaWx5PSJzYW5zLXNlcmlmIiBmb250LXNpemU9IjE0IiBsZW5ndGhBZGp1c3Q9InNwYWNpbmciIHRleHRMZW5ndGg9IjciIHg9Ijc2MC41IiB5PSI0OTUuMDE1NiI+JiMxNjA7PC90ZXh0Pjx0ZXh0IGZpbGw9IiNGRkZGRkYiIGZvbnQtZmFtaWx5PSJzYW5zLXNlcmlmIiBmb250LXNpemU9IjE0IiBsZW5ndGhBZGp1c3Q9InNwYWNpbmciIHRleHRMZW5ndGg9IjIxIiB4PSI3NjcuNSIgeT0iNDk1LjAxNTYiPkFQSTwvdGV4dD48dGV4dCBmaWxsPSIjRkZGRkZGIiBmb250LWZhbWlseT0ic2Fucy1zZXJpZiIgZm9udC1zaXplPSIxNCIgbGVuZ3RoQWRqdXN0PSJzcGFjaW5nIiB0ZXh0TGVuZ3RoPSI3IiB4PSI3ODguNSIgeT0iNDk1LjAxNTYiPiYjMTYwOzwvdGV4dD48dGV4dCBmaWxsPSIjRkZGRkZGIiBmb250LWZhbWlseT0ic2Fucy1zZXJpZiIgZm9udC1zaXplPSIxNCIgbGVuZ3RoQWRqdXN0PSJzcGFjaW5nIiB0ZXh0TGVuZ3RoPSIyOCIgeD0iNzk1LjUiIHk9IjQ5NS4wMTU2Ij4mIzI1NTA5OyYjMjE0NzU7PC90ZXh0PjwvZz48IS0tZW50aXR5IGF1dGhfc2VydmljZS0tPjxnIGlkPSJlbGVtX2F1dGhfc2VydmljZSI+PHBhdGggZD0iTTExMDIuNSw1OTAuOTg0NCBDMTEwMi41LDU4MC45ODQ0IDExODcsNTgwLjk4NDQgMTE4Nyw1ODAuOTg0NCBDMTE4Nyw1ODAuOTg0NCAxMjcxLjUsNTgwLjk4NDQgMTI3MS41LDU5MC45ODQ0IEwxMjcxLjUsNjcyLjc2NTYgQzEyNzEuNSw2ODIuNzY1NiAxMTg3LDY4Mi43NjU2IDExODcsNjgyLjc2NTYgQzExODcsNjgyLjc2NTYgMTEwMi41LDY4Mi43NjU2IDExMDIuNSw2NzIuNzY1NiBMMTEwMi41LDU5MC45ODQ0ICIgZmlsbD0iIzQzOERENSIgc3R5bGU9InN0cm9rZTojM0M3RkMwO3N0cm9rZS13aWR0aDowLjU7Ii8+PHBhdGggZD0iTTExMDIuNSw1OTAuOTg0NCBDMTEwMi41LDYwMC45ODQ0IDExODcsNjAwLjk4NDQgMTE4Nyw2MDAuOTg0NCBDMTE4Nyw2MDAuOTg0NCAxMjcxLjUsNjAwLjk4NDQgMTI3MS41LDU5MC45ODQ0ICIgZmlsbD0ibm9uZSIgc3R5bGU9InN0cm9rZTojM0M3RkMwO3N0cm9rZS13aWR0aDowLjU7Ii8+PHRleHQgZmlsbD0iI0ZGRkZGRiIgZm9udC1mYW1pbHk9InNhbnMtc2VyaWYiIGZvbnQtc2l6ZT0iMTIiIGZvbnQtc3R5bGU9Iml0YWxpYyIgbGVuZ3RoQWRqdXN0PSJzcGFjaW5nIiB0ZXh0TGVuZ3RoPSI3MiIgeD0iMTE1MSIgeT0iNjE2LjMyODEiPiYjMTcxO2NvbnRhaW5lciYjMTg3OzwvdGV4dD48dGV4dCBmaWxsPSIjRkZGRkZGIiBmb250LWZhbWlseT0ic2Fucy1zZXJpZiIgZm9udC1zaXplPSIxNiIgZm9udC13ZWlnaHQ9ImJvbGQiIGxlbmd0aEFkanVzdD0ic3BhY2luZyIgdGV4dExlbmd0aD0iNjQiIHg9IjExNTUiIHk9IjYzMi45NTMxIj4mIzM1NzQ4OyYjMzU3Nzc7JiMyNjM4MTsmIzIxMTUzOzwvdGV4dD48dGV4dCBmaWxsPSIjRkZGRkZGIiBmb250LWZhbWlseT0ic2Fucy1zZXJpZiIgZm9udC1zaXplPSIxMiIgZm9udC1zdHlsZT0iaXRhbGljIiBsZW5ndGhBZGp1c3Q9InNwYWNpbmciIHRleHRMZW5ndGg9IjQ3IiB4PSIxMTEyLjUiIHk9IjY0Ni4yOTY5Ij5bU3ByaW5nPC90ZXh0Pjx0ZXh0IGZpbGw9IiNGRkZGRkYiIGZvbnQtZmFtaWx5PSJzYW5zLXNlcmlmIiBmb250LXNpemU9IjEyIiBmb250LXN0eWxlPSJpdGFsaWMiIGxlbmd0aEFkanVzdD0ic3BhY2luZyIgdGV4dExlbmd0aD0iNiIgeD0iMTE1OS41IiB5PSI2NDYuMjk2OSI+JiMxNjA7PC90ZXh0Pjx0ZXh0IGZpbGw9IiNGRkZGRkYiIGZvbnQtZmFtaWx5PSJzYW5zLXNlcmlmIiBmb250LXNpemU9IjEyIiBmb250LXN0eWxlPSJpdGFsaWMiIGxlbmd0aEFkanVzdD0ic3BhY2luZyIgdGV4dExlbmd0aD0iNTMiIHg9IjExNjUuNSIgeT0iNjQ2LjI5NjkiPlNlY3VyaXR5PC90ZXh0Pjx0ZXh0IGZpbGw9IiNGRkZGRkYiIGZvbnQtZmFtaWx5PSJzYW5zLXNlcmlmIiBmb250LXNpemU9IjEyIiBmb250LXN0eWxlPSJpdGFsaWMiIGxlbmd0aEFkanVzdD0ic3BhY2luZyIgdGV4dExlbmd0aD0iNiIgeD0iMTIxOC41IiB5PSI2NDYuMjk2OSI+JiMxNjA7PC90ZXh0Pjx0ZXh0IGZpbGw9IiNGRkZGRkYiIGZvbnQtZmFtaWx5PSJzYW5zLXNlcmlmIiBmb250LXNpemU9IjEyIiBmb250LXN0eWxlPSJpdGFsaWMiIGxlbmd0aEFkanVzdD0ic3BhY2luZyIgdGV4dExlbmd0aD0iNiIgeD0iMTIyNC41IiB5PSI2NDYuMjk2OSI+KzwvdGV4dD48dGV4dCBmaWxsPSIjRkZGRkZGIiBmb250LWZhbWlseT0ic2Fucy1zZXJpZiIgZm9udC1zaXplPSIxMiIgZm9udC1zdHlsZT0iaXRhbGljIiBsZW5ndGhBZGp1c3Q9InNwYWNpbmciIHRleHRMZW5ndGg9IjYiIHg9IjEyMzAuNSIgeT0iNjQ2LjI5NjkiPiYjMTYwOzwvdGV4dD48dGV4dCBmaWxsPSIjRkZGRkZGIiBmb250LWZhbWlseT0ic2Fucy1zZXJpZiIgZm9udC1zaXplPSIxMiIgZm9udC1zdHlsZT0iaXRhbGljIiBsZW5ndGhBZGp1c3Q9InNwYWNpbmciIHRleHRMZW5ndGg9IjI1IiB4PSIxMjM2LjUiIHk9IjY0Ni4yOTY5Ij5KV1RdPC90ZXh0Pjx0ZXh0IGZpbGw9IiNGRkZGRkYiIGZvbnQtZmFtaWx5PSJzYW5zLXNlcmlmIiBmb250LXNpemU9IjE0IiBsZW5ndGhBZGp1c3Q9InNwYWNpbmciIHRleHRMZW5ndGg9IjciIHg9IjExODMuNSIgeT0iNjYxLjAzMTMiPiYjMTYwOzwvdGV4dD48dGV4dCBmaWxsPSIjRkZGRkZGIiBmb250LWZhbWlseT0ic2Fucy1zZXJpZiIgZm9udC1zaXplPSIxNCIgbGVuZ3RoQWRqdXN0PSJzcGFjaW5nIiB0ZXh0TGVuZ3RoPSIxNDAiIHg9IjExMTciIHk9IjY3Ni4wMTU2Ij4mIzI5OTkyOyYjMjUxNDM7JiMyNzg4MDsmIzIwODc2OyYjMTIyODk7JiMzMDMzMTsmIzI0NDA1OyYjMTIyODk7JiMyNTQ4MDsmIzI2NDM1OzwvdGV4dD48L2c+PCEtLWVudGl0eSB1c2VyX3NlcnZpY2UtLT48ZyBpZD0iZWxlbV91c2VyX3NlcnZpY2UiPjxwYXRoIGQ9Ik01NTgsNTkwLjk4NDQgQzU1OCw1ODAuOTg0NCA2ODAsNTgwLjk4NDQgNjgwLDU4MC45ODQ0IEM2ODAsNTgwLjk4NDQgODAyLDU4MC45ODQ0IDgwMiw1OTAuOTg0NCBMODAyLDY3Mi43NjU2IEM4MDIsNjgyLjc2NTYgNjgwLDY4Mi43NjU2IDY4MCw2ODIuNzY1NiBDNjgwLDY4Mi43NjU2IDU1OCw2ODIuNzY1NiA1NTgsNjcyLjc2NTYgTDU1OCw1OTAuOTg0NCAiIGZpbGw9IiM0MzhERDUiIHN0eWxlPSJzdHJva2U6IzNDN0ZDMDtzdHJva2Utd2lkdGg6MC41OyIvPjxwYXRoIGQ9Ik01NTgsNTkwLjk4NDQgQzU1OCw2MDAuOTg0NCA2ODAsNjAwLjk4NDQgNjgwLDYwMC45ODQ0IEM2ODAsNjAwLjk4NDQgODAyLDYwMC45ODQ0IDgwMiw1OTAuOTg0NCAiIGZpbGw9Im5vbmUiIHN0eWxlPSJzdHJva2U6IzNDN0ZDMDtzdHJva2Utd2lkdGg6MC41OyIvPjx0ZXh0IGZpbGw9IiNGRkZGRkYiIGZvbnQtZmFtaWx5PSJzYW5zLXNlcmlmIiBmb250LXNpemU9IjEyIiBmb250LXN0eWxlPSJpdGFsaWMiIGxlbmd0aEFkanVzdD0ic3BhY2luZyIgdGV4dExlbmd0aD0iNzIiIHg9IjY0NCIgeT0iNjE2LjMyODEiPiYjMTcxO2NvbnRhaW5lciYjMTg3OzwvdGV4dD48dGV4dCBmaWxsPSIjRkZGRkZGIiBmb250LWZhbWlseT0ic2Fucy1zZXJpZiIgZm9udC1zaXplPSIxNiIgZm9udC13ZWlnaHQ9ImJvbGQiIGxlbmd0aEFkanVzdD0ic3BhY2luZyIgdGV4dExlbmd0aD0iNjQiIHg9IjY0OCIgeT0iNjMyLjk1MzEiPiYjMjk5OTI7JiMyNTE0MzsmIzI2MzgxOyYjMjExNTM7PC90ZXh0Pjx0ZXh0IGZpbGw9IiNGRkZGRkYiIGZvbnQtZmFtaWx5PSJzYW5zLXNlcmlmIiBmb250LXNpemU9IjEyIiBmb250LXN0eWxlPSJpdGFsaWMiIGxlbmd0aEFkanVzdD0ic3BhY2luZyIgdGV4dExlbmd0aD0iNDciIHg9IjYwNC41IiB5PSI2NDYuMjk2OSI+W1NwcmluZzwvdGV4dD48dGV4dCBmaWxsPSIjRkZGRkZGIiBmb250LWZhbWlseT0ic2Fucy1zZXJpZiIgZm9udC1zaXplPSIxMiIgZm9udC1zdHlsZT0iaXRhbGljIiBsZW5ndGhBZGp1c3Q9InNwYWNpbmciIHRleHRMZW5ndGg9IjYiIHg9IjY1MS41IiB5PSI2NDYuMjk2OSI+JiMxNjA7PC90ZXh0Pjx0ZXh0IGZpbGw9IiNGRkZGRkYiIGZvbnQtZmFtaWx5PSJzYW5zLXNlcmlmIiBmb250LXNpemU9IjEyIiBmb250LXN0eWxlPSJpdGFsaWMiIGxlbmd0aEFkanVzdD0ic3BhY2luZyIgdGV4dExlbmd0aD0iMjciIHg9IjY1Ny41IiB5PSI2NDYuMjk2OSI+Qm9vdDwvdGV4dD48dGV4dCBmaWxsPSIjRkZGRkZGIiBmb250LWZhbWlseT0ic2Fucy1zZXJpZiIgZm9udC1zaXplPSIxMiIgZm9udC1zdHlsZT0iaXRhbGljIiBsZW5ndGhBZGp1c3Q9InNwYWNpbmciIHRleHRMZW5ndGg9IjYiIHg9IjY4NC41IiB5PSI2NDYuMjk2OSI+JiMxNjA7PC90ZXh0Pjx0ZXh0IGZpbGw9IiNGRkZGRkYiIGZvbnQtZmFtaWx5PSJzYW5zLXNlcmlmIiBmb250LXNpemU9IjEyIiBmb250LXN0eWxlPSJpdGFsaWMiIGxlbmd0aEFkanVzdD0ic3BhY2luZyIgdGV4dExlbmd0aD0iNiIgeD0iNjkwLjUiIHk9IjY0Ni4yOTY5Ij4rPC90ZXh0Pjx0ZXh0IGZpbGw9IiNGRkZGRkYiIGZvbnQtZmFtaWx5PSJzYW5zLXNlcmlmIiBmb250LXNpemU9IjEyIiBmb250LXN0eWxlPSJpdGFsaWMiIGxlbmd0aEFkanVzdD0ic3BhY2luZyIgdGV4dExlbmd0aD0iNiIgeD0iNjk2LjUiIHk9IjY0Ni4yOTY5Ij4mIzE2MDs8L3RleHQ+PHRleHQgZmlsbD0iI0ZGRkZGRiIgZm9udC1mYW1pbHk9InNhbnMtc2VyaWYiIGZvbnQtc2l6ZT0iMTIiIGZvbnQtc3R5bGU9Iml0YWxpYyIgbGVuZ3RoQWRqdXN0PSJzcGFjaW5nIiB0ZXh0TGVuZ3RoPSI1MyIgeD0iNzAyLjUiIHk9IjY0Ni4yOTY5Ij5NeUJhdGlzXTwvdGV4dD48dGV4dCBmaWxsPSIjRkZGRkZGIiBmb250LWZhbWlseT0ic2Fucy1zZXJpZiIgZm9udC1zaXplPSIxNCIgbGVuZ3RoQWRqdXN0PSJzcGFjaW5nIiB0ZXh0TGVuZ3RoPSI3IiB4PSI2NzYuNSIgeT0iNjYxLjAzMTMiPiYjMTYwOzwvdGV4dD48dGV4dCBmaWxsPSIjRkZGRkZGIiBmb250LWZhbWlseT0ic2Fucy1zZXJpZiIgZm9udC1zaXplPSIxNCIgbGVuZ3RoQWRqdXN0PSJzcGFjaW5nIiB0ZXh0TGVuZ3RoPSIyMjQiIHg9IjU2OCIgeT0iNjc2LjAxNTYiPiYjMjk5OTI7JiMyNTE0MzsmIzIwNDQ5OyYjMjQ2ODc7JiMzMTY0OTsmIzI5NzAyOyYjMTIyODk7JiMyNTQyNDsmIzM2MTkyOyYjMzU3NjA7JiMyNDQwNTsmIzEyMjg5OyYjMzkwNDY7JiMyMDg1OTsmIzMwMDAzOyYjMzU4MzE7PC90ZXh0PjwvZz48IS0tZW50aXR5IGNvbW11bml0eV9zZXJ2aWNlLS0+PGcgaWQ9ImVsZW1fY29tbXVuaXR5X3NlcnZpY2UiPjxwYXRoIGQ9Ik0yOTkuNSw1OTAuOTg0NCBDMjk5LjUsNTgwLjk4NDQgNDExLDU4MC45ODQ0IDQxMSw1ODAuOTg0NCBDNDExLDU4MC45ODQ0IDUyMi41LDU4MC45ODQ0IDUyMi41LDU5MC45ODQ0IEw1MjIuNSw2NzIuNzY1NiBDNTIyLjUsNjgyLjc2NTYgNDExLDY4Mi43NjU2IDQxMSw2ODIuNzY1NiBDNDExLDY4Mi43NjU2IDI5OS41LDY4Mi43NjU2IDI5OS41LDY3Mi43NjU2IEwyOTkuNSw1OTAuOTg0NCAiIGZpbGw9IiM0MzhERDUiIHN0eWxlPSJzdHJva2U6IzNDN0ZDMDtzdHJva2Utd2lkdGg6MC41OyIvPjxwYXRoIGQ9Ik0yOTkuNSw1OTAuOTg0NCBDMjk5LjUsNjAwLjk4NDQgNDExLDYwMC45ODQ0IDQxMSw2MDAuOTg0NCBDNDExLDYwMC45ODQ0IDUyMi41LDYwMC45ODQ0IDUyMi41LDU5MC45ODQ0ICIgZmlsbD0ibm9uZSIgc3R5bGU9InN0cm9rZTojM0M3RkMwO3N0cm9rZS13aWR0aDowLjU7Ii8+PHRleHQgZmlsbD0iI0ZGRkZGRiIgZm9udC1mYW1pbHk9InNhbnMtc2VyaWYiIGZvbnQtc2l6ZT0iMTIiIGZvbnQtc3R5bGU9Iml0YWxpYyIgbGVuZ3RoQWRqdXN0PSJzcGFjaW5nIiB0ZXh0TGVuZ3RoPSI3MiIgeD0iMzc1IiB5PSI2MTYuMzI4MSI+JiMxNzE7Y29udGFpbmVyJiMxODc7PC90ZXh0Pjx0ZXh0IGZpbGw9IiNGRkZGRkYiIGZvbnQtZmFtaWx5PSJzYW5zLXNlcmlmIiBmb250LXNpemU9IjE2IiBmb250LXdlaWdodD0iYm9sZCIgbGVuZ3RoQWRqdXN0PSJzcGFjaW5nIiB0ZXh0TGVuZ3RoPSI2NCIgeD0iMzc5IiB5PSI2MzIuOTUzMSI+JiMzMTAzODsmIzIxMzA2OyYjMjYzODE7JiMyMTE1Mzs8L3RleHQ+PHRleHQgZmlsbD0iI0ZGRkZGRiIgZm9udC1mYW1pbHk9InNhbnMtc2VyaWYiIGZvbnQtc2l6ZT0iMTIiIGZvbnQtc3R5bGU9Iml0YWxpYyIgbGVuZ3RoQWRqdXN0PSJzcGFjaW5nIiB0ZXh0TGVuZ3RoPSI0NyIgeD0iMzM1LjUiIHk9IjY0Ni4yOTY5Ij5bU3ByaW5nPC90ZXh0Pjx0ZXh0IGZpbGw9IiNGRkZGRkYiIGZvbnQtZmFtaWx5PSJzYW5zLXNlcmlmIiBmb250LXNpemU9IjEyIiBmb250LXN0eWxlPSJpdGFsaWMiIGxlbmd0aEFkanVzdD0ic3BhY2luZyIgdGV4dExlbmd0aD0iNiIgeD0iMzgyLjUiIHk9IjY0Ni4yOTY5Ij4mIzE2MDs8L3RleHQ+PHRleHQgZmlsbD0iI0ZGRkZGRiIgZm9udC1mYW1pbHk9InNhbnMtc2VyaWYiIGZvbnQtc2l6ZT0iMTIiIGZvbnQtc3R5bGU9Iml0YWxpYyIgbGVuZ3RoQWRqdXN0PSJzcGFjaW5nIiB0ZXh0TGVuZ3RoPSIyNyIgeD0iMzg4LjUiIHk9IjY0Ni4yOTY5Ij5Cb290PC90ZXh0Pjx0ZXh0IGZpbGw9IiNGRkZGRkYiIGZvbnQtZmFtaWx5PSJzYW5zLXNlcmlmIiBmb250LXNpemU9IjEyIiBmb250LXN0eWxlPSJpdGFsaWMiIGxlbmd0aEFkanVzdD0ic3BhY2luZyIgdGV4dExlbmd0aD0iNiIgeD0iNDE1LjUiIHk9IjY0Ni4yOTY5Ij4mIzE2MDs8L3RleHQ+PHRleHQgZmlsbD0iI0ZGRkZGRiIgZm9udC1mYW1pbHk9InNhbnMtc2VyaWYiIGZvbnQtc2l6ZT0iMTIiIGZvbnQtc3R5bGU9Iml0YWxpYyIgbGVuZ3RoQWRqdXN0PSJzcGFjaW5nIiB0ZXh0TGVuZ3RoPSI2IiB4PSI0MjEuNSIgeT0iNjQ2LjI5NjkiPis8L3RleHQ+PHRleHQgZmlsbD0iI0ZGRkZGRiIgZm9udC1mYW1pbHk9InNhbnMtc2VyaWYiIGZvbnQtc2l6ZT0iMTIiIGZvbnQtc3R5bGU9Iml0YWxpYyIgbGVuZ3RoQWRqdXN0PSJzcGFjaW5nIiB0ZXh0TGVuZ3RoPSI2IiB4PSI0MjcuNSIgeT0iNjQ2LjI5NjkiPiYjMTYwOzwvdGV4dD48dGV4dCBmaWxsPSIjRkZGRkZGIiBmb250LWZhbWlseT0ic2Fucy1zZXJpZiIgZm9udC1zaXplPSIxMiIgZm9udC1zdHlsZT0iaXRhbGljIiBsZW5ndGhBZGp1c3Q9InNwYWNpbmciIHRleHRMZW5ndGg9IjUzIiB4PSI0MzMuNSIgeT0iNjQ2LjI5NjkiPk15QmF0aXNdPC90ZXh0Pjx0ZXh0IGZpbGw9IiNGRkZGRkYiIGZvbnQtZmFtaWx5PSJzYW5zLXNlcmlmIiBmb250LXNpemU9IjE0IiBsZW5ndGhBZGp1c3Q9InNwYWNpbmciIHRleHRMZW5ndGg9IjciIHg9IjQwNy41IiB5PSI2NjEuMDMxMyI+JiMxNjA7PC90ZXh0Pjx0ZXh0IGZpbGw9IiNGRkZGRkYiIGZvbnQtZmFtaWx5PSJzYW5zLXNlcmlmIiBmb250LXNpemU9IjE0IiBsZW5ndGhBZGp1c3Q9InNwYWNpbmciIHRleHRMZW5ndGg9IjIwMyIgeD0iMzA5LjUiIHk9IjY3Ni4wMTU2Ij4mIzIxNDU3OyYjMjQwNjc7JiMyNDA4NjsmIzIzMzc2OyYjMTIyODk7JiMyNzk4MzsmIzM1MjcyOyYjMjQwODY7JiMyMzM3NjsmIzEyMjg5OyYjMzU3ODA7JiMzNTc3MDsvJiMyODg1NzsmIzM2MTkwOzwvdGV4dD48L2c+PCEtLWVudGl0eSBjYXRfc2VydmljZS0tPjxnIGlkPSJlbGVtX2NhdF9zZXJ2aWNlIj48cGF0aCBkPSJNNiw1OTAuOTg0NCBDNiw1ODAuOTg0NCAxMzUsNTgwLjk4NDQgMTM1LDU4MC45ODQ0IEMxMzUsNTgwLjk4NDQgMjY0LDU4MC45ODQ0IDI2NCw1OTAuOTg0NCBMMjY0LDY3Mi43NjU2IEMyNjQsNjgyLjc2NTYgMTM1LDY4Mi43NjU2IDEzNSw2ODIuNzY1NiBDMTM1LDY4Mi43NjU2IDYsNjgyLjc2NTYgNiw2NzIuNzY1NiBMNiw1OTAuOTg0NCAiIGZpbGw9IiM0MzhERDUiIHN0eWxlPSJzdHJva2U6IzNDN0ZDMDtzdHJva2Utd2lkdGg6MC41OyIvPjxwYXRoIGQ9Ik02LDU5MC45ODQ0IEM2LDYwMC45ODQ0IDEzNSw2MDAuOTg0NCAxMzUsNjAwLjk4NDQgQzEzNSw2MDAuOTg0NCAyNjQsNjAwLjk4NDQgMjY0LDU5MC45ODQ0ICIgZmlsbD0ibm9uZSIgc3R5bGU9InN0cm9rZTojM0M3RkMwO3N0cm9rZS13aWR0aDowLjU7Ii8+PHRleHQgZmlsbD0iI0ZGRkZGRiIgZm9udC1mYW1pbHk9InNhbnMtc2VyaWYiIGZvbnQtc2l6ZT0iMTIiIGZvbnQtc3R5bGU9Iml0YWxpYyIgbGVuZ3RoQWRqdXN0PSJzcGFjaW5nIiB0ZXh0TGVuZ3RoPSI3MiIgeD0iOTkiIHk9IjYxNi4zMjgxIj4mIzE3MTtjb250YWluZXImIzE4Nzs8L3RleHQ+PHRleHQgZmlsbD0iI0ZGRkZGRiIgZm9udC1mYW1pbHk9InNhbnMtc2VyaWYiIGZvbnQtc2l6ZT0iMTYiIGZvbnQtd2VpZ2h0PSJib2xkIiBsZW5ndGhBZGp1c3Q9InNwYWNpbmciIHRleHRMZW5ndGg9IjgwIiB4PSI5NSIgeT0iNjMyLjk1MzEiPiYjMjc5Njk7JiMyODAxMDsmIzI5NDgzOyYjMjYzODE7JiMyMTE1Mzs8L3RleHQ+PHRleHQgZmlsbD0iI0ZGRkZGRiIgZm9udC1mYW1pbHk9InNhbnMtc2VyaWYiIGZvbnQtc2l6ZT0iMTIiIGZvbnQtc3R5bGU9Iml0YWxpYyIgbGVuZ3RoQWRqdXN0PSJzcGFjaW5nIiB0ZXh0TGVuZ3RoPSI0NyIgeD0iNTkuNSIgeT0iNjQ2LjI5NjkiPltTcHJpbmc8L3RleHQ+PHRleHQgZmlsbD0iI0ZGRkZGRiIgZm9udC1mYW1pbHk9InNhbnMtc2VyaWYiIGZvbnQtc2l6ZT0iMTIiIGZvbnQtc3R5bGU9Iml0YWxpYyIgbGVuZ3RoQWRqdXN0PSJzcGFjaW5nIiB0ZXh0TGVuZ3RoPSI2IiB4PSIxMDYuNSIgeT0iNjQ2LjI5NjkiPiYjMTYwOzwvdGV4dD48dGV4dCBmaWxsPSIjRkZGRkZGIiBmb250LWZhbWlseT0ic2Fucy1zZXJpZiIgZm9udC1zaXplPSIxMiIgZm9udC1zdHlsZT0iaXRhbGljIiBsZW5ndGhBZGp1c3Q9InNwYWNpbmciIHRleHRMZW5ndGg9IjI3IiB4PSIxMTIuNSIgeT0iNjQ2LjI5NjkiPkJvb3Q8L3RleHQ+PHRleHQgZmlsbD0iI0ZGRkZGRiIgZm9udC1mYW1pbHk9InNhbnMtc2VyaWYiIGZvbnQtc2l6ZT0iMTIiIGZvbnQtc3R5bGU9Iml0YWxpYyIgbGVuZ3RoQWRqdXN0PSJzcGFjaW5nIiB0ZXh0TGVuZ3RoPSI2IiB4PSIxMzkuNSIgeT0iNjQ2LjI5NjkiPiYjMTYwOzwvdGV4dD48dGV4dCBmaWxsPSIjRkZGRkZGIiBmb250LWZhbWlseT0ic2Fucy1zZXJpZiIgZm9udC1zaXplPSIxMiIgZm9udC1zdHlsZT0iaXRhbGljIiBsZW5ndGhBZGp1c3Q9InNwYWNpbmciIHRleHRMZW5ndGg9IjYiIHg9IjE0NS41IiB5PSI2NDYuMjk2OSI+KzwvdGV4dD48dGV4dCBmaWxsPSIjRkZGRkZGIiBmb250LWZhbWlseT0ic2Fucy1zZXJpZiIgZm9udC1zaXplPSIxMiIgZm9udC1zdHlsZT0iaXRhbGljIiBsZW5ndGhBZGp1c3Q9InNwYWNpbmciIHRleHRMZW5ndGg9IjYiIHg9IjE1MS41IiB5PSI2NDYuMjk2OSI+JiMxNjA7PC90ZXh0Pjx0ZXh0IGZpbGw9IiNGRkZGRkYiIGZvbnQtZmFtaWx5PSJzYW5zLXNlcmlmIiBmb250LXNpemU9IjEyIiBmb250LXN0eWxlPSJpdGFsaWMiIGxlbmd0aEFkanVzdD0ic3BhY2luZyIgdGV4dExlbmd0aD0iNTMiIHg9IjE1Ny41IiB5PSI2NDYuMjk2OSI+TXlCYXRpc108L3RleHQ+PHRleHQgZmlsbD0iI0ZGRkZGRiIgZm9udC1mYW1pbHk9InNhbnMtc2VyaWYiIGZvbnQtc2l6ZT0iMTQiIGxlbmd0aEFkanVzdD0ic3BhY2luZyIgdGV4dExlbmd0aD0iNyIgeD0iMTMxLjUiIHk9IjY2MS4wMzEzIj4mIzE2MDs8L3RleHQ+PHRleHQgZmlsbD0iI0ZGRkZGRiIgZm9udC1mYW1pbHk9InNhbnMtc2VyaWYiIGZvbnQtc2l6ZT0iMTQiIGxlbmd0aEFkanVzdD0ic3BhY2luZyIgdGV4dExlbmd0aD0iMjM4IiB4PSIxNiIgeT0iNjc2LjAxNTYiPiYjMjc5Njk7JiMyODAxMDsmIzI5NDgzOyYjMjA0NDk7JiMyNDY4NzsmIzMxNjQ5OyYjMjk3MDI7JiMxMjI4OTsmIzI3NzE0OyYjMjExNjE7JiMyMDQ0OTsmIzI0Njg3OyYjMTIyODk7JiMzOTA0NjsmIzIwODU5OyYjMzAwMDM7JiMzNTgzMTs8L3RleHQ+PC9nPjwhLS1lbnRpdHkgdm9sdW50ZWVyX3NlcnZpY2UtLT48ZyBpZD0iZWxlbV92b2x1bnRlZXJfc2VydmljZSI+PHBhdGggZD0iTTgzNyw1OTAuOTg0NCBDODM3LDU4MC45ODQ0IDk1Miw1ODAuOTg0NCA5NTIsNTgwLjk4NDQgQzk1Miw1ODAuOTg0NCAxMDY3LDU4MC45ODQ0IDEwNjcsNTkwLjk4NDQgTDEwNjcsNjcyLjc2NTYgQzEwNjcsNjgyLjc2NTYgOTUyLDY4Mi43NjU2IDk1Miw2ODIuNzY1NiBDOTUyLDY4Mi43NjU2IDgzNyw2ODIuNzY1NiA4MzcsNjcyLjc2NTYgTDgzNyw1OTAuOTg0NCAiIGZpbGw9IiM0MzhERDUiIHN0eWxlPSJzdHJva2U6IzNDN0ZDMDtzdHJva2Utd2lkdGg6MC41OyIvPjxwYXRoIGQ9Ik04MzcsNTkwLjk4NDQgQzgzNyw2MDAuOTg0NCA5NTIsNjAwLjk4NDQgOTUyLDYwMC45ODQ0IEM5NTIsNjAwLjk4NDQgMTA2Nyw2MDAuOTg0NCAxMDY3LDU5MC45ODQ0ICIgZmlsbD0ibm9uZSIgc3R5bGU9InN0cm9rZTojM0M3RkMwO3N0cm9rZS13aWR0aDowLjU7Ii8+PHRleHQgZmlsbD0iI0ZGRkZGRiIgZm9udC1mYW1pbHk9InNhbnMtc2VyaWYiIGZvbnQtc2l6ZT0iMTIiIGZvbnQtc3R5bGU9Iml0YWxpYyIgbGVuZ3RoQWRqdXN0PSJzcGFjaW5nIiB0ZXh0TGVuZ3RoPSI3MiIgeD0iOTE2IiB5PSI2MTYuMzI4MSI+JiMxNzE7Y29udGFpbmVyJiMxODc7PC90ZXh0Pjx0ZXh0IGZpbGw9IiNGRkZGRkYiIGZvbnQtZmFtaWx5PSJzYW5zLXNlcmlmIiBmb250LXNpemU9IjE2IiBmb250LXdlaWdodD0iYm9sZCIgbGVuZ3RoQWRqdXN0PSJzcGFjaW5nIiB0ZXh0TGVuZ3RoPSI4MCIgeD0iOTEyIiB5PSI2MzIuOTUzMSI+JiMyNDUzNTsmIzI0ODk1OyYjMzI3NzM7JiMyNjM4MTsmIzIxMTUzOzwvdGV4dD48dGV4dCBmaWxsPSIjRkZGRkZGIiBmb250LWZhbWlseT0ic2Fucy1zZXJpZiIgZm9udC1zaXplPSIxMiIgZm9udC1zdHlsZT0iaXRhbGljIiBsZW5ndGhBZGp1c3Q9InNwYWNpbmciIHRleHRMZW5ndGg9IjQ3IiB4PSI4NzYuNSIgeT0iNjQ2LjI5NjkiPltTcHJpbmc8L3RleHQ+PHRleHQgZmlsbD0iI0ZGRkZGRiIgZm9udC1mYW1pbHk9InNhbnMtc2VyaWYiIGZvbnQtc2l6ZT0iMTIiIGZvbnQtc3R5bGU9Iml0YWxpYyIgbGVuZ3RoQWRqdXN0PSJzcGFjaW5nIiB0ZXh0TGVuZ3RoPSI2IiB4PSI5MjMuNSIgeT0iNjQ2LjI5NjkiPiYjMTYwOzwvdGV4dD48dGV4dCBmaWxsPSIjRkZGRkZGIiBmb250LWZhbWlseT0ic2Fucy1zZXJpZiIgZm9udC1zaXplPSIxMiIgZm9udC1zdHlsZT0iaXRhbGljIiBsZW5ndGhBZGp1c3Q9InNwYWNpbmciIHRleHRMZW5ndGg9IjI3IiB4PSI5MjkuNSIgeT0iNjQ2LjI5NjkiPkJvb3Q8L3RleHQ+PHRleHQgZmlsbD0iI0ZGRkZGRiIgZm9udC1mYW1pbHk9InNhbnMtc2VyaWYiIGZvbnQtc2l6ZT0iMTIiIGZvbnQtc3R5bGU9Iml0YWxpYyIgbGVuZ3RoQWRqdXN0PSJzcGFjaW5nIiB0ZXh0TGVuZ3RoPSI2IiB4PSI5NTYuNSIgeT0iNjQ2LjI5NjkiPiYjMTYwOzwvdGV4dD48dGV4dCBmaWxsPSIjRkZGRkZGIiBmb250LWZhbWlseT0ic2Fucy1zZXJpZiIgZm9udC1zaXplPSIxMiIgZm9udC1zdHlsZT0iaXRhbGljIiBsZW5ndGhBZGp1c3Q9InNwYWNpbmciIHRleHRMZW5ndGg9IjYiIHg9Ijk2Mi41IiB5PSI2NDYuMjk2OSI+KzwvdGV4dD48dGV4dCBmaWxsPSIjRkZGRkZGIiBmb250LWZhbWlseT0ic2Fucy1zZXJpZiIgZm9udC1zaXplPSIxMiIgZm9udC1zdHlsZT0iaXRhbGljIiBsZW5ndGhBZGp1c3Q9InNwYWNpbmciIHRleHRMZW5ndGg9IjYiIHg9Ijk2OC41IiB5PSI2NDYuMjk2OSI+JiMxNjA7PC90ZXh0Pjx0ZXh0IGZpbGw9IiNGRkZGRkYiIGZvbnQtZmFtaWx5PSJzYW5zLXNlcmlmIiBmb250LXNpemU9IjEyIiBmb250LXN0eWxlPSJpdGFsaWMiIGxlbmd0aEFkanVzdD0ic3BhY2luZyIgdGV4dExlbmd0aD0iNTMiIHg9Ijk3NC41IiB5PSI2NDYuMjk2OSI+TXlCYXRpc108L3RleHQ+PHRleHQgZmlsbD0iI0ZGRkZGRiIgZm9udC1mYW1pbHk9InNhbnMtc2VyaWYiIGZvbnQtc2l6ZT0iMTQiIGxlbmd0aEFkanVzdD0ic3BhY2luZyIgdGV4dExlbmd0aD0iNyIgeD0iOTQ4LjUiIHk9IjY2MS4wMzEzIj4mIzE2MDs8L3RleHQ+PHRleHQgZmlsbD0iI0ZGRkZGRiIgZm9udC1mYW1pbHk9InNhbnMtc2VyaWYiIGZvbnQtc2l6ZT0iMTQiIGxlbmd0aEFkanVzdD0ic3BhY2luZyIgdGV4dExlbmd0aD0iMjEwIiB4PSI4NDciIHk9IjY3Ni4wMTU2Ij4mIzI0NTM1OyYjMjQ4OTU7JiMzMjc3MzsmIzMwMDAzOyYjMzU4MzE7JiMxMjI4OTsmIzIwMjE5OyYjMjExNTM7JiMzMTY0OTsmIzI5NzAyOyYjMTIyODk7JiMyMTMwNzsmIzMwMTAzOyYjMzU3NjA7JiMyNDQwNTs8L3RleHQ+PC9nPjwhLS1lbnRpdHkgZG9uYXRpb25fc2VydmljZS0tPjxnIGlkPSJlbGVtX2RvbmF0aW9uX3NlcnZpY2UiPjxwYXRoIGQ9Ik0xMzA2LjUsNTkwLjk4NDQgQzEzMDYuNSw1ODAuOTg0NCAxMzkyLDU4MC45ODQ0IDEzOTIsNTgwLjk4NDQgQzEzOTIsNTgwLjk4NDQgMTQ3Ny41LDU4MC45ODQ0IDE0NzcuNSw1OTAuOTg0NCBMMTQ3Ny41LDY3Mi43NjU2IEMxNDc3LjUsNjgyLjc2NTYgMTM5Miw2ODIuNzY1NiAxMzkyLDY4Mi43NjU2IEMxMzkyLDY4Mi43NjU2IDEzMDYuNSw2ODIuNzY1NiAxMzA2LjUsNjcyLjc2NTYgTDEzMDYuNSw1OTAuOTg0NCAiIGZpbGw9IiM0MzhERDUiIHN0eWxlPSJzdHJva2U6IzNDN0ZDMDtzdHJva2Utd2lkdGg6MC41OyIvPjxwYXRoIGQ9Ik0xMzA2LjUsNTkwLjk4NDQgQzEzMDYuNSw2MDAuOTg0NCAxMzkyLDYwMC45ODQ0IDEzOTIsNjAwLjk4NDQgQzEzOTIsNjAwLjk4NDQgMTQ3Ny41LDYwMC45ODQ0IDE0NzcuNSw1OTAuOTg0NCAiIGZpbGw9Im5vbmUiIHN0eWxlPSJzdHJva2U6IzNDN0ZDMDtzdHJva2Utd2lkdGg6MC41OyIvPjx0ZXh0IGZpbGw9IiNGRkZGRkYiIGZvbnQtZmFtaWx5PSJzYW5zLXNlcmlmIiBmb250LXNpemU9IjEyIiBmb250LXN0eWxlPSJpdGFsaWMiIGxlbmd0aEFkanVzdD0ic3BhY2luZyIgdGV4dExlbmd0aD0iNzIiIHg9IjEzNTYiIHk9IjYxNi4zMjgxIj4mIzE3MTtjb250YWluZXImIzE4Nzs8L3RleHQ+PHRleHQgZmlsbD0iI0ZGRkZGRiIgZm9udC1mYW1pbHk9InNhbnMtc2VyaWYiIGZvbnQtc2l6ZT0iMTYiIGZvbnQtd2VpZ2h0PSJib2xkIiBsZW5ndGhBZGp1c3Q9InNwYWNpbmciIHRleHRMZW5ndGg9IjY0IiB4PSIxMzYwIiB5PSI2MzIuOTUzMSI+JiMyNTQyNDsmIzM2MTkyOyYjMjYzODE7JiMyMTE1Mzs8L3RleHQ+PHRleHQgZmlsbD0iI0ZGRkZGRiIgZm9udC1mYW1pbHk9InNhbnMtc2VyaWYiIGZvbnQtc2l6ZT0iMTIiIGZvbnQtc3R5bGU9Iml0YWxpYyIgbGVuZ3RoQWRqdXN0PSJzcGFjaW5nIiB0ZXh0TGVuZ3RoPSI0NyIgeD0iMTMxNi41IiB5PSI2NDYuMjk2OSI+W1NwcmluZzwvdGV4dD48dGV4dCBmaWxsPSIjRkZGRkZGIiBmb250LWZhbWlseT0ic2Fucy1zZXJpZiIgZm9udC1zaXplPSIxMiIgZm9udC1zdHlsZT0iaXRhbGljIiBsZW5ndGhBZGp1c3Q9InNwYWNpbmciIHRleHRMZW5ndGg9IjYiIHg9IjEzNjMuNSIgeT0iNjQ2LjI5NjkiPiYjMTYwOzwvdGV4dD48dGV4dCBmaWxsPSIjRkZGRkZGIiBmb250LWZhbWlseT0ic2Fucy1zZXJpZiIgZm9udC1zaXplPSIxMiIgZm9udC1zdHlsZT0iaXRhbGljIiBsZW5ndGhBZGp1c3Q9InNwYWNpbmciIHRleHRMZW5ndGg9IjI3IiB4PSIxMzY5LjUiIHk9IjY0Ni4yOTY5Ij5Cb290PC90ZXh0Pjx0ZXh0IGZpbGw9IiNGRkZGRkYiIGZvbnQtZmFtaWx5PSJzYW5zLXNlcmlmIiBmb250LXNpemU9IjEyIiBmb250LXN0eWxlPSJpdGFsaWMiIGxlbmd0aEFkanVzdD0ic3BhY2luZyIgdGV4dExlbmd0aD0iNiIgeD0iMTM5Ni41IiB5PSI2NDYuMjk2OSI+JiMxNjA7PC90ZXh0Pjx0ZXh0IGZpbGw9IiNGRkZGRkYiIGZvbnQtZmFtaWx5PSJzYW5zLXNlcmlmIiBmb250LXNpemU9IjEyIiBmb250LXN0eWxlPSJpdGFsaWMiIGxlbmd0aEFkanVzdD0ic3BhY2luZyIgdGV4dExlbmd0aD0iNiIgeD0iMTQwMi41IiB5PSI2NDYuMjk2OSI+KzwvdGV4dD48dGV4dCBmaWxsPSIjRkZGRkZGIiBmb250LWZhbWlseT0ic2Fucy1zZXJpZiIgZm9udC1zaXplPSIxMiIgZm9udC1zdHlsZT0iaXRhbGljIiBsZW5ndGhBZGp1c3Q9InNwYWNpbmciIHRleHRMZW5ndGg9IjYiIHg9IjE0MDguNSIgeT0iNjQ2LjI5NjkiPiYjMTYwOzwvdGV4dD48dGV4dCBmaWxsPSIjRkZGRkZGIiBmb250LWZhbWlseT0ic2Fucy1zZXJpZiIgZm9udC1zaXplPSIxMiIgZm9udC1zdHlsZT0iaXRhbGljIiBsZW5ndGhBZGp1c3Q9InNwYWNpbmciIHRleHRMZW5ndGg9IjUzIiB4PSIxNDE0LjUiIHk9IjY0Ni4yOTY5Ij5NeUJhdGlzXTwvdGV4dD48dGV4dCBmaWxsPSIjRkZGRkZGIiBmb250LWZhbWlseT0ic2Fucy1zZXJpZiIgZm9udC1zaXplPSIxNCIgbGVuZ3RoQWRqdXN0PSJzcGFjaW5nIiB0ZXh0TGVuZ3RoPSI3IiB4PSIxMzg4LjUiIHk9IjY2MS4wMzEzIj4mIzE2MDs8L3RleHQ+PHRleHQgZmlsbD0iI0ZGRkZGRiIgZm9udC1mYW1pbHk9InNhbnMtc2VyaWYiIGZvbnQtc2l6ZT0iMTQiIGxlbmd0aEFkanVzdD0ic3BhY2luZyIgdGV4dExlbmd0aD0iMTI2IiB4PSIxMzI5IiB5PSI2NzYuMDE1NiI+JiMyMjMxMjsmIzMyNDQ3OyYjMjU0MjQ7JiMyNzQ1NDsmIzEyMjg5OyYjMjkyODk7JiMzNjE2NDsmIzI1NDI0OyYjMzYxOTI7PC90ZXh0PjwvZz48IS0tbGluayB1c2VyIHRvIGZyb250ZW5kLS0+PGcgaWQ9ImxpbmtfdXNlcl9mcm9udGVuZCI+PHBhdGggZD0iTTc2NCwxNzEuMTM0NCBDNzY0LDE5NS4yOTQ0IDc2NCwyMTQuMzg0NCA3NjQsMjM2Ljc0NDQgIiBmaWxsPSJub25lIiBpZD0idXNlci10by1mcm9udGVuZCIgc3R5bGU9InN0cm9rZTojNjY2NjY2O3N0cm9rZS13aWR0aDoxLjA7Ii8+PHBvbHlnb24gZmlsbD0iIzY2NjY2NiIgcG9pbnRzPSI3NjQsMjQ0Ljc0NDQsNzY3LDIzNi43NDQ0LDc2MSwyMzYuNzQ0NCw3NjQsMjQ0Ljc0NDQiIHN0eWxlPSJzdHJva2U6IzY2NjY2NjtzdHJva2Utd2lkdGg6MS4wOyIvPjx0ZXh0IGZpbGw9IiM2NjY2NjYiIGZvbnQtZmFtaWx5PSJzYW5zLXNlcmlmIiBmb250LXNpemU9IjEyIiBmb250LXdlaWdodD0iYm9sZCIgbGVuZ3RoQWRqdXN0PSJzcGFjaW5nIiB0ZXh0TGVuZ3RoPSIyNCIgeD0iNzY1IiB5PSIyMTMuMzI4MSI+JiMyMDM1MTsmIzI5OTkyOzwvdGV4dD48L2c+PCEtLWxpbmsgZnJvbnRlbmQgdG8gYXBpX2dhdGV3YXktLT48ZyBpZD0ibGlua19mcm9udGVuZF9hcGlfZ2F0ZXdheSI+PHBhdGggZD0iTTc2NCwzNDAuMTY0NCBDNzY0LDM2My4xODQ0IDc2NCwzODIuODM0NCA3NjQsNDA1LjcyNDQgIiBmaWxsPSJub25lIiBpZD0iZnJvbnRlbmQtdG8tYXBpX2dhdGV3YXkiIHN0eWxlPSJzdHJva2U6IzY2NjY2NjtzdHJva2Utd2lkdGg6MS4wOyIvPjxwb2x5Z29uIGZpbGw9IiM2NjY2NjYiIHBvaW50cz0iNzY0LDQxMy43MjQ0LDc2Nyw0MDUuNzI0NCw3NjEsNDA1LjcyNDQsNzY0LDQxMy43MjQ0IiBzdHlsZT0ic3Ryb2tlOiM2NjY2NjY7c3Ryb2tlLXdpZHRoOjEuMDsiLz48dGV4dCBmaWxsPSIjNjY2NjY2IiBmb250LWZhbWlseT0ic2Fucy1zZXJpZiIgZm9udC1zaXplPSIxMiIgZm9udC13ZWlnaHQ9ImJvbGQiIGxlbmd0aEFkanVzdD0ic3BhY2luZyIgdGV4dExlbmd0aD0iMjQiIHg9Ijc2NSIgeT0iMzgyLjMyODEiPiYjMzU4NDM7JiMyOTk5Mjs8L3RleHQ+PHRleHQgZmlsbD0iIzY2NjY2NiIgZm9udC1mYW1pbHk9InNhbnMtc2VyaWYiIGZvbnQtc2l6ZT0iMTIiIGZvbnQtd2VpZ2h0PSJib2xkIiBsZW5ndGhBZGp1c3Q9InNwYWNpbmciIHRleHRMZW5ndGg9IjYiIHg9Ijc4OSIgeT0iMzgyLjMyODEiPiYjMTYwOzwvdGV4dD48dGV4dCBmaWxsPSIjNjY2NjY2IiBmb250LWZhbWlseT0ic2Fucy1zZXJpZiIgZm9udC1zaXplPSIxMiIgZm9udC13ZWlnaHQ9ImJvbGQiIGxlbmd0aEFkanVzdD0ic3BhY2luZyIgdGV4dExlbmd0aD0iMjAiIHg9Ijc5NSIgeT0iMzgyLjMyODEiPkFQSTwvdGV4dD48L2c+PCEtLWxpbmsgYXBpX2dhdGV3YXkgdG8gYXV0aF9zZXJ2aWNlLS0+PGcgaWQ9ImxpbmtfYXBpX2dhdGV3YXlfYXV0aF9zZXJ2aWNlIj48cGF0aCBkPSJNODQ3LjAzLDQ4OS44MzQ0IEM5MTIuMzcsNTEyLjc2NDQgMTAwNS4zOCw1NDYuNzQ0NCAxMDg1LDU4MC45ODQ0IEMxMDkwLjcxLDU4My40MzQ0IDEwODkuMjc3Myw1ODIuNzExNiAxMDk1LjE0NzMsNTg1LjQwMTYgIiBmaWxsPSJub25lIiBpZD0iYXBpX2dhdGV3YXktdG8tYXV0aF9zZXJ2aWNlIiBzdHlsZT0ic3Ryb2tlOiM2NjY2NjY7c3Ryb2tlLXdpZHRoOjEuMDsiLz48cG9seWdvbiBmaWxsPSIjNjY2NjY2IiBwb2ludHM9IjExMDIuNDIsNTg4LjczNDQsMTA5Ni4zOTcxLDU4Mi42NzQzLDEwOTMuODk3NSw1ODguMTI4OCwxMTAyLjQyLDU4OC43MzQ0IiBzdHlsZT0ic3Ryb2tlOiM2NjY2NjY7c3Ryb2tlLXdpZHRoOjEuMDsiLz48dGV4dCBmaWxsPSIjNjY2NjY2IiBmb250LWZhbWlseT0ic2Fucy1zZXJpZiIgZm9udC1zaXplPSIxMiIgZm9udC13ZWlnaHQ9ImJvbGQiIGxlbmd0aEFkanVzdD0ic3BhY2luZyIgdGV4dExlbmd0aD0iMjQiIHg9IjEwMDciIHk9IjU0OS4zMjgxIj4mIzM1ODQzOyYjMjk5OTI7PC90ZXh0PjwvZz48IS0tbGluayBhcGlfZ2F0ZXdheSB0byB1c2VyX3NlcnZpY2UtLT48ZyBpZD0ibGlua19hcGlfZ2F0ZXdheV91c2VyX3NlcnZpY2UiPjxwYXRoIGQ9Ik03NDEuMjcsNTA3LjM1NDQgQzczMCw1MzAuMTA0NCA3MTkuOTEwNiw1NTAuNDQ1NSA3MDguMzcwNiw1NzMuNzQ1NSAiIGZpbGw9Im5vbmUiIGlkPSJhcGlfZ2F0ZXdheS10by11c2VyX3NlcnZpY2UiIHN0eWxlPSJzdHJva2U6IzY2NjY2NjtzdHJva2Utd2lkdGg6MS4wOyIvPjxwb2x5Z29uIGZpbGw9IiM2NjY2NjYiIHBvaW50cz0iNzA0LjgyLDU4MC45MTQ0LDcxMS4wNTg5LDU3NS4wNzY5LDcwNS42ODIzLDU3Mi40MTQsNzA0LjgyLDU4MC45MTQ0IiBzdHlsZT0ic3Ryb2tlOiM2NjY2NjY7c3Ryb2tlLXdpZHRoOjEuMDsiLz48dGV4dCBmaWxsPSIjNjY2NjY2IiBmb250LWZhbWlseT0ic2Fucy1zZXJpZiIgZm9udC1zaXplPSIxMiIgZm9udC13ZWlnaHQ9ImJvbGQiIGxlbmd0aEFkanVzdD0ic3BhY2luZyIgdGV4dExlbmd0aD0iMjQiIHg9IjcyNSIgeT0iNTQ5LjMyODEiPiYjMzU4NDM7JiMyOTk5Mjs8L3RleHQ+PC9nPjwhLS1saW5rIGFwaV9nYXRld2F5IHRvIGNvbW11bml0eV9zZXJ2aWNlLS0+PGcgaWQ9ImxpbmtfYXBpX2dhdGV3YXlfY29tbXVuaXR5X3NlcnZpY2UiPjxwYXRoIGQ9Ik02ODAuNzksNTAxLjQzNDQgQzYzMS4yNiw1MjUuMjI0NCA1NzUuMTgyMSw1NTIuMTUyMyA1MjIuMzUyMSw1NzcuNTEyMyAiIGZpbGw9Im5vbmUiIGlkPSJhcGlfZ2F0ZXdheS10by1jb21tdW5pdHlfc2VydmljZSIgc3R5bGU9InN0cm9rZTojNjY2NjY2O3N0cm9rZS13aWR0aDoxLjA7Ii8+PHBvbHlnb24gZmlsbD0iIzY2NjY2NiIgcG9pbnRzPSI1MTUuMTQsNTgwLjk3NDQsNTIzLjY1MDQsNTgwLjIxNjksNTIxLjA1MzgsNTc0LjgwNzgsNTE1LjE0LDU4MC45NzQ0IiBzdHlsZT0ic3Ryb2tlOiM2NjY2NjY7c3Ryb2tlLXdpZHRoOjEuMDsiLz48dGV4dCBmaWxsPSIjNjY2NjY2IiBmb250LWZhbWlseT0ic2Fucy1zZXJpZiIgZm9udC1zaXplPSIxMiIgZm9udC13ZWlnaHQ9ImJvbGQiIGxlbmd0aEFkanVzdD0ic3BhY2luZyIgdGV4dExlbmd0aD0iMjQiIHg9IjYwMCIgeT0iNTQ5LjMyODEiPiYjMzU4NDM7JiMyOTk5Mjs8L3RleHQ+PC9nPjwhLS1saW5rIGFwaV9nYXRld2F5IHRvIGNhdF9zZXJ2aWNlLS0+PGcgaWQ9ImxpbmtfYXBpX2dhdGV3YXlfY2F0X3NlcnZpY2UiPjxwYXRoIGQ9Ik02ODAuNyw0NzkuODc0NCBDNTg0LjE1LDUwMS43MTQ0IDQyMC41Nyw1NDAuMzI0NCAyODIsNTgwLjk4NDQgQzI3Ni4xOCw1ODIuNjk0NCAyNzcuODkyNiw1ODIuMTIgMjcxLjkxMjYsNTgzLjk3ICIgZmlsbD0ibm9uZSIgaWQ9ImFwaV9nYXRld2F5LXRvLWNhdF9zZXJ2aWNlIiBzdHlsZT0ic3Ryb2tlOiM2NjY2NjY7c3Ryb2tlLXdpZHRoOjEuMDsiLz48cG9seWdvbiBmaWxsPSIjNjY2NjY2IiBwb2ludHM9IjI2NC4yNyw1ODYuMzM0NCwyNzIuNzk5Myw1ODYuODM2LDI3MS4wMjYsNTgxLjEwNCwyNjQuMjcsNTg2LjMzNDQiIHN0eWxlPSJzdHJva2U6IzY2NjY2NjtzdHJva2Utd2lkdGg6MS4wOyIvPjx0ZXh0IGZpbGw9IiM2NjY2NjYiIGZvbnQtZmFtaWx5PSJzYW5zLXNlcmlmIiBmb250LXNpemU9IjEyIiBmb250LXdlaWdodD0iYm9sZCIgbGVuZ3RoQWRqdXN0PSJzcGFjaW5nIiB0ZXh0TGVuZ3RoPSIyNCIgeD0iNDQyIiB5PSI1NDkuMzI4MSI+JiMzNTg0MzsmIzI5OTkyOzwvdGV4dD48L2c+PCEtLWxpbmsgYXBpX2dhdGV3YXkgdG8gdm9sdW50ZWVyX3NlcnZpY2UtLT48ZyBpZD0ibGlua19hcGlfZ2F0ZXdheV92b2x1bnRlZXJfc2VydmljZSI+PHBhdGggZD0iTTgxNC44OCw1MDcuMzU0NCBDODQwLjEsNTMwLjEwNDQgODY0LjY3ODcsNTUyLjI1NzEgODkwLjUxODcsNTc1LjU1NzEgIiBmaWxsPSJub25lIiBpZD0iYXBpX2dhdGV3YXktdG8tdm9sdW50ZWVyX3NlcnZpY2UiIHN0eWxlPSJzdHJva2U6IzY2NjY2NjtzdHJva2Utd2lkdGg6MS4wOyIvPjxwb2x5Z29uIGZpbGw9IiM2NjY2NjYiIHBvaW50cz0iODk2LjQ2LDU4MC45MTQ0LDg5Mi41Mjc3LDU3My4zMjkxLDg4OC41MDk3LDU3Ny43ODUxLDg5Ni40Niw1ODAuOTE0NCIgc3R5bGU9InN0cm9rZTojNjY2NjY2O3N0cm9rZS13aWR0aDoxLjA7Ii8+PHRleHQgZmlsbD0iIzY2NjY2NiIgZm9udC1mYW1pbHk9InNhbnMtc2VyaWYiIGZvbnQtc2l6ZT0iMTIiIGZvbnQtd2VpZ2h0PSJib2xkIiBsZW5ndGhBZGp1c3Q9InNwYWNpbmciIHRleHRMZW5ndGg9IjI0IiB4PSI4NTkiIHk9IjU0OS4zMjgxIj4mIzM1ODQzOyYjMjk5OTI7PC90ZXh0PjwvZz48IS0tbGluayBhcGlfZ2F0ZXdheSB0byBkb25hdGlvbl9zZXJ2aWNlLS0+PGcgaWQ9ImxpbmtfYXBpX2dhdGV3YXlfZG9uYXRpb25fc2VydmljZSI+PHBhdGggZD0iTTg0Ny4wMyw0NzQuMzQ0NCBDOTUxLjkyLDQ5MS45NjQ0IDExMzcuMDksNTI3LjYxNDQgMTI4OSw1ODAuOTg0NCBDMTI5NC43Miw1ODIuOTk0NCAxMjkzLjE0MTUsNTgyLjE5MDkgMTI5OC45NTE1LDU4NC41ODA5ICIgZmlsbD0ibm9uZSIgaWQ9ImFwaV9nYXRld2F5LXRvLWRvbmF0aW9uX3NlcnZpY2UiIHN0eWxlPSJzdHJva2U6IzY2NjY2NjtzdHJva2Utd2lkdGg6MS4wOyIvPjxwb2x5Z29uIGZpbGw9IiM2NjY2NjYiIHBvaW50cz0iMTMwNi4zNSw1ODcuNjI0NCwxMzAwLjA5MjgsNTgxLjgwNjUsMTI5Ny44MTAyLDU4Ny4zNTU0LDEzMDYuMzUsNTg3LjYyNDQiIHN0eWxlPSJzdHJva2U6IzY2NjY2NjtzdHJva2Utd2lkdGg6MS4wOyIvPjx0ZXh0IGZpbGw9IiM2NjY2NjYiIGZvbnQtZmFtaWx5PSJzYW5zLXNlcmlmIiBmb250LXNpemU9IjEyIiBmb250LXdlaWdodD0iYm9sZCIgbGVuZ3RoQWRqdXN0PSJzcGFjaW5nIiB0ZXh0TGVuZ3RoPSIyNCIgeD0iMTE5MSIgeT0iNTQ5LjMyODEiPiYjMzU4NDM7JiMyOTk5Mjs8L3RleHQ+PC9nPjwhLS1saW5rIGF1dGhfc2VydmljZSB0byBkYi0tPjxnIGlkPSJsaW5rX2F1dGhfc2VydmljZV9kYiI+PHBhdGggZD0iTTExMDguOTksNjgyLjk4NDQgQzEwNzAuMzYsNzA3Ljc1NDQgMTAzMC45NDQ1LDczMy4wMDYzIDk5NC4wNDQ1LDc1Ni42NjYzICIgZmlsbD0ibm9uZSIgaWQ9ImF1dGhfc2VydmljZS10by1kYiIgc3R5bGU9InN0cm9rZTojNjY2NjY2O3N0cm9rZS13aWR0aDoxLjA7Ii8+PHBvbHlnb24gZmlsbD0iIzY2NjY2NiIgcG9pbnRzPSI5ODcuMzEsNzYwLjk4NDQsOTk1LjY2MzgsNzU5LjE5MTcsOTkyLjQyNTIsNzU0LjE0MDgsOTg3LjMxLDc2MC45ODQ0IiBzdHlsZT0ic3Ryb2tlOiM2NjY2NjY7c3Ryb2tlLXdpZHRoOjEuMDsiLz48dGV4dCBmaWxsPSIjNjY2NjY2IiBmb250LWZhbWlseT0ic2Fucy1zZXJpZiIgZm9udC1zaXplPSIxMiIgZm9udC13ZWlnaHQ9ImJvbGQiIGxlbmd0aEFkanVzdD0ic3BhY2luZyIgdGV4dExlbmd0aD0iMjQiIHg9IjEwNjIiIHk9IjcyNS4zMjgxIj4mIzM1ODM1OyYjMjA4ODk7PC90ZXh0PjwvZz48IS0tbGluayB1c2VyX3NlcnZpY2UgdG8gZGItLT48ZyBpZD0ibGlua191c2VyX3NlcnZpY2VfZGIiPjxwYXRoIGQ9Ik03NTAuNjgsNjgyLjk4NDQgQzc4My42LDcwNi4yNzQ0IDgxNS45OTg5LDcyOS4yMDQzIDg0OC4zMjg5LDc1Mi4wNzQzICIgZmlsbD0ibm9uZSIgaWQ9InVzZXJfc2VydmljZS10by1kYiIgc3R5bGU9InN0cm9rZTojNjY2NjY2O3N0cm9rZS13aWR0aDoxLjA7Ii8+PHBvbHlnb24gZmlsbD0iIzY2NjY2NiIgcG9pbnRzPSI4NTQuODYsNzU2LjY5NDQsODUwLjA2MTQsNzQ5LjYyNTIsODQ2LjU5NjQsNzU0LjUyMzUsODU0Ljg2LDc1Ni42OTQ0IiBzdHlsZT0ic3Ryb2tlOiM2NjY2NjY7c3Ryb2tlLXdpZHRoOjEuMDsiLz48dGV4dCBmaWxsPSIjNjY2NjY2IiBmb250LWZhbWlseT0ic2Fucy1zZXJpZiIgZm9udC1zaXplPSIxMiIgZm9udC13ZWlnaHQ9ImJvbGQiIGxlbmd0aEFkanVzdD0ic3BhY2luZyIgdGV4dExlbmd0aD0iMjQiIHg9IjgwOCIgeT0iNzI1LjMyODEiPiYjMzU4MzU7JiMyMDg4OTs8L3RleHQ+PC9nPjwhLS1saW5rIGNvbW11bml0eV9zZXJ2aWNlIHRvIGRiLS0+PGcgaWQ9ImxpbmtfY29tbXVuaXR5X3NlcnZpY2VfZGIiPjxwYXRoIGQ9Ik01MjIuNzUsNjc3LjkwNDQgQzUyOC41NSw2NzkuNzI0NCA1MzQuMzIsNjgxLjQzNDQgNTQwLDY4Mi45ODQ0IEM2MTkuNTIsNzA0LjY2NDQgNjQ0LjE2LDY4OC45NzQ0IDcyMyw3MTIuOTg0NCBDNzM2LjYsNzE3LjEyNDQgNzk1LjM5ODcsNzQ0LjI3MzkgODQ3LjUyODcsNzY4Ljc1MzkgIiBmaWxsPSJub25lIiBpZD0iY29tbXVuaXR5X3NlcnZpY2UtdG8tZGIiIHN0eWxlPSJzdHJva2U6IzY2NjY2NjtzdHJva2Utd2lkdGg6MS4wOyIvPjxwb2x5Z29uIGZpbGw9IiM2NjY2NjYiIHBvaW50cz0iODU0Ljc3LDc3Mi4xNTQ0LDg0OC44MDM5LDc2Ni4wMzg0LDg0Ni4yNTM1LDc3MS40Njk0LDg1NC43Nyw3NzIuMTU0NCIgc3R5bGU9InN0cm9rZTojNjY2NjY2O3N0cm9rZS13aWR0aDoxLjA7Ii8+PHRleHQgZmlsbD0iIzY2NjY2NiIgZm9udC1mYW1pbHk9InNhbnMtc2VyaWYiIGZvbnQtc2l6ZT0iMTIiIGZvbnQtd2VpZ2h0PSJib2xkIiBsZW5ndGhBZGp1c3Q9InNwYWNpbmciIHRleHRMZW5ndGg9IjI0IiB4PSI3NTMiIHk9IjcyNS4zMjgxIj4mIzM1ODM1OyYjMjA4ODk7PC90ZXh0PjwvZz48IS0tbGluayBjYXRfc2VydmljZSB0byBkYi0tPjxnIGlkPSJsaW5rX2NhdF9zZXJ2aWNlX2RiIj48cGF0aCBkPSJNMjY0LjM3LDY3OC45MzQ0IEMyNzAuMyw2ODAuNDI0NCAyNzYuMTksNjgxLjc4NDQgMjgyLDY4Mi45ODQ0IEM0NDUuNzQsNzE2LjgzNDQgNDk0Ljg0LDY3Mi4yNDQ0IDY1Nyw3MTIuOTg0NCBDNjcyLjA2LDcxNi43NjQ0IDY3NC41LDcyMS40MzQ0IDY4OSw3MjYuOTg0NCBDNzQ0LjI2LDc0OC4xMjQ0IDgwMC41NDI1LDc2Ni41NjM2IDg0Ny4yODI1LDc4MS4xMzM2ICIgZmlsbD0ibm9uZSIgaWQ9ImNhdF9zZXJ2aWNlLXRvLWRiIiBzdHlsZT0ic3Ryb2tlOiM2NjY2NjY7c3Ryb2tlLXdpZHRoOjEuMDsiLz48cG9seWdvbiBmaWxsPSIjNjY2NjY2IiBwb2ludHM9Ijg1NC45Miw3ODMuNTE0NCw4NDguMTc1Myw3NzguMjY5NSw4NDYuMzg5Nyw3ODMuOTk3Niw4NTQuOTIsNzgzLjUxNDQiIHN0eWxlPSJzdHJva2U6IzY2NjY2NjtzdHJva2Utd2lkdGg6MS4wOyIvPjx0ZXh0IGZpbGw9IiM2NjY2NjYiIGZvbnQtZmFtaWx5PSJzYW5zLXNlcmlmIiBmb250LXNpemU9IjEyIiBmb250LXdlaWdodD0iYm9sZCIgbGVuZ3RoQWRqdXN0PSJzcGFjaW5nIiB0ZXh0TGVuZ3RoPSIyNCIgeD0iNjkwIiB5PSI3MjUuMzI4MSI+JiMzNTgzNTsmIzIwODg5OzwvdGV4dD48L2c+PCEtLWxpbmsgdm9sdW50ZWVyX3NlcnZpY2UgdG8gZGItLT48ZyBpZD0ibGlua192b2x1bnRlZXJfc2VydmljZV9kYiI+PHBhdGggZD0iTTk3NS4zMSw2ODMuMDc0NCBDOTc5LjEzLDY5Ny4zNjQ0IDk4MC41NSw3MTIuODc0NCA5NzYsNzI2Ljk4NDQgQzk3Mi42OSw3MzcuMjY0NCA5NzEuNzY2Nyw3NDAuNjAxOCA5NjUuNzg2Nyw3NDkuODcxOCAiIGZpbGw9Im5vbmUiIGlkPSJ2b2x1bnRlZXJfc2VydmljZS10by1kYiIgc3R5bGU9InN0cm9rZTojNjY2NjY2O3N0cm9rZS13aWR0aDoxLjA7Ii8+PHBvbHlnb24gZmlsbD0iIzY2NjY2NiIgcG9pbnRzPSI5NjEuNDUsNzU2LjU5NDQsOTY4LjMwNzcsNzUxLjQ5OCw5NjMuMjY1Nyw3NDguMjQ1NSw5NjEuNDUsNzU2LjU5NDQiIHN0eWxlPSJzdHJva2U6IzY2NjY2NjtzdHJva2Utd2lkdGg6MS4wOyIvPjx0ZXh0IGZpbGw9IiM2NjY2NjYiIGZvbnQtZmFtaWx5PSJzYW5zLXNlcmlmIiBmb250LXNpemU9IjEyIiBmb250LXdlaWdodD0iYm9sZCIgbGVuZ3RoQWRqdXN0PSJzcGFjaW5nIiB0ZXh0TGVuZ3RoPSIyNCIgeD0iOTc5IiB5PSI3MjUuMzI4MSI+JiMzNTgzNTsmIzIwODg5OzwvdGV4dD48L2c+PCEtLWxpbmsgZG9uYXRpb25fc2VydmljZSB0byBkYi0tPjxnIGlkPSJsaW5rX2RvbmF0aW9uX3NlcnZpY2VfZGIiPjxwYXRoIGQ9Ik0xMzM2LjY4LDY4My4wMjQ0IEMxMzE2LjMyLDY5OS4xNjQ0IDEyOTIuMjgsNzE1Ljc2NDQgMTI2OCw3MjYuOTg0NCBDMTI0Mi43Myw3MzguNjY0NCAxMDg4LjQzNjIsNzcwLjM0MzQgOTk0Ljk5NjIsNzg4LjkzMzQgIiBmaWxsPSJub25lIiBpZD0iZG9uYXRpb25fc2VydmljZS10by1kYiIgc3R5bGU9InN0cm9rZTojNjY2NjY2O3N0cm9rZS13aWR0aDoxLjA7Ii8+PHBvbHlnb24gZmlsbD0iIzY2NjY2NiIgcG9pbnRzPSI5ODcuMTUsNzkwLjQ5NDQsOTk1LjU4MTYsNzkxLjg3NTcsOTk0LjQxMDgsNzg1Ljk5MSw5ODcuMTUsNzkwLjQ5NDQiIHN0eWxlPSJzdHJva2U6IzY2NjY2NjtzdHJva2Utd2lkdGg6MS4wOyIvPjx0ZXh0IGZpbGw9IiM2NjY2NjYiIGZvbnQtZmFtaWx5PSJzYW5zLXNlcmlmIiBmb250LXNpemU9IjEyIiBmb250LXdlaWdodD0iYm9sZCIgbGVuZ3RoQWRqdXN0PSJzcGFjaW5nIiB0ZXh0TGVuZ3RoPSIyNCIgeD0iMTI5MSIgeT0iNzI1LjMyODEiPiYjMzU4MzU7JiMyMDg4OTs8L3RleHQ+PC9nPjwhLS1saW5rIHVzZXJfc2VydmljZSB0byBjYWNoZS0tPjxnIGlkPSJsaW5rX3VzZXJfc2VydmljZV9jYWNoZSI+PHBhdGggZD0iTTU3Niw2ODMuMDk0NCBDNTQyLjU3LDY5OC4yMzQ0IDUwNS4xLDcxNC4yMTQ0IDQ3MCw3MjYuOTg0NCBDNDAyLjAyLDc1MS43MjQ0IDMyOS43OTQyLDc3MS42MDY2IDI3NC44MjQyLDc4NS41NTY2ICIgZmlsbD0ibm9uZSIgaWQ9InVzZXJfc2VydmljZS10by1jYWNoZSIgc3R5bGU9InN0cm9rZTojNjY2NjY2O3N0cm9rZS13aWR0aDoxLjA7Ii8+PHBvbHlnb24gZmlsbD0iIzY2NjY2NiIgcG9pbnRzPSIyNjcuMDcsNzg3LjUyNDQsMjc1LjU2MjEsNzg4LjQ2NDQsMjc0LjA4NjMsNzgyLjY0ODcsMjY3LjA3LDc4Ny41MjQ0IiBzdHlsZT0ic3Ryb2tlOiM2NjY2NjY7c3Ryb2tlLXdpZHRoOjEuMDsiLz48dGV4dCBmaWxsPSIjNjY2NjY2IiBmb250LWZhbWlseT0ic2Fucy1zZXJpZiIgZm9udC1zaXplPSIxMiIgZm9udC13ZWlnaHQ9ImJvbGQiIGxlbmd0aEFkanVzdD0ic3BhY2luZyIgdGV4dExlbmd0aD0iMjQiIHg9IjUwNyIgeT0iNzI1LjMyODEiPiYjMzU4MzU7JiMyMDg4OTs8L3RleHQ+PC9nPjwhLS1saW5rIGNvbW11bml0eV9zZXJ2aWNlIHRvIGNhY2hlLS0+PGcgaWQ9ImxpbmtfY29tbXVuaXR5X3NlcnZpY2VfY2FjaGUiPjxwYXRoIGQ9Ik0yOTkuMzcsNjc2LjA4NDQgQzI5My4xNiw2NzguNDM0NCAyODcsNjgwLjc0NDQgMjgxLDY4Mi45ODQ0IEMyNDQuMjUsNjk2LjY5NDQgMjIwLjUzLDY4MC44NzQ0IDE5OCw3MTIuOTg0NCBDMTg5LjI0LDcyNS40NjQ0IDE4Ni44NzM0LDczMy41MTMgMTg4LjE1MzQsNzQ4LjU5MyAiIGZpbGw9Im5vbmUiIGlkPSJjb21tdW5pdHlfc2VydmljZS10by1jYWNoZSIgc3R5bGU9InN0cm9rZTojNjY2NjY2O3N0cm9rZS13aWR0aDoxLjA7Ii8+PHBvbHlnb24gZmlsbD0iIzY2NjY2NiIgcG9pbnRzPSIxODguODMsNzU2LjU2NDQsMTkxLjE0MjYsNzQ4LjMzOTMsMTg1LjE2NDEsNzQ4Ljg0NjgsMTg4LjgzLDc1Ni41NjQ0IiBzdHlsZT0ic3Ryb2tlOiM2NjY2NjY7c3Ryb2tlLXdpZHRoOjEuMDsiLz48dGV4dCBmaWxsPSIjNjY2NjY2IiBmb250LWZhbWlseT0ic2Fucy1zZXJpZiIgZm9udC1zaXplPSIxMiIgZm9udC13ZWlnaHQ9ImJvbGQiIGxlbmd0aEFkanVzdD0ic3BhY2luZyIgdGV4dExlbmd0aD0iMjQiIHg9IjE5OSIgeT0iNzI1LjMyODEiPiYjMzU4MzU7JiMyMDg4OTs8L3RleHQ+PC9nPjwhLS1saW5rIGNhdF9zZXJ2aWNlIHRvIGNhY2hlLS0+PGcgaWQ9ImxpbmtfY2F0X3NlcnZpY2VfY2FjaGUiPjxwYXRoIGQ9Ik0xMjYuMiw2ODIuOTk0NCBDMTI1LjUzLDY5Ny41NzQ0IDEyNi43Myw3MTMuMjY0NCAxMzIsNzI2Ljk4NDQgQzEzNi4xMSw3MzcuNjY0NCAxMzcuNTEyNiw3NDEuNTE1NSAxNDQuNzUyNiw3NTAuNjg1NSAiIGZpbGw9Im5vbmUiIGlkPSJjYXRfc2VydmljZS10by1jYWNoZSIgc3R5bGU9InN0cm9rZTojNjY2NjY2O3N0cm9rZS13aWR0aDoxLjA7Ii8+PHBvbHlnb24gZmlsbD0iIzY2NjY2NiIgcG9pbnRzPSIxNDkuNzEsNzU2Ljk2NDQsMTQ3LjEwNzIsNzQ4LjgyNjUsMTQyLjM5OCw3NTIuNTQ0NSwxNDkuNzEsNzU2Ljk2NDQiIHN0eWxlPSJzdHJva2U6IzY2NjY2NjtzdHJva2Utd2lkdGg6MS4wOyIvPjx0ZXh0IGZpbGw9IiM2NjY2NjYiIGZvbnQtZmFtaWx5PSJzYW5zLXNlcmlmIiBmb250LXNpemU9IjEyIiBmb250LXdlaWdodD0iYm9sZCIgbGVuZ3RoQWRqdXN0PSJzcGFjaW5nIiB0ZXh0TGVuZ3RoPSIyNCIgeD0iMTMzIiB5PSI3MjUuMzI4MSI+JiMzNTgzNTsmIzIwODg5OzwvdGV4dD48L2c+PCEtLWxpbmsgdXNlcl9zZXJ2aWNlIHRvIG1xLS0+PGcgaWQ9ImxpbmtfdXNlcl9zZXJ2aWNlX21xIj48cGF0aCBkPSJNODAyLjA1LDY3OC40MzQ0IEM4MDguMDgsNjgwLjA5NDQgODE0LjA5LDY4MS42MjQ0IDgyMCw2ODIuOTg0NCBDOTM5LjgzLDcxMC41MTQ0IDk3OS4wMSw2NzIuMjE0NCAxMDk1LDcxMi45ODQ0IEMxMTIzLjk2LDcyMy4xNjQ0IDExNDYuNDQ2OSw3MzUuNjk3OSAxMTcwLjY4NjksNzUyLjI3NzkgIiBmaWxsPSJub25lIiBpZD0idXNlcl9zZXJ2aWNlLXRvLW1xIiBzdHlsZT0ic3Ryb2tlOiM2NjY2NjY7c3Ryb2tlLXdpZHRoOjEuMDsiLz48cG9seWdvbiBmaWxsPSIjNjY2NjY2IiBwb2ludHM9IjExNzcuMjksNzU2Ljc5NDQsMTE3Mi4zODA2LDc0OS44MDE3LDExNjguOTkzMiw3NTQuNzU0MSwxMTc3LjI5LDc1Ni43OTQ0IiBzdHlsZT0ic3Ryb2tlOiM2NjY2NjY7c3Ryb2tlLXdpZHRoOjEuMDsiLz48dGV4dCBmaWxsPSIjNjY2NjY2IiBmb250LWZhbWlseT0ic2Fucy1zZXJpZiIgZm9udC1zaXplPSIxMiIgZm9udC13ZWlnaHQ9ImJvbGQiIGxlbmd0aEFkanVzdD0ic3BhY2luZyIgdGV4dExlbmd0aD0iNDgiIHg9IjExMjUiIHk9IjcyNS4zMjgxIj4mIzIxNDU3OyYjMjQwNjc7JiMyODA0MDsmIzI0Njg3OzwvdGV4dD48L2c+PCEtLWxpbmsgdm9sdW50ZWVyX3NlcnZpY2UgdG8gbXEtLT48ZyBpZD0ibGlua192b2x1bnRlZXJfc2VydmljZV9tcSI+PHBhdGggZD0iTTEwNjcuMDksNjc3LjA1NDQgQzEwNzMuMTMsNjc5LjExNDQgMTA3OS4xMyw2ODEuMTA0NCAxMDg1LDY4Mi45ODQ0IEMxMTM0LjQ5LDY5OC44MTQ0IDExNTguNjUsNjc5LjA0NDQgMTE5OCw3MTIuOTg0NCBDMTIxMS4wOSw3MjQuMjc0NCAxMjE3LjEyNzEsNzMzLjIzNzcgMTIyMy4wMTcxLDc0OS4wNDc3ICIgZmlsbD0ibm9uZSIgaWQ9InZvbHVudGVlcl9zZXJ2aWNlLXRvLW1xIiBzdHlsZT0ic3Ryb2tlOiM2NjY2NjY7c3Ryb2tlLXdpZHRoOjEuMDsiLz48cG9seWdvbiBmaWxsPSIjNjY2NjY2IiBwb2ludHM9IjEyMjUuODEsNzU2LjU0NDQsMTIyNS44Mjg0LDc0OC4wMDA0LDEyMjAuMjA1OSw3NTAuMDk1LDEyMjUuODEsNzU2LjU0NDQiIHN0eWxlPSJzdHJva2U6IzY2NjY2NjtzdHJva2Utd2lkdGg6MS4wOyIvPjx0ZXh0IGZpbGw9IiM2NjY2NjYiIGZvbnQtZmFtaWx5PSJzYW5zLXNlcmlmIiBmb250LXNpemU9IjEyIiBmb250LXdlaWdodD0iYm9sZCIgbGVuZ3RoQWRqdXN0PSJzcGFjaW5nIiB0ZXh0TGVuZ3RoPSI0OCIgeD0iMTIxMSIgeT0iNzI1LjMyODEiPiYjMjE0NTc7JiMyNDA2NzsmIzI4MDQwOyYjMjQ2ODc7PC90ZXh0PjwvZz48IS0tbGluayBkb25hdGlvbl9zZXJ2aWNlIHRvIG1xLS0+PGcgaWQ9ImxpbmtfZG9uYXRpb25fc2VydmljZV9tcSI+PHBhdGggZD0iTTEzNzguMDQsNjgzLjQwNDQgQzEzNzIuMjUsNjk4LjQ3NDQgMTM2NC4zOSw3MTQuMzM0NCAxMzU0LDcyNi45ODQ0IEMxMzQwLjEzLDc0My44NTQ0IDEzMjguMjkyNiw3NTQuMDE4OSAxMzEwLjAzMjYsNzY1LjY3ODkgIiBmaWxsPSJub25lIiBpZD0iZG9uYXRpb25fc2VydmljZS10by1tcSIgc3R5bGU9InN0cm9rZTojNjY2NjY2O3N0cm9rZS13aWR0aDoxLjA7Ii8+PHBvbHlnb24gZmlsbD0iIzY2NjY2NiIgcG9pbnRzPSIxMzAzLjI5LDc2OS45ODQ0LDEzMTEuNjQ3Miw3NjguMjA3MywxMzA4LjQxOCw3NjMuMTUwNCwxMzAzLjI5LDc2OS45ODQ0IiBzdHlsZT0ic3Ryb2tlOiM2NjY2NjY7c3Ryb2tlLXdpZHRoOjEuMDsiLz48dGV4dCBmaWxsPSIjNjY2NjY2IiBmb250LWZhbWlseT0ic2Fucy1zZXJpZiIgZm9udC1zaXplPSIxMiIgZm9udC13ZWlnaHQ9ImJvbGQiIGxlbmd0aEFkanVzdD0ic3BhY2luZyIgdGV4dExlbmd0aD0iNDgiIHg9IjEzNjQiIHk9IjcyNS4zMjgxIj4mIzIxNDU3OyYjMjQwNjc7JiMyODA0MDsmIzI0Njg3OzwvdGV4dD48L2c+PCEtLWxpbmsgdXNlcl9zZXJ2aWNlIHRvIHN0b3JhZ2UtLT48ZyBpZD0ibGlua191c2VyX3NlcnZpY2Vfc3RvcmFnZSI+PHBhdGggZD0iTTYwOS4xMyw2ODMuMTg0NCBDNTk2LjUxLDY5Mi43NjQ0IDU4My42OCw3MDIuOTQ0NCA1NzIsNzEyLjk4NDQgQzU1Ni4yOSw3MjYuNDk0NCA1NDUuNjI5LDczNi40Njk3IDUzMS4yMzksNzUwLjg5OTcgIiBmaWxsPSJub25lIiBpZD0idXNlcl9zZXJ2aWNlLXRvLXN0b3JhZ2UiIHN0eWxlPSJzdHJva2U6IzY2NjY2NjtzdHJva2Utd2lkdGg6MS4wOyIvPjxwb2x5Z29uIGZpbGw9IiM2NjY2NjYiIHBvaW50cz0iNTI1LjU5LDc1Ni41NjQ0LDUzMy4zNjMzLDc1My4wMTgsNTI5LjExNDcsNzQ4Ljc4MTMsNTI1LjU5LDc1Ni41NjQ0IiBzdHlsZT0ic3Ryb2tlOiM2NjY2NjY7c3Ryb2tlLXdpZHRoOjEuMDsiLz48dGV4dCBmaWxsPSIjNjY2NjY2IiBmb250LWZhbWlseT0ic2Fucy1zZXJpZiIgZm9udC1zaXplPSIxMiIgZm9udC13ZWlnaHQ9ImJvbGQiIGxlbmd0aEFkanVzdD0ic3BhY2luZyIgdGV4dExlbmd0aD0iNzkiIHg9IjU3MyIgeT0iNzI1LjMyODEiPiYjMTk5Nzg7JiMyMDI1NjsvJiMxOTk3OTsmIzM2NzMzOyYjMjU5OTE7JiMyMDIxNDs8L3RleHQ+PC9nPjwhLS1saW5rIGNvbW11bml0eV9zZXJ2aWNlIHRvIHN0b3JhZ2UtLT48ZyBpZD0ibGlua19jb21tdW5pdHlfc2VydmljZV9zdG9yYWdlIj48cGF0aCBkPSJNMzgzLjg5LDY4My40NjQ0IEMzNzkuNjEsNjk3LjkxNDQgMzc4LjQ2LDcxMy40MDQ0IDM4NSw3MjYuOTg0NCBDMzkxLjg1LDc0MS4xOTQ0IDM5Ni42OTksNzQ4LjM0MTIgNDA4Ljc1OSw3NTguNzcxMiAiIGZpbGw9Im5vbmUiIGlkPSJjb21tdW5pdHlfc2VydmljZS10by1zdG9yYWdlIiBzdHlsZT0ic3Ryb2tlOiM2NjY2NjY7c3Ryb2tlLXdpZHRoOjEuMDsiLz48cG9seWdvbiBmaWxsPSIjNjY2NjY2IiBwb2ludHM9IjQxNC44MSw3NjQuMDA0NCw0MTAuNzIxNSw3NTYuNTAyMSw0MDYuNzk2Niw3NjEuMDQwNCw0MTQuODEsNzY0LjAwNDQiIHN0eWxlPSJzdHJva2U6IzY2NjY2NjtzdHJva2Utd2lkdGg6MS4wOyIvPjx0ZXh0IGZpbGw9IiM2NjY2NjYiIGZvbnQtZmFtaWx5PSJzYW5zLXNlcmlmIiBmb250LXNpemU9IjEyIiBmb250LXdlaWdodD0iYm9sZCIgbGVuZ3RoQWRqdXN0PSJzcGFjaW5nIiB0ZXh0TGVuZ3RoPSI3OSIgeD0iMzg2IiB5PSI3MjUuMzI4MSI+JiMxOTk3ODsmIzIwMjU2Oy8mIzE5OTc5OyYjMzY3MzM7JiMyNTk5MTsmIzIwMjE0OzwvdGV4dD48L2c+PCEtLWxpbmsgY2F0X3NlcnZpY2UgdG8gc3RvcmFnZS0tPjxnIGlkPSJsaW5rX2NhdF9zZXJ2aWNlX3N0b3JhZ2UiPjxwYXRoIGQ9Ik0yMTQuMDgsNjgzLjE4NDQgQzIzOC45MSw2OTguMDg0NCAyNjYuNzEsNzEzLjkwNDQgMjkzLDcyNi45ODQ0IEMzMzIuNDQsNzQ2LjYwNDQgMzcwLjcxMDYsNzYyLjQzOTQgNDA3LjIxMDYsNzc2LjQzOTQgIiBmaWxsPSJub25lIiBpZD0iY2F0X3NlcnZpY2UtdG8tc3RvcmFnZSIgc3R5bGU9InN0cm9rZTojNjY2NjY2O3N0cm9rZS13aWR0aDoxLjA7Ii8+PHBvbHlnb24gZmlsbD0iIzY2NjY2NiIgcG9pbnRzPSI0MTQuNjgsNzc5LjMwNDQsNDA4LjI4NSw3NzMuNjM4NCw0MDYuMTM2Miw3NzkuMjQwNCw0MTQuNjgsNzc5LjMwNDQiIHN0eWxlPSJzdHJva2U6IzY2NjY2NjtzdHJva2Utd2lkdGg6MS4wOyIvPjx0ZXh0IGZpbGw9IiM2NjY2NjYiIGZvbnQtZmFtaWx5PSJzYW5zLXNlcmlmIiBmb250LXNpemU9IjEyIiBmb250LXdlaWdodD0iYm9sZCIgbGVuZ3RoQWRqdXN0PSJzcGFjaW5nIiB0ZXh0TGVuZ3RoPSI3OSIgeD0iMjk0IiB5PSI3MjUuMzI4MSI+JiMxOTk3ODsmIzIwMjU2Oy8mIzE5OTc5OyYjMzY3MzM7JiMyNTk5MTsmIzIwMjE0OzwvdGV4dD48L2c+PCEtLWxpbmsgdm9sdW50ZWVyX3NlcnZpY2UgdG8gc3RvcmFnZS0tPjxnIGlkPSJsaW5rX3ZvbHVudGVlcl9zZXJ2aWNlX3N0b3JhZ2UiPjxwYXRoIGQ9Ik05MDMuNTYsNjgzLjAxNDQgQzg4NS4zNSw2OTkuMjU0NCA4NjMuNTYsNzE1LjkxNDQgODQxLDcyNi45ODQ0IEM3NDUuNDksNzczLjgzNDQgNjI5Ljg5NDYsNzkxLjM1MjkgNTU1LjE3NDYsNzk4LjQwMjkgIiBmaWxsPSJub25lIiBpZD0idm9sdW50ZWVyX3NlcnZpY2UtdG8tc3RvcmFnZSIgc3R5bGU9InN0cm9rZTojNjY2NjY2O3N0cm9rZS13aWR0aDoxLjA7Ii8+PHBvbHlnb24gZmlsbD0iIzY2NjY2NiIgcG9pbnRzPSI1NDcuMjEsNzk5LjE1NDQsNTU1LjQ1NjQsODAxLjM4OTYsNTU0Ljg5MjgsNzk1LjQxNjIsNTQ3LjIxLDc5OS4xNTQ0IiBzdHlsZT0ic3Ryb2tlOiM2NjY2NjY7c3Ryb2tlLXdpZHRoOjEuMDsiLz48dGV4dCBmaWxsPSIjNjY2NjY2IiBmb250LWZhbWlseT0ic2Fucy1zZXJpZiIgZm9udC1zaXplPSIxMiIgZm9udC13ZWlnaHQ9ImJvbGQiIGxlbmd0aEFkanVzdD0ic3BhY2luZyIgdGV4dExlbmd0aD0iNzkiIHg9Ijg2NSIgeT0iNzI1LjMyODEiPiYjMTk5Nzg7JiMyMDI1NjsvJiMxOTk3OTsmIzM2NzMzOyYjMjU5OTE7JiMyMDIxNDs8L3RleHQ+PC9nPjwhLS1TUkM9W1pMTFRLekQwNTd0bGh1V3lyTDdmV3B4dmZrV3VFZE82ZzEtRmRSSUQ0MlREUWhlMS1tUXFiODk1RzBMYS0xQWVPbk5SdWZIMlJJWnpDTU9fLTFWazlaS2FSSWZ6SXRSRmtVVVVsVlZrTlhGYmdBSjUxNHNMazc0MDRpY3hXTzNBSm13RVlNMVNZc1g5R09xZ0NYMWFDMVhMdWU2NG5DajBZcWt0YVkwY1lQNzBxOXJSbXNwZlVWMWY4Q3VkV1EzSWZWMEdQVjJZQkFZMzJPaHItTzA4OTg1M2pNYkstdTdwWHNYcjFJdnlYeC1oU0VhOEx0TWl4d0FUNHhJSldQbGRGai1tZTJPTHNTLTRSdDgzLTVDSHZLdTdzNVZrNXNvYlpLTzM3WHAtY1BnNmhOTUtRUDZmTUxvUTd4Wmsyd01lVFpweXkydG1sckJEVjZFSzAtU055TTY1aUx6ZW1rM2g5RmlZbnhsYS1DMkFZclZwNXpseHk0RlVRMUlDbldUdGQ1WTRlajdnNExlaW15UDdIV3NjR1lERnNHU2lWT09wSFNrMFhOMUpldG5xTjYwdmR0c2FLQ09PNU1BWUFNeWp1Tkc5cF9wc2VpUlZDRE1KNzlna043cFVYUmJyYXlyNzhZODhaZlpRUHBFZXoxS01DZFd2US1Xd05EWHAxcVcySFVON2MzZlFjcEZxNG9qTm5ocHRDaUk1Ulpsb3RwcDd5dEZLRlZjTWxUWFZlTTV5VGs3eVY0OENaXzUwY0VISlozaHljQ0ZENUpYUlBWSEdHWE5iQ012OEtoR096eVcyY1R4cU5RQy1YU2p4RDNNRUtUM3hodDNmVzBRc3VwdzgtN2FEWjhUZlRJVjRBQ2tJYjBrYUNlc3M1ZmNKby0wWDhRZ2Y4YVhuRHhXZEJ2eURzQXMwZ2FNT3BUQzZtMWl3UkF4STNfRy1YeFJKN0lBaVZIbVlSTXdkbzdyNTBMR1djQmhGV3RQdkpBM0hzZ0ZkUm5iWDJlbEJmRlE1Yjh5aW1PbHpCOXBMeVFTZ2dQbnNvRDhIWU1pb0pUa2ZOSlk3LUtPVnNkMWYxVFJKaUJ1Nkl5akNqUlA0bGtOaU5yQjlhNzhaR0RrNnI3T3dQTmRXNEJvU2l3aXJSTW9kdkx5cFQ0SWpuVnpSZGIwYVpTd1J3eFpqdVVwN2pKdDhQZEdnUGRNcmRHaEN3dFhqdEpoejNrc084akNtWWttcVJ6UWc3enNqOGN3cUExcHpGNlZqREYtVHIzOE1jcXQyZzIycnhvMzdWTThxTXhIMXczUlJsTG50cG1ldkliQ0d3X3pfU0xweGRVcmxlamlYTlMyRTVrdUR6Nmd3X3cxVGxUOFJ2ck5OdGNZRklqWFcyLXNvUlR3amZBQjN4NE94Y2pqanp4dzdJRy1HcXJsdGplVWJSYjJ0NHBWNjh6al9yX3JMMk5sWmQzYnQ4SnBLcDFWMmtZa2lUd0F0a3J4R1JlelVJMF9qb3lWNWcyeU9QcnkySGxxVFFKUWpid1F0eVJ2ZXBkRmVYLTNYem1oUU5tMDBdLS0+PC9nPjwvc3ZnPg==;" vertex="1" parent="1">
            <mxGeometry x="67" y="9797" width="1598.59" height="917" as="geometry" />
          </mxCell>
        </UserObject>
        <UserObject label="" plantUmlData="{&#xa;  &quot;data&quot;: &quot;@startuml\n!includeurl https://raw.githubusercontent.com/plantuml-stdlib/C4-PlantUML/master/C4_Container.puml\n\ntitle 流浪猫救助平台后台管理系统架构图\n\nPerson(admin, \&quot;管理员\&quot;, \&quot;平台管理人员\&quot;)\nSystem_Ext(frontend, \&quot;前端\&quot;, \&quot;Vue.js\&quot;, \&quot;负责管理员界面和交互\&quot;)\nSystem_Ext(db, \&quot;数据库\&quot;, \&quot;MySQL\&quot;, \&quot;存储平台数据\&quot;)\nSystem_Ext(cache, \&quot;缓存\&quot;, \&quot;Redis\&quot;, \&quot;缓存热点数据\&quot;)\nSystem_Ext(storage, \&quot;文件存储\&quot;, \&quot;AWS S3\&quot;, \&quot;存储图片和视频\&quot;)\n\nContainer(api_gateway, \&quot;API 网关\&quot;, \&quot;Spring Cloud Gateway\&quot;, \&quot;统一管理 API 接口\&quot;)\nContainerDb(auth_service, \&quot;认证授权服务\&quot;, \&quot;Spring Security + JWT\&quot;, \&quot;管理员登录、权限管理\&quot;)\nContainerDb(user_service, \&quot;用户服务\&quot;, \&quot;Spring Boot + MyBatis\&quot;, \&quot;用户信息管理\&quot;)\nContainerDb(cat_service, \&quot;流浪猫服务\&quot;, \&quot;Spring Boot + MyBatis\&quot;, \&quot;流浪猫信息管理、审核\&quot;)\nContainerDb(volunteer_service, \&quot;志愿者服务\&quot;, \&quot;Spring Boot + MyBatis\&quot;, \&quot;志愿者申请、任务管理\&quot;)\nContainerDb(adoption_service, \&quot;领养服务\&quot;, \&quot;Spring Boot + MyBatis\&quot;, \&quot;领养申请审批、进度跟踪\&quot;)\nContainerDb(medical_service, \&quot;医疗救助服务\&quot;, \&quot;Spring Boot + MyBatis\&quot;, \&quot;医疗救助信息、记录管理\&quot;)\nContainerDb(donation_service, \&quot;捐赠服务\&quot;, \&quot;Spring Boot + MyBatis\&quot;, \&quot;捐赠记录、物资管理\&quot;)\nContainerDb(notice_service, \&quot;公告服务\&quot;, \&quot;Spring Boot + MyBatis\&quot;, \&quot;公告发布、管理\&quot;)\n\nRel(admin, frontend, \&quot;使用\&quot;)\nRel(frontend, api_gateway, \&quot;调用 API\&quot;)\n\nRel(api_gateway, auth_service, \&quot;调用\&quot;)\nRel(api_gateway, user_service, \&quot;调用\&quot;)\nRel(api_gateway, cat_service, \&quot;调用\&quot;)\nRel(api_gateway, volunteer_service, \&quot;调用\&quot;)\nRel(api_gateway, adoption_service, \&quot;调用\&quot;)\nRel(api_gateway, medical_service, \&quot;调用\&quot;)\nRel(api_gateway, donation_service, \&quot;调用\&quot;)\nRel(api_gateway, notice_service, \&quot;调用\&quot;)\n\nRel(auth_service, db, \&quot;读写\&quot;)\nRel(user_service, db, \&quot;读写\&quot;)\nRel(cat_service, db, \&quot;读写\&quot;)\nRel(volunteer_service, db, \&quot;读写\&quot;)\nRel(adoption_service, db, \&quot;读写\&quot;)\nRel(medical_service, db, \&quot;读写\&quot;)\nRel(donation_service, db, \&quot;读写\&quot;)\nRel(notice_service, db, \&quot;读写\&quot;)\n\nRel(user_service, cache, \&quot;读写\&quot;)\nRel(cat_service, cache, \&quot;读写\&quot;)\n\nRel(cat_service, storage, \&quot;上传/下载文件\&quot;)\nRel(notice_service, storage, \&quot;上传/下载文件\&quot;)\n\n@enduml&quot;,&#xa;  &quot;format&quot;: &quot;svg&quot;&#xa;}" id="WF8WQ5typgrZwuC74MDy-8">
          <mxCell style="shape=image;noLabel=1;verticalAlign=top;aspect=fixed;imageAspect=0;image=data:image/svg+xml,PD94bWwgdmVyc2lvbj0iMS4wIiBlbmNvZGluZz0idXMtYXNjaWkiIHN0YW5kYWxvbmU9Im5vIj8+PHN2ZyB4bWxucz0iaHR0cDovL3d3dy53My5vcmcvMjAwMC9zdmciIHhtbG5zOnhsaW5rPSJodHRwOi8vd3d3LnczLm9yZy8xOTk5L3hsaW5rIiBjb250ZW50U3R5bGVUeXBlPSJ0ZXh0L2NzcyIgaGVpZ2h0PSI4NTdweCIgcHJlc2VydmVBc3BlY3RSYXRpbz0ibm9uZSIgc3R5bGU9IndpZHRoOjE2NDFweDtoZWlnaHQ6ODU3cHg7YmFja2dyb3VuZDojRkZGRkZGOyIgdmVyc2lvbj0iMS4xIiB2aWV3Qm94PSIwIDAgMTY0MSA4NTciIHdpZHRoPSIxNjQxcHgiIHpvb21BbmRQYW49Im1hZ25pZnkiPjxkZWZzLz48Zz48dGV4dCBmaWxsPSIjMDAwMDAwIiBmb250LWZhbWlseT0ic2Fucy1zZXJpZiIgZm9udC1zaXplPSIxNCIgZm9udC13ZWlnaHQ9ImJvbGQiIGxlbmd0aEFkanVzdD0ic3BhY2luZyIgdGV4dExlbmd0aD0iMjI0IiB4PSI3MDEuNSIgeT0iMjMuMjM0NCI+JiMyNzk2OTsmIzI4MDEwOyYjMjk0ODM7JiMyNTkzNzsmIzIxMTYxOyYjMjQxNzk7JiMyMTQ4ODsmIzIxNTE4OyYjMjE0ODg7JiMzMTY0OTsmIzI5NzAyOyYjMzE5OTU7JiMzMjQ3OTsmIzI2NTUwOyYjMjY1MDA7JiMyMjI3MDs8L3RleHQ+PCEtLWVudGl0eSBhZG1pbi0tPjxnIGlkPSJlbGVtX2FkbWluIj48cmVjdCBmaWxsPSIjMDg0MjdCIiBoZWlnaHQ9IjEyNy45Mzc1IiByeD0iMi41IiByeT0iMi41IiBzdHlsZT0ic3Ryb2tlOiMwNzNCNkY7c3Ryb2tlLXdpZHRoOjAuNTsiIHdpZHRoPSIxMDQiIHg9IjczMC41IiB5PSI0Mi45ODQ0Ii8+PHRleHQgZmlsbD0iI0ZGRkZGRiIgZm9udC1mYW1pbHk9InNhbnMtc2VyaWYiIGZvbnQtc2l6ZT0iMTIiIGZvbnQtc3R5bGU9Iml0YWxpYyIgbGVuZ3RoQWRqdXN0PSJzcGFjaW5nIiB0ZXh0TGVuZ3RoPSI1NCIgeD0iNzU1LjUiIHk9IjY0LjMyODEiPiYjMTcxO3BlcnNvbiYjMTg3OzwvdGV4dD48aW1hZ2UgaGVpZ2h0PSI0OCIgd2lkdGg9IjQ4IiB4PSI3NTguNSIgeGxpbms6aHJlZj0iZGF0YTppbWFnZS9wbmc7YmFzZTY0LGlWQk9SdzBLR2dvQUFBQU5TVWhFVWdBQUFEQUFBQUF3Q0FZQUFBQlhBdm1IQUFBQ01FbEVRVlI0WHUyWXZVckZRQkNGYitraitBaStncTNZMlBnQStnQ0N0WjJWMkFocWFTTmlxWTFnWVdNamFDdlh5a29FS3kyMXNMQ05mRUxnTXNja3N6OG1XZkRBQjNLdXllN3NUbVlubWN3dGJVOUtSb3pTRUNPVmxhM1Q2dVRxdnJxWlBsY1BUNjgvWE53K1Z0dkgxOVhDK3NHZS9mOVV4SWhsOC9DeSt2ajhxcnBFWUlzYlIxTjdmU3hpaERLL3Vydk1Lb2VLSGJIM2lrR01FSmk4WjlXYnRIOTJseHlFR0NIRXJMd1ZxV2Z2RzRJWVhraUJYR0luN2YyOWlPR0JBZTBrVWtUVnNtTjRFY01EMjU1YmRnd3ZZbmlnRk9ZVzU0Y2R4NE1ZSGxJcVQ1Tml5Nm9ZSHV6Z09SUmJVc1h3WUFmUG9WNERlSGw3dCtNbksvWThFTU1EelZsdTlmb1E1eTZqRkFVN2hoY3h2T1NzUkxINUQySjRLYnFWcU1seG9LM3RuRWV2UG9nUkFpdVhVcEZpRDY5WnhJZ2haaWRTVjc1R2pGaVlrR2MzS01FcE9XOFJJeFhlZDBrTkpzck9BTzB5cFRmbnhHdkVLQTB4U2tNTUQzemZJZWRKRlE0aENQbFV3clgxZGFRV2JVUnNlb25SQmhOdWUxRDVyYzUzSmtWUXdOOWMyMVd0K0QyMEp4TGpON2hwenRhaFN3VGkzUkV4TERsYmhoQ3htNTVQa1dMTWtydnJEQlc3M3JVVFl0U1F1L2FHUTRoMHNuTnpCZEQxd1BXcHRyWkREQmpMNnRmaWViQnpiQTJBVWpnMk5UM1FZa0JiclI5S1RTLzlZb0M5ZUF4cWV1MFVJL2VIMjF5aXU3VnpMU3FBcG5JcXhuOEFmNlRpQTNBL0E5Qm41K2xWMHhjTU1XRG9KczZxcmFrVG80YTZPd1p4cUxhOTdZa3hDMUh6TWtNek5RUnRFM2NGVUFKaWxNWTNPR1ROTDBORExxSUFBQUFBU1VWT1JLNUNZSUk9IiB5PSI2NS44MjgxIi8+PHRleHQgZmlsbD0iI0ZGRkZGRiIgZm9udC1mYW1pbHk9InNhbnMtc2VyaWYiIGZvbnQtc2l6ZT0iMTYiIGZvbnQtd2VpZ2h0PSJib2xkIiBsZW5ndGhBZGp1c3Q9InNwYWNpbmciIHRleHRMZW5ndGg9IjQ4IiB4PSI3NTguNSIgeT0iMTI4Ljk1MzEiPiYjMzE2NDk7JiMyOTcwMjsmIzIxNTkyOzwvdGV4dD48dGV4dCBmaWxsPSIjRkZGRkZGIiBmb250LWZhbWlseT0ic2Fucy1zZXJpZiIgZm9udC1zaXplPSIxNCIgbGVuZ3RoQWRqdXN0PSJzcGFjaW5nIiB0ZXh0TGVuZ3RoPSI3IiB4PSI3NzkiIHk9IjE0NC4xODc1Ij4mIzE2MDs8L3RleHQ+PHRleHQgZmlsbD0iI0ZGRkZGRiIgZm9udC1mYW1pbHk9InNhbnMtc2VyaWYiIGZvbnQtc2l6ZT0iMTQiIGxlbmd0aEFkanVzdD0ic3BhY2luZyIgdGV4dExlbmd0aD0iODQiIHg9Ijc0MC41IiB5PSIxNTkuMTcxOSI+JiMyNDE3OTsmIzIxNDg4OyYjMzE2NDk7JiMyOTcwMjsmIzIwMTU0OyYjMjE1OTI7PC90ZXh0PjwvZz48IS0tZW50aXR5IGZyb250ZW5kLS0+PGcgaWQ9ImVsZW1fZnJvbnRlbmQiPjxyZWN0IGZpbGw9IiM5OTk5OTkiIGhlaWdodD0iOTQuOTIxOSIgcng9IjIuNSIgcnk9IjIuNSIgc3R5bGU9InN0cm9rZTojOEE4QThBO3N0cm9rZS13aWR0aDowLjU7IiB3aWR0aD0iMTMyIiB4PSI3MTYuNSIgeT0iMjQ0Ljk4NDQiLz48dGV4dCBmaWxsPSIjRkZGRkZGIiBmb250LWZhbWlseT0ic2Fucy1zZXJpZiIgZm9udC1zaXplPSIxMiIgZm9udC1zdHlsZT0iaXRhbGljIiBsZW5ndGhBZGp1c3Q9InNwYWNpbmciIHRleHRMZW5ndGg9IjExMiIgeD0iNzI2LjUiIHk9IjI2Ni4zMjgxIj4mIzE3MTtleHRlcm5hbF9zeXN0ZW0mIzE4Nzs8L3RleHQ+PHRleHQgZmlsbD0iI0ZGRkZGRiIgZm9udC1mYW1pbHk9InNhbnMtc2VyaWYiIGZvbnQtc2l6ZT0iMTQiIGxlbmd0aEFkanVzdD0ic3BhY2luZyIgdGV4dExlbmd0aD0iNyIgeD0iNzc5IiB5PSIyODEuMDYyNSI+JiMxNjA7PC90ZXh0Pjx0ZXh0IGZpbGw9IiNGRkZGRkYiIGZvbnQtZmFtaWx5PSJzYW5zLXNlcmlmIiBmb250LXNpemU9IjE2IiBmb250LXdlaWdodD0iYm9sZCIgbGVuZ3RoQWRqdXN0PSJzcGFjaW5nIiB0ZXh0TGVuZ3RoPSIzMiIgeD0iNzY2LjUiIHk9IjI5Ny45Mzc1Ij4mIzIxMDY5OyYjMzE0NzE7PC90ZXh0Pjx0ZXh0IGZpbGw9IiNGRkZGRkYiIGZvbnQtZmFtaWx5PSJzYW5zLXNlcmlmIiBmb250LXNpemU9IjE0IiBsZW5ndGhBZGp1c3Q9InNwYWNpbmciIHRleHRMZW5ndGg9IjciIHg9Ijc3OSIgeT0iMzEzLjE3MTkiPiYjMTYwOzwvdGV4dD48dGV4dCBmaWxsPSIjRkZGRkZGIiBmb250LWZhbWlseT0ic2Fucy1zZXJpZiIgZm9udC1zaXplPSIxNCIgbGVuZ3RoQWRqdXN0PSJzcGFjaW5nIiB0ZXh0TGVuZ3RoPSI0MiIgeD0iNzYxLjUiIHk9IjMyOC4xNTYzIj5WdWUuanM8L3RleHQ+PC9nPjwhLS1lbnRpdHkgZGItLT48ZyBpZD0iZWxlbV9kYiI+PHJlY3QgZmlsbD0iIzk5OTk5OSIgaGVpZ2h0PSI5NC45MjE5IiByeD0iMi41IiByeT0iMi41IiBzdHlsZT0ic3Ryb2tlOiM4QThBOEE7c3Ryb2tlLXdpZHRoOjAuNTsiIHdpZHRoPSIxMzIiIHg9IjcxNi41IiB5PSI3NTYuOTg0NCIvPjx0ZXh0IGZpbGw9IiNGRkZGRkYiIGZvbnQtZmFtaWx5PSJzYW5zLXNlcmlmIiBmb250LXNpemU9IjEyIiBmb250LXN0eWxlPSJpdGFsaWMiIGxlbmd0aEFkanVzdD0ic3BhY2luZyIgdGV4dExlbmd0aD0iMTEyIiB4PSI3MjYuNSIgeT0iNzc4LjMyODEiPiYjMTcxO2V4dGVybmFsX3N5c3RlbSYjMTg3OzwvdGV4dD48dGV4dCBmaWxsPSIjRkZGRkZGIiBmb250LWZhbWlseT0ic2Fucy1zZXJpZiIgZm9udC1zaXplPSIxNCIgbGVuZ3RoQWRqdXN0PSJzcGFjaW5nIiB0ZXh0TGVuZ3RoPSI3IiB4PSI3NzkiIHk9Ijc5My4wNjI1Ij4mIzE2MDs8L3RleHQ+PHRleHQgZmlsbD0iI0ZGRkZGRiIgZm9udC1mYW1pbHk9InNhbnMtc2VyaWYiIGZvbnQtc2l6ZT0iMTYiIGZvbnQtd2VpZ2h0PSJib2xkIiBsZW5ndGhBZGp1c3Q9InNwYWNpbmciIHRleHRMZW5ndGg9IjQ4IiB4PSI3NTguNSIgeT0iODA5LjkzNzUiPiYjMjU5Njg7JiMyNTQ1NDsmIzI0MjExOzwvdGV4dD48dGV4dCBmaWxsPSIjRkZGRkZGIiBmb250LWZhbWlseT0ic2Fucy1zZXJpZiIgZm9udC1zaXplPSIxNCIgbGVuZ3RoQWRqdXN0PSJzcGFjaW5nIiB0ZXh0TGVuZ3RoPSI3IiB4PSI3NzkiIHk9IjgyNS4xNzE5Ij4mIzE2MDs8L3RleHQ+PHRleHQgZmlsbD0iI0ZGRkZGRiIgZm9udC1mYW1pbHk9InNhbnMtc2VyaWYiIGZvbnQtc2l6ZT0iMTQiIGxlbmd0aEFkanVzdD0ic3BhY2luZyIgdGV4dExlbmd0aD0iMzUiIHg9Ijc2NSIgeT0iODQwLjE1NjMiPk15U1FMPC90ZXh0PjwvZz48IS0tZW50aXR5IGNhY2hlLS0+PGcgaWQ9ImVsZW1fY2FjaGUiPjxyZWN0IGZpbGw9IiM5OTk5OTkiIGhlaWdodD0iOTQuOTIxOSIgcng9IjIuNSIgcnk9IjIuNSIgc3R5bGU9InN0cm9rZTojOEE4QThBO3N0cm9rZS13aWR0aDowLjU7IiB3aWR0aD0iMTMyIiB4PSIxMTIxLjUiIHk9Ijc1Ni45ODQ0Ii8+PHRleHQgZmlsbD0iI0ZGRkZGRiIgZm9udC1mYW1pbHk9InNhbnMtc2VyaWYiIGZvbnQtc2l6ZT0iMTIiIGZvbnQtc3R5bGU9Iml0YWxpYyIgbGVuZ3RoQWRqdXN0PSJzcGFjaW5nIiB0ZXh0TGVuZ3RoPSIxMTIiIHg9IjExMzEuNSIgeT0iNzc4LjMyODEiPiYjMTcxO2V4dGVybmFsX3N5c3RlbSYjMTg3OzwvdGV4dD48dGV4dCBmaWxsPSIjRkZGRkZGIiBmb250LWZhbWlseT0ic2Fucy1zZXJpZiIgZm9udC1zaXplPSIxNCIgbGVuZ3RoQWRqdXN0PSJzcGFjaW5nIiB0ZXh0TGVuZ3RoPSI3IiB4PSIxMTg0IiB5PSI3OTMuMDYyNSI+JiMxNjA7PC90ZXh0Pjx0ZXh0IGZpbGw9IiNGRkZGRkYiIGZvbnQtZmFtaWx5PSJzYW5zLXNlcmlmIiBmb250LXNpemU9IjE2IiBmb250LXdlaWdodD0iYm9sZCIgbGVuZ3RoQWRqdXN0PSJzcGFjaW5nIiB0ZXh0TGVuZ3RoPSIzMiIgeD0iMTE3MS41IiB5PSI4MDkuOTM3NSI+JiMzMjUzMTsmIzIzMzg0OzwvdGV4dD48dGV4dCBmaWxsPSIjRkZGRkZGIiBmb250LWZhbWlseT0ic2Fucy1zZXJpZiIgZm9udC1zaXplPSIxNCIgbGVuZ3RoQWRqdXN0PSJzcGFjaW5nIiB0ZXh0TGVuZ3RoPSI3IiB4PSIxMTg0IiB5PSI4MjUuMTcxOSI+JiMxNjA7PC90ZXh0Pjx0ZXh0IGZpbGw9IiNGRkZGRkYiIGZvbnQtZmFtaWx5PSJzYW5zLXNlcmlmIiBmb250LXNpemU9IjE0IiBsZW5ndGhBZGp1c3Q9InNwYWNpbmciIHRleHRMZW5ndGg9IjM1IiB4PSIxMTcwIiB5PSI4NDAuMTU2MyI+UmVkaXM8L3RleHQ+PC9nPjwhLS1lbnRpdHkgc3RvcmFnZS0tPjxnIGlkPSJlbGVtX3N0b3JhZ2UiPjxyZWN0IGZpbGw9IiM5OTk5OTkiIGhlaWdodD0iOTQuOTIxOSIgcng9IjIuNSIgcnk9IjIuNSIgc3R5bGU9InN0cm9rZTojOEE4QThBO3N0cm9rZS13aWR0aDowLjU7IiB3aWR0aD0iMTMyIiB4PSIxNDEwLjUiIHk9Ijc1Ni45ODQ0Ii8+PHRleHQgZmlsbD0iI0ZGRkZGRiIgZm9udC1mYW1pbHk9InNhbnMtc2VyaWYiIGZvbnQtc2l6ZT0iMTIiIGZvbnQtc3R5bGU9Iml0YWxpYyIgbGVuZ3RoQWRqdXN0PSJzcGFjaW5nIiB0ZXh0TGVuZ3RoPSIxMTIiIHg9IjE0MjAuNSIgeT0iNzc4LjMyODEiPiYjMTcxO2V4dGVybmFsX3N5c3RlbSYjMTg3OzwvdGV4dD48dGV4dCBmaWxsPSIjRkZGRkZGIiBmb250LWZhbWlseT0ic2Fucy1zZXJpZiIgZm9udC1zaXplPSIxNCIgbGVuZ3RoQWRqdXN0PSJzcGFjaW5nIiB0ZXh0TGVuZ3RoPSI3IiB4PSIxNDczIiB5PSI3OTMuMDYyNSI+JiMxNjA7PC90ZXh0Pjx0ZXh0IGZpbGw9IiNGRkZGRkYiIGZvbnQtZmFtaWx5PSJzYW5zLXNlcmlmIiBmb250LXNpemU9IjE2IiBmb250LXdlaWdodD0iYm9sZCIgbGVuZ3RoQWRqdXN0PSJzcGFjaW5nIiB0ZXh0TGVuZ3RoPSI2NCIgeD0iMTQ0NC41IiB5PSI4MDkuOTM3NSI+JiMyNTk5MTsmIzIwMjE0OyYjMjMzODQ7JiMyMDY0ODs8L3RleHQ+PHRleHQgZmlsbD0iI0ZGRkZGRiIgZm9udC1mYW1pbHk9InNhbnMtc2VyaWYiIGZvbnQtc2l6ZT0iMTQiIGxlbmd0aEFkanVzdD0ic3BhY2luZyIgdGV4dExlbmd0aD0iNyIgeD0iMTQ3MyIgeT0iODI1LjE3MTkiPiYjMTYwOzwvdGV4dD48dGV4dCBmaWxsPSIjRkZGRkZGIiBmb250LWZhbWlseT0ic2Fucy1zZXJpZiIgZm9udC1zaXplPSIxNCIgbGVuZ3RoQWRqdXN0PSJzcGFjaW5nIiB0ZXh0TGVuZ3RoPSIyMSIgeD0iMTQ1NS41IiB5PSI4NDAuMTU2MyI+QVdTPC90ZXh0Pjx0ZXh0IGZpbGw9IiNGRkZGRkYiIGZvbnQtZmFtaWx5PSJzYW5zLXNlcmlmIiBmb250LXNpemU9IjE0IiBsZW5ndGhBZGp1c3Q9InNwYWNpbmciIHRleHRMZW5ndGg9IjciIHg9IjE0NzYuNSIgeT0iODQwLjE1NjMiPiYjMTYwOzwvdGV4dD48dGV4dCBmaWxsPSIjRkZGRkZGIiBmb250LWZhbWlseT0ic2Fucy1zZXJpZiIgZm9udC1zaXplPSIxNCIgbGVuZ3RoQWRqdXN0PSJzcGFjaW5nIiB0ZXh0TGVuZ3RoPSIxNCIgeD0iMTQ4My41IiB5PSI4NDAuMTU2MyI+UzM8L3RleHQ+PC9nPjwhLS1lbnRpdHkgYXBpX2dhdGV3YXktLT48ZyBpZD0iZWxlbV9hcGlfZ2F0ZXdheSI+PHJlY3QgZmlsbD0iIzQzOERENSIgaGVpZ2h0PSI5Mi43ODEzIiByeD0iMi41IiByeT0iMi41IiBzdHlsZT0ic3Ryb2tlOiMzQzdGQzA7c3Ryb2tlLXdpZHRoOjAuNTsiIHdpZHRoPSIxNjYiIHg9IjY5OS41IiB5PSI0MTMuOTg0NCIvPjx0ZXh0IGZpbGw9IiNGRkZGRkYiIGZvbnQtZmFtaWx5PSJzYW5zLXNlcmlmIiBmb250LXNpemU9IjEyIiBmb250LXN0eWxlPSJpdGFsaWMiIGxlbmd0aEFkanVzdD0ic3BhY2luZyIgdGV4dExlbmd0aD0iNzIiIHg9Ijc0Ni41IiB5PSI0MzUuMzI4MSI+JiMxNzE7Y29udGFpbmVyJiMxODc7PC90ZXh0Pjx0ZXh0IGZpbGw9IiNGRkZGRkYiIGZvbnQtZmFtaWx5PSJzYW5zLXNlcmlmIiBmb250LXNpemU9IjE2IiBmb250LXdlaWdodD0iYm9sZCIgbGVuZ3RoQWRqdXN0PSJzcGFjaW5nIiB0ZXh0TGVuZ3RoPSIyNCIgeD0iNzUwLjUiIHk9IjQ1MS45NTMxIj5BUEk8L3RleHQ+PHRleHQgZmlsbD0iI0ZGRkZGRiIgZm9udC1mYW1pbHk9InNhbnMtc2VyaWYiIGZvbnQtc2l6ZT0iMTYiIGZvbnQtd2VpZ2h0PSJib2xkIiBsZW5ndGhBZGp1c3Q9InNwYWNpbmciIHRleHRMZW5ndGg9IjgiIHg9Ijc3NC41IiB5PSI0NTEuOTUzMSI+JiMxNjA7PC90ZXh0Pjx0ZXh0IGZpbGw9IiNGRkZGRkYiIGZvbnQtZmFtaWx5PSJzYW5zLXNlcmlmIiBmb250LXNpemU9IjE2IiBmb250LXdlaWdodD0iYm9sZCIgbGVuZ3RoQWRqdXN0PSJzcGFjaW5nIiB0ZXh0TGVuZ3RoPSIzMiIgeD0iNzgyLjUiIHk9IjQ1MS45NTMxIj4mIzMyNTkzOyYjMjA4NTE7PC90ZXh0Pjx0ZXh0IGZpbGw9IiNGRkZGRkYiIGZvbnQtZmFtaWx5PSJzYW5zLXNlcmlmIiBmb250LXNpemU9IjEyIiBmb250LXN0eWxlPSJpdGFsaWMiIGxlbmd0aEFkanVzdD0ic3BhY2luZyIgdGV4dExlbmd0aD0iNDciIHg9IjcwOS41IiB5PSI0NjUuMjk2OSI+W1NwcmluZzwvdGV4dD48dGV4dCBmaWxsPSIjRkZGRkZGIiBmb250LWZhbWlseT0ic2Fucy1zZXJpZiIgZm9udC1zaXplPSIxMiIgZm9udC1zdHlsZT0iaXRhbGljIiBsZW5ndGhBZGp1c3Q9InNwYWNpbmciIHRleHRMZW5ndGg9IjYiIHg9Ijc1Ni41IiB5PSI0NjUuMjk2OSI+JiMxNjA7PC90ZXh0Pjx0ZXh0IGZpbGw9IiNGRkZGRkYiIGZvbnQtZmFtaWx5PSJzYW5zLXNlcmlmIiBmb250LXNpemU9IjEyIiBmb250LXN0eWxlPSJpdGFsaWMiIGxlbmd0aEFkanVzdD0ic3BhY2luZyIgdGV4dExlbmd0aD0iMzQiIHg9Ijc2Mi41IiB5PSI0NjUuMjk2OSI+Q2xvdWQ8L3RleHQ+PHRleHQgZmlsbD0iI0ZGRkZGRiIgZm9udC1mYW1pbHk9InNhbnMtc2VyaWYiIGZvbnQtc2l6ZT0iMTIiIGZvbnQtc3R5bGU9Iml0YWxpYyIgbGVuZ3RoQWRqdXN0PSJzcGFjaW5nIiB0ZXh0TGVuZ3RoPSI2IiB4PSI3OTYuNSIgeT0iNDY1LjI5NjkiPiYjMTYwOzwvdGV4dD48dGV4dCBmaWxsPSIjRkZGRkZGIiBmb250LWZhbWlseT0ic2Fucy1zZXJpZiIgZm9udC1zaXplPSIxMiIgZm9udC1zdHlsZT0iaXRhbGljIiBsZW5ndGhBZGp1c3Q9InNwYWNpbmciIHRleHRMZW5ndGg9IjUzIiB4PSI4MDIuNSIgeT0iNDY1LjI5NjkiPkdhdGV3YXldPC90ZXh0Pjx0ZXh0IGZpbGw9IiNGRkZGRkYiIGZvbnQtZmFtaWx5PSJzYW5zLXNlcmlmIiBmb250LXNpemU9IjE0IiBsZW5ndGhBZGp1c3Q9InNwYWNpbmciIHRleHRMZW5ndGg9IjciIHg9Ijc3OSIgeT0iNDgwLjAzMTMiPiYjMTYwOzwvdGV4dD48dGV4dCBmaWxsPSIjRkZGRkZGIiBmb250LWZhbWlseT0ic2Fucy1zZXJpZiIgZm9udC1zaXplPSIxNCIgbGVuZ3RoQWRqdXN0PSJzcGFjaW5nIiB0ZXh0TGVuZ3RoPSI1NiIgeD0iNzIzIiB5PSI0OTUuMDE1NiI+JiMzMjQ3OTsmIzE5OTY4OyYjMzE2NDk7JiMyOTcwMjs8L3RleHQ+PHRleHQgZmlsbD0iI0ZGRkZGRiIgZm9udC1mYW1pbHk9InNhbnMtc2VyaWYiIGZvbnQtc2l6ZT0iMTQiIGxlbmd0aEFkanVzdD0ic3BhY2luZyIgdGV4dExlbmd0aD0iNyIgeD0iNzc5IiB5PSI0OTUuMDE1NiI+JiMxNjA7PC90ZXh0Pjx0ZXh0IGZpbGw9IiNGRkZGRkYiIGZvbnQtZmFtaWx5PSJzYW5zLXNlcmlmIiBmb250LXNpemU9IjE0IiBsZW5ndGhBZGp1c3Q9InNwYWNpbmciIHRleHRMZW5ndGg9IjIxIiB4PSI3ODYiIHk9IjQ5NS4wMTU2Ij5BUEk8L3RleHQ+PHRleHQgZmlsbD0iI0ZGRkZGRiIgZm9udC1mYW1pbHk9InNhbnMtc2VyaWYiIGZvbnQtc2l6ZT0iMTQiIGxlbmd0aEFkanVzdD0ic3BhY2luZyIgdGV4dExlbmd0aD0iNyIgeD0iODA3IiB5PSI0OTUuMDE1NiI+JiMxNjA7PC90ZXh0Pjx0ZXh0IGZpbGw9IiNGRkZGRkYiIGZvbnQtZmFtaWx5PSJzYW5zLXNlcmlmIiBmb250LXNpemU9IjE0IiBsZW5ndGhBZGp1c3Q9InNwYWNpbmciIHRleHRMZW5ndGg9IjI4IiB4PSI4MTQiIHk9IjQ5NS4wMTU2Ij4mIzI1NTA5OyYjMjE0NzU7PC90ZXh0PjwvZz48IS0tZW50aXR5IGF1dGhfc2VydmljZS0tPjxnIGlkPSJlbGVtX2F1dGhfc2VydmljZSI+PHBhdGggZD0iTTYsNTkwLjk4NDQgQzYsNTgwLjk4NDQgOTAuNSw1ODAuOTg0NCA5MC41LDU4MC45ODQ0IEM5MC41LDU4MC45ODQ0IDE3NSw1ODAuOTg0NCAxNzUsNTkwLjk4NDQgTDE3NSw2NzIuNzY1NiBDMTc1LDY4Mi43NjU2IDkwLjUsNjgyLjc2NTYgOTAuNSw2ODIuNzY1NiBDOTAuNSw2ODIuNzY1NiA2LDY4Mi43NjU2IDYsNjcyLjc2NTYgTDYsNTkwLjk4NDQgIiBmaWxsPSIjNDM4REQ1IiBzdHlsZT0ic3Ryb2tlOiMzQzdGQzA7c3Ryb2tlLXdpZHRoOjAuNTsiLz48cGF0aCBkPSJNNiw1OTAuOTg0NCBDNiw2MDAuOTg0NCA5MC41LDYwMC45ODQ0IDkwLjUsNjAwLjk4NDQgQzkwLjUsNjAwLjk4NDQgMTc1LDYwMC45ODQ0IDE3NSw1OTAuOTg0NCAiIGZpbGw9Im5vbmUiIHN0eWxlPSJzdHJva2U6IzNDN0ZDMDtzdHJva2Utd2lkdGg6MC41OyIvPjx0ZXh0IGZpbGw9IiNGRkZGRkYiIGZvbnQtZmFtaWx5PSJzYW5zLXNlcmlmIiBmb250LXNpemU9IjEyIiBmb250LXN0eWxlPSJpdGFsaWMiIGxlbmd0aEFkanVzdD0ic3BhY2luZyIgdGV4dExlbmd0aD0iNzIiIHg9IjU0LjUiIHk9IjYxNi4zMjgxIj4mIzE3MTtjb250YWluZXImIzE4Nzs8L3RleHQ+PHRleHQgZmlsbD0iI0ZGRkZGRiIgZm9udC1mYW1pbHk9InNhbnMtc2VyaWYiIGZvbnQtc2l6ZT0iMTYiIGZvbnQtd2VpZ2h0PSJib2xkIiBsZW5ndGhBZGp1c3Q9InNwYWNpbmciIHRleHRMZW5ndGg9Ijk2IiB4PSI0Mi41IiB5PSI2MzIuOTUzMSI+JiMzNTc0ODsmIzM1Nzc3OyYjMjU0ODA7JiMyNjQzNTsmIzI2MzgxOyYjMjExNTM7PC90ZXh0Pjx0ZXh0IGZpbGw9IiNGRkZGRkYiIGZvbnQtZmFtaWx5PSJzYW5zLXNlcmlmIiBmb250LXNpemU9IjEyIiBmb250LXN0eWxlPSJpdGFsaWMiIGxlbmd0aEFkanVzdD0ic3BhY2luZyIgdGV4dExlbmd0aD0iNDciIHg9IjE2IiB5PSI2NDYuMjk2OSI+W1NwcmluZzwvdGV4dD48dGV4dCBmaWxsPSIjRkZGRkZGIiBmb250LWZhbWlseT0ic2Fucy1zZXJpZiIgZm9udC1zaXplPSIxMiIgZm9udC1zdHlsZT0iaXRhbGljIiBsZW5ndGhBZGp1c3Q9InNwYWNpbmciIHRleHRMZW5ndGg9IjYiIHg9IjYzIiB5PSI2NDYuMjk2OSI+JiMxNjA7PC90ZXh0Pjx0ZXh0IGZpbGw9IiNGRkZGRkYiIGZvbnQtZmFtaWx5PSJzYW5zLXNlcmlmIiBmb250LXNpemU9IjEyIiBmb250LXN0eWxlPSJpdGFsaWMiIGxlbmd0aEFkanVzdD0ic3BhY2luZyIgdGV4dExlbmd0aD0iNTMiIHg9IjY5IiB5PSI2NDYuMjk2OSI+U2VjdXJpdHk8L3RleHQ+PHRleHQgZmlsbD0iI0ZGRkZGRiIgZm9udC1mYW1pbHk9InNhbnMtc2VyaWYiIGZvbnQtc2l6ZT0iMTIiIGZvbnQtc3R5bGU9Iml0YWxpYyIgbGVuZ3RoQWRqdXN0PSJzcGFjaW5nIiB0ZXh0TGVuZ3RoPSI2IiB4PSIxMjIiIHk9IjY0Ni4yOTY5Ij4mIzE2MDs8L3RleHQ+PHRleHQgZmlsbD0iI0ZGRkZGRiIgZm9udC1mYW1pbHk9InNhbnMtc2VyaWYiIGZvbnQtc2l6ZT0iMTIiIGZvbnQtc3R5bGU9Iml0YWxpYyIgbGVuZ3RoQWRqdXN0PSJzcGFjaW5nIiB0ZXh0TGVuZ3RoPSI2IiB4PSIxMjgiIHk9IjY0Ni4yOTY5Ij4rPC90ZXh0Pjx0ZXh0IGZpbGw9IiNGRkZGRkYiIGZvbnQtZmFtaWx5PSJzYW5zLXNlcmlmIiBmb250LXNpemU9IjEyIiBmb250LXN0eWxlPSJpdGFsaWMiIGxlbmd0aEFkanVzdD0ic3BhY2luZyIgdGV4dExlbmd0aD0iNiIgeD0iMTM0IiB5PSI2NDYuMjk2OSI+JiMxNjA7PC90ZXh0Pjx0ZXh0IGZpbGw9IiNGRkZGRkYiIGZvbnQtZmFtaWx5PSJzYW5zLXNlcmlmIiBmb250LXNpemU9IjEyIiBmb250LXN0eWxlPSJpdGFsaWMiIGxlbmd0aEFkanVzdD0ic3BhY2luZyIgdGV4dExlbmd0aD0iMjUiIHg9IjE0MCIgeT0iNjQ2LjI5NjkiPkpXVF08L3RleHQ+PHRleHQgZmlsbD0iI0ZGRkZGRiIgZm9udC1mYW1pbHk9InNhbnMtc2VyaWYiIGZvbnQtc2l6ZT0iMTQiIGxlbmd0aEFkanVzdD0ic3BhY2luZyIgdGV4dExlbmd0aD0iNyIgeD0iODciIHk9IjY2MS4wMzEzIj4mIzE2MDs8L3RleHQ+PHRleHQgZmlsbD0iI0ZGRkZGRiIgZm9udC1mYW1pbHk9InNhbnMtc2VyaWYiIGZvbnQtc2l6ZT0iMTQiIGxlbmd0aEFkanVzdD0ic3BhY2luZyIgdGV4dExlbmd0aD0iMTQwIiB4PSIyMC41IiB5PSI2NzYuMDE1NiI+JiMzMTY0OTsmIzI5NzAyOyYjMjE1OTI7JiMzMDMzMTsmIzI0NDA1OyYjMTIyODk7JiMyNjQzNTsmIzM4NDgwOyYjMzE2NDk7JiMyOTcwMjs8L3RleHQ+PC9nPjwhLS1lbnRpdHkgdXNlcl9zZXJ2aWNlLS0+PGcgaWQ9ImVsZW1fdXNlcl9zZXJ2aWNlIj48cGF0aCBkPSJNMTA0MSw1OTAuOTg0NCBDMTA0MSw1ODAuOTg0NCAxMTI2LjUsNTgwLjk4NDQgMTEyNi41LDU4MC45ODQ0IEMxMTI2LjUsNTgwLjk4NDQgMTIxMiw1ODAuOTg0NCAxMjEyLDU5MC45ODQ0IEwxMjEyLDY3Mi43NjU2IEMxMjEyLDY4Mi43NjU2IDExMjYuNSw2ODIuNzY1NiAxMTI2LjUsNjgyLjc2NTYgQzExMjYuNSw2ODIuNzY1NiAxMDQxLDY4Mi43NjU2IDEwNDEsNjcyLjc2NTYgTDEwNDEsNTkwLjk4NDQgIiBmaWxsPSIjNDM4REQ1IiBzdHlsZT0ic3Ryb2tlOiMzQzdGQzA7c3Ryb2tlLXdpZHRoOjAuNTsiLz48cGF0aCBkPSJNMTA0MSw1OTAuOTg0NCBDMTA0MSw2MDAuOTg0NCAxMTI2LjUsNjAwLjk4NDQgMTEyNi41LDYwMC45ODQ0IEMxMTI2LjUsNjAwLjk4NDQgMTIxMiw2MDAuOTg0NCAxMjEyLDU5MC45ODQ0ICIgZmlsbD0ibm9uZSIgc3R5bGU9InN0cm9rZTojM0M3RkMwO3N0cm9rZS13aWR0aDowLjU7Ii8+PHRleHQgZmlsbD0iI0ZGRkZGRiIgZm9udC1mYW1pbHk9InNhbnMtc2VyaWYiIGZvbnQtc2l6ZT0iMTIiIGZvbnQtc3R5bGU9Iml0YWxpYyIgbGVuZ3RoQWRqdXN0PSJzcGFjaW5nIiB0ZXh0TGVuZ3RoPSI3MiIgeD0iMTA5MC41IiB5PSI2MTYuMzI4MSI+JiMxNzE7Y29udGFpbmVyJiMxODc7PC90ZXh0Pjx0ZXh0IGZpbGw9IiNGRkZGRkYiIGZvbnQtZmFtaWx5PSJzYW5zLXNlcmlmIiBmb250LXNpemU9IjE2IiBmb250LXdlaWdodD0iYm9sZCIgbGVuZ3RoQWRqdXN0PSJzcGFjaW5nIiB0ZXh0TGVuZ3RoPSI2NCIgeD0iMTA5NC41IiB5PSI2MzIuOTUzMSI+JiMyOTk5MjsmIzI1MTQzOyYjMjYzODE7JiMyMTE1Mzs8L3RleHQ+PHRleHQgZmlsbD0iI0ZGRkZGRiIgZm9udC1mYW1pbHk9InNhbnMtc2VyaWYiIGZvbnQtc2l6ZT0iMTIiIGZvbnQtc3R5bGU9Iml0YWxpYyIgbGVuZ3RoQWRqdXN0PSJzcGFjaW5nIiB0ZXh0TGVuZ3RoPSI0NyIgeD0iMTA1MSIgeT0iNjQ2LjI5NjkiPltTcHJpbmc8L3RleHQ+PHRleHQgZmlsbD0iI0ZGRkZGRiIgZm9udC1mYW1pbHk9InNhbnMtc2VyaWYiIGZvbnQtc2l6ZT0iMTIiIGZvbnQtc3R5bGU9Iml0YWxpYyIgbGVuZ3RoQWRqdXN0PSJzcGFjaW5nIiB0ZXh0TGVuZ3RoPSI2IiB4PSIxMDk4IiB5PSI2NDYuMjk2OSI+JiMxNjA7PC90ZXh0Pjx0ZXh0IGZpbGw9IiNGRkZGRkYiIGZvbnQtZmFtaWx5PSJzYW5zLXNlcmlmIiBmb250LXNpemU9IjEyIiBmb250LXN0eWxlPSJpdGFsaWMiIGxlbmd0aEFkanVzdD0ic3BhY2luZyIgdGV4dExlbmd0aD0iMjciIHg9IjExMDQiIHk9IjY0Ni4yOTY5Ij5Cb290PC90ZXh0Pjx0ZXh0IGZpbGw9IiNGRkZGRkYiIGZvbnQtZmFtaWx5PSJzYW5zLXNlcmlmIiBmb250LXNpemU9IjEyIiBmb250LXN0eWxlPSJpdGFsaWMiIGxlbmd0aEFkanVzdD0ic3BhY2luZyIgdGV4dExlbmd0aD0iNiIgeD0iMTEzMSIgeT0iNjQ2LjI5NjkiPiYjMTYwOzwvdGV4dD48dGV4dCBmaWxsPSIjRkZGRkZGIiBmb250LWZhbWlseT0ic2Fucy1zZXJpZiIgZm9udC1zaXplPSIxMiIgZm9udC1zdHlsZT0iaXRhbGljIiBsZW5ndGhBZGp1c3Q9InNwYWNpbmciIHRleHRMZW5ndGg9IjYiIHg9IjExMzciIHk9IjY0Ni4yOTY5Ij4rPC90ZXh0Pjx0ZXh0IGZpbGw9IiNGRkZGRkYiIGZvbnQtZmFtaWx5PSJzYW5zLXNlcmlmIiBmb250LXNpemU9IjEyIiBmb250LXN0eWxlPSJpdGFsaWMiIGxlbmd0aEFkanVzdD0ic3BhY2luZyIgdGV4dExlbmd0aD0iNiIgeD0iMTE0MyIgeT0iNjQ2LjI5NjkiPiYjMTYwOzwvdGV4dD48dGV4dCBmaWxsPSIjRkZGRkZGIiBmb250LWZhbWlseT0ic2Fucy1zZXJpZiIgZm9udC1zaXplPSIxMiIgZm9udC1zdHlsZT0iaXRhbGljIiBsZW5ndGhBZGp1c3Q9InNwYWNpbmciIHRleHRMZW5ndGg9IjUzIiB4PSIxMTQ5IiB5PSI2NDYuMjk2OSI+TXlCYXRpc108L3RleHQ+PHRleHQgZmlsbD0iI0ZGRkZGRiIgZm9udC1mYW1pbHk9InNhbnMtc2VyaWYiIGZvbnQtc2l6ZT0iMTQiIGxlbmd0aEFkanVzdD0ic3BhY2luZyIgdGV4dExlbmd0aD0iNyIgeD0iMTEyMyIgeT0iNjYxLjAzMTMiPiYjMTYwOzwvdGV4dD48dGV4dCBmaWxsPSIjRkZGRkZGIiBmb250LWZhbWlseT0ic2Fucy1zZXJpZiIgZm9udC1zaXplPSIxNCIgbGVuZ3RoQWRqdXN0PSJzcGFjaW5nIiB0ZXh0TGVuZ3RoPSI4NCIgeD0iMTA4NC41IiB5PSI2NzYuMDE1NiI+JiMyOTk5MjsmIzI1MTQzOyYjMjA0NDk7JiMyNDY4NzsmIzMxNjQ5OyYjMjk3MDI7PC90ZXh0PjwvZz48IS0tZW50aXR5IGNhdF9zZXJ2aWNlLS0+PGcgaWQ9ImVsZW1fY2F0X3NlcnZpY2UiPjxwYXRoIGQ9Ik0xMjQ3LDU5MC45ODQ0IEMxMjQ3LDU4MC45ODQ0IDEzMzIuNSw1ODAuOTg0NCAxMzMyLjUsNTgwLjk4NDQgQzEzMzIuNSw1ODAuOTg0NCAxNDE4LDU4MC45ODQ0IDE0MTgsNTkwLjk4NDQgTDE0MTgsNjcyLjc2NTYgQzE0MTgsNjgyLjc2NTYgMTMzMi41LDY4Mi43NjU2IDEzMzIuNSw2ODIuNzY1NiBDMTMzMi41LDY4Mi43NjU2IDEyNDcsNjgyLjc2NTYgMTI0Nyw2NzIuNzY1NiBMMTI0Nyw1OTAuOTg0NCAiIGZpbGw9IiM0MzhERDUiIHN0eWxlPSJzdHJva2U6IzNDN0ZDMDtzdHJva2Utd2lkdGg6MC41OyIvPjxwYXRoIGQ9Ik0xMjQ3LDU5MC45ODQ0IEMxMjQ3LDYwMC45ODQ0IDEzMzIuNSw2MDAuOTg0NCAxMzMyLjUsNjAwLjk4NDQgQzEzMzIuNSw2MDAuOTg0NCAxNDE4LDYwMC45ODQ0IDE0MTgsNTkwLjk4NDQgIiBmaWxsPSJub25lIiBzdHlsZT0ic3Ryb2tlOiMzQzdGQzA7c3Ryb2tlLXdpZHRoOjAuNTsiLz48dGV4dCBmaWxsPSIjRkZGRkZGIiBmb250LWZhbWlseT0ic2Fucy1zZXJpZiIgZm9udC1zaXplPSIxMiIgZm9udC1zdHlsZT0iaXRhbGljIiBsZW5ndGhBZGp1c3Q9InNwYWNpbmciIHRleHRMZW5ndGg9IjcyIiB4PSIxMjk2LjUiIHk9IjYxNi4zMjgxIj4mIzE3MTtjb250YWluZXImIzE4Nzs8L3RleHQ+PHRleHQgZmlsbD0iI0ZGRkZGRiIgZm9udC1mYW1pbHk9InNhbnMtc2VyaWYiIGZvbnQtc2l6ZT0iMTYiIGZvbnQtd2VpZ2h0PSJib2xkIiBsZW5ndGhBZGp1c3Q9InNwYWNpbmciIHRleHRMZW5ndGg9IjgwIiB4PSIxMjkyLjUiIHk9IjYzMi45NTMxIj4mIzI3OTY5OyYjMjgwMTA7JiMyOTQ4MzsmIzI2MzgxOyYjMjExNTM7PC90ZXh0Pjx0ZXh0IGZpbGw9IiNGRkZGRkYiIGZvbnQtZmFtaWx5PSJzYW5zLXNlcmlmIiBmb250LXNpemU9IjEyIiBmb250LXN0eWxlPSJpdGFsaWMiIGxlbmd0aEFkanVzdD0ic3BhY2luZyIgdGV4dExlbmd0aD0iNDciIHg9IjEyNTciIHk9IjY0Ni4yOTY5Ij5bU3ByaW5nPC90ZXh0Pjx0ZXh0IGZpbGw9IiNGRkZGRkYiIGZvbnQtZmFtaWx5PSJzYW5zLXNlcmlmIiBmb250LXNpemU9IjEyIiBmb250LXN0eWxlPSJpdGFsaWMiIGxlbmd0aEFkanVzdD0ic3BhY2luZyIgdGV4dExlbmd0aD0iNiIgeD0iMTMwNCIgeT0iNjQ2LjI5NjkiPiYjMTYwOzwvdGV4dD48dGV4dCBmaWxsPSIjRkZGRkZGIiBmb250LWZhbWlseT0ic2Fucy1zZXJpZiIgZm9udC1zaXplPSIxMiIgZm9udC1zdHlsZT0iaXRhbGljIiBsZW5ndGhBZGp1c3Q9InNwYWNpbmciIHRleHRMZW5ndGg9IjI3IiB4PSIxMzEwIiB5PSI2NDYuMjk2OSI+Qm9vdDwvdGV4dD48dGV4dCBmaWxsPSIjRkZGRkZGIiBmb250LWZhbWlseT0ic2Fucy1zZXJpZiIgZm9udC1zaXplPSIxMiIgZm9udC1zdHlsZT0iaXRhbGljIiBsZW5ndGhBZGp1c3Q9InNwYWNpbmciIHRleHRMZW5ndGg9IjYiIHg9IjEzMzciIHk9IjY0Ni4yOTY5Ij4mIzE2MDs8L3RleHQ+PHRleHQgZmlsbD0iI0ZGRkZGRiIgZm9udC1mYW1pbHk9InNhbnMtc2VyaWYiIGZvbnQtc2l6ZT0iMTIiIGZvbnQtc3R5bGU9Iml0YWxpYyIgbGVuZ3RoQWRqdXN0PSJzcGFjaW5nIiB0ZXh0TGVuZ3RoPSI2IiB4PSIxMzQzIiB5PSI2NDYuMjk2OSI+KzwvdGV4dD48dGV4dCBmaWxsPSIjRkZGRkZGIiBmb250LWZhbWlseT0ic2Fucy1zZXJpZiIgZm9udC1zaXplPSIxMiIgZm9udC1zdHlsZT0iaXRhbGljIiBsZW5ndGhBZGp1c3Q9InNwYWNpbmciIHRleHRMZW5ndGg9IjYiIHg9IjEzNDkiIHk9IjY0Ni4yOTY5Ij4mIzE2MDs8L3RleHQ+PHRleHQgZmlsbD0iI0ZGRkZGRiIgZm9udC1mYW1pbHk9InNhbnMtc2VyaWYiIGZvbnQtc2l6ZT0iMTIiIGZvbnQtc3R5bGU9Iml0YWxpYyIgbGVuZ3RoQWRqdXN0PSJzcGFjaW5nIiB0ZXh0TGVuZ3RoPSI1MyIgeD0iMTM1NSIgeT0iNjQ2LjI5NjkiPk15QmF0aXNdPC90ZXh0Pjx0ZXh0IGZpbGw9IiNGRkZGRkYiIGZvbnQtZmFtaWx5PSJzYW5zLXNlcmlmIiBmb250LXNpemU9IjE0IiBsZW5ndGhBZGp1c3Q9InNwYWNpbmciIHRleHRMZW5ndGg9IjciIHg9IjEzMjkiIHk9IjY2MS4wMzEzIj4mIzE2MDs8L3RleHQ+PHRleHQgZmlsbD0iI0ZGRkZGRiIgZm9udC1mYW1pbHk9InNhbnMtc2VyaWYiIGZvbnQtc2l6ZT0iMTQiIGxlbmd0aEFkanVzdD0ic3BhY2luZyIgdGV4dExlbmd0aD0iMTQwIiB4PSIxMjYyLjUiIHk9IjY3Ni4wMTU2Ij4mIzI3OTY5OyYjMjgwMTA7JiMyOTQ4MzsmIzIwNDQ5OyYjMjQ2ODc7JiMzMTY0OTsmIzI5NzAyOyYjMTIyODk7JiMyMzQ1NzsmIzI2NjgwOzwvdGV4dD48L2c+PCEtLWVudGl0eSB2b2x1bnRlZXJfc2VydmljZS0tPjxnIGlkPSJlbGVtX3ZvbHVudGVlcl9zZXJ2aWNlIj48cGF0aCBkPSJNODM1LDU5MC45ODQ0IEM4MzUsNTgwLjk4NDQgOTIwLjUsNTgwLjk4NDQgOTIwLjUsNTgwLjk4NDQgQzkyMC41LDU4MC45ODQ0IDEwMDYsNTgwLjk4NDQgMTAwNiw1OTAuOTg0NCBMMTAwNiw2NzIuNzY1NiBDMTAwNiw2ODIuNzY1NiA5MjAuNSw2ODIuNzY1NiA5MjAuNSw2ODIuNzY1NiBDOTIwLjUsNjgyLjc2NTYgODM1LDY4Mi43NjU2IDgzNSw2NzIuNzY1NiBMODM1LDU5MC45ODQ0ICIgZmlsbD0iIzQzOERENSIgc3R5bGU9InN0cm9rZTojM0M3RkMwO3N0cm9rZS13aWR0aDowLjU7Ii8+PHBhdGggZD0iTTgzNSw1OTAuOTg0NCBDODM1LDYwMC45ODQ0IDkyMC41LDYwMC45ODQ0IDkyMC41LDYwMC45ODQ0IEM5MjAuNSw2MDAuOTg0NCAxMDA2LDYwMC45ODQ0IDEwMDYsNTkwLjk4NDQgIiBmaWxsPSJub25lIiBzdHlsZT0ic3Ryb2tlOiMzQzdGQzA7c3Ryb2tlLXdpZHRoOjAuNTsiLz48dGV4dCBmaWxsPSIjRkZGRkZGIiBmb250LWZhbWlseT0ic2Fucy1zZXJpZiIgZm9udC1zaXplPSIxMiIgZm9udC1zdHlsZT0iaXRhbGljIiBsZW5ndGhBZGp1c3Q9InNwYWNpbmciIHRleHRMZW5ndGg9IjcyIiB4PSI4ODQuNSIgeT0iNjE2LjMyODEiPiYjMTcxO2NvbnRhaW5lciYjMTg3OzwvdGV4dD48dGV4dCBmaWxsPSIjRkZGRkZGIiBmb250LWZhbWlseT0ic2Fucy1zZXJpZiIgZm9udC1zaXplPSIxNiIgZm9udC13ZWlnaHQ9ImJvbGQiIGxlbmd0aEFkanVzdD0ic3BhY2luZyIgdGV4dExlbmd0aD0iODAiIHg9Ijg4MC41IiB5PSI2MzIuOTUzMSI+JiMyNDUzNTsmIzI0ODk1OyYjMzI3NzM7JiMyNjM4MTsmIzIxMTUzOzwvdGV4dD48dGV4dCBmaWxsPSIjRkZGRkZGIiBmb250LWZhbWlseT0ic2Fucy1zZXJpZiIgZm9udC1zaXplPSIxMiIgZm9udC1zdHlsZT0iaXRhbGljIiBsZW5ndGhBZGp1c3Q9InNwYWNpbmciIHRleHRMZW5ndGg9IjQ3IiB4PSI4NDUiIHk9IjY0Ni4yOTY5Ij5bU3ByaW5nPC90ZXh0Pjx0ZXh0IGZpbGw9IiNGRkZGRkYiIGZvbnQtZmFtaWx5PSJzYW5zLXNlcmlmIiBmb250LXNpemU9IjEyIiBmb250LXN0eWxlPSJpdGFsaWMiIGxlbmd0aEFkanVzdD0ic3BhY2luZyIgdGV4dExlbmd0aD0iNiIgeD0iODkyIiB5PSI2NDYuMjk2OSI+JiMxNjA7PC90ZXh0Pjx0ZXh0IGZpbGw9IiNGRkZGRkYiIGZvbnQtZmFtaWx5PSJzYW5zLXNlcmlmIiBmb250LXNpemU9IjEyIiBmb250LXN0eWxlPSJpdGFsaWMiIGxlbmd0aEFkanVzdD0ic3BhY2luZyIgdGV4dExlbmd0aD0iMjciIHg9Ijg5OCIgeT0iNjQ2LjI5NjkiPkJvb3Q8L3RleHQ+PHRleHQgZmlsbD0iI0ZGRkZGRiIgZm9udC1mYW1pbHk9InNhbnMtc2VyaWYiIGZvbnQtc2l6ZT0iMTIiIGZvbnQtc3R5bGU9Iml0YWxpYyIgbGVuZ3RoQWRqdXN0PSJzcGFjaW5nIiB0ZXh0TGVuZ3RoPSI2IiB4PSI5MjUiIHk9IjY0Ni4yOTY5Ij4mIzE2MDs8L3RleHQ+PHRleHQgZmlsbD0iI0ZGRkZGRiIgZm9udC1mYW1pbHk9InNhbnMtc2VyaWYiIGZvbnQtc2l6ZT0iMTIiIGZvbnQtc3R5bGU9Iml0YWxpYyIgbGVuZ3RoQWRqdXN0PSJzcGFjaW5nIiB0ZXh0TGVuZ3RoPSI2IiB4PSI5MzEiIHk9IjY0Ni4yOTY5Ij4rPC90ZXh0Pjx0ZXh0IGZpbGw9IiNGRkZGRkYiIGZvbnQtZmFtaWx5PSJzYW5zLXNlcmlmIiBmb250LXNpemU9IjEyIiBmb250LXN0eWxlPSJpdGFsaWMiIGxlbmd0aEFkanVzdD0ic3BhY2luZyIgdGV4dExlbmd0aD0iNiIgeD0iOTM3IiB5PSI2NDYuMjk2OSI+JiMxNjA7PC90ZXh0Pjx0ZXh0IGZpbGw9IiNGRkZGRkYiIGZvbnQtZmFtaWx5PSJzYW5zLXNlcmlmIiBmb250LXNpemU9IjEyIiBmb250LXN0eWxlPSJpdGFsaWMiIGxlbmd0aEFkanVzdD0ic3BhY2luZyIgdGV4dExlbmd0aD0iNTMiIHg9Ijk0MyIgeT0iNjQ2LjI5NjkiPk15QmF0aXNdPC90ZXh0Pjx0ZXh0IGZpbGw9IiNGRkZGRkYiIGZvbnQtZmFtaWx5PSJzYW5zLXNlcmlmIiBmb250LXNpemU9IjE0IiBsZW5ndGhBZGp1c3Q9InNwYWNpbmciIHRleHRMZW5ndGg9IjciIHg9IjkxNyIgeT0iNjYxLjAzMTMiPiYjMTYwOzwvdGV4dD48dGV4dCBmaWxsPSIjRkZGRkZGIiBmb250LWZhbWlseT0ic2Fucy1zZXJpZiIgZm9udC1zaXplPSIxNCIgbGVuZ3RoQWRqdXN0PSJzcGFjaW5nIiB0ZXh0TGVuZ3RoPSIxNDAiIHg9Ijg1MC41IiB5PSI2NzYuMDE1NiI+JiMyNDUzNTsmIzI0ODk1OyYjMzI3NzM7JiMzMDAwMzsmIzM1ODMxOyYjMTIyODk7JiMyMDIxOTsmIzIxMTUzOyYjMzE2NDk7JiMyOTcwMjs8L3RleHQ+PC9nPjwhLS1lbnRpdHkgYWRvcHRpb25fc2VydmljZS0tPjxnIGlkPSJlbGVtX2Fkb3B0aW9uX3NlcnZpY2UiPjxwYXRoIGQ9Ik0yMTAuNSw1OTAuOTg0NCBDMjEwLjUsNTgwLjk4NDQgMjk3LjUsNTgwLjk4NDQgMjk3LjUsNTgwLjk4NDQgQzI5Ny41LDU4MC45ODQ0IDM4NC41LDU4MC45ODQ0IDM4NC41LDU5MC45ODQ0IEwzODQuNSw2NzIuNzY1NiBDMzg0LjUsNjgyLjc2NTYgMjk3LjUsNjgyLjc2NTYgMjk3LjUsNjgyLjc2NTYgQzI5Ny41LDY4Mi43NjU2IDIxMC41LDY4Mi43NjU2IDIxMC41LDY3Mi43NjU2IEwyMTAuNSw1OTAuOTg0NCAiIGZpbGw9IiM0MzhERDUiIHN0eWxlPSJzdHJva2U6IzNDN0ZDMDtzdHJva2Utd2lkdGg6MC41OyIvPjxwYXRoIGQ9Ik0yMTAuNSw1OTAuOTg0NCBDMjEwLjUsNjAwLjk4NDQgMjk3LjUsNjAwLjk4NDQgMjk3LjUsNjAwLjk4NDQgQzI5Ny41LDYwMC45ODQ0IDM4NC41LDYwMC45ODQ0IDM4NC41LDU5MC45ODQ0ICIgZmlsbD0ibm9uZSIgc3R5bGU9InN0cm9rZTojM0M3RkMwO3N0cm9rZS13aWR0aDowLjU7Ii8+PHRleHQgZmlsbD0iI0ZGRkZGRiIgZm9udC1mYW1pbHk9InNhbnMtc2VyaWYiIGZvbnQtc2l6ZT0iMTIiIGZvbnQtc3R5bGU9Iml0YWxpYyIgbGVuZ3RoQWRqdXN0PSJzcGFjaW5nIiB0ZXh0TGVuZ3RoPSI3MiIgeD0iMjYxLjUiIHk9IjYxNi4zMjgxIj4mIzE3MTtjb250YWluZXImIzE4Nzs8L3RleHQ+PHRleHQgZmlsbD0iI0ZGRkZGRiIgZm9udC1mYW1pbHk9InNhbnMtc2VyaWYiIGZvbnQtc2l6ZT0iMTYiIGZvbnQtd2VpZ2h0PSJib2xkIiBsZW5ndGhBZGp1c3Q9InNwYWNpbmciIHRleHRMZW5ndGg9IjY0IiB4PSIyNjUuNSIgeT0iNjMyLjk1MzEiPiYjMzkwNDY7JiMyMDg1OTsmIzI2MzgxOyYjMjExNTM7PC90ZXh0Pjx0ZXh0IGZpbGw9IiNGRkZGRkYiIGZvbnQtZmFtaWx5PSJzYW5zLXNlcmlmIiBmb250LXNpemU9IjEyIiBmb250LXN0eWxlPSJpdGFsaWMiIGxlbmd0aEFkanVzdD0ic3BhY2luZyIgdGV4dExlbmd0aD0iNDciIHg9IjIyMiIgeT0iNjQ2LjI5NjkiPltTcHJpbmc8L3RleHQ+PHRleHQgZmlsbD0iI0ZGRkZGRiIgZm9udC1mYW1pbHk9InNhbnMtc2VyaWYiIGZvbnQtc2l6ZT0iMTIiIGZvbnQtc3R5bGU9Iml0YWxpYyIgbGVuZ3RoQWRqdXN0PSJzcGFjaW5nIiB0ZXh0TGVuZ3RoPSI2IiB4PSIyNjkiIHk9IjY0Ni4yOTY5Ij4mIzE2MDs8L3RleHQ+PHRleHQgZmlsbD0iI0ZGRkZGRiIgZm9udC1mYW1pbHk9InNhbnMtc2VyaWYiIGZvbnQtc2l6ZT0iMTIiIGZvbnQtc3R5bGU9Iml0YWxpYyIgbGVuZ3RoQWRqdXN0PSJzcGFjaW5nIiB0ZXh0TGVuZ3RoPSIyNyIgeD0iMjc1IiB5PSI2NDYuMjk2OSI+Qm9vdDwvdGV4dD48dGV4dCBmaWxsPSIjRkZGRkZGIiBmb250LWZhbWlseT0ic2Fucy1zZXJpZiIgZm9udC1zaXplPSIxMiIgZm9udC1zdHlsZT0iaXRhbGljIiBsZW5ndGhBZGp1c3Q9InNwYWNpbmciIHRleHRMZW5ndGg9IjYiIHg9IjMwMiIgeT0iNjQ2LjI5NjkiPiYjMTYwOzwvdGV4dD48dGV4dCBmaWxsPSIjRkZGRkZGIiBmb250LWZhbWlseT0ic2Fucy1zZXJpZiIgZm9udC1zaXplPSIxMiIgZm9udC1zdHlsZT0iaXRhbGljIiBsZW5ndGhBZGp1c3Q9InNwYWNpbmciIHRleHRMZW5ndGg9IjYiIHg9IjMwOCIgeT0iNjQ2LjI5NjkiPis8L3RleHQ+PHRleHQgZmlsbD0iI0ZGRkZGRiIgZm9udC1mYW1pbHk9InNhbnMtc2VyaWYiIGZvbnQtc2l6ZT0iMTIiIGZvbnQtc3R5bGU9Iml0YWxpYyIgbGVuZ3RoQWRqdXN0PSJzcGFjaW5nIiB0ZXh0TGVuZ3RoPSI2IiB4PSIzMTQiIHk9IjY0Ni4yOTY5Ij4mIzE2MDs8L3RleHQ+PHRleHQgZmlsbD0iI0ZGRkZGRiIgZm9udC1mYW1pbHk9InNhbnMtc2VyaWYiIGZvbnQtc2l6ZT0iMTIiIGZvbnQtc3R5bGU9Iml0YWxpYyIgbGVuZ3RoQWRqdXN0PSJzcGFjaW5nIiB0ZXh0TGVuZ3RoPSI1MyIgeD0iMzIwIiB5PSI2NDYuMjk2OSI+TXlCYXRpc108L3RleHQ+PHRleHQgZmlsbD0iI0ZGRkZGRiIgZm9udC1mYW1pbHk9InNhbnMtc2VyaWYiIGZvbnQtc2l6ZT0iMTQiIGxlbmd0aEFkanVzdD0ic3BhY2luZyIgdGV4dExlbmd0aD0iNyIgeD0iMjk0IiB5PSI2NjEuMDMxMyI+JiMxNjA7PC90ZXh0Pjx0ZXh0IGZpbGw9IiNGRkZGRkYiIGZvbnQtZmFtaWx5PSJzYW5zLXNlcmlmIiBmb250LXNpemU9IjE0IiBsZW5ndGhBZGp1c3Q9InNwYWNpbmciIHRleHRMZW5ndGg9IjE1NCIgeD0iMjIwLjUiIHk9IjY3Ni4wMTU2Ij4mIzM5MDQ2OyYjMjA4NTk7JiMzMDAwMzsmIzM1ODMxOyYjMjM0NTc7JiMyNTIwOTsmIzEyMjg5OyYjMzY4Mjc7JiMyNDIzMDsmIzM2MzE5OyYjMzYzOTQ7PC90ZXh0PjwvZz48IS0tZW50aXR5IG1lZGljYWxfc2VydmljZS0tPjxnIGlkPSJlbGVtX21lZGljYWxfc2VydmljZSI+PHBhdGggZD0iTTQxOS41LDU5MC45ODQ0IEM0MTkuNSw1ODAuOTg0NCA1MDYuNSw1ODAuOTg0NCA1MDYuNSw1ODAuOTg0NCBDNTA2LjUsNTgwLjk4NDQgNTkzLjUsNTgwLjk4NDQgNTkzLjUsNTkwLjk4NDQgTDU5My41LDY3Mi43NjU2IEM1OTMuNSw2ODIuNzY1NiA1MDYuNSw2ODIuNzY1NiA1MDYuNSw2ODIuNzY1NiBDNTA2LjUsNjgyLjc2NTYgNDE5LjUsNjgyLjc2NTYgNDE5LjUsNjcyLjc2NTYgTDQxOS41LDU5MC45ODQ0ICIgZmlsbD0iIzQzOERENSIgc3R5bGU9InN0cm9rZTojM0M3RkMwO3N0cm9rZS13aWR0aDowLjU7Ii8+PHBhdGggZD0iTTQxOS41LDU5MC45ODQ0IEM0MTkuNSw2MDAuOTg0NCA1MDYuNSw2MDAuOTg0NCA1MDYuNSw2MDAuOTg0NCBDNTA2LjUsNjAwLjk4NDQgNTkzLjUsNjAwLjk4NDQgNTkzLjUsNTkwLjk4NDQgIiBmaWxsPSJub25lIiBzdHlsZT0ic3Ryb2tlOiMzQzdGQzA7c3Ryb2tlLXdpZHRoOjAuNTsiLz48dGV4dCBmaWxsPSIjRkZGRkZGIiBmb250LWZhbWlseT0ic2Fucy1zZXJpZiIgZm9udC1zaXplPSIxMiIgZm9udC1zdHlsZT0iaXRhbGljIiBsZW5ndGhBZGp1c3Q9InNwYWNpbmciIHRleHRMZW5ndGg9IjcyIiB4PSI0NzAuNSIgeT0iNjE2LjMyODEiPiYjMTcxO2NvbnRhaW5lciYjMTg3OzwvdGV4dD48dGV4dCBmaWxsPSIjRkZGRkZGIiBmb250LWZhbWlseT0ic2Fucy1zZXJpZiIgZm9udC1zaXplPSIxNiIgZm9udC13ZWlnaHQ9ImJvbGQiIGxlbmd0aEFkanVzdD0ic3BhY2luZyIgdGV4dExlbmd0aD0iOTYiIHg9IjQ1OC41IiB5PSI2MzIuOTUzMSI+JiMyMTMwNzsmIzMwMTAzOyYjMjU5Mzc7JiMyMTE2MTsmIzI2MzgxOyYjMjExNTM7PC90ZXh0Pjx0ZXh0IGZpbGw9IiNGRkZGRkYiIGZvbnQtZmFtaWx5PSJzYW5zLXNlcmlmIiBmb250LXNpemU9IjEyIiBmb250LXN0eWxlPSJpdGFsaWMiIGxlbmd0aEFkanVzdD0ic3BhY2luZyIgdGV4dExlbmd0aD0iNDciIHg9IjQzMSIgeT0iNjQ2LjI5NjkiPltTcHJpbmc8L3RleHQ+PHRleHQgZmlsbD0iI0ZGRkZGRiIgZm9udC1mYW1pbHk9InNhbnMtc2VyaWYiIGZvbnQtc2l6ZT0iMTIiIGZvbnQtc3R5bGU9Iml0YWxpYyIgbGVuZ3RoQWRqdXN0PSJzcGFjaW5nIiB0ZXh0TGVuZ3RoPSI2IiB4PSI0NzgiIHk9IjY0Ni4yOTY5Ij4mIzE2MDs8L3RleHQ+PHRleHQgZmlsbD0iI0ZGRkZGRiIgZm9udC1mYW1pbHk9InNhbnMtc2VyaWYiIGZvbnQtc2l6ZT0iMTIiIGZvbnQtc3R5bGU9Iml0YWxpYyIgbGVuZ3RoQWRqdXN0PSJzcGFjaW5nIiB0ZXh0TGVuZ3RoPSIyNyIgeD0iNDg0IiB5PSI2NDYuMjk2OSI+Qm9vdDwvdGV4dD48dGV4dCBmaWxsPSIjRkZGRkZGIiBmb250LWZhbWlseT0ic2Fucy1zZXJpZiIgZm9udC1zaXplPSIxMiIgZm9udC1zdHlsZT0iaXRhbGljIiBsZW5ndGhBZGp1c3Q9InNwYWNpbmciIHRleHRMZW5ndGg9IjYiIHg9IjUxMSIgeT0iNjQ2LjI5NjkiPiYjMTYwOzwvdGV4dD48dGV4dCBmaWxsPSIjRkZGRkZGIiBmb250LWZhbWlseT0ic2Fucy1zZXJpZiIgZm9udC1zaXplPSIxMiIgZm9udC1zdHlsZT0iaXRhbGljIiBsZW5ndGhBZGp1c3Q9InNwYWNpbmciIHRleHRMZW5ndGg9IjYiIHg9IjUxNyIgeT0iNjQ2LjI5NjkiPis8L3RleHQ+PHRleHQgZmlsbD0iI0ZGRkZGRiIgZm9udC1mYW1pbHk9InNhbnMtc2VyaWYiIGZvbnQtc2l6ZT0iMTIiIGZvbnQtc3R5bGU9Iml0YWxpYyIgbGVuZ3RoQWRqdXN0PSJzcGFjaW5nIiB0ZXh0TGVuZ3RoPSI2IiB4PSI1MjMiIHk9IjY0Ni4yOTY5Ij4mIzE2MDs8L3RleHQ+PHRleHQgZmlsbD0iI0ZGRkZGRiIgZm9udC1mYW1pbHk9InNhbnMtc2VyaWYiIGZvbnQtc2l6ZT0iMTIiIGZvbnQtc3R5bGU9Iml0YWxpYyIgbGVuZ3RoQWRqdXN0PSJzcGFjaW5nIiB0ZXh0TGVuZ3RoPSI1MyIgeD0iNTI5IiB5PSI2NDYuMjk2OSI+TXlCYXRpc108L3RleHQ+PHRleHQgZmlsbD0iI0ZGRkZGRiIgZm9udC1mYW1pbHk9InNhbnMtc2VyaWYiIGZvbnQtc2l6ZT0iMTQiIGxlbmd0aEFkanVzdD0ic3BhY2luZyIgdGV4dExlbmd0aD0iNyIgeD0iNTAzIiB5PSI2NjEuMDMxMyI+JiMxNjA7PC90ZXh0Pjx0ZXh0IGZpbGw9IiNGRkZGRkYiIGZvbnQtZmFtaWx5PSJzYW5zLXNlcmlmIiBmb250LXNpemU9IjE0IiBsZW5ndGhBZGp1c3Q9InNwYWNpbmciIHRleHRMZW5ndGg9IjE1NCIgeD0iNDI5LjUiIHk9IjY3Ni4wMTU2Ij4mIzIxMzA3OyYjMzAxMDM7JiMyNTkzNzsmIzIxMTYxOyYjMjA0NDk7JiMyNDY4NzsmIzEyMjg5OyYjMzU3NjA7JiMyNDQwNTsmIzMxNjQ5OyYjMjk3MDI7PC90ZXh0PjwvZz48IS0tZW50aXR5IGRvbmF0aW9uX3NlcnZpY2UtLT48ZyBpZD0iZWxlbV9kb25hdGlvbl9zZXJ2aWNlIj48cGF0aCBkPSJNNjI5LDU5MC45ODQ0IEM2MjksNTgwLjk4NDQgNzE0LjUsNTgwLjk4NDQgNzE0LjUsNTgwLjk4NDQgQzcxNC41LDU4MC45ODQ0IDgwMCw1ODAuOTg0NCA4MDAsNTkwLjk4NDQgTDgwMCw2NzIuNzY1NiBDODAwLDY4Mi43NjU2IDcxNC41LDY4Mi43NjU2IDcxNC41LDY4Mi43NjU2IEM3MTQuNSw2ODIuNzY1NiA2MjksNjgyLjc2NTYgNjI5LDY3Mi43NjU2IEw2MjksNTkwLjk4NDQgIiBmaWxsPSIjNDM4REQ1IiBzdHlsZT0ic3Ryb2tlOiMzQzdGQzA7c3Ryb2tlLXdpZHRoOjAuNTsiLz48cGF0aCBkPSJNNjI5LDU5MC45ODQ0IEM2MjksNjAwLjk4NDQgNzE0LjUsNjAwLjk4NDQgNzE0LjUsNjAwLjk4NDQgQzcxNC41LDYwMC45ODQ0IDgwMCw2MDAuOTg0NCA4MDAsNTkwLjk4NDQgIiBmaWxsPSJub25lIiBzdHlsZT0ic3Ryb2tlOiMzQzdGQzA7c3Ryb2tlLXdpZHRoOjAuNTsiLz48dGV4dCBmaWxsPSIjRkZGRkZGIiBmb250LWZhbWlseT0ic2Fucy1zZXJpZiIgZm9udC1zaXplPSIxMiIgZm9udC1zdHlsZT0iaXRhbGljIiBsZW5ndGhBZGp1c3Q9InNwYWNpbmciIHRleHRMZW5ndGg9IjcyIiB4PSI2NzguNSIgeT0iNjE2LjMyODEiPiYjMTcxO2NvbnRhaW5lciYjMTg3OzwvdGV4dD48dGV4dCBmaWxsPSIjRkZGRkZGIiBmb250LWZhbWlseT0ic2Fucy1zZXJpZiIgZm9udC1zaXplPSIxNiIgZm9udC13ZWlnaHQ9ImJvbGQiIGxlbmd0aEFkanVzdD0ic3BhY2luZyIgdGV4dExlbmd0aD0iNjQiIHg9IjY4Mi41IiB5PSI2MzIuOTUzMSI+JiMyNTQyNDsmIzM2MTkyOyYjMjYzODE7JiMyMTE1Mzs8L3RleHQ+PHRleHQgZmlsbD0iI0ZGRkZGRiIgZm9udC1mYW1pbHk9InNhbnMtc2VyaWYiIGZvbnQtc2l6ZT0iMTIiIGZvbnQtc3R5bGU9Iml0YWxpYyIgbGVuZ3RoQWRqdXN0PSJzcGFjaW5nIiB0ZXh0TGVuZ3RoPSI0NyIgeD0iNjM5IiB5PSI2NDYuMjk2OSI+W1NwcmluZzwvdGV4dD48dGV4dCBmaWxsPSIjRkZGRkZGIiBmb250LWZhbWlseT0ic2Fucy1zZXJpZiIgZm9udC1zaXplPSIxMiIgZm9udC1zdHlsZT0iaXRhbGljIiBsZW5ndGhBZGp1c3Q9InNwYWNpbmciIHRleHRMZW5ndGg9IjYiIHg9IjY4NiIgeT0iNjQ2LjI5NjkiPiYjMTYwOzwvdGV4dD48dGV4dCBmaWxsPSIjRkZGRkZGIiBmb250LWZhbWlseT0ic2Fucy1zZXJpZiIgZm9udC1zaXplPSIxMiIgZm9udC1zdHlsZT0iaXRhbGljIiBsZW5ndGhBZGp1c3Q9InNwYWNpbmciIHRleHRMZW5ndGg9IjI3IiB4PSI2OTIiIHk9IjY0Ni4yOTY5Ij5Cb290PC90ZXh0Pjx0ZXh0IGZpbGw9IiNGRkZGRkYiIGZvbnQtZmFtaWx5PSJzYW5zLXNlcmlmIiBmb250LXNpemU9IjEyIiBmb250LXN0eWxlPSJpdGFsaWMiIGxlbmd0aEFkanVzdD0ic3BhY2luZyIgdGV4dExlbmd0aD0iNiIgeD0iNzE5IiB5PSI2NDYuMjk2OSI+JiMxNjA7PC90ZXh0Pjx0ZXh0IGZpbGw9IiNGRkZGRkYiIGZvbnQtZmFtaWx5PSJzYW5zLXNlcmlmIiBmb250LXNpemU9IjEyIiBmb250LXN0eWxlPSJpdGFsaWMiIGxlbmd0aEFkanVzdD0ic3BhY2luZyIgdGV4dExlbmd0aD0iNiIgeD0iNzI1IiB5PSI2NDYuMjk2OSI+KzwvdGV4dD48dGV4dCBmaWxsPSIjRkZGRkZGIiBmb250LWZhbWlseT0ic2Fucy1zZXJpZiIgZm9udC1zaXplPSIxMiIgZm9udC1zdHlsZT0iaXRhbGljIiBsZW5ndGhBZGp1c3Q9InNwYWNpbmciIHRleHRMZW5ndGg9IjYiIHg9IjczMSIgeT0iNjQ2LjI5NjkiPiYjMTYwOzwvdGV4dD48dGV4dCBmaWxsPSIjRkZGRkZGIiBmb250LWZhbWlseT0ic2Fucy1zZXJpZiIgZm9udC1zaXplPSIxMiIgZm9udC1zdHlsZT0iaXRhbGljIiBsZW5ndGhBZGp1c3Q9InNwYWNpbmciIHRleHRMZW5ndGg9IjUzIiB4PSI3MzciIHk9IjY0Ni4yOTY5Ij5NeUJhdGlzXTwvdGV4dD48dGV4dCBmaWxsPSIjRkZGRkZGIiBmb250LWZhbWlseT0ic2Fucy1zZXJpZiIgZm9udC1zaXplPSIxNCIgbGVuZ3RoQWRqdXN0PSJzcGFjaW5nIiB0ZXh0TGVuZ3RoPSI3IiB4PSI3MTEiIHk9IjY2MS4wMzEzIj4mIzE2MDs8L3RleHQ+PHRleHQgZmlsbD0iI0ZGRkZGRiIgZm9udC1mYW1pbHk9InNhbnMtc2VyaWYiIGZvbnQtc2l6ZT0iMTQiIGxlbmd0aEFkanVzdD0ic3BhY2luZyIgdGV4dExlbmd0aD0iMTI2IiB4PSI2NTEuNSIgeT0iNjc2LjAxNTYiPiYjMjU0MjQ7JiMzNjE5MjsmIzM1NzYwOyYjMjQ0MDU7JiMxMjI4OTsmIzI5Mjg5OyYjMzYxNjQ7JiMzMTY0OTsmIzI5NzAyOzwvdGV4dD48L2c+PCEtLWVudGl0eSBub3RpY2Vfc2VydmljZS0tPjxnIGlkPSJlbGVtX25vdGljZV9zZXJ2aWNlIj48cGF0aCBkPSJNMTQ1Myw1OTAuOTg0NCBDMTQ1Myw1ODAuOTg0NCAxNTM4LjUsNTgwLjk4NDQgMTUzOC41LDU4MC45ODQ0IEMxNTM4LjUsNTgwLjk4NDQgMTYyNCw1ODAuOTg0NCAxNjI0LDU5MC45ODQ0IEwxNjI0LDY3Mi43NjU2IEMxNjI0LDY4Mi43NjU2IDE1MzguNSw2ODIuNzY1NiAxNTM4LjUsNjgyLjc2NTYgQzE1MzguNSw2ODIuNzY1NiAxNDUzLDY4Mi43NjU2IDE0NTMsNjcyLjc2NTYgTDE0NTMsNTkwLjk4NDQgIiBmaWxsPSIjNDM4REQ1IiBzdHlsZT0ic3Ryb2tlOiMzQzdGQzA7c3Ryb2tlLXdpZHRoOjAuNTsiLz48cGF0aCBkPSJNMTQ1Myw1OTAuOTg0NCBDMTQ1Myw2MDAuOTg0NCAxNTM4LjUsNjAwLjk4NDQgMTUzOC41LDYwMC45ODQ0IEMxNTM4LjUsNjAwLjk4NDQgMTYyNCw2MDAuOTg0NCAxNjI0LDU5MC45ODQ0ICIgZmlsbD0ibm9uZSIgc3R5bGU9InN0cm9rZTojM0M3RkMwO3N0cm9rZS13aWR0aDowLjU7Ii8+PHRleHQgZmlsbD0iI0ZGRkZGRiIgZm9udC1mYW1pbHk9InNhbnMtc2VyaWYiIGZvbnQtc2l6ZT0iMTIiIGZvbnQtc3R5bGU9Iml0YWxpYyIgbGVuZ3RoQWRqdXN0PSJzcGFjaW5nIiB0ZXh0TGVuZ3RoPSI3MiIgeD0iMTUwMi41IiB5PSI2MTYuMzI4MSI+JiMxNzE7Y29udGFpbmVyJiMxODc7PC90ZXh0Pjx0ZXh0IGZpbGw9IiNGRkZGRkYiIGZvbnQtZmFtaWx5PSJzYW5zLXNlcmlmIiBmb250LXNpemU9IjE2IiBmb250LXdlaWdodD0iYm9sZCIgbGVuZ3RoQWRqdXN0PSJzcGFjaW5nIiB0ZXh0TGVuZ3RoPSI2NCIgeD0iMTUwNi41IiB5PSI2MzIuOTUzMSI+JiMyMDg0NDsmIzIxNTc4OyYjMjYzODE7JiMyMTE1Mzs8L3RleHQ+PHRleHQgZmlsbD0iI0ZGRkZGRiIgZm9udC1mYW1pbHk9InNhbnMtc2VyaWYiIGZvbnQtc2l6ZT0iMTIiIGZvbnQtc3R5bGU9Iml0YWxpYyIgbGVuZ3RoQWRqdXN0PSJzcGFjaW5nIiB0ZXh0TGVuZ3RoPSI0NyIgeD0iMTQ2MyIgeT0iNjQ2LjI5NjkiPltTcHJpbmc8L3RleHQ+PHRleHQgZmlsbD0iI0ZGRkZGRiIgZm9udC1mYW1pbHk9InNhbnMtc2VyaWYiIGZvbnQtc2l6ZT0iMTIiIGZvbnQtc3R5bGU9Iml0YWxpYyIgbGVuZ3RoQWRqdXN0PSJzcGFjaW5nIiB0ZXh0TGVuZ3RoPSI2IiB4PSIxNTEwIiB5PSI2NDYuMjk2OSI+JiMxNjA7PC90ZXh0Pjx0ZXh0IGZpbGw9IiNGRkZGRkYiIGZvbnQtZmFtaWx5PSJzYW5zLXNlcmlmIiBmb250LXNpemU9IjEyIiBmb250LXN0eWxlPSJpdGFsaWMiIGxlbmd0aEFkanVzdD0ic3BhY2luZyIgdGV4dExlbmd0aD0iMjciIHg9IjE1MTYiIHk9IjY0Ni4yOTY5Ij5Cb290PC90ZXh0Pjx0ZXh0IGZpbGw9IiNGRkZGRkYiIGZvbnQtZmFtaWx5PSJzYW5zLXNlcmlmIiBmb250LXNpemU9IjEyIiBmb250LXN0eWxlPSJpdGFsaWMiIGxlbmd0aEFkanVzdD0ic3BhY2luZyIgdGV4dExlbmd0aD0iNiIgeD0iMTU0MyIgeT0iNjQ2LjI5NjkiPiYjMTYwOzwvdGV4dD48dGV4dCBmaWxsPSIjRkZGRkZGIiBmb250LWZhbWlseT0ic2Fucy1zZXJpZiIgZm9udC1zaXplPSIxMiIgZm9udC1zdHlsZT0iaXRhbGljIiBsZW5ndGhBZGp1c3Q9InNwYWNpbmciIHRleHRMZW5ndGg9IjYiIHg9IjE1NDkiIHk9IjY0Ni4yOTY5Ij4rPC90ZXh0Pjx0ZXh0IGZpbGw9IiNGRkZGRkYiIGZvbnQtZmFtaWx5PSJzYW5zLXNlcmlmIiBmb250LXNpemU9IjEyIiBmb250LXN0eWxlPSJpdGFsaWMiIGxlbmd0aEFkanVzdD0ic3BhY2luZyIgdGV4dExlbmd0aD0iNiIgeD0iMTU1NSIgeT0iNjQ2LjI5NjkiPiYjMTYwOzwvdGV4dD48dGV4dCBmaWxsPSIjRkZGRkZGIiBmb250LWZhbWlseT0ic2Fucy1zZXJpZiIgZm9udC1zaXplPSIxMiIgZm9udC1zdHlsZT0iaXRhbGljIiBsZW5ndGhBZGp1c3Q9InNwYWNpbmciIHRleHRMZW5ndGg9IjUzIiB4PSIxNTYxIiB5PSI2NDYuMjk2OSI+TXlCYXRpc108L3RleHQ+PHRleHQgZmlsbD0iI0ZGRkZGRiIgZm9udC1mYW1pbHk9InNhbnMtc2VyaWYiIGZvbnQtc2l6ZT0iMTQiIGxlbmd0aEFkanVzdD0ic3BhY2luZyIgdGV4dExlbmd0aD0iNyIgeD0iMTUzNSIgeT0iNjYxLjAzMTMiPiYjMTYwOzwvdGV4dD48dGV4dCBmaWxsPSIjRkZGRkZGIiBmb250LWZhbWlseT0ic2Fucy1zZXJpZiIgZm9udC1zaXplPSIxNCIgbGVuZ3RoQWRqdXN0PSJzcGFjaW5nIiB0ZXh0TGVuZ3RoPSI5OCIgeD0iMTQ4OS41IiB5PSI2NzYuMDE1NiI+JiMyMDg0NDsmIzIxNTc4OyYjMjE0NTc7JiMyNDA2NzsmIzEyMjg5OyYjMzE2NDk7JiMyOTcwMjs8L3RleHQ+PC9nPjwhLS1saW5rIGFkbWluIHRvIGZyb250ZW5kLS0+PGcgaWQ9ImxpbmtfYWRtaW5fZnJvbnRlbmQiPjxwYXRoIGQ9Ik03ODIuNSwxNzEuMTM0NCBDNzgyLjUsMTk1LjI5NDQgNzgyLjUsMjE0LjM4NDQgNzgyLjUsMjM2Ljc0NDQgIiBmaWxsPSJub25lIiBpZD0iYWRtaW4tdG8tZnJvbnRlbmQiIHN0eWxlPSJzdHJva2U6IzY2NjY2NjtzdHJva2Utd2lkdGg6MS4wOyIvPjxwb2x5Z29uIGZpbGw9IiM2NjY2NjYiIHBvaW50cz0iNzgyLjUsMjQ0Ljc0NDQsNzg1LjUsMjM2Ljc0NDQsNzc5LjUsMjM2Ljc0NDQsNzgyLjUsMjQ0Ljc0NDQiIHN0eWxlPSJzdHJva2U6IzY2NjY2NjtzdHJva2Utd2lkdGg6MS4wOyIvPjx0ZXh0IGZpbGw9IiM2NjY2NjYiIGZvbnQtZmFtaWx5PSJzYW5zLXNlcmlmIiBmb250LXNpemU9IjEyIiBmb250LXdlaWdodD0iYm9sZCIgbGVuZ3RoQWRqdXN0PSJzcGFjaW5nIiB0ZXh0TGVuZ3RoPSIyNCIgeD0iNzgzLjUiIHk9IjIxMy4zMjgxIj4mIzIwMzUxOyYjMjk5OTI7PC90ZXh0PjwvZz48IS0tbGluayBmcm9udGVuZCB0byBhcGlfZ2F0ZXdheS0tPjxnIGlkPSJsaW5rX2Zyb250ZW5kX2FwaV9nYXRld2F5Ij48cGF0aCBkPSJNNzgyLjUsMzQwLjE2NDQgQzc4Mi41LDM2My4xODQ0IDc4Mi41LDM4Mi44MzQ0IDc4Mi41LDQwNS43MjQ0ICIgZmlsbD0ibm9uZSIgaWQ9ImZyb250ZW5kLXRvLWFwaV9nYXRld2F5IiBzdHlsZT0ic3Ryb2tlOiM2NjY2NjY7c3Ryb2tlLXdpZHRoOjEuMDsiLz48cG9seWdvbiBmaWxsPSIjNjY2NjY2IiBwb2ludHM9Ijc4Mi41LDQxMy43MjQ0LDc4NS41LDQwNS43MjQ0LDc3OS41LDQwNS43MjQ0LDc4Mi41LDQxMy43MjQ0IiBzdHlsZT0ic3Ryb2tlOiM2NjY2NjY7c3Ryb2tlLXdpZHRoOjEuMDsiLz48dGV4dCBmaWxsPSIjNjY2NjY2IiBmb250LWZhbWlseT0ic2Fucy1zZXJpZiIgZm9udC1zaXplPSIxMiIgZm9udC13ZWlnaHQ9ImJvbGQiIGxlbmd0aEFkanVzdD0ic3BhY2luZyIgdGV4dExlbmd0aD0iMjQiIHg9Ijc4My41IiB5PSIzODIuMzI4MSI+JiMzNTg0MzsmIzI5OTkyOzwvdGV4dD48dGV4dCBmaWxsPSIjNjY2NjY2IiBmb250LWZhbWlseT0ic2Fucy1zZXJpZiIgZm9udC1zaXplPSIxMiIgZm9udC13ZWlnaHQ9ImJvbGQiIGxlbmd0aEFkanVzdD0ic3BhY2luZyIgdGV4dExlbmd0aD0iNiIgeD0iODA3LjUiIHk9IjM4Mi4zMjgxIj4mIzE2MDs8L3RleHQ+PHRleHQgZmlsbD0iIzY2NjY2NiIgZm9udC1mYW1pbHk9InNhbnMtc2VyaWYiIGZvbnQtc2l6ZT0iMTIiIGZvbnQtd2VpZ2h0PSJib2xkIiBsZW5ndGhBZGp1c3Q9InNwYWNpbmciIHRleHRMZW5ndGg9IjIwIiB4PSI4MTMuNSIgeT0iMzgyLjMyODEiPkFQSTwvdGV4dD48L2c+PCEtLWxpbmsgYXBpX2dhdGV3YXkgdG8gYXV0aF9zZXJ2aWNlLS0+PGcgaWQ9ImxpbmtfYXBpX2dhdGV3YXlfYXV0aF9zZXJ2aWNlIj48cGF0aCBkPSJNNjk5LjE0LDQ3MS41MjQ0IEM1ODMuMjQsNDg3LjAwNDQgMzY3Ljg4LDUyMS4zNDQ0IDE5Mi41LDU4MC45ODQ0IEMxODYuODEsNTgyLjkyNDQgMTg4LjQyOTEsNTgyLjA4NjggMTgyLjY1OTEsNTg0LjQzNjggIiBmaWxsPSJub25lIiBpZD0iYXBpX2dhdGV3YXktdG8tYXV0aF9zZXJ2aWNlIiBzdHlsZT0ic3Ryb2tlOiM2NjY2NjY7c3Ryb2tlLXdpZHRoOjEuMDsiLz48cG9seWdvbiBmaWxsPSIjNjY2NjY2IiBwb2ludHM9IjE3NS4yNSw1ODcuNDU0NCwxODMuNzkwNyw1ODcuMjE1MiwxODEuNTI3NSw1ODEuNjU4NCwxNzUuMjUsNTg3LjQ1NDQiIHN0eWxlPSJzdHJva2U6IzY2NjY2NjtzdHJva2Utd2lkdGg6MS4wOyIvPjx0ZXh0IGZpbGw9IiM2NjY2NjYiIGZvbnQtZmFtaWx5PSJzYW5zLXNlcmlmIiBmb250LXNpemU9IjEyIiBmb250LXdlaWdodD0iYm9sZCIgbGVuZ3RoQWRqdXN0PSJzcGFjaW5nIiB0ZXh0TGVuZ3RoPSIyNCIgeD0iMzM2LjUiIHk9IjU0OS4zMjgxIj4mIzM1ODQzOyYjMjk5OTI7PC90ZXh0PjwvZz48IS0tbGluayBhcGlfZ2F0ZXdheSB0byB1c2VyX3NlcnZpY2UtLT48ZyBpZD0ibGlua19hcGlfZ2F0ZXdheV91c2VyX3NlcnZpY2UiPjxwYXRoIGQ9Ik04NjUuNzcsNTAyLjUxNDQgQzkxOC43Niw1MjguNjI0NCA5ODAuMDUzNSw1NTguODI5MSAxMDMzLjUyMzUsNTg1LjE2OTEgIiBmaWxsPSJub25lIiBpZD0iYXBpX2dhdGV3YXktdG8tdXNlcl9zZXJ2aWNlIiBzdHlsZT0ic3Ryb2tlOiM2NjY2NjY7c3Ryb2tlLXdpZHRoOjEuMDsiLz48cG9seWdvbiBmaWxsPSIjNjY2NjY2IiBwb2ludHM9IjEwNDAuNyw1ODguNzA0NCwxMDM0Ljg0OTIsNTgyLjQ3OCwxMDMyLjE5NzgsNTg3Ljg2MDMsMTA0MC43LDU4OC43MDQ0IiBzdHlsZT0ic3Ryb2tlOiM2NjY2NjY7c3Ryb2tlLXdpZHRoOjEuMDsiLz48dGV4dCBmaWxsPSIjNjY2NjY2IiBmb250LWZhbWlseT0ic2Fucy1zZXJpZiIgZm9udC1zaXplPSIxMiIgZm9udC13ZWlnaHQ9ImJvbGQiIGxlbmd0aEFkanVzdD0ic3BhY2luZyIgdGV4dExlbmd0aD0iMjQiIHg9Ijk1NS41IiB5PSI1NDkuMzI4MSI+JiMzNTg0MzsmIzI5OTkyOzwvdGV4dD48L2c+PCEtLWxpbmsgYXBpX2dhdGV3YXkgdG8gY2F0X3NlcnZpY2UtLT48ZyBpZD0ibGlua19hcGlfZ2F0ZXdheV9jYXRfc2VydmljZSI+PHBhdGggZD0iTTg2NS41Myw0NzguNjk0NCBDOTU2LjQxLDQ5OC42NjQ0IDExMDUuNjcsNTM0Ljg1NDQgMTIyOS41LDU4MC45ODQ0IEMxMjM1LjE4LDU4My4xMDQ0IDEyMzMuNjAyNCw1ODIuMzA2OCAxMjM5LjM5MjQsNTg0Ljc1NjggIiBmaWxsPSJub25lIiBpZD0iYXBpX2dhdGV3YXktdG8tY2F0X3NlcnZpY2UiIHN0eWxlPSJzdHJva2U6IzY2NjY2NjtzdHJva2Utd2lkdGg6MS4wOyIvPjxwb2x5Z29uIGZpbGw9IiM2NjY2NjYiIHBvaW50cz0iMTI0Ni43Niw1ODcuODc0NCwxMjQwLjU2MTUsNTgxLjk5NCwxMjM4LjIyMzQsNTg3LjUxOTcsMTI0Ni43Niw1ODcuODc0NCIgc3R5bGU9InN0cm9rZTojNjY2NjY2O3N0cm9rZS13aWR0aDoxLjA7Ii8+PHRleHQgZmlsbD0iIzY2NjY2NiIgZm9udC1mYW1pbHk9InNhbnMtc2VyaWYiIGZvbnQtc2l6ZT0iMTIiIGZvbnQtd2VpZ2h0PSJib2xkIiBsZW5ndGhBZGp1c3Q9InNwYWNpbmciIHRleHRMZW5ndGg9IjI0IiB4PSIxMTM0LjUiIHk9IjU0OS4zMjgxIj4mIzM1ODQzOyYjMjk5OTI7PC90ZXh0PjwvZz48IS0tbGluayBhcGlfZ2F0ZXdheSB0byB2b2x1bnRlZXJfc2VydmljZS0tPjxnIGlkPSJsaW5rX2FwaV9nYXRld2F5X3ZvbHVudGVlcl9zZXJ2aWNlIj48cGF0aCBkPSJNODE5Ljg0LDUwNy4zNTQ0IEM4MzguMzYsNTMwLjEwNDQgODU1LjcyMDYsNTUxLjQwOTIgODc0LjY4MDYsNTc0LjcwOTIgIiBmaWxsPSJub25lIiBpZD0iYXBpX2dhdGV3YXktdG8tdm9sdW50ZWVyX3NlcnZpY2UiIHN0eWxlPSJzdHJva2U6IzY2NjY2NjtzdHJva2Utd2lkdGg6MS4wOyIvPjxwb2x5Z29uIGZpbGw9IiM2NjY2NjYiIHBvaW50cz0iODc5LjczLDU4MC45MTQ0LDg3Ny4wMDc2LDU3Mi44MTU3LDg3Mi4zNTM3LDU3Ni42MDI3LDg3OS43Myw1ODAuOTE0NCIgc3R5bGU9InN0cm9rZTojNjY2NjY2O3N0cm9rZS13aWR0aDoxLjA7Ii8+PHRleHQgZmlsbD0iIzY2NjY2NiIgZm9udC1mYW1pbHk9InNhbnMtc2VyaWYiIGZvbnQtc2l6ZT0iMTIiIGZvbnQtd2VpZ2h0PSJib2xkIiBsZW5ndGhBZGp1c3Q9InNwYWNpbmciIHRleHRMZW5ndGg9IjI0IiB4PSI4NTIuNSIgeT0iNTQ5LjMyODEiPiYjMzU4NDM7JiMyOTk5Mjs8L3RleHQ+PC9nPjwhLS1saW5rIGFwaV9nYXRld2F5IHRvIGFkb3B0aW9uX3NlcnZpY2UtLT48ZyBpZD0ibGlua19hcGlfZ2F0ZXdheV9hZG9wdGlvbl9zZXJ2aWNlIj48cGF0aCBkPSJNNjk5LjE4LDQ4My44NjQ0IEM2MjEuMTgsNTA1LjY5NDQgNTAxLjkzLDU0MS4zMzQ0IDQwMS41LDU4MC45ODQ0IEMzOTYsNTgzLjE1NDQgMzk3LjcyODIsNTgyLjI5ODQgMzkyLjEwODIsNTg0LjczODQgIiBmaWxsPSJub25lIiBpZD0iYXBpX2dhdGV3YXktdG8tYWRvcHRpb25fc2VydmljZSIgc3R5bGU9InN0cm9rZTojNjY2NjY2O3N0cm9rZS13aWR0aDoxLjA7Ii8+PHBvbHlnb24gZmlsbD0iIzY2NjY2NiIgcG9pbnRzPSIzODQuNzcsNTg3LjkyNDQsMzkzLjMwMyw1ODcuNDkwMiwzOTAuOTEzNSw1ODEuOTg2NiwzODQuNzcsNTg3LjkyNDQiIHN0eWxlPSJzdHJva2U6IzY2NjY2NjtzdHJva2Utd2lkdGg6MS4wOyIvPjx0ZXh0IGZpbGw9IiM2NjY2NjYiIGZvbnQtZmFtaWx5PSJzYW5zLXNlcmlmIiBmb250LXNpemU9IjEyIiBmb250LXdlaWdodD0iYm9sZCIgbGVuZ3RoQWRqdXN0PSJzcGFjaW5nIiB0ZXh0TGVuZ3RoPSIyNCIgeD0iNTE2LjUiIHk9IjU0OS4zMjgxIj4mIzM1ODQzOyYjMjk5OTI7PC90ZXh0PjwvZz48IS0tbGluayBhcGlfZ2F0ZXdheSB0byBtZWRpY2FsX3NlcnZpY2UtLT48ZyBpZD0ibGlua19hcGlfZ2F0ZXdheV9tZWRpY2FsX3NlcnZpY2UiPjxwYXRoIGQ9Ik03MDguMTcsNTA3LjEzNDQgQzY3MS4xMyw1MjkuODc0NCA2MzMuMDY3Myw1NTMuMjU4MiA1OTUuMDU3Myw1NzYuNTk4MiAiIGZpbGw9Im5vbmUiIGlkPSJhcGlfZ2F0ZXdheS10by1tZWRpY2FsX3NlcnZpY2UiIHN0eWxlPSJzdHJva2U6IzY2NjY2NjtzdHJva2Utd2lkdGg6MS4wOyIvPjxwb2x5Z29uIGZpbGw9IiM2NjY2NjYiIHBvaW50cz0iNTg4LjI0LDU4MC43ODQ0LDU5Ni42MjcxLDU3OS4xNTQ3LDU5My40ODc1LDU3NC4wNDE3LDU4OC4yNCw1ODAuNzg0NCIgc3R5bGU9InN0cm9rZTojNjY2NjY2O3N0cm9rZS13aWR0aDoxLjA7Ii8+PHRleHQgZmlsbD0iIzY2NjY2NiIgZm9udC1mYW1pbHk9InNhbnMtc2VyaWYiIGZvbnQtc2l6ZT0iMTIiIGZvbnQtd2VpZ2h0PSJib2xkIiBsZW5ndGhBZGp1c3Q9InNwYWNpbmciIHRleHRMZW5ndGg9IjI0IiB4PSI2NTQuNSIgeT0iNTQ5LjMyODEiPiYjMzU4NDM7JiMyOTk5Mjs8L3RleHQ+PC9nPjwhLS1saW5rIGFwaV9nYXRld2F5IHRvIGRvbmF0aW9uX3NlcnZpY2UtLT48ZyBpZD0ibGlua19hcGlfZ2F0ZXdheV9kb25hdGlvbl9zZXJ2aWNlIj48cGF0aCBkPSJNNzY0LjEsNTA3LjM1NDQgQzc1NC45Nyw1MzAuMTA0NCA3NDYuOTA2Niw1NTAuMTg4OCA3MzcuNTY2Niw1NzMuNDg4OCAiIGZpbGw9Im5vbmUiIGlkPSJhcGlfZ2F0ZXdheS10by1kb25hdGlvbl9zZXJ2aWNlIiBzdHlsZT0ic3Ryb2tlOiM2NjY2NjY7c3Ryb2tlLXdpZHRoOjEuMDsiLz48cG9seWdvbiBmaWxsPSIjNjY2NjY2IiBwb2ludHM9IjczNC41OSw1ODAuOTE0NCw3NDAuMzUxMiw1NzQuNjA1LDczNC43ODIsNTcyLjM3MjUsNzM0LjU5LDU4MC45MTQ0IiBzdHlsZT0ic3Ryb2tlOiM2NjY2NjY7c3Ryb2tlLXdpZHRoOjEuMDsiLz48dGV4dCBmaWxsPSIjNjY2NjY2IiBmb250LWZhbWlseT0ic2Fucy1zZXJpZiIgZm9udC1zaXplPSIxMiIgZm9udC13ZWlnaHQ9ImJvbGQiIGxlbmd0aEFkanVzdD0ic3BhY2luZyIgdGV4dExlbmd0aD0iMjQiIHg9Ijc1MS41IiB5PSI1NDkuMzI4MSI+JiMzNTg0MzsmIzI5OTkyOzwvdGV4dD48L2c+PCEtLWxpbmsgYXBpX2dhdGV3YXkgdG8gbm90aWNlX3NlcnZpY2UtLT48ZyBpZD0ibGlua19hcGlfZ2F0ZXdheV9ub3RpY2Vfc2VydmljZSI+PHBhdGggZD0iTTg2NS43MSw0NjkuNDE0NCBDOTkxLjU2LDQ4My4wMjQ0IDEyMzYuNzEsNTE1Ljg4NDQgMTQzNS41LDU4MC45ODQ0IEMxNDQxLjI2LDU4Mi44NzQ0IDE0MzkuNjc1Miw1ODIuMDYwOCAxNDQ1LjUxNTIsNTg0LjM4MDggIiBmaWxsPSJub25lIiBpZD0iYXBpX2dhdGV3YXktdG8tbm90aWNlX3NlcnZpY2UiIHN0eWxlPSJzdHJva2U6IzY2NjY2NjtzdHJva2Utd2lkdGg6MS4wOyIvPjxwb2x5Z29uIGZpbGw9IiM2NjY2NjYiIHBvaW50cz0iMTQ1Mi45NSw1ODcuMzM0NCwxNDQ2LjYyMjgsNTgxLjU5MjgsMTQ0NC40MDc2LDU4Ny4xNjg5LDE0NTIuOTUsNTg3LjMzNDQiIHN0eWxlPSJzdHJva2U6IzY2NjY2NjtzdHJva2Utd2lkdGg6MS4wOyIvPjx0ZXh0IGZpbGw9IiM2NjY2NjYiIGZvbnQtZmFtaWx5PSJzYW5zLXNlcmlmIiBmb250LXNpemU9IjEyIiBmb250LXdlaWdodD0iYm9sZCIgbGVuZ3RoQWRqdXN0PSJzcGFjaW5nIiB0ZXh0TGVuZ3RoPSIyNCIgeD0iMTMzMS41IiB5PSI1NDkuMzI4MSI+JiMzNTg0MzsmIzI5OTkyOzwvdGV4dD48L2c+PCEtLWxpbmsgYXV0aF9zZXJ2aWNlIHRvIGRiLS0+PGcgaWQ9ImxpbmtfYXV0aF9zZXJ2aWNlX2RiIj48cGF0aCBkPSJNMTc1LjI1LDY3Ni41MDQ0IEMxODEuMDIsNjc4Ljg1NDQgMTg2LjgxLDY4MS4wNDQ0IDE5Mi41LDY4Mi45ODQ0IEMzNzcuMDQsNzQ1LjkxNDQgNTk3Ljg5NzYsNzgwLjA2NjggNzA4LjUyNzYsNzk0LjUzNjggIiBmaWxsPSJub25lIiBpZD0iYXV0aF9zZXJ2aWNlLXRvLWRiIiBzdHlsZT0ic3Ryb2tlOiM2NjY2NjY7c3Ryb2tlLXdpZHRoOjEuMDsiLz48cG9seWdvbiBmaWxsPSIjNjY2NjY2IiBwb2ludHM9IjcxNi40Niw3OTUuNTc0NCw3MDguOTE2Niw3OTEuNTYyMiw3MDguMTM4NSw3OTcuNTExNSw3MTYuNDYsNzk1LjU3NDQiIHN0eWxlPSJzdHJva2U6IzY2NjY2NjtzdHJva2Utd2lkdGg6MS4wOyIvPjx0ZXh0IGZpbGw9IiM2NjY2NjYiIGZvbnQtZmFtaWx5PSJzYW5zLXNlcmlmIiBmb250LXNpemU9IjEyIiBmb250LXdlaWdodD0iYm9sZCIgbGVuZ3RoQWRqdXN0PSJzcGFjaW5nIiB0ZXh0TGVuZ3RoPSIyNCIgeD0iMzM2LjUiIHk9IjcyNS4zMjgxIj4mIzM1ODM1OyYjMjA4ODk7PC90ZXh0PjwvZz48IS0tbGluayB1c2VyX3NlcnZpY2UgdG8gZGItLT48ZyBpZD0ibGlua191c2VyX3NlcnZpY2VfZGIiPjxwYXRoIGQ9Ik0xMDQwLjU4LDY3NS41NjQ0IEM5ODEuMTgsNzA1LjAxNDQgOTEwLjQ4ODIsNzQwLjA1MjQgODU1Ljg3ODIsNzY3LjExMjQgIiBmaWxsPSJub25lIiBpZD0idXNlcl9zZXJ2aWNlLXRvLWRiIiBzdHlsZT0ic3Ryb2tlOiM2NjY2NjY7c3Ryb2tlLXdpZHRoOjEuMDsiLz48cG9seWdvbiBmaWxsPSIjNjY2NjY2IiBwb2ludHM9Ijg0OC43MSw3NzAuNjY0NCw4NTcuMjEwMiw3NjkuODAwNSw4NTQuNTQ2Myw3NjQuNDI0Myw4NDguNzEsNzcwLjY2NDQiIHN0eWxlPSJzdHJva2U6IzY2NjY2NjtzdHJva2Utd2lkdGg6MS4wOyIvPjx0ZXh0IGZpbGw9IiM2NjY2NjYiIGZvbnQtZmFtaWx5PSJzYW5zLXNlcmlmIiBmb250LXNpemU9IjEyIiBmb250LXdlaWdodD0iYm9sZCIgbGVuZ3RoQWRqdXN0PSJzcGFjaW5nIiB0ZXh0TGVuZ3RoPSIyNCIgeD0iOTY1LjUiIHk9IjcyNS4zMjgxIj4mIzM1ODM1OyYjMjA4ODk7PC90ZXh0PjwvZz48IS0tbGluayBjYXRfc2VydmljZSB0byBkYi0tPjxnIGlkPSJsaW5rX2NhdF9zZXJ2aWNlX2RiIj48cGF0aCBkPSJNMTI1Ni4wNCw2ODMuMDM0NCBDMTIyOC43LDY5OS4wODQ0IDExOTcuMDgsNzE1LjYxNDQgMTE2Ni41LDcyNi45ODQ0IEMxMDU5LjE0LDc2Ni44OTQ0IDkzNC42OTMsNzg2LjQ2MDcgODU2LjczMyw3OTUuODIwNyAiIGZpbGw9Im5vbmUiIGlkPSJjYXRfc2VydmljZS10by1kYiIgc3R5bGU9InN0cm9rZTojNjY2NjY2O3N0cm9rZS13aWR0aDoxLjA7Ii8+PHBvbHlnb24gZmlsbD0iIzY2NjY2NiIgcG9pbnRzPSI4NDguNzksNzk2Ljc3NDQsODU3LjA5MDYsNzk4Ljc5OTMsODU2LjM3NTMsNzkyLjg0MjEsODQ4Ljc5LDc5Ni43NzQ0IiBzdHlsZT0ic3Ryb2tlOiM2NjY2NjY7c3Ryb2tlLXdpZHRoOjEuMDsiLz48dGV4dCBmaWxsPSIjNjY2NjY2IiBmb250LWZhbWlseT0ic2Fucy1zZXJpZiIgZm9udC1zaXplPSIxMiIgZm9udC13ZWlnaHQ9ImJvbGQiIGxlbmd0aEFkanVzdD0ic3BhY2luZyIgdGV4dExlbmd0aD0iMjQiIHg9IjExOTUuNSIgeT0iNzI1LjMyODEiPiYjMzU4MzU7JiMyMDg4OTs8L3RleHQ+PC9nPjwhLS1saW5rIHZvbHVudGVlcl9zZXJ2aWNlIHRvIGRiLS0+PGcgaWQ9Imxpbmtfdm9sdW50ZWVyX3NlcnZpY2VfZGIiPjxwYXRoIGQ9Ik04NzkuODQsNjgzLjIxNDQgQzg2MSw3MDYuNDk0NCA4NDMuNzczLDcyNy43NzYgODI1LjMwMyw3NTAuNTk2ICIgZmlsbD0ibm9uZSIgaWQ9InZvbHVudGVlcl9zZXJ2aWNlLXRvLWRiIiBzdHlsZT0ic3Ryb2tlOiM2NjY2NjY7c3Ryb2tlLXdpZHRoOjEuMDsiLz48cG9seWdvbiBmaWxsPSIjNjY2NjY2IiBwb2ludHM9IjgyMC4yNyw3NTYuODE0NCw4MjcuNjM0OSw3NTIuNDgzNCw4MjIuOTcxMSw3NDguNzA4Niw4MjAuMjcsNzU2LjgxNDQiIHN0eWxlPSJzdHJva2U6IzY2NjY2NjtzdHJva2Utd2lkdGg6MS4wOyIvPjx0ZXh0IGZpbGw9IiM2NjY2NjYiIGZvbnQtZmFtaWx5PSJzYW5zLXNlcmlmIiBmb250LXNpemU9IjEyIiBmb250LXdlaWdodD0iYm9sZCIgbGVuZ3RoQWRqdXN0PSJzcGFjaW5nIiB0ZXh0TGVuZ3RoPSIyNCIgeD0iODU2LjUiIHk9IjcyNS4zMjgxIj4mIzM1ODM1OyYjMjA4ODk7PC90ZXh0PjwvZz48IS0tbGluayBhZG9wdGlvbl9zZXJ2aWNlIHRvIGRiLS0+PGcgaWQ9ImxpbmtfYWRvcHRpb25fc2VydmljZV9kYiI+PHBhdGggZD0iTTM4NC43Nyw2NzYuMDM0NCBDMzkwLjQsNjc4LjQ2NDQgMzk2LjAxLDY4MC44MDQ0IDQwMS41LDY4Mi45ODQ0IEM1MDkuNjksNzI1Ljg1NDQgNjMxLjk4MzgsNzYyLjEzNjIgNzA4Ljc1MzgsNzgzLjUzNjIgIiBmaWxsPSJub25lIiBpZD0iYWRvcHRpb25fc2VydmljZS10by1kYiIgc3R5bGU9InN0cm9rZTojNjY2NjY2O3N0cm9rZS13aWR0aDoxLjA7Ii8+PHBvbHlnb24gZmlsbD0iIzY2NjY2NiIgcG9pbnRzPSI3MTYuNDYsNzg1LjY4NDQsNzA5LjU1OTQsNzgwLjY0NjQsNzA3Ljk0ODIsNzg2LjQyNjEsNzE2LjQ2LDc4NS42ODQ0IiBzdHlsZT0ic3Ryb2tlOiM2NjY2NjY7c3Ryb2tlLXdpZHRoOjEuMDsiLz48dGV4dCBmaWxsPSIjNjY2NjY2IiBmb250LWZhbWlseT0ic2Fucy1zZXJpZiIgZm9udC1zaXplPSIxMiIgZm9udC13ZWlnaHQ9ImJvbGQiIGxlbmd0aEFkanVzdD0ic3BhY2luZyIgdGV4dExlbmd0aD0iMjQiIHg9IjUxNi41IiB5PSI3MjUuMzI4MSI+JiMzNTgzNTsmIzIwODg5OzwvdGV4dD48L2c+PCEtLWxpbmsgbWVkaWNhbF9zZXJ2aWNlIHRvIGRiLS0+PGcgaWQ9ImxpbmtfbWVkaWNhbF9zZXJ2aWNlX2RiIj48cGF0aCBkPSJNNTg3LjQ0LDY4Mi45ODQ0IEM2MjguNDgsNzA4LjMzNDQgNjcwLjg4NDgsNzM0LjUyODYgNzA5LjYwNDgsNzU4LjQ1ODYgIiBmaWxsPSJub25lIiBpZD0ibWVkaWNhbF9zZXJ2aWNlLXRvLWRiIiBzdHlsZT0ic3Ryb2tlOiM2NjY2NjY7c3Ryb2tlLXdpZHRoOjEuMDsiLz48cG9seWdvbiBmaWxsPSIjNjY2NjY2IiBwb2ludHM9IjcxNi40MSw3NjIuNjY0NCw3MTEuMTgyLDc1NS45MDY2LDcwOC4wMjc2LDc2MS4wMTA1LDcxNi40MSw3NjIuNjY0NCIgc3R5bGU9InN0cm9rZTojNjY2NjY2O3N0cm9rZS13aWR0aDoxLjA7Ii8+PHRleHQgZmlsbD0iIzY2NjY2NiIgZm9udC1mYW1pbHk9InNhbnMtc2VyaWYiIGZvbnQtc2l6ZT0iMTIiIGZvbnQtd2VpZ2h0PSJib2xkIiBsZW5ndGhBZGp1c3Q9InNwYWNpbmciIHRleHRMZW5ndGg9IjI0IiB4PSI2NTQuNSIgeT0iNzI1LjMyODEiPiYjMzU4MzU7JiMyMDg4OTs8L3RleHQ+PC9nPjwhLS1saW5rIGRvbmF0aW9uX3NlcnZpY2UgdG8gZGItLT48ZyBpZD0ibGlua19kb25hdGlvbl9zZXJ2aWNlX2RiIj48cGF0aCBkPSJNNzM0LjUzLDY4My4yMTQ0IEM3NDMuODIsNzA2LjQ5NDQgNzUxLjgyNjcsNzI2LjU2MzQgNzYwLjkyNjcsNzQ5LjM4MzQgIiBmaWxsPSJub25lIiBpZD0iZG9uYXRpb25fc2VydmljZS10by1kYiIgc3R5bGU9InN0cm9rZTojNjY2NjY2O3N0cm9rZS13aWR0aDoxLjA7Ii8+PHBvbHlnb24gZmlsbD0iIzY2NjY2NiIgcG9pbnRzPSI3NjMuODksNzU2LjgxNDQsNzYzLjcxMzMsNzQ4LjI3MjIsNzU4LjE0MDEsNzUwLjQ5NDYsNzYzLjg5LDc1Ni44MTQ0IiBzdHlsZT0ic3Ryb2tlOiM2NjY2NjY7c3Ryb2tlLXdpZHRoOjEuMDsiLz48dGV4dCBmaWxsPSIjNjY2NjY2IiBmb250LWZhbWlseT0ic2Fucy1zZXJpZiIgZm9udC1zaXplPSIxMiIgZm9udC13ZWlnaHQ9ImJvbGQiIGxlbmd0aEFkanVzdD0ic3BhY2luZyIgdGV4dExlbmd0aD0iMjQiIHg9Ijc1MS41IiB5PSI3MjUuMzI4MSI+JiMzNTgzNTsmIzIwODg5OzwvdGV4dD48L2c+PCEtLWxpbmsgbm90aWNlX3NlcnZpY2UgdG8gZGItLT48ZyBpZD0ibGlua19ub3RpY2Vfc2VydmljZV9kYiI+PHBhdGggZD0iTTE0NTIuOTMsNjc1LjY2NDQgQzE0NDcuMDcsNjc4LjIzNDQgMTQ0MS4yMiw2ODAuNjk0NCAxNDM1LjUsNjgyLjk4NDQgQzEzNzUuNzIsNzA2Ljg4NDQgMTM2MC4yMSw3MTIuNDM0NCAxMjk3LjUsNzI2Ljk4NDQgQzEyNzUuODIsNzMyLjAxNDQgOTkwLjQ0NzgsNzczLjQ2MDcgODU2LjQxNzgsNzkyLjgyMDcgIiBmaWxsPSJub25lIiBpZD0ibm90aWNlX3NlcnZpY2UtdG8tZGIiIHN0eWxlPSJzdHJva2U6IzY2NjY2NjtzdHJva2Utd2lkdGg6MS4wOyIvPjxwb2x5Z29uIGZpbGw9IiM2NjY2NjYiIHBvaW50cz0iODQ4LjUsNzkzLjk2NDQsODU2Ljg0NjcsNzk1Ljc4OTksODU1Ljk4ODksNzg5Ljg1MTUsODQ4LjUsNzkzLjk2NDQiIHN0eWxlPSJzdHJva2U6IzY2NjY2NjtzdHJva2Utd2lkdGg6MS4wOyIvPjx0ZXh0IGZpbGw9IiM2NjY2NjYiIGZvbnQtZmFtaWx5PSJzYW5zLXNlcmlmIiBmb250LXNpemU9IjEyIiBmb250LXdlaWdodD0iYm9sZCIgbGVuZ3RoQWRqdXN0PSJzcGFjaW5nIiB0ZXh0TGVuZ3RoPSIyNCIgeD0iMTM1MS41IiB5PSI3MjUuMzI4MSI+JiMzNTgzNTsmIzIwODg5OzwvdGV4dD48L2c+PCEtLWxpbmsgdXNlcl9zZXJ2aWNlIHRvIGNhY2hlLS0+PGcgaWQ9ImxpbmtfdXNlcl9zZXJ2aWNlX2NhY2hlIj48cGF0aCBkPSJNMTEyNy4zNyw2ODMuMjY0NCBDMTEyOC44MSw2OTcuNzA0NCAxMTMxLjUzLDcxMy4yNDQ0IDExMzYuNSw3MjYuOTg0NCBDMTE0MC4xOSw3MzcuMTk0NCAxMTQxLjMxNDQsNzQwLjU2OSAxMTQ3LjE1NDQsNzUwLjAxOSAiIGZpbGw9Im5vbmUiIGlkPSJ1c2VyX3NlcnZpY2UtdG8tY2FjaGUiIHN0eWxlPSJzdHJva2U6IzY2NjY2NjtzdHJva2Utd2lkdGg6MS4wOyIvPjxwb2x5Z29uIGZpbGw9IiM2NjY2NjYiIHBvaW50cz0iMTE1MS4zNiw3NTYuODI0NCwxMTQ5LjcwNjQsNzQ4LjQ0MTksMTE0NC42MDI0LDc1MS41OTYxLDExNTEuMzYsNzU2LjgyNDQiIHN0eWxlPSJzdHJva2U6IzY2NjY2NjtzdHJva2Utd2lkdGg6MS4wOyIvPjx0ZXh0IGZpbGw9IiM2NjY2NjYiIGZvbnQtZmFtaWx5PSJzYW5zLXNlcmlmIiBmb250LXNpemU9IjEyIiBmb250LXdlaWdodD0iYm9sZCIgbGVuZ3RoQWRqdXN0PSJzcGFjaW5nIiB0ZXh0TGVuZ3RoPSIyNCIgeD0iMTEzNy41IiB5PSI3MjUuMzI4MSI+JiMzNTgzNTsmIzIwODg5OzwvdGV4dD48L2c+PCEtLWxpbmsgY2F0X3NlcnZpY2UgdG8gY2FjaGUtLT48ZyBpZD0ibGlua19jYXRfc2VydmljZV9jYWNoZSI+PHBhdGggZD0iTTEyODkuNzgsNjgzLjIxNDQgQzEyNjkuOTgsNzA2LjQ5NDQgMTI1MS43ODMyLDcyNy45MDA2IDEyMzIuMzczMiw3NTAuNzIwNiAiIGZpbGw9Im5vbmUiIGlkPSJjYXRfc2VydmljZS10by1jYWNoZSIgc3R5bGU9InN0cm9rZTojNjY2NjY2O3N0cm9rZS13aWR0aDoxLjA7Ii8+PHBvbHlnb24gZmlsbD0iIzY2NjY2NiIgcG9pbnRzPSIxMjI3LjE5LDc1Ni44MTQ0LDEyMzQuNjU4NCw3NTIuNjY0MywxMjMwLjA4OCw3NDguNzc2OSwxMjI3LjE5LDc1Ni44MTQ0IiBzdHlsZT0ic3Ryb2tlOiM2NjY2NjY7c3Ryb2tlLXdpZHRoOjEuMDsiLz48dGV4dCBmaWxsPSIjNjY2NjY2IiBmb250LWZhbWlseT0ic2Fucy1zZXJpZiIgZm9udC1zaXplPSIxMiIgZm9udC13ZWlnaHQ9ImJvbGQiIGxlbmd0aEFkanVzdD0ic3BhY2luZyIgdGV4dExlbmd0aD0iMjQiIHg9IjEyNjQuNSIgeT0iNzI1LjMyODEiPiYjMzU4MzU7JiMyMDg4OTs8L3RleHQ+PC9nPjwhLS1saW5rIGNhdF9zZXJ2aWNlIHRvIHN0b3JhZ2UtLT48ZyBpZD0ibGlua19jYXRfc2VydmljZV9zdG9yYWdlIj48cGF0aCBkPSJNMTM3NC45Myw2ODMuMjE0NCBDMTM5NC41OSw3MDYuNDk0NCAxNDEyLjY0Nyw3MjcuODgzNCAxNDMxLjkyNyw3NTAuNzAzNCAiIGZpbGw9Im5vbmUiIGlkPSJjYXRfc2VydmljZS10by1zdG9yYWdlIiBzdHlsZT0ic3Ryb2tlOiM2NjY2NjY7c3Ryb2tlLXdpZHRoOjEuMDsiLz48cG9seWdvbiBmaWxsPSIjNjY2NjY2IiBwb2ludHM9IjE0MzcuMDksNzU2LjgxNDQsMTQzNC4yMTg2LDc0OC43NjczLDE0MjkuNjM1NCw3NTIuNjM5NSwxNDM3LjA5LDc1Ni44MTQ0IiBzdHlsZT0ic3Ryb2tlOiM2NjY2NjY7c3Ryb2tlLXdpZHRoOjEuMDsiLz48dGV4dCBmaWxsPSIjNjY2NjY2IiBmb250LWZhbWlseT0ic2Fucy1zZXJpZiIgZm9udC1zaXplPSIxMiIgZm9udC13ZWlnaHQ9ImJvbGQiIGxlbmd0aEFkanVzdD0ic3BhY2luZyIgdGV4dExlbmd0aD0iNzkiIHg9IjE0MDkuNSIgeT0iNzI1LjMyODEiPiYjMTk5Nzg7JiMyMDI1NjsvJiMxOTk3OTsmIzM2NzMzOyYjMjU5OTE7JiMyMDIxNDs8L3RleHQ+PC9nPjwhLS1saW5rIG5vdGljZV9zZXJ2aWNlIHRvIHN0b3JhZ2UtLT48ZyBpZD0ibGlua19ub3RpY2Vfc2VydmljZV9zdG9yYWdlIj48cGF0aCBkPSJNMTUyMC4yMyw2ODMuMjE0NCBDMTUxMS43Nyw3MDYuNDk0NCAxNTA0LjUwNDUsNzI2LjQ3NjIgMTQ5Ni4yMDQ1LDc0OS4yOTYyICIgZmlsbD0ibm9uZSIgaWQ9Im5vdGljZV9zZXJ2aWNlLXRvLXN0b3JhZ2UiIHN0eWxlPSJzdHJva2U6IzY2NjY2NjtzdHJva2Utd2lkdGg6MS4wOyIvPjxwb2x5Z29uIGZpbGw9IiM2NjY2NjYiIHBvaW50cz0iMTQ5My40Nyw3NTYuODE0NCwxNDk5LjAyMzgsNzUwLjMyMTYsMTQ5My4zODUyLDc0OC4yNzA4LDE0OTMuNDcsNzU2LjgxNDQiIHN0eWxlPSJzdHJva2U6IzY2NjY2NjtzdHJva2Utd2lkdGg6MS4wOyIvPjx0ZXh0IGZpbGw9IiM2NjY2NjYiIGZvbnQtZmFtaWx5PSJzYW5zLXNlcmlmIiBmb250LXNpemU9IjEyIiBmb250LXdlaWdodD0iYm9sZCIgbGVuZ3RoQWRqdXN0PSJzcGFjaW5nIiB0ZXh0TGVuZ3RoPSI3OSIgeD0iMTUwOS41IiB5PSI3MjUuMzI4MSI+JiMxOTk3ODsmIzIwMjU2Oy8mIzE5OTc5OyYjMzY3MzM7JiMyNTk5MTsmIzIwMjE0OzwvdGV4dD48L2c+PCEtLVNSQz1bWlBMOUp6ajA1Q1ZsLUhHazl3ZU1TY1hGbEhMUUxRcjBlZ0dqbnNYWWt5NkxPcVZFNjllUi1yUU0xMFlCQTNqak1LZzJuMVBZR1p2Q0ZNRnBCSmhaV00zN1ppV2JTY1AtX19UX3h5cVItdWNheUI4a1lCZWNTeHFHOWJFbG1jNER6QlY2OVRZaG5fSUtnRjZnMGFLNWpsOWc4Zm9LV0dCclhEb0lXZThpblNCakJya3d3REJkcGV2bTBnSVdnOTZiUTNqSDA0YUhqVE9hT0tDWEE0NVB2RjN2ODN1X2pBUUZTMndCZld4R3JJY1FFcTZQTVY5aHZSVWpwOVhyUWJaNjlqd3VtMWlaUUVxYzVFZUlqUElnRDBDWDhJZEZrSVA2ZVVuQTRfZDN2NnA5QjlOZXdqREc5NHJJSTRKVlZlVkROcEtkUk82WWFwRk1LTzZBbGtYWXd4U0tWUkJGRGtzcHRNZjRBcFR6a3h3M3ZnVkRxZnZQY2xVNjRjOTRXN0NkVTJRRklXakt0UGNFVkVubWlaWFVHS0Z4QjFUNlVBS3l1N2o1Y2xocjBhNmZlYmlLOTJTM2pjR0Q3cmozTHE3STU1R3I0QVRZbDNIazZYVkNZWWZWenFJdW8wa05fVGdEREpiRWFoVl9aRHRrUDRjT0tGSzRjYTVJWWlPMTVGajFjYWd4dGRETUVPajZKd2F5YWpHYTlTd3Jvd2VrU0V5T3ZBSGNSOWg1MFRPU1phaG14MnlxanFpMkwtRS1ZSkszN1ZQNm9OcHFJSnBEcWl4bHNPTDFGM2sxcnVWbnBuYXFqVXNvWThZeWhhYW1wSnRaRmxIeVFkOFZmaExnZTdCa3R5MFdxVHNrUGpYd1pIS1RHdlVMalJZRjlvdno5Y3NnMmViMVB4ZURtQmlVRXcxUHNTUTNYUzMwRjgya2sweUotZFplQWtrRUpnZjAtTXN5TFFvbndMRGJkS29aZm1YS01TT1o1TmpXajA2cEFjaWpkamc1SXM5WjZXT0gxVE80MTNLOTlMTG5VVHRrWkE1SGVtNFoxWjhOTWlkYTVWNm9Bc2tlekRrLXRCSUJYcExVMkpCREY5M1RQS3FScmo4b2stQURMRVIyTUlVZk9WdzRaNEhXU09BZ1c5aFl5NHA2Rmp6Z3ZDV1NhMEtkQmpSYVdOcS00a1lZZzkzNFRiU3ItWFRiZm5nZm5tN0hOMU9MWHdkN1ZWSEdqb1pWbHlYU2hvUXBOMjRwSWxSZnppRXd6ekJROXlDNGVYVW42aVl6TnRpRjdWZWtmMFVpa0tOckdVLWpnQ3k1Wk5MekVjMGt3eUYtbVFoRjFpbjRWVFh0ajVNS2lQdmNFY3ota3MyV2lUTXhNRHVVLWxTemhWRGwxdEpDM19hUnZNVHlfVjRaX2hSdWNUZmtVOGMwWWt5X1FGTUJ6WDUtdkU3SlBYUWRwRWtqaTVkeU9QVkJ4M2pOOXhEN0RGeTFdLS0+PC9nPjwvc3ZnPg==;clipPath=inset(0% 0% 0% 0%);" vertex="1" parent="1">
            <mxGeometry x="67" y="11956" width="1641" height="858.79" as="geometry" />
          </mxCell>
        </UserObject>
      </root>
    </mxGraphModel>
  </diagram>
</mxfile>
